<svg width="1440" height="1024" viewBox="0 0 1440 1024" fill="none" xmlns="http://www.w3.org/2000/svg">
<g clip-path="url(#clip0_89_3350)">
<rect width="1440" height="1024" fill="#151515"/>
<g clip-path="url(#clip1_89_3350)">
<mask id="mask0_89_3350" style="mask-type:luminance" maskUnits="userSpaceOnUse" x="-1489" y="-322" width="4382" height="1834">
<path d="M2892.63 -321.666H-1488.83V1511.26H2892.63V-321.666Z" fill="white"/>
</mask>
<g mask="url(#mask0_89_3350)">
<path fill-rule="evenodd" clip-rule="evenodd" d="M271.277 -314.54C272.274 -312.973 272.246 -310.474 271.215 -308.958L-961.067 1502.19C-962.098 1503.71 -963.743 1503.67 -964.74 1502.1C-965.737 1500.53 -965.709 1498.03 -964.678 1496.52L267.604 -314.634C268.636 -316.15 270.28 -316.108 271.277 -314.54Z" fill="black"/>
<path fill-rule="evenodd" clip-rule="evenodd" d="M246.675 -314.739C247.744 -313.058 247.715 -310.378 246.609 -308.752L-985.674 1502.4C-986.78 1504.02 -988.543 1503.98 -989.613 1502.3C-990.682 1500.62 -990.652 1497.94 -989.546 1496.31L242.736 -314.84C243.842 -316.465 245.605 -316.42 246.675 -314.739Z" fill="black"/>
<path fill-rule="evenodd" clip-rule="evenodd" d="M222.066 -314.931C223.205 -313.141 223.174 -310.285 221.996 -308.554L-1010.29 1502.6C-1011.46 1504.33 -1013.34 1504.28 -1014.48 1502.49C-1015.62 1500.7 -1015.59 1497.84 -1014.41 1496.11L217.871 -315.039C219.049 -316.77 220.927 -316.722 222.066 -314.931Z" fill="black"/>
<path fill-rule="evenodd" clip-rule="evenodd" d="M197.477 -315.13C198.689 -313.226 198.655 -310.189 197.402 -308.348L-1034.89 1502.8C-1036.15 1504.64 -1038.14 1504.59 -1039.36 1502.69C-1040.57 1500.78 -1040.53 1497.75 -1039.28 1495.91L193.015 -315.244C194.268 -317.086 196.266 -317.035 197.477 -315.13Z" fill="black"/>
<path fill-rule="evenodd" clip-rule="evenodd" d="M172.87 -315.322C174.152 -313.308 174.116 -310.097 172.791 -308.149L-1059.5 1503C-1060.83 1504.95 -1062.94 1504.89 -1064.22 1502.88C-1065.5 1500.87 -1065.47 1497.65 -1064.14 1495.71L168.151 -315.443C169.476 -317.39 171.589 -317.336 172.87 -315.322Z" fill="black"/>
<path fill-rule="evenodd" clip-rule="evenodd" d="M148.268 -315.521C149.622 -313.394 149.584 -310.001 148.184 -307.944L-1084.11 1503.21C-1085.51 1505.26 -1087.74 1505.21 -1089.1 1503.08C-1090.45 1500.95 -1090.41 1497.56 -1089.01 1495.5L143.283 -315.649C144.683 -317.706 146.915 -317.649 148.268 -315.521Z" fill="black"/>
<path fill-rule="evenodd" clip-rule="evenodd" d="M123.661 -315.713C125.084 -313.476 125.045 -309.908 123.573 -307.745L-1108.72 1503.41C-1110.19 1505.57 -1112.54 1505.51 -1113.96 1503.27C-1115.39 1501.03 -1115.35 1497.47 -1113.88 1495.3L118.419 -315.848C119.891 -318.011 122.238 -317.951 123.661 -315.713Z" fill="black"/>
<path fill-rule="evenodd" clip-rule="evenodd" d="M99.0576 -315.912C100.553 -313.561 100.512 -309.812 98.9649 -307.539L-1133.33 1503.61C-1134.88 1505.88 -1137.34 1505.82 -1138.84 1503.47C-1140.33 1501.12 -1140.29 1497.37 -1138.75 1495.1L93.549 -316.053C95.0957 -318.327 97.562 -318.263 99.0576 -315.912Z" fill="black"/>
<path fill-rule="evenodd" clip-rule="evenodd" d="M74.4554 -316.111C76.0233 -313.646 75.9798 -309.716 74.3583 -307.333L-1157.94 1503.82C-1159.56 1506.2 -1162.14 1506.13 -1163.71 1503.67C-1165.28 1501.2 -1165.24 1497.27 -1163.61 1494.89L68.6805 -316.259C70.3021 -318.642 72.8876 -318.576 74.4554 -316.111Z" fill="black"/>
<path fill-rule="evenodd" clip-rule="evenodd" d="M49.8483 -316.303C51.486 -313.729 51.4406 -309.624 49.7469 -307.135L-1182.54 1504.02C-1184.23 1506.5 -1186.93 1506.44 -1188.57 1503.86C-1190.21 1501.29 -1190.16 1497.18 -1188.47 1494.69L43.8164 -316.458C45.5101 -318.947 48.2107 -318.878 49.8483 -316.303Z" fill="black"/>
<path fill-rule="evenodd" clip-rule="evenodd" d="M25.2457 -316.502C26.9556 -313.814 26.9082 -309.528 25.1397 -306.929L-1207.14 1504.22C-1208.91 1506.82 -1211.73 1506.75 -1213.44 1504.06C-1215.15 1501.37 -1215.1 1497.09 -1213.33 1494.49L18.9475 -316.663C20.7159 -319.263 23.5357 -319.191 25.2457 -316.502Z" fill="black"/>
<path fill-rule="evenodd" clip-rule="evenodd" d="M0.652064 -316.694C2.43181 -313.896 2.38244 -309.435 0.541857 -306.73L-1231.75 1504.42C-1233.59 1507.13 -1236.53 1507.05 -1238.31 1504.25C-1240.09 1501.45 -1240.04 1496.99 -1238.2 1494.29L-5.90312 -316.862C-4.06254 -319.567 -1.12761 -319.492 0.652064 -316.694Z" fill="black"/>
<path d="M1113.17 1496.51L2347.26 -311.796L1116.78 1502.2C1116.54 1502.59 1116.25 1502.9 1115.93 1503.11C1115.61 1503.32 1115.26 1503.44 1114.91 1503.44C1114.56 1503.44 1114.21 1503.34 1113.88 1503.13C1113.56 1502.93 1113.27 1502.62 1113.02 1502.24C1112.78 1501.85 1112.59 1501.4 1112.46 1500.9C1112.34 1500.4 1112.28 1499.87 1112.29 1499.34C1112.31 1498.8 1112.39 1498.28 1112.54 1497.8C1112.69 1497.32 1112.91 1496.88 1113.17 1496.53" fill="black"/>
<path d="M1088.3 1496.27L2322.48 -311.796L1092.17 1502.39C1091.91 1502.78 1091.6 1503.09 1091.26 1503.29C1090.92 1503.5 1090.55 1503.6 1090.18 1503.59C1089.82 1503.59 1089.45 1503.47 1089.12 1503.25C1088.78 1503.03 1088.47 1502.71 1088.22 1502.3C1087.96 1501.9 1087.76 1501.43 1087.63 1500.91C1087.49 1500.39 1087.42 1499.84 1087.43 1499.28C1087.43 1498.72 1087.51 1498.17 1087.66 1497.66C1087.8 1497.15 1088.01 1496.68 1088.28 1496.29" fill="black"/>
<path d="M1063.44 1496.1L2297.81 -311.796L1067.57 1502.59C1066.99 1503.36 1066.24 1503.77 1065.48 1503.72C1064.71 1503.68 1063.99 1503.19 1063.46 1502.35C1062.92 1501.51 1062.62 1500.39 1062.62 1499.23C1062.62 1498.06 1062.91 1496.94 1063.44 1496.1Z" fill="black"/>
<path d="M1038.57 1495.9L2273.06 -311.796L1042.96 1502.79C1042.66 1503.25 1042.31 1503.61 1041.92 1503.85C1041.53 1504.1 1041.12 1504.23 1040.69 1504.22C1040.27 1504.22 1039.86 1504.09 1039.47 1503.84C1039.08 1503.59 1038.73 1503.23 1038.44 1502.77C1038.15 1502.31 1037.92 1501.76 1037.76 1501.16C1037.61 1500.57 1037.54 1499.93 1037.55 1499.29C1037.56 1498.65 1037.66 1498.02 1037.83 1497.44C1038.01 1496.86 1038.26 1496.33 1038.57 1495.9Z" fill="black"/>
<path d="M1013.7 1495.7L2248.32 -311.796L1018.35 1502.99C1018.03 1503.45 1017.66 1503.81 1017.26 1504.06C1016.85 1504.31 1016.41 1504.43 1015.97 1504.42C1015.54 1504.41 1015.1 1504.27 1014.7 1504C1014.3 1503.74 1013.93 1503.36 1013.63 1502.88C1013.32 1502.4 1013.08 1501.83 1012.92 1501.21C1012.76 1500.6 1012.68 1499.93 1012.69 1499.27C1012.69 1498.6 1012.79 1497.94 1012.96 1497.33C1013.13 1496.72 1013.39 1496.17 1013.7 1495.7Z" fill="black"/>
<path d="M988.846 1495.48L2223.58 -311.796L993.741 1503.2C993.415 1503.74 993.019 1504.17 992.58 1504.46C992.141 1504.76 991.666 1504.91 991.186 1504.92C990.705 1504.93 990.229 1504.79 989.786 1504.5C989.343 1504.22 988.942 1503.8 988.609 1503.28C988.275 1502.75 988.016 1502.13 987.846 1501.45C987.677 1500.76 987.601 1500.03 987.623 1499.3C987.645 1498.57 987.765 1497.86 987.975 1497.2C988.186 1496.55 988.482 1495.96 988.846 1495.48Z" fill="black"/>
<path d="M963.978 1495.29L2198.84 -311.796L969.094 1503.4C968.744 1503.92 968.329 1504.33 967.875 1504.6C967.421 1504.88 966.935 1505.01 966.446 1505C965.957 1504.99 965.474 1504.84 965.025 1504.54C964.576 1504.25 964.169 1503.82 963.828 1503.29C963.487 1502.76 963.219 1502.13 963.038 1501.44C962.857 1500.75 962.767 1500.01 962.774 1499.27C962.78 1498.52 962.883 1497.79 963.076 1497.11C963.27 1496.42 963.549 1495.81 963.9 1495.29" fill="black"/>
<path d="M939.11 1495.09L2174.11 -311.796L944.525 1503.6C944.161 1504.17 943.726 1504.62 943.246 1504.93C942.765 1505.24 942.248 1505.39 941.727 1505.39C941.205 1505.39 940.688 1505.23 940.208 1504.92C939.728 1504.61 939.293 1504.16 938.93 1503.59C938.568 1503.02 938.284 1502.34 938.096 1501.6C937.908 1500.86 937.82 1500.07 937.836 1499.28C937.853 1498.49 937.975 1497.71 938.193 1496.99C938.412 1496.27 938.724 1495.62 939.11 1495.09Z" fill="black"/>
<path d="M914.242 1494.89L2149.37 -311.796L919.917 1503.79C919.533 1504.37 919.079 1504.82 918.58 1505.12C918.081 1505.43 917.547 1505.58 917.01 1505.57C916.472 1505.56 915.942 1505.38 915.448 1505.06C914.954 1504.74 914.508 1504.27 914.134 1503.68C913.76 1503.1 913.466 1502.4 913.269 1501.64C913.072 1500.88 912.975 1500.07 912.985 1499.25C912.995 1498.44 913.112 1497.63 913.327 1496.88C913.543 1496.13 913.854 1495.46 914.242 1494.89Z" fill="black"/>
<path d="M889.375 1494.68L2124.63 -311.796L895.348 1504.01C894.949 1504.63 894.472 1505.13 893.945 1505.47C893.418 1505.8 892.851 1505.97 892.28 1505.97C891.708 1505.97 891.142 1505.79 890.616 1505.45C890.09 1505.11 889.614 1504.62 889.217 1503.99C888.82 1503.37 888.509 1502.63 888.303 1501.82C888.097 1501 888.001 1500.14 888.019 1499.27C888.038 1498.4 888.17 1497.55 888.41 1496.76C888.65 1495.97 888.991 1495.26 889.414 1494.68" fill="black"/>
<path d="M864.507 1494.48L2099.89 -311.796L870.676 1504.17C870.256 1504.79 869.759 1505.29 869.214 1505.62C868.669 1505.95 868.086 1506.12 867.499 1506.1C866.912 1506.09 866.332 1505.9 865.793 1505.55C865.254 1505.2 864.766 1504.68 864.358 1504.04C863.949 1503.4 863.628 1502.64 863.414 1501.81C863.199 1500.98 863.094 1500.09 863.105 1499.2C863.117 1498.31 863.244 1497.43 863.481 1496.61C863.717 1495.79 864.057 1495.06 864.481 1494.44" fill="black"/>
<path d="M839.652 1494.3L2075.17 -311.796L846.093 1504.41C845.21 1505.72 844.021 1506.44 842.787 1506.41C841.554 1506.39 840.377 1505.62 839.516 1504.28C838.655 1502.94 838.18 1501.13 838.196 1499.25C838.212 1497.38 838.717 1495.59 839.6 1494.28" fill="black"/>
<path d="M814.837 1494.08L2050.43 -311.796L821.485 1504.62C821.03 1505.29 820.492 1505.82 819.903 1506.17C819.314 1506.52 818.685 1506.7 818.052 1506.68C817.419 1506.66 816.795 1506.46 816.214 1506.08C815.633 1505.69 815.108 1505.14 814.668 1504.45C814.228 1503.75 813.882 1502.94 813.65 1502.04C813.417 1501.15 813.303 1500.19 813.314 1499.23C813.325 1498.27 813.461 1497.32 813.713 1496.43C813.965 1495.55 814.329 1494.75 814.785 1494.08" fill="black"/>
<path d="M789.917 1493.87L2025.69 -311.796L796.877 1504.82C792.553 1511.22 785.047 1502.04 789.917 1493.87Z" fill="black"/>
<path d="M765.049 1493.67L2000.95 -311.796L772.269 1505.02C767.698 1511.71 760.023 1501.96 765.049 1493.67Z" fill="black"/>
<path d="M740.181 1493.47L1976.22 -311.796L747.661 1505.22C742.856 1512.2 735 1501.94 740.181 1493.47Z" fill="black"/>
<path d="M715.327 1493.25L1951.48 -311.796L723.028 1505.43C718.015 1512.68 709.951 1501.98 715.236 1493.25" fill="black"/>
<path d="M690.459 1493.06L1926.74 -311.796L698.445 1505.63C693.251 1513.15 684.94 1501.98 690.459 1493.06Z" fill="black"/>
<path d="M665.591 1492.86L1902 -311.796L673.837 1505.83C668.422 1513.62 659.904 1502.02 665.591 1492.86Z" fill="black"/>
<path d="M640.724 1492.66L1877.27 -311.796L649.242 1506.03C643.619 1514.08 634.88 1502.08 640.724 1492.66Z" fill="black"/>
<path d="M615.856 1492.45L1852.54 -311.796L624.634 1506.24C618.817 1514.55 609.843 1502.12 615.856 1492.43" fill="black"/>
<path d="M591.001 1492.33L1827.8 -311.796L600.026 1506.44C594.001 1515.01 584.82 1502.18 591.001 1492.25" fill="black"/>
<path fill-rule="evenodd" clip-rule="evenodd" d="M793.545 -318.656C796.038 -314.738 795.969 -308.49 793.391 -304.701L-438.904 1506.45C-441.482 1510.24 -445.593 1510.13 -448.085 1506.21C-450.578 1502.3 -450.509 1496.05 -447.931 1492.26L784.364 -318.891C786.942 -322.68 791.053 -322.575 793.545 -318.656Z" fill="black"/>
<path fill-rule="evenodd" clip-rule="evenodd" d="M818.106 -318.396C820.504 -314.626 820.438 -308.616 817.958 -304.971L-414.338 1506.18C-416.818 1509.82 -420.772 1509.72 -423.17 1505.95C-425.568 1502.18 -425.501 1496.17 -423.021 1492.53L809.274 -318.622C811.754 -322.267 815.708 -322.165 818.106 -318.396Z" fill="black"/>
<path fill-rule="evenodd" clip-rule="evenodd" d="M842.654 -318.135C844.958 -314.515 844.894 -308.741 842.512 -305.24L-389.77 1505.91C-392.152 1509.41 -395.951 1509.31 -398.254 1505.69C-400.557 1502.07 -400.493 1496.3 -398.111 1492.8L834.171 -318.352C836.553 -321.853 840.351 -321.756 842.654 -318.135Z" fill="black"/>
<path fill-rule="evenodd" clip-rule="evenodd" d="M867.215 -317.875C869.423 -314.403 869.362 -308.867 867.078 -305.51L-365.205 1505.64C-367.489 1509 -371.13 1508.9 -373.339 1505.43C-375.547 1501.96 -375.486 1496.42 -373.202 1493.07L859.08 -318.082C861.364 -321.439 865.006 -321.346 867.215 -317.875Z" fill="black"/>
<path fill-rule="evenodd" clip-rule="evenodd" d="M891.775 -317.614C893.888 -314.291 893.83 -308.992 891.644 -305.779L-340.638 1505.37C-342.824 1508.58 -346.31 1508.49 -348.424 1505.17C-350.538 1501.85 -350.479 1496.55 -348.293 1493.34L883.989 -317.813C886.175 -321.026 889.661 -320.937 891.775 -317.614Z" fill="black"/>
<path fill-rule="evenodd" clip-rule="evenodd" d="M916.336 -317.353C918.355 -314.179 918.299 -309.118 916.211 -306.049L-316.085 1505.1C-318.173 1508.17 -321.502 1508.08 -323.521 1504.91C-325.54 1501.74 -325.484 1496.68 -323.396 1493.61L908.899 -317.543C910.987 -320.612 914.317 -320.527 916.336 -317.353Z" fill="black"/>
<path fill-rule="evenodd" clip-rule="evenodd" d="M940.891 -317.086C942.813 -314.064 942.759 -309.247 940.772 -306.326L-291.524 1504.82C-293.511 1507.75 -296.68 1507.66 -298.602 1504.64C-300.524 1501.62 -300.471 1496.8 -298.483 1493.88L933.812 -317.267C935.8 -320.188 938.969 -320.107 940.891 -317.086Z" fill="black"/>
<path fill-rule="evenodd" clip-rule="evenodd" d="M965.452 -316.825C967.279 -313.953 967.228 -309.373 965.339 -306.596L-266.956 1504.55C-268.846 1507.33 -271.859 1507.25 -273.686 1504.38C-275.513 1501.51 -275.462 1496.93 -273.573 1494.15L958.722 -316.997C960.612 -319.774 963.625 -319.697 965.452 -316.825Z" fill="black"/>
<path fill-rule="evenodd" clip-rule="evenodd" d="M990.011 -316.564C991.743 -313.841 991.695 -309.498 989.904 -306.865L-242.392 1504.28C-244.183 1506.92 -247.04 1506.85 -248.773 1504.12C-250.505 1501.4 -250.457 1497.06 -248.665 1494.42L983.63 -316.727C985.422 -319.36 988.279 -319.287 990.011 -316.564Z" fill="black"/>
<path fill-rule="evenodd" clip-rule="evenodd" d="M1014.57 -316.303C1016.21 -313.729 1016.16 -309.624 1014.47 -307.135L-217.824 1504.02C-219.518 1506.5 -222.219 1506.44 -223.856 1503.86C-225.494 1501.29 -225.449 1497.18 -223.755 1494.69L1008.54 -316.458C1010.23 -318.947 1012.93 -318.878 1014.57 -316.303Z" fill="black"/>
<path fill-rule="evenodd" clip-rule="evenodd" d="M1039.13 -316.043C1040.68 -313.617 1040.63 -309.75 1039.04 -307.404L-193.258 1503.75C-194.853 1506.09 -197.398 1506.03 -198.941 1503.6C-200.484 1501.17 -200.441 1497.31 -198.845 1494.96L1033.45 -316.188C1035.05 -318.533 1037.59 -318.468 1039.13 -316.043Z" fill="black"/>
<path fill-rule="evenodd" clip-rule="evenodd" d="M1063.68 -315.782C1065.13 -313.505 1065.09 -309.875 1063.59 -307.674L-168.692 1503.48C-170.19 1505.68 -172.578 1505.62 -174.026 1503.34C-175.474 1501.06 -175.434 1497.43 -173.936 1495.23L1058.35 -315.918C1059.84 -318.12 1062.23 -318.059 1063.68 -315.782Z" fill="black"/>
<path fill-rule="evenodd" clip-rule="evenodd" d="M1088.24 -315.521C1089.59 -313.394 1089.56 -310.001 1088.16 -307.944L-144.125 1503.21C-145.525 1505.26 -147.757 1505.21 -149.11 1503.08C-150.464 1500.95 -150.426 1497.56 -149.026 1495.5L1083.26 -315.649C1084.66 -317.706 1086.89 -317.649 1088.24 -315.521Z" fill="black"/>
<path fill-rule="evenodd" clip-rule="evenodd" d="M1112.8 -315.261C1114.06 -313.282 1114.02 -310.127 1112.72 -308.213L-119.573 1502.94C-120.875 1504.85 -122.95 1504.8 -124.209 1502.82C-125.468 1500.84 -125.433 1497.68 -124.131 1495.77L1108.16 -315.379C1109.47 -317.293 1111.54 -317.24 1112.8 -315.261Z" fill="black"/>
<path fill-rule="evenodd" clip-rule="evenodd" d="M1137.36 -315C1138.53 -313.17 1138.49 -310.252 1137.29 -308.483L-95.0056 1502.67C-96.2095 1504.44 -98.1291 1504.39 -99.2932 1502.56C-100.457 1500.73 -100.425 1497.81 -99.221 1496.04L1133.07 -315.11C1134.28 -316.879 1136.2 -316.83 1137.36 -315Z" fill="black"/>
<path fill-rule="evenodd" clip-rule="evenodd" d="M1161.92 -314.739C1162.99 -313.058 1162.96 -310.378 1161.86 -308.752L-70.4392 1502.4C-71.5452 1504.02 -73.3086 1503.98 -74.3779 1502.3C-75.4472 1500.62 -75.4176 1497.94 -74.3116 1496.31L1157.98 -314.84C1159.09 -316.465 1160.85 -316.42 1161.92 -314.739Z" fill="black"/>
<path fill-rule="evenodd" clip-rule="evenodd" d="M1186.48 -314.472C1187.45 -312.944 1187.42 -310.507 1186.42 -309.029L-45.8775 1502.12C-46.8829 1503.6 -48.486 1503.56 -49.4581 1502.03C-50.4302 1500.5 -50.4033 1498.06 -49.3979 1496.59L1182.9 -314.563C1183.9 -316.041 1185.51 -316 1186.48 -314.472Z" fill="black"/>
<path fill-rule="evenodd" clip-rule="evenodd" d="M1211.04 -314.211C1211.92 -312.832 1211.89 -310.632 1210.98 -309.299L-21.3114 1501.85C-22.2188 1503.18 -23.6657 1503.15 -24.5431 1501.77C-25.4205 1500.39 -25.3962 1498.19 -24.4887 1496.86L1207.81 -314.294C1208.71 -315.627 1210.16 -315.59 1211.04 -314.211Z" fill="black"/>
<path fill-rule="evenodd" clip-rule="evenodd" d="M1235.6 -313.95C1236.38 -312.72 1236.36 -310.758 1235.55 -309.568L3.25476 1501.58C2.4453 1502.77 1.15461 1502.74 0.371925 1501.51C-0.410756 1500.28 -0.389044 1498.32 0.420422 1497.13L1232.72 -314.024C1233.53 -315.214 1234.82 -315.181 1235.6 -313.95Z" fill="black"/>
<path fill-rule="evenodd" clip-rule="evenodd" d="M1260.15 -313.69C1260.83 -312.608 1260.82 -310.884 1260.1 -309.838L27.8219 1501.31C27.1104 1502.36 25.9759 1502.33 25.2879 1501.25C24.6 1500.17 24.619 1498.44 25.3305 1497.4L1257.61 -313.754C1258.32 -314.8 1259.46 -314.771 1260.15 -313.69Z" fill="black"/>
<path fill-rule="evenodd" clip-rule="evenodd" d="M1284.71 -313.429C1285.3 -312.496 1285.28 -311.009 1284.67 -310.107L52.3878 1501.04C51.7742 1501.94 50.7959 1501.92 50.2027 1500.99C49.6095 1500.05 49.6259 1498.57 50.2394 1497.67L1282.52 -313.485C1283.14 -314.386 1284.11 -314.361 1284.71 -313.429Z" fill="black"/>
<path fill-rule="evenodd" clip-rule="evenodd" d="M1309.27 -313.168C1309.77 -312.385 1309.75 -311.135 1309.24 -310.377L76.9542 1500.77C76.4386 1501.53 75.6165 1501.51 75.118 1500.73C74.6194 1499.94 74.6333 1498.69 75.1488 1497.93L1307.43 -313.215C1307.95 -313.973 1308.77 -313.952 1309.27 -313.168Z" fill="black"/>
<path fill-rule="evenodd" clip-rule="evenodd" d="M793.545 -318.656C796.038 -314.738 795.969 -308.49 793.391 -304.701L-438.904 1506.45C-441.482 1510.24 -445.593 1510.13 -448.085 1506.21C-450.578 1502.3 -450.509 1496.05 -447.931 1492.26L784.364 -318.891C786.942 -322.68 791.053 -322.575 793.545 -318.656Z" fill="black"/>
<path d="M-472.532 1492.45L759.958 -318.369C761.113 -319.986 762.639 -320.853 764.208 -320.783C765.778 -320.713 767.267 -319.712 768.357 -317.995C769.448 -316.278 770.053 -313.981 770.044 -311.594C770.035 -309.207 769.412 -306.921 768.308 -305.223L-463.766 1506.24C-464.363 1507.12 -465.068 1507.8 -465.839 1508.27C-466.611 1508.73 -467.435 1508.95 -468.264 1508.93C-469.938 1508.88 -471.532 1507.83 -472.694 1506C-473.27 1505.09 -473.722 1504.02 -474.025 1502.84C-474.329 1501.67 -474.477 1500.42 -474.462 1499.16C-474.431 1496.61 -473.737 1494.19 -472.532 1492.43" fill="black"/>
<path d="M-497.139 1492.66L735.545 -317.856C736.063 -318.664 736.683 -319.306 737.367 -319.743C738.052 -320.181 738.787 -320.405 739.529 -320.402C740.271 -320.4 741.006 -320.171 741.689 -319.729C742.372 -319.287 742.99 -318.641 743.505 -317.829C744.021 -317.018 744.424 -316.057 744.691 -315.004C744.958 -313.951 745.083 -312.827 745.059 -311.699C745.035 -310.572 744.862 -309.463 744.55 -308.439C744.239 -307.414 743.795 -306.495 743.246 -305.736L-488.634 1506.03C-489.21 1506.88 -489.892 1507.55 -490.64 1508C-491.388 1508.46 -492.187 1508.68 -492.992 1508.66C-493.797 1508.64 -494.592 1508.38 -495.33 1507.9C-496.069 1507.41 -496.737 1506.71 -497.297 1505.83C-497.857 1504.95 -498.297 1503.91 -498.592 1502.77C-498.887 1501.64 -499.031 1500.42 -499.017 1499.2C-499.002 1497.97 -498.829 1496.77 -498.506 1495.65C-498.184 1494.52 -497.72 1493.51 -497.139 1492.66Z" fill="black"/>
<path d="M-521.747 1492.86L711.133 -317.363C711.608 -318.106 712.177 -318.696 712.806 -319.099C713.435 -319.501 714.11 -319.707 714.792 -319.705C715.474 -319.703 716.149 -319.492 716.777 -319.086C717.404 -318.679 717.972 -318.085 718.445 -317.339C718.919 -316.593 719.289 -315.71 719.533 -314.742C719.778 -313.774 719.892 -312.741 719.869 -311.705C719.846 -310.668 719.686 -309.65 719.399 -308.709C719.111 -307.769 718.703 -306.926 718.197 -306.23L-513.501 1505.79C-514.057 1506.65 -514.719 1507.33 -515.45 1507.79C-516.181 1508.25 -516.966 1508.49 -517.758 1508.48C-518.549 1508.48 -519.332 1508.23 -520.061 1507.76C-520.789 1507.28 -521.448 1506.6 -521.998 1505.73C-522.548 1504.86 -522.979 1503.84 -523.265 1502.72C-523.551 1501.6 -523.686 1500.4 -523.663 1499.19C-523.639 1497.99 -523.458 1496.81 -523.129 1495.71C-522.8 1494.62 -522.33 1493.63 -521.747 1492.82" fill="black"/>
<path d="M-546.356 1493.06L686.692 -316.889C687.582 -318.19 688.774 -318.902 690.009 -318.869C691.243 -318.836 692.418 -318.06 693.276 -316.711C703.392 -302.894 -538.214 1495.62 -538.37 1505.65C-539.468 1507.26 -540.943 1508.14 -542.468 1508.1C-543.994 1508.06 -545.446 1507.09 -546.505 1505.42C-547.564 1503.75 -548.143 1501.51 -548.115 1499.19C-548.087 1496.87 -547.455 1494.67 -546.356 1493.06Z" fill="black"/>
<path d="M-570.963 1493.25L662.241 -316.435C663.053 -317.617 664.139 -318.264 665.262 -318.234C666.386 -318.205 667.457 -317.501 668.241 -316.277C677.512 -303.901 -563.146 1496.39 -563.224 1505.45C-564.288 1507.02 -565.719 1507.89 -567.202 1507.85C-568.685 1507.82 -570.099 1506.89 -571.132 1505.28C-572.165 1503.66 -572.733 1501.48 -572.711 1499.23C-572.689 1496.97 -572.079 1494.82 -571.015 1493.25" fill="black"/>
<path d="M-595.571 1493.47C-590.13 1493.47 636.049 -328.949 643.269 -315.843C643.623 -315.295 643.901 -314.647 644.089 -313.934C644.277 -313.222 644.37 -312.46 644.363 -311.693C644.355 -310.925 644.248 -310.168 644.047 -309.464C643.846 -308.76 643.555 -308.124 643.191 -307.592L-588.092 1505.22C-588.599 1505.96 -589.198 1506.55 -589.855 1506.94C-590.511 1507.34 -591.213 1507.53 -591.919 1507.52C-592.625 1507.5 -593.322 1507.27 -593.97 1506.84C-594.617 1506.42 -595.204 1505.8 -595.695 1505.03C-596.186 1504.26 -596.572 1503.35 -596.832 1502.35C-597.092 1501.35 -597.219 1500.28 -597.208 1499.21C-597.196 1498.14 -597.046 1497.08 -596.765 1496.09C-596.484 1495.11 -596.079 1494.22 -595.571 1493.47Z" fill="black"/>
<path d="M-620.179 1493.67C-615.271 1493.77 611.739 -327.272 618.193 -315.448C618.517 -314.962 618.774 -314.382 618.95 -313.743C619.125 -313.105 619.216 -312.419 619.216 -311.727C619.216 -311.035 619.125 -310.35 618.95 -309.711C618.774 -309.072 618.517 -308.493 618.193 -308.007L-612.855 1505.02C-613.343 1505.76 -613.922 1506.35 -614.561 1506.75C-615.2 1507.15 -615.884 1507.35 -616.575 1507.35C-617.265 1507.34 -617.948 1507.12 -618.583 1506.71C-619.217 1506.29 -619.792 1505.69 -620.272 1504.94C-620.752 1504.18 -621.128 1503.29 -621.378 1502.31C-621.629 1501.33 -621.748 1500.29 -621.73 1499.24C-621.712 1498.19 -621.556 1497.16 -621.272 1496.2C-620.988 1495.24 -620.581 1494.38 -620.076 1493.67" fill="black"/>
<path d="M-644.762 1493.87L588.884 -315.191C589.176 -315.621 589.521 -315.959 589.9 -316.185C590.278 -316.412 590.682 -316.523 591.088 -316.512C591.495 -316.501 591.896 -316.368 592.269 -316.121C592.641 -315.874 592.978 -315.518 593.26 -315.073C600.013 -305.914 -637.685 1498.15 -637.788 1504.84C-638.746 1506.24 -640.031 1507.01 -641.36 1506.97C-642.69 1506.94 -643.956 1506.1 -644.879 1504.64C-645.802 1503.19 -646.306 1501.24 -646.282 1499.21C-646.258 1497.19 -645.706 1495.27 -644.749 1493.87" fill="black"/>
<path d="M-669.434 1494.08L564.329 -314.816C564.59 -315.198 564.897 -315.497 565.234 -315.698C565.571 -315.898 565.931 -315.996 566.293 -315.985C566.655 -315.974 567.012 -315.855 567.343 -315.634C567.674 -315.413 567.974 -315.095 568.225 -314.698C574.393 -306.802 -662.733 1498.86 -662.694 1504.62C-663.15 1505.29 -663.687 1505.82 -664.276 1506.17C-664.865 1506.52 -665.494 1506.7 -666.127 1506.68C-666.76 1506.66 -667.385 1506.46 -667.966 1506.08C-668.546 1505.69 -669.072 1505.14 -669.512 1504.45C-669.952 1503.75 -670.298 1502.94 -670.53 1502.04C-670.762 1501.15 -670.876 1500.19 -670.865 1499.23C-670.854 1498.27 -670.719 1497.32 -670.467 1496.43C-670.214 1495.55 -669.85 1494.75 -669.395 1494.08" fill="black"/>
<path d="M-694.004 1494.3L539.824 -314.461C540.287 -315.141 540.909 -315.514 541.554 -315.498C542.198 -315.481 542.811 -315.076 543.259 -314.372C543.706 -313.668 543.952 -312.722 543.941 -311.743C543.93 -310.764 543.663 -309.831 543.2 -309.151L-687.615 1504.41C-688.052 1505.06 -688.569 1505.57 -689.136 1505.91C-689.704 1506.25 -690.31 1506.43 -690.921 1506.41C-691.531 1506.4 -692.135 1506.21 -692.696 1505.84C-693.257 1505.47 -693.766 1504.94 -694.192 1504.28C-694.618 1503.61 -694.954 1502.83 -695.181 1501.97C-695.407 1501.1 -695.52 1500.18 -695.512 1499.25C-695.504 1498.33 -695.376 1497.41 -695.135 1496.56C-694.894 1495.7 -694.545 1494.93 -694.107 1494.28" fill="black"/>
<path d="M-718.611 1494.48L515.308 -314.106C515.711 -314.7 516.253 -315.026 516.814 -315.013C517.376 -315 517.91 -314.649 518.301 -314.036C518.692 -313.424 518.907 -312.601 518.898 -311.747C518.89 -310.894 518.659 -310.081 518.256 -309.487L-712.416 1504.17C-712.836 1504.79 -713.332 1505.29 -713.878 1505.62C-714.423 1505.95 -715.006 1506.12 -715.593 1506.1C-716.18 1506.09 -716.76 1505.9 -717.299 1505.55C-717.838 1505.2 -718.326 1504.68 -718.734 1504.04C-719.143 1503.4 -719.463 1502.64 -719.678 1501.81C-719.893 1500.98 -719.998 1500.09 -719.986 1499.2C-719.975 1498.31 -719.847 1497.43 -719.611 1496.61C-719.375 1495.79 -719.035 1495.06 -718.611 1494.44" fill="black"/>
<path d="M-743.219 1494.68L490.765 -313.77C491.109 -314.294 491.576 -314.588 492.063 -314.588C492.55 -314.588 493.017 -314.294 493.362 -313.77C493.706 -313.247 493.9 -312.537 493.9 -311.796C493.9 -311.056 493.706 -310.346 493.362 -309.823L-737.284 1504.01C-737.684 1504.63 -738.161 1505.13 -738.688 1505.47C-739.215 1505.8 -739.781 1505.97 -740.353 1505.97C-740.925 1505.97 -741.491 1505.79 -742.017 1505.45C-742.543 1505.11 -743.019 1504.62 -743.416 1503.99C-743.813 1503.37 -744.124 1502.63 -744.33 1501.81C-744.535 1501 -744.632 1500.14 -744.614 1499.27C-744.595 1498.4 -744.462 1497.55 -744.223 1496.76C-743.983 1495.97 -743.642 1495.26 -743.219 1494.68Z" fill="black"/>
<path d="M-767.827 1494.89L466.222 -313.494C466.363 -313.742 466.537 -313.943 466.733 -314.084C466.928 -314.225 467.141 -314.302 467.357 -314.311C467.574 -314.32 467.789 -314.26 467.989 -314.136C468.189 -314.011 468.371 -313.825 468.521 -313.588C468.671 -313.351 468.787 -313.07 468.862 -312.761C468.937 -312.452 468.968 -312.123 468.955 -311.795C468.941 -311.467 468.883 -311.147 468.784 -310.854C468.684 -310.562 468.546 -310.305 468.377 -310.099L-762.152 1503.89C-762.536 1504.47 -762.99 1504.92 -763.489 1505.22C-763.988 1505.53 -764.522 1505.68 -765.059 1505.67C-765.597 1505.66 -766.127 1505.48 -766.621 1505.16C-767.115 1504.84 -767.561 1504.37 -767.935 1503.78C-768.309 1503.19 -768.603 1502.5 -768.8 1501.74C-768.998 1500.98 -769.094 1500.17 -769.084 1499.35C-769.074 1498.54 -768.957 1497.73 -768.742 1496.98C-768.526 1496.23 -768.215 1495.56 -767.827 1494.99" fill="black"/>
<path d="M-792.436 1495.09L441.665 -313.217C441.919 -313.511 442.236 -313.651 442.554 -313.612C442.872 -313.573 443.17 -313.357 443.39 -313.005C443.61 -312.654 443.738 -312.191 443.747 -311.706C443.757 -311.22 443.649 -310.747 443.444 -310.375L-787.047 1503.62C-787.41 1504.19 -787.845 1504.64 -788.326 1504.95C-788.807 1505.26 -789.323 1505.41 -789.845 1505.41C-790.367 1505.41 -790.883 1505.25 -791.364 1504.94C-791.844 1504.63 -792.279 1504.18 -792.641 1503.61C-793.004 1503.04 -793.288 1502.36 -793.476 1501.62C-793.664 1500.88 -793.752 1500.09 -793.735 1499.3C-793.719 1498.51 -793.597 1497.73 -793.378 1497.01C-793.16 1496.29 -792.848 1495.64 -792.462 1495.11" fill="black"/>
<path d="M-817.043 1495.29L417.096 -312.961C417.304 -313.214 417.567 -313.34 417.833 -313.314C418.098 -313.288 418.348 -313.111 418.532 -312.818C418.717 -312.526 418.822 -312.139 418.828 -311.734C418.834 -311.329 418.739 -310.936 418.564 -310.631L-811.888 1503.36C-812.238 1503.88 -812.652 1504.29 -813.107 1504.56C-813.561 1504.84 -814.046 1504.97 -814.535 1504.96C-815.024 1504.95 -815.507 1504.8 -815.956 1504.5C-816.405 1504.21 -816.812 1503.78 -817.153 1503.25C-817.494 1502.72 -817.763 1502.09 -817.944 1501.4C-818.125 1500.71 -818.215 1499.97 -818.208 1499.23C-818.202 1498.48 -818.099 1497.75 -817.905 1497.07C-817.712 1496.39 -817.432 1495.77 -817.082 1495.25" fill="black"/>
<path d="M-841.65 1495.48L392.515 -312.704C392.674 -312.937 392.886 -313.065 393.107 -313.06C393.327 -313.054 393.537 -312.916 393.69 -312.675C393.844 -312.434 393.928 -312.111 393.924 -311.776C393.92 -311.441 393.829 -311.121 393.671 -310.889L-836.742 1503.2C-837.42 1504.15 -838.315 1504.66 -839.237 1504.62C-840.159 1504.58 -841.033 1503.99 -841.674 1502.99C-842.315 1501.98 -842.671 1500.63 -842.667 1499.23C-842.662 1497.83 -842.298 1496.48 -841.65 1495.48Z" fill="black"/>
<path d="M-866.259 1495.7L367.919 -312.487C367.977 -312.589 368.048 -312.672 368.128 -312.73C368.207 -312.788 368.294 -312.82 368.383 -312.824C368.471 -312.829 368.559 -312.805 368.641 -312.754C368.723 -312.704 368.797 -312.628 368.859 -312.532C368.921 -312.435 368.968 -312.32 368.999 -312.194C369.03 -312.068 369.043 -311.934 369.038 -311.8C369.032 -311.665 369.009 -311.534 368.968 -311.415C368.928 -311.295 368.871 -311.19 368.802 -311.105L-861.623 1502.99C-862.258 1503.92 -863.113 1504.44 -863.998 1504.42C-864.883 1504.4 -865.727 1503.84 -866.343 1502.88C-866.96 1501.91 -867.299 1500.61 -867.285 1499.27C-867.272 1497.92 -866.907 1496.64 -866.272 1495.7" fill="black"/>
<path d="M-890.867 1495.9L343.311 -312.29C343.351 -312.368 343.402 -312.431 343.46 -312.477C343.517 -312.522 343.581 -312.548 343.646 -312.553C343.711 -312.558 343.776 -312.542 343.836 -312.505C343.897 -312.469 343.951 -312.413 343.996 -312.342C344.041 -312.27 344.076 -312.185 344.097 -312.092C344.119 -311.999 344.127 -311.899 344.121 -311.801C344.115 -311.702 344.096 -311.607 344.063 -311.521C344.031 -311.435 343.987 -311.361 343.934 -311.303L-886.478 1502.79C-887.084 1503.64 -887.883 1504.09 -888.706 1504.05C-889.529 1504.02 -890.31 1503.5 -890.882 1502.6C-891.455 1501.7 -891.774 1500.49 -891.771 1499.24C-891.768 1497.99 -891.444 1496.79 -890.867 1495.9Z" fill="black"/>
<path d="M-915.474 1496.1L318.691 -312.112C318.718 -312.156 318.75 -312.192 318.786 -312.216C318.822 -312.241 318.861 -312.253 318.9 -312.254C318.939 -312.254 318.978 -312.242 319.015 -312.219C319.051 -312.195 319.084 -312.16 319.111 -312.117C319.138 -312.073 319.158 -312.021 319.171 -311.965C319.184 -311.908 319.19 -311.848 319.187 -311.789C319.184 -311.729 319.173 -311.671 319.155 -311.618C319.137 -311.565 319.111 -311.518 319.08 -311.48L-911.345 1502.51C-911.918 1503.28 -912.666 1503.69 -913.432 1503.64C-914.197 1503.6 -914.922 1503.11 -915.454 1502.27C-915.987 1501.43 -916.286 1500.31 -916.29 1499.15C-916.294 1497.98 -916.001 1496.86 -915.474 1496.02" fill="black"/>
<path d="M-940.084 1496.27C-939.954 1496.39 294.043 -312.487 294.237 -311.954C294.653 -311.796 -936.292 1502.2 -936.214 1502.39C-936.477 1502.78 -936.789 1503.09 -937.13 1503.29C-937.471 1503.5 -937.836 1503.6 -938.203 1503.59C-938.57 1503.59 -938.933 1503.47 -939.27 1503.25C-939.607 1503.03 -939.912 1502.71 -940.168 1502.3C-940.424 1501.9 -940.625 1501.43 -940.761 1500.91C-940.896 1500.39 -940.963 1499.84 -940.958 1499.28C-940.952 1498.72 -940.875 1498.17 -940.729 1497.66C-940.584 1497.15 -940.373 1496.68 -940.11 1496.29" fill="black"/>
<path d="M-964.678 1496.51L269.435 -311.796L-961.068 1502.2C-961.309 1502.59 -961.599 1502.9 -961.921 1503.11C-962.243 1503.32 -962.59 1503.44 -962.941 1503.44C-963.292 1503.44 -963.64 1503.34 -963.964 1503.13C-964.288 1502.93 -964.581 1502.62 -964.825 1502.24C-965.07 1501.85 -965.26 1501.4 -965.386 1500.9C-965.511 1500.4 -965.569 1499.87 -965.555 1499.34C-965.541 1498.8 -965.457 1498.28 -965.306 1497.8C-965.155 1497.32 -964.941 1496.88 -964.678 1496.53" fill="black"/>
<path d="M590.092 1490.83L1827.8 -311.796L600.923 1507.86C593.573 1518.24 582.743 1502.57 590.092 1490.83Z" fill="black"/>
<path d="M565.51 1491.1L1803.05 -311.796L576.016 1507.58C568.913 1517.63 558.394 1502.49 565.523 1491.1" fill="black"/>
<path d="M540.967 1491.38L1778.38 -311.796L551.226 1507.31C544.369 1517.02 534.176 1502.41 541.084 1491.38" fill="black"/>
<path d="M516.398 1491.64L1753.59 -311.796L526.202 1507.05C519.606 1516.41 509.711 1502.33 516.398 1491.64Z" fill="black"/>
<path d="M491.829 1491.91L1728.85 -311.796L501.296 1506.78C494.958 1515.8 485.375 1502.26 491.829 1491.91Z" fill="black"/>
<path d="M467.273 1492.19L1704.11 -311.796L476.376 1506.5C470.298 1515.16 461.04 1502.2 467.286 1492.19" fill="black"/>
<path d="M442.704 1492.45L1679.38 -311.796L451.47 1506.24C445.652 1514.55 436.692 1502.12 442.704 1492.43" fill="black"/>
<path d="M418.148 1492.72L1654.65 -311.796L426.563 1505.97C421.018 1513.86 412.356 1502.02 418.148 1492.72Z" fill="black"/>
<path d="M393.579 1493L1629.91 -311.796L401.656 1505.69C396.371 1513.31 388.008 1501.98 393.579 1493Z" fill="black"/>
<path d="M369.01 1493.25L1605.17 -311.796L376.723 1505.43C371.711 1512.68 363.633 1501.98 368.932 1493.25" fill="black"/>
<path d="M344.453 1493.53L1580.44 -311.796L351.842 1505.16C347.102 1512.05 339.311 1501.94 344.453 1493.53Z" fill="black"/>
<path d="M319.885 1493.81L1555.7 -311.796L326.936 1504.88C322.508 1511.39 314.963 1502 319.885 1493.81Z" fill="black"/>
<path d="M295.316 1494.08L1530.96 -311.796L302.029 1504.62C301.581 1505.34 301.042 1505.92 300.443 1506.32C299.845 1506.71 299.2 1506.92 298.547 1506.92C297.895 1506.93 297.248 1506.73 296.647 1506.35C296.045 1505.97 295.501 1505.4 295.048 1504.69C294.594 1503.98 294.24 1503.13 294.007 1502.2C293.773 1501.28 293.666 1500.29 293.691 1499.3C293.716 1498.31 293.873 1497.33 294.152 1496.44C294.431 1495.54 294.827 1494.74 295.316 1494.08Z" fill="black"/>
<path d="M270.734 1494.3L1506.22 -311.796L277.123 1504.35C276.689 1504.99 276.177 1505.49 275.615 1505.82C275.054 1506.16 274.454 1506.33 273.85 1506.31C273.247 1506.29 272.651 1506.1 272.098 1505.73C271.544 1505.37 271.043 1504.84 270.624 1504.18C270.204 1503.52 269.874 1502.74 269.653 1501.89C269.431 1501.03 269.322 1500.12 269.333 1499.21C269.343 1498.29 269.472 1497.38 269.713 1496.54C269.953 1495.7 270.3 1494.94 270.734 1494.3Z" fill="black"/>
<path d="M246.191 1494.62L1481.49 -311.796L252.203 1504.17C251.795 1504.77 251.313 1505.24 250.784 1505.56C250.256 1505.88 249.692 1506.03 249.124 1506.02C248.556 1506 247.995 1505.82 247.474 1505.47C246.953 1505.13 246.482 1504.63 246.087 1504.01C245.692 1503.39 245.382 1502.66 245.173 1501.86C244.965 1501.05 244.863 1500.19 244.872 1499.33C244.882 1498.47 245.003 1497.62 245.23 1496.82C245.456 1496.03 245.782 1495.32 246.191 1494.72" fill="black"/>
<path d="M221.621 1494.89L1456.75 -311.796L227.296 1503.79C226.912 1504.37 226.458 1504.82 225.959 1505.12C225.46 1505.43 224.927 1505.58 224.389 1505.57C223.852 1505.56 223.321 1505.38 222.827 1505.06C222.334 1504.74 221.887 1504.27 221.513 1503.68C221.139 1503.1 220.845 1502.4 220.648 1501.64C220.451 1500.88 220.354 1500.07 220.364 1499.25C220.375 1498.44 220.491 1497.63 220.706 1496.88C220.922 1496.13 221.233 1495.46 221.621 1494.89Z" fill="black"/>
<path d="M197.065 1495.15L1432.02 -311.796L202.389 1503.54C202.056 1504.24 201.625 1504.82 201.127 1505.24C200.629 1505.67 200.076 1505.92 199.508 1505.98C198.939 1506.04 198.368 1505.91 197.836 1505.6C197.304 1505.29 196.823 1504.81 196.427 1504.18C196.032 1503.56 195.731 1502.81 195.546 1501.99C195.361 1501.17 195.297 1500.3 195.358 1499.44C195.419 1498.58 195.603 1497.75 195.898 1497.01C196.193 1496.26 196.591 1495.63 197.065 1495.15Z" fill="black"/>
<path d="M172.496 1495.43L1407.28 -311.796L177.534 1503.26C177.193 1503.76 176.791 1504.15 176.351 1504.41C175.91 1504.67 175.44 1504.8 174.968 1504.79C174.495 1504.77 174.029 1504.61 173.596 1504.33C173.163 1504.04 172.772 1503.62 172.444 1503.1C172.117 1502.59 171.86 1501.97 171.688 1501.3C171.516 1500.64 171.432 1499.92 171.442 1499.2C171.451 1498.48 171.554 1497.78 171.744 1497.12C171.934 1496.46 172.207 1495.86 172.548 1495.37" fill="black"/>
<path d="M147.928 1495.7L1382.55 -311.796L152.564 1502.99C152.249 1503.45 151.878 1503.81 151.47 1504.06C151.063 1504.31 150.627 1504.43 150.189 1504.42C149.751 1504.41 149.318 1504.27 148.916 1504C148.513 1503.74 148.149 1503.36 147.844 1502.88C147.538 1502.4 147.298 1501.83 147.137 1501.21C146.975 1500.6 146.895 1499.93 146.902 1499.27C146.908 1498.6 147.001 1497.94 147.175 1497.33C147.349 1496.72 147.601 1496.17 147.915 1495.7" fill="black"/>
<path d="M123.371 1495.96L1357.81 -311.796L127.669 1502.73C127.376 1503.16 127.031 1503.5 126.653 1503.72C126.275 1503.95 125.871 1504.06 125.465 1504.05C125.058 1504.04 124.657 1503.9 124.285 1503.66C123.912 1503.41 123.575 1503.06 123.293 1502.61C123.01 1502.17 122.789 1501.64 122.64 1501.07C122.491 1500.49 122.418 1499.88 122.425 1499.26C122.433 1498.64 122.52 1498.03 122.682 1497.47C122.844 1496.9 123.078 1496.39 123.371 1495.96Z" fill="black"/>
<path d="M98.8021 1496.27L1333.07 -311.796L102.763 1502.45C102.22 1503.25 101.491 1503.69 100.736 1503.67C99.9815 1503.65 99.2624 1503.18 98.7372 1502.35C98.212 1501.53 97.9237 1500.42 97.9359 1499.27C97.9481 1498.13 98.2596 1497.03 98.8021 1496.24" fill="black"/>
<path d="M74.2471 1496.51L1308.3 -311.796L77.8572 1502.2C77.6165 1502.59 77.3265 1502.9 77.0047 1503.11C76.6828 1503.32 76.3357 1503.44 75.9844 1503.44C75.6332 1503.44 75.2851 1503.34 74.9612 1503.13C74.6373 1502.93 74.3442 1502.62 74.0998 1502.24C73.8554 1501.85 73.6647 1501.4 73.5393 1500.9C73.4139 1500.4 73.3564 1499.87 73.3702 1499.34C73.3839 1498.8 73.4688 1498.28 73.6195 1497.8C73.7703 1497.32 73.9837 1496.88 74.2471 1496.53" fill="black"/>
<path d="M1433.84 1493.25L2670.01 -311.796L1441.55 1505.43C1436.54 1512.68 1428.46 1501.98 1433.76 1493.25" fill="black"/>
<path d="M1409.29 1493.53L2645.27 -311.796L1416.67 1505.16C1411.93 1512.05 1404.14 1501.94 1409.29 1493.53Z" fill="black"/>
<path d="M1384.72 1493.81L2620.53 -311.796L1391.77 1504.88C1387.34 1511.39 1379.79 1502 1384.72 1493.81Z" fill="black"/>
<path d="M1360.15 1494.08L2595.79 -311.796L1366.86 1504.62C1366.41 1505.34 1365.87 1505.92 1365.27 1506.32C1364.68 1506.71 1364.03 1506.92 1363.38 1506.92C1362.73 1506.93 1362.08 1506.73 1361.48 1506.35C1360.88 1505.97 1360.33 1505.4 1359.88 1504.69C1359.43 1503.98 1359.07 1503.13 1358.84 1502.2C1358.61 1501.28 1358.5 1500.29 1358.52 1499.3C1358.55 1498.31 1358.7 1497.33 1358.98 1496.44C1359.26 1495.54 1359.66 1494.74 1360.15 1494.08Z" fill="black"/>
<path d="M1335.57 1494.3L2571.05 -311.796L1341.95 1504.35C1341.52 1504.99 1341.01 1505.49 1340.45 1505.82C1339.88 1506.16 1339.29 1506.33 1338.68 1506.31C1338.08 1506.29 1337.48 1506.1 1336.93 1505.73C1336.37 1505.37 1335.87 1504.84 1335.45 1504.18C1335.04 1503.52 1334.71 1502.74 1334.48 1501.89C1334.26 1501.03 1334.15 1500.12 1334.16 1499.21C1334.17 1498.29 1334.3 1497.38 1334.54 1496.54C1334.78 1495.7 1335.13 1494.94 1335.57 1494.3Z" fill="black"/>
<path d="M1311.02 1494.62L2546.32 -311.796L1317.03 1504.17C1316.63 1504.77 1316.14 1505.24 1315.62 1505.56C1315.09 1505.88 1314.52 1506.03 1313.95 1506.02C1313.39 1506 1312.83 1505.82 1312.3 1505.47C1311.78 1505.13 1311.31 1504.63 1310.92 1504.01C1310.52 1503.39 1310.21 1502.66 1310 1501.86C1309.8 1501.05 1309.69 1500.19 1309.7 1499.33C1309.71 1498.47 1309.83 1497.62 1310.06 1496.82C1310.29 1496.03 1310.61 1495.32 1311.02 1494.72" fill="black"/>
<path d="M1286.45 1494.89L2521.58 -311.796L1292.13 1503.79C1291.74 1504.37 1291.29 1504.82 1290.79 1505.12C1290.29 1505.43 1289.76 1505.58 1289.22 1505.57C1288.68 1505.56 1288.15 1505.38 1287.66 1505.06C1287.17 1504.74 1286.72 1504.27 1286.34 1503.68C1285.97 1503.1 1285.68 1502.4 1285.48 1501.64C1285.28 1500.88 1285.19 1500.07 1285.2 1499.25C1285.21 1498.44 1285.32 1497.63 1285.54 1496.88C1285.75 1496.13 1286.06 1495.46 1286.45 1494.89Z" fill="black"/>
<path d="M1261.9 1495.15L2496.85 -311.796L1267.22 1503.54C1266.89 1504.24 1266.46 1504.82 1265.96 1505.24C1265.46 1505.67 1264.91 1505.92 1264.34 1505.98C1263.77 1506.04 1263.2 1505.91 1262.67 1505.6C1262.14 1505.29 1261.65 1504.81 1261.26 1504.18C1260.86 1503.56 1260.56 1502.81 1260.38 1501.99C1260.19 1501.17 1260.13 1500.3 1260.19 1499.44C1260.25 1498.58 1260.43 1497.75 1260.73 1497.01C1261.02 1496.26 1261.42 1495.63 1261.9 1495.15Z" fill="black"/>
<path d="M1237.33 1495.43L2472.12 -311.796L1242.37 1503.26C1241.68 1504.27 1240.75 1504.82 1239.8 1504.79C1238.84 1504.76 1237.94 1504.15 1237.28 1503.1C1236.61 1502.06 1236.25 1500.65 1236.27 1499.2C1236.29 1497.75 1236.69 1496.37 1237.38 1495.37" fill="black"/>
<path d="M1212.76 1495.7L2447.38 -311.796L1217.4 1502.99C1217.08 1503.45 1216.71 1503.81 1216.3 1504.06C1215.89 1504.31 1215.46 1504.43 1215.02 1504.42C1214.58 1504.41 1214.15 1504.27 1213.75 1504C1213.34 1503.74 1212.98 1503.36 1212.67 1502.88C1212.37 1502.4 1212.13 1501.83 1211.97 1501.21C1211.81 1500.6 1211.73 1499.93 1211.73 1499.27C1211.74 1498.6 1211.83 1497.94 1212.01 1497.33C1212.18 1496.72 1212.43 1496.17 1212.75 1495.7" fill="black"/>
<path d="M1188.2 1495.96L2422.64 -311.796L1192.5 1502.73C1192.21 1503.16 1191.86 1503.5 1191.48 1503.72C1191.11 1503.95 1190.7 1504.06 1190.3 1504.05C1189.89 1504.04 1189.49 1503.9 1189.12 1503.66C1188.74 1503.41 1188.41 1503.06 1188.12 1502.61C1187.84 1502.17 1187.62 1501.64 1187.47 1501.07C1187.32 1500.49 1187.25 1499.88 1187.26 1499.26C1187.26 1498.64 1187.35 1498.03 1187.51 1497.47C1187.68 1496.9 1187.91 1496.39 1188.2 1495.96Z" fill="black"/>
<path d="M1163.63 1496.27L2397.9 -311.796L1167.59 1502.45C1167.05 1503.25 1166.32 1503.69 1165.57 1503.67C1164.81 1503.65 1164.09 1503.18 1163.57 1502.35C1163.04 1501.53 1162.76 1500.42 1162.77 1499.27C1162.78 1498.13 1163.09 1497.03 1163.63 1496.24" fill="black"/>
<path d="M1139.08 1496.51L2373.13 -311.796L1142.69 1502.2C1142.45 1502.59 1142.16 1502.9 1141.84 1503.11C1141.51 1503.32 1141.17 1503.44 1140.81 1503.44C1140.46 1503.44 1140.12 1503.34 1139.79 1503.13C1139.47 1502.93 1139.17 1502.62 1138.93 1502.24C1138.69 1501.85 1138.5 1501.4 1138.37 1500.9C1138.24 1500.4 1138.19 1499.87 1138.2 1499.34C1138.21 1498.8 1138.3 1498.28 1138.45 1497.8C1138.6 1497.32 1138.81 1496.88 1139.08 1496.53" fill="black"/>
</g>
</g>
</g>
<defs>
<clipPath id="clip0_89_3350">
<rect width="1440" height="1024" fill="white"/>
</clipPath>
<clipPath id="clip1_89_3350">
<rect width="4381.47" height="1832.92" fill="white" transform="translate(-1488.83 -321.666)"/>
</clipPath>
</defs>
</svg>
