<svg xmlns="http://www.w3.org/2000/svg" width="97.553" height="97.553" viewBox="0 0 97.553 97.553"><defs><style>.a{fill:#007f61;}.b{fill:none;}.c,.d{stroke:none;}.d{fill:#007f61;}</style></defs><g transform="translate(-910.725 -390.51)"><path class="a" d="M51.937,4.822,19.757,37a2.329,2.329,0,0,1-3.3,0L4.013,24.544a2.329,2.329,0,0,0-3.3,0h0a2.329,2.329,0,0,0,0,3.3L13.162,40.29a7,7,0,0,0,9.9,0L55.237,8.119a2.329,2.329,0,0,0,0-3.3h0a2.329,2.329,0,0,0-3.3,0Z" transform="translate(931.945 416.273)"/><g class="b" transform="translate(910.725 390.51)"><path class="c" d="M48.776,0A48.777,48.777,0,1,1,0,48.777,48.776,48.776,0,0,1,48.776,0Z"/><path class="d" d="M 48.7763671875 3 C 42.59527587890625 3 36.60067367553711 4.209907531738281 30.95906066894531 6.596122741699219 C 25.50839996337891 8.901565551757812 20.61257934570312 12.20264434814453 16.40760040283203 16.40764617919922 C 12.20259857177734 20.61266326904297 8.901535034179688 25.50850677490234 6.596107482910156 30.95919799804688 C 4.209907531738281 36.60084533691406 3 42.59549331665039 3 48.77661514282227 C 3 54.9577522277832 4.209907531738281 60.95240020751953 6.596107482910156 66.59403228759766 C 8.901535034179688 72.04472351074219 12.20259857177734 76.94056701660156 16.40760040283203 81.14558410644531 C 20.61257934570312 85.35060119628906 25.50839996337891 88.65165710449219 30.95906066894531 90.95710754394531 C 36.60067367553711 93.34332275390625 42.59527587890625 94.55323028564453 48.7763671875 94.55323028564453 C 54.95745849609375 94.55323028564453 60.95206069946289 93.34332275390625 66.59367370605469 90.95710754394531 C 72.04433441162109 88.65165710449219 76.94015502929688 85.35060119628906 81.14513397216797 81.14558410644531 C 85.35013580322266 76.94056701660156 88.65119934082031 72.04472351074219 90.95662689208984 66.59403228759766 C 93.34282684326172 60.95240020751953 94.552734375 54.9577522277832 94.552734375 48.77661514282227 C 94.552734375 42.59549331665039 93.34282684326172 36.60084533691406 90.95662689208984 30.95919799804688 C 88.65119934082031 25.50850677490234 85.35013580322266 20.61266326904297 81.14513397216797 16.40764617919922 C 76.94015502929688 12.20264434814453 72.04433441162109 8.901565551757812 66.59367370605469 6.596122741699219 C 60.95206069946289 4.209907531738281 54.95745849609375 3 48.7763671875 3 M 48.7763671875 0 C 75.71481323242188 0 97.552734375 21.83802795410156 97.552734375 48.77661514282227 C 97.552734375 75.71521759033203 75.71481323242188 97.55323028564453 48.7763671875 97.55323028564453 C 21.83792114257812 97.55323028564453 0 75.71521759033203 0 48.77661514282227 C 0 21.83802795410156 21.83792114257812 0 48.7763671875 0 Z"/></g></g></svg>