<svg width="1794" height="1024" viewBox="0 0 1794 1024" fill="none" xmlns="http://www.w3.org/2000/svg">
<rect width="64" height="64" stroke="#E9E9E9" stroke-width="2"/>
<rect x="1024" width="64" height="64" stroke="#E9E9E9" stroke-width="2"/>
<rect y="128" width="64" height="64" stroke="#E9E9E9" stroke-width="2"/>
<rect x="1024" y="128" width="64" height="64" stroke="#E9E9E9" stroke-width="2"/>
<rect y="256" width="64" height="64" stroke="#E9E9E9" stroke-width="2"/>
<rect x="1024" y="256" width="64" height="64" stroke="#E9E9E9" stroke-width="2"/>
<rect y="384" width="64" height="64" stroke="#E9E9E9" stroke-width="2"/>
<rect x="1024" y="384" width="64" height="64" stroke="#E9E9E9" stroke-width="2"/>
<rect y="512" width="64" height="64" stroke="#E9E9E9" stroke-width="2"/>
<rect x="1024" y="512" width="64" height="64" stroke="#E9E9E9" stroke-width="2"/>
<rect y="640" width="64" height="64" stroke="#E9E9E9" stroke-width="2"/>
<rect x="1024" y="640" width="64" height="64" stroke="#E9E9E9" stroke-width="2"/>
<rect y="768" width="64" height="64" stroke="#E9E9E9" stroke-width="2"/>
<rect x="1024" y="768" width="64" height="64" stroke="#E9E9E9" stroke-width="2"/>
<rect y="896" width="64" height="64" stroke="#E9E9E9" stroke-width="2"/>
<rect x="1024" y="896" width="64" height="64" stroke="#E9E9E9" stroke-width="2"/>
<rect x="960" y="64" width="64" height="64" stroke="#E9E9E9" stroke-width="2"/>
<rect x="960" y="192" width="64" height="64" stroke="#E9E9E9" stroke-width="2"/>
<rect x="960" y="320" width="64" height="64" stroke="#E9E9E9" stroke-width="2"/>
<rect x="960" y="448" width="64" height="64" stroke="#E9E9E9" stroke-width="2"/>
<rect x="960" y="576" width="64" height="64" stroke="#E9E9E9" stroke-width="2"/>
<rect x="960" y="704" width="64" height="64" stroke="#E9E9E9" stroke-width="2"/>
<rect x="960" y="832" width="64" height="64" stroke="#E9E9E9" stroke-width="2"/>
<rect x="960" y="960" width="64" height="64" stroke="#E9E9E9" stroke-width="2"/>
<rect x="128" width="64" height="64" stroke="#E9E9E9" stroke-width="2"/>
<rect x="1152" width="64" height="64" stroke="#E9E9E9" stroke-width="2"/>
<rect x="128" y="128" width="64" height="64" stroke="#E9E9E9" stroke-width="2"/>
<rect x="1152" y="128" width="64" height="64" stroke="#E9E9E9" stroke-width="2"/>
<rect x="128" y="256" width="64" height="64" stroke="#E9E9E9" stroke-width="2"/>
<rect x="1152" y="256" width="64" height="64" stroke="#E9E9E9" stroke-width="2"/>
<rect x="128" y="384" width="64" height="64" stroke="#E9E9E9" stroke-width="2"/>
<rect x="1152" y="384" width="64" height="64" stroke="#E9E9E9" stroke-width="2"/>
<rect x="128" y="512" width="64" height="64" stroke="#E9E9E9" stroke-width="2"/>
<rect x="1152" y="512" width="64" height="64" stroke="#E9E9E9" stroke-width="2"/>
<rect x="128" y="640" width="64" height="64" stroke="#E9E9E9" stroke-width="2"/>
<rect x="1152" y="640" width="64" height="64" stroke="#E9E9E9" stroke-width="2"/>
<rect x="128" y="768" width="64" height="64" stroke="#E9E9E9" stroke-width="2"/>
<rect x="1152" y="768" width="64" height="64" stroke="#E9E9E9" stroke-width="2"/>
<rect x="128" y="896" width="64" height="64" stroke="#E9E9E9" stroke-width="2"/>
<rect x="1152" y="896" width="64" height="64" stroke="#E9E9E9" stroke-width="2"/>
<rect x="64" y="64" width="64" height="64" stroke="#E9E9E9" stroke-width="2"/>
<rect x="1088" y="64" width="64" height="64" stroke="#E9E9E9" stroke-width="2"/>
<rect x="64" y="192" width="64" height="64" stroke="#E9E9E9" stroke-width="2"/>
<rect x="1088" y="192" width="64" height="64" stroke="#E9E9E9" stroke-width="2"/>
<rect x="64" y="320" width="64" height="64" stroke="#E9E9E9" stroke-width="2"/>
<rect x="1088" y="320" width="64" height="64" stroke="#E9E9E9" stroke-width="2"/>
<rect x="64" y="448" width="64" height="64" stroke="#E9E9E9" stroke-width="2"/>
<rect x="1088" y="448" width="64" height="64" stroke="#E9E9E9" stroke-width="2"/>
<rect x="64" y="576" width="64" height="64" stroke="#E9E9E9" stroke-width="2"/>
<rect x="1088" y="576" width="64" height="64" stroke="#E9E9E9" stroke-width="2"/>
<rect x="64" y="704" width="64" height="64" stroke="#E9E9E9" stroke-width="2"/>
<rect x="1088" y="704" width="64" height="64" stroke="#E9E9E9" stroke-width="2"/>
<rect x="64" y="832" width="64" height="64" stroke="#E9E9E9" stroke-width="2"/>
<rect x="1088" y="832" width="64" height="64" stroke="#E9E9E9" stroke-width="2"/>
<rect x="64" y="960" width="64" height="64" stroke="#E9E9E9" stroke-width="2"/>
<rect x="1088" y="960" width="64" height="64" stroke="#E9E9E9" stroke-width="2"/>
<rect x="256" width="64" height="64" stroke="#E9E9E9" stroke-width="2"/>
<rect x="1280" width="64" height="64" stroke="#E9E9E9" stroke-width="2"/>
<rect x="256" y="128" width="64" height="64" stroke="#E9E9E9" stroke-width="2"/>
<rect x="1280" y="128" width="64" height="64" stroke="#E9E9E9" stroke-width="2"/>
<rect x="256" y="256" width="64" height="64" stroke="#E9E9E9" stroke-width="2"/>
<rect x="1280" y="256" width="64" height="64" stroke="#E9E9E9" stroke-width="2"/>
<rect x="256" y="384" width="64" height="64" stroke="#E9E9E9" stroke-width="2"/>
<rect x="1280" y="384" width="64" height="64" stroke="#E9E9E9" stroke-width="2"/>
<rect x="256" y="512" width="64" height="64" stroke="#E9E9E9" stroke-width="2"/>
<rect x="1280" y="512" width="64" height="64" stroke="#E9E9E9" stroke-width="2"/>
<rect x="256" y="640" width="64" height="64" stroke="#E9E9E9" stroke-width="2"/>
<rect x="1280" y="640" width="64" height="64" stroke="#E9E9E9" stroke-width="2"/>
<rect x="256" y="768" width="64" height="64" stroke="#E9E9E9" stroke-width="2"/>
<rect x="1280" y="768" width="64" height="64" stroke="#E9E9E9" stroke-width="2"/>
<rect x="256" y="896" width="64" height="64" stroke="#E9E9E9" stroke-width="2"/>
<rect x="1280" y="896" width="64" height="64" stroke="#E9E9E9" stroke-width="2"/>
<rect x="192" y="64" width="64" height="64" stroke="#E9E9E9" stroke-width="2"/>
<rect x="1216" y="64" width="64" height="64" stroke="#E9E9E9" stroke-width="2"/>
<rect x="192" y="192" width="64" height="64" stroke="#E9E9E9" stroke-width="2"/>
<rect x="1216" y="192" width="64" height="64" stroke="#E9E9E9" stroke-width="2"/>
<rect x="192" y="320" width="64" height="64" stroke="#E9E9E9" stroke-width="2"/>
<rect x="1216" y="320" width="64" height="64" stroke="#E9E9E9" stroke-width="2"/>
<rect x="192" y="448" width="64" height="64" stroke="#E9E9E9" stroke-width="2"/>
<rect x="1216" y="448" width="64" height="64" stroke="#E9E9E9" stroke-width="2"/>
<rect x="192" y="576" width="64" height="64" stroke="#E9E9E9" stroke-width="2"/>
<rect x="1216" y="576" width="64" height="64" stroke="#E9E9E9" stroke-width="2"/>
<rect x="192" y="704" width="64" height="64" stroke="#E9E9E9" stroke-width="2"/>
<rect x="1216" y="704" width="64" height="64" stroke="#E9E9E9" stroke-width="2"/>
<rect x="192" y="832" width="64" height="64" stroke="#E9E9E9" stroke-width="2"/>
<rect x="1216" y="832" width="64" height="64" stroke="#E9E9E9" stroke-width="2"/>
<rect x="192" y="960" width="64" height="64" stroke="#E9E9E9" stroke-width="2"/>
<rect x="1216" y="960" width="64" height="64" stroke="#E9E9E9" stroke-width="2"/>
<rect x="384" width="64" height="64" stroke="#E9E9E9" stroke-width="2"/>
<rect x="1408" width="64" height="64" stroke="#E9E9E9" stroke-width="2"/>
<rect x="384" y="128" width="64" height="64" stroke="#E9E9E9" stroke-width="2"/>
<rect x="1408" y="128" width="64" height="64" stroke="#E9E9E9" stroke-width="2"/>
<rect x="384" y="256" width="64" height="64" stroke="#E9E9E9" stroke-width="2"/>
<rect x="1408" y="256" width="64" height="64" stroke="#E9E9E9" stroke-width="2"/>
<rect x="384" y="384" width="64" height="64" stroke="#E9E9E9" stroke-width="2"/>
<rect x="1408" y="384" width="64" height="64" stroke="#E9E9E9" stroke-width="2"/>
<rect x="384" y="512" width="64" height="64" stroke="#E9E9E9" stroke-width="2"/>
<rect x="1408" y="512" width="64" height="64" stroke="#E9E9E9" stroke-width="2"/>
<rect x="384" y="640" width="64" height="64" stroke="#E9E9E9" stroke-width="2"/>
<rect x="1408" y="640" width="64" height="64" stroke="#E9E9E9" stroke-width="2"/>
<rect x="384" y="768" width="64" height="64" stroke="#E9E9E9" stroke-width="2"/>
<rect x="1408" y="768" width="64" height="64" stroke="#E9E9E9" stroke-width="2"/>
<rect x="384" y="896" width="64" height="64" stroke="#E9E9E9" stroke-width="2"/>
<rect x="1408" y="896" width="64" height="64" stroke="#E9E9E9" stroke-width="2"/>
<rect x="320" y="64" width="64" height="64" stroke="#E9E9E9" stroke-width="2"/>
<rect x="1344" y="64" width="64" height="64" stroke="#E9E9E9" stroke-width="2"/>
<rect x="320" y="192" width="64" height="64" stroke="#E9E9E9" stroke-width="2"/>
<rect x="1344" y="192" width="64" height="64" stroke="#E9E9E9" stroke-width="2"/>
<rect x="320" y="320" width="64" height="64" stroke="#E9E9E9" stroke-width="2"/>
<rect x="1344" y="320" width="64" height="64" stroke="#E9E9E9" stroke-width="2"/>
<rect x="320" y="448" width="64" height="64" stroke="#E9E9E9" stroke-width="2"/>
<rect x="1344" y="448" width="64" height="64" stroke="#E9E9E9" stroke-width="2"/>
<rect x="320" y="576" width="64" height="64" stroke="#E9E9E9" stroke-width="2"/>
<rect x="1344" y="576" width="64" height="64" stroke="#E9E9E9" stroke-width="2"/>
<rect x="320" y="704" width="64" height="64" stroke="#E9E9E9" stroke-width="2"/>
<rect x="1344" y="704" width="64" height="64" stroke="#E9E9E9" stroke-width="2"/>
<rect x="320" y="832" width="64" height="64" stroke="#E9E9E9" stroke-width="2"/>
<rect x="1344" y="832" width="64" height="64" stroke="#E9E9E9" stroke-width="2"/>
<rect x="320" y="960" width="64" height="64" stroke="#E9E9E9" stroke-width="2"/>
<rect x="1344" y="960" width="64" height="64" stroke="#E9E9E9" stroke-width="2"/>
<rect x="512" width="64" height="64" stroke="#E9E9E9" stroke-width="2"/>
<rect x="1536" width="64" height="64" stroke="#E9E9E9" stroke-width="2"/>
<rect x="512" y="128" width="64" height="64" stroke="#E9E9E9" stroke-width="2"/>
<rect x="1536" y="128" width="64" height="64" stroke="#E9E9E9" stroke-width="2"/>
<rect x="512" y="256" width="64" height="64" stroke="#E9E9E9" stroke-width="2"/>
<rect x="1536" y="256" width="64" height="64" stroke="#E9E9E9" stroke-width="2"/>
<rect x="512" y="384" width="64" height="64" stroke="#E9E9E9" stroke-width="2"/>
<rect x="1536" y="384" width="64" height="64" stroke="#E9E9E9" stroke-width="2"/>
<rect x="512" y="512" width="64" height="64" stroke="#E9E9E9" stroke-width="2"/>
<rect x="1536" y="512" width="64" height="64" stroke="#E9E9E9" stroke-width="2"/>
<rect x="512" y="640" width="64" height="64" stroke="#E9E9E9" stroke-width="2"/>
<rect x="1536" y="640" width="64" height="64" stroke="#E9E9E9" stroke-width="2"/>
<rect x="512" y="768" width="64" height="64" stroke="#E9E9E9" stroke-width="2"/>
<rect x="1536" y="768" width="64" height="64" stroke="#E9E9E9" stroke-width="2"/>
<rect x="512" y="896" width="64" height="64" stroke="#E9E9E9" stroke-width="2"/>
<rect x="1536" y="896" width="64" height="64" stroke="#E9E9E9" stroke-width="2"/>
<rect x="448" y="64" width="64" height="64" stroke="#E9E9E9" stroke-width="2"/>
<rect x="1472" y="64" width="64" height="64" stroke="#E9E9E9" stroke-width="2"/>
<rect x="448" y="192" width="64" height="64" stroke="#E9E9E9" stroke-width="2"/>
<rect x="1472" y="192" width="64" height="64" stroke="#E9E9E9" stroke-width="2"/>
<rect x="448" y="320" width="64" height="64" stroke="#E9E9E9" stroke-width="2"/>
<rect x="1472" y="320" width="64" height="64" stroke="#E9E9E9" stroke-width="2"/>
<rect x="448" y="448" width="64" height="64" stroke="#E9E9E9" stroke-width="2"/>
<rect x="1472" y="448" width="64" height="64" stroke="#E9E9E9" stroke-width="2"/>
<rect x="448" y="576" width="64" height="64" stroke="#E9E9E9" stroke-width="2"/>
<rect x="1472" y="576" width="64" height="64" stroke="#E9E9E9" stroke-width="2"/>
<rect x="448" y="704" width="64" height="64" stroke="#E9E9E9" stroke-width="2"/>
<rect x="1472" y="704" width="64" height="64" stroke="#E9E9E9" stroke-width="2"/>
<rect x="448" y="832" width="64" height="64" stroke="#E9E9E9" stroke-width="2"/>
<rect x="1472" y="832" width="64" height="64" stroke="#E9E9E9" stroke-width="2"/>
<rect x="448" y="960" width="64" height="64" stroke="#E9E9E9" stroke-width="2"/>
<rect x="1472" y="960" width="64" height="64" stroke="#E9E9E9" stroke-width="2"/>
<rect x="640" width="64" height="64" stroke="#E9E9E9" stroke-width="2"/>
<rect x="1664" width="64" height="64" stroke="#E9E9E9" stroke-width="2"/>
<rect x="640" y="128" width="64" height="64" stroke="#E9E9E9" stroke-width="2"/>
<rect x="1664" y="128" width="64" height="64" stroke="#E9E9E9" stroke-width="2"/>
<rect x="640" y="256" width="64" height="64" stroke="#E9E9E9" stroke-width="2"/>
<rect x="1664" y="256" width="64" height="64" stroke="#E9E9E9" stroke-width="2"/>
<rect x="640" y="384" width="64" height="64" stroke="#E9E9E9" stroke-width="2"/>
<rect x="1664" y="384" width="64" height="64" stroke="#E9E9E9" stroke-width="2"/>
<rect x="640" y="512" width="64" height="64" stroke="#E9E9E9" stroke-width="2"/>
<rect x="1664" y="512" width="64" height="64" stroke="#E9E9E9" stroke-width="2"/>
<rect x="640" y="640" width="64" height="64" stroke="#E9E9E9" stroke-width="2"/>
<rect x="1664" y="640" width="64" height="64" stroke="#E9E9E9" stroke-width="2"/>
<rect x="640" y="768" width="64" height="64" stroke="#E9E9E9" stroke-width="2"/>
<rect x="1664" y="768" width="64" height="64" stroke="#E9E9E9" stroke-width="2"/>
<rect x="640" y="896" width="64" height="64" stroke="#E9E9E9" stroke-width="2"/>
<rect x="1664" y="896" width="64" height="64" stroke="#E9E9E9" stroke-width="2"/>
<rect x="576" y="64" width="64" height="64" stroke="#E9E9E9" stroke-width="2"/>
<rect x="1600" y="64" width="64" height="64" stroke="#E9E9E9" stroke-width="2"/>
<rect x="576" y="192" width="64" height="64" stroke="#E9E9E9" stroke-width="2"/>
<rect x="1600" y="192" width="64" height="64" stroke="#E9E9E9" stroke-width="2"/>
<rect x="576" y="320" width="64" height="64" stroke="#E9E9E9" stroke-width="2"/>
<rect x="1600" y="320" width="64" height="64" stroke="#E9E9E9" stroke-width="2"/>
<rect x="576" y="448" width="64" height="64" stroke="#E9E9E9" stroke-width="2"/>
<rect x="1600" y="448" width="64" height="64" stroke="#E9E9E9" stroke-width="2"/>
<rect x="576" y="576" width="64" height="64" stroke="#E9E9E9" stroke-width="2"/>
<rect x="1600" y="576" width="64" height="64" stroke="#E9E9E9" stroke-width="2"/>
<rect x="576" y="704" width="64" height="64" stroke="#E9E9E9" stroke-width="2"/>
<rect x="1600" y="704" width="64" height="64" stroke="#E9E9E9" stroke-width="2"/>
<rect x="576" y="832" width="64" height="64" stroke="#E9E9E9" stroke-width="2"/>
<rect x="1600" y="832" width="64" height="64" stroke="#E9E9E9" stroke-width="2"/>
<rect x="576" y="960" width="64" height="64" stroke="#E9E9E9" stroke-width="2"/>
<rect x="1600" y="960" width="64" height="64" stroke="#E9E9E9" stroke-width="2"/>
<rect x="768" width="64" height="64" stroke="#E9E9E9" stroke-width="2"/>
<rect x="1792" width="64" height="64" stroke="#E9E9E9" stroke-width="2"/>
<rect x="768" y="128" width="64" height="64" stroke="#E9E9E9" stroke-width="2"/>
<rect x="1792" y="128" width="64" height="64" stroke="#E9E9E9" stroke-width="2"/>
<rect x="768" y="256" width="64" height="64" stroke="#E9E9E9" stroke-width="2"/>
<rect x="1792" y="256" width="64" height="64" stroke="#E9E9E9" stroke-width="2"/>
<rect x="768" y="384" width="64" height="64" stroke="#E9E9E9" stroke-width="2"/>
<rect x="1792" y="384" width="64" height="64" stroke="#E9E9E9" stroke-width="2"/>
<rect x="768" y="512" width="64" height="64" stroke="#E9E9E9" stroke-width="2"/>
<rect x="1792" y="512" width="64" height="64" stroke="#E9E9E9" stroke-width="2"/>
<rect x="768" y="640" width="64" height="64" stroke="#E9E9E9" stroke-width="2"/>
<rect x="1792" y="640" width="64" height="64" stroke="#E9E9E9" stroke-width="2"/>
<rect x="768" y="768" width="64" height="64" stroke="#E9E9E9" stroke-width="2"/>
<rect x="1792" y="768" width="64" height="64" stroke="#E9E9E9" stroke-width="2"/>
<rect x="768" y="896" width="64" height="64" stroke="#E9E9E9" stroke-width="2"/>
<rect x="1792" y="896" width="64" height="64" stroke="#E9E9E9" stroke-width="2"/>
<rect x="704" y="64" width="64" height="64" stroke="#E9E9E9" stroke-width="2"/>
<rect x="1728" y="64" width="64" height="64" stroke="#E9E9E9" stroke-width="2"/>
<rect x="704" y="192" width="64" height="64" stroke="#E9E9E9" stroke-width="2"/>
<rect x="1728" y="192" width="64" height="64" stroke="#E9E9E9" stroke-width="2"/>
<rect x="704" y="320" width="64" height="64" stroke="#E9E9E9" stroke-width="2"/>
<rect x="1728" y="320" width="64" height="64" stroke="#E9E9E9" stroke-width="2"/>
<rect x="704" y="448" width="64" height="64" stroke="#E9E9E9" stroke-width="2"/>
<rect x="1728" y="448" width="64" height="64" stroke="#E9E9E9" stroke-width="2"/>
<rect x="704" y="576" width="64" height="64" stroke="#E9E9E9" stroke-width="2"/>
<rect x="1728" y="576" width="64" height="64" stroke="#E9E9E9" stroke-width="2"/>
<rect x="704" y="704" width="64" height="64" stroke="#E9E9E9" stroke-width="2"/>
<rect x="1728" y="704" width="64" height="64" stroke="#E9E9E9" stroke-width="2"/>
<rect x="704" y="832" width="64" height="64" stroke="#E9E9E9" stroke-width="2"/>
<rect x="1728" y="832" width="64" height="64" stroke="#E9E9E9" stroke-width="2"/>
<rect x="704" y="960" width="64" height="64" stroke="#E9E9E9" stroke-width="2"/>
<rect x="1728" y="960" width="64" height="64" stroke="#E9E9E9" stroke-width="2"/>
<rect x="896" width="64" height="64" stroke="#E9E9E9" stroke-width="2"/>
<rect x="896" y="128" width="64" height="64" stroke="#E9E9E9" stroke-width="2"/>
<rect x="896" y="256" width="64" height="64" stroke="#E9E9E9" stroke-width="2"/>
<rect x="896" y="384" width="64" height="64" stroke="#E9E9E9" stroke-width="2"/>
<rect x="896" y="512" width="64" height="64" stroke="#E9E9E9" stroke-width="2"/>
<rect x="896" y="640" width="64" height="64" stroke="#E9E9E9" stroke-width="2"/>
<rect x="896" y="768" width="64" height="64" stroke="#E9E9E9" stroke-width="2"/>
<rect x="896" y="896" width="64" height="64" stroke="#E9E9E9" stroke-width="2"/>
<rect x="832" y="64" width="64" height="64" stroke="#E9E9E9" stroke-width="2"/>
<rect x="832" y="192" width="64" height="64" stroke="#E9E9E9" stroke-width="2"/>
<rect x="832" y="320" width="64" height="64" stroke="#E9E9E9" stroke-width="2"/>
<rect x="832" y="448" width="64" height="64" stroke="#E9E9E9" stroke-width="2"/>
<rect x="832" y="576" width="64" height="64" stroke="#E9E9E9" stroke-width="2"/>
<rect x="832" y="704" width="64" height="64" stroke="#E9E9E9" stroke-width="2"/>
<rect x="832" y="832" width="64" height="64" stroke="#E9E9E9" stroke-width="2"/>
<rect x="832" y="960" width="64" height="64" stroke="#E9E9E9" stroke-width="2"/>
<circle cx="96" cy="32" r="32" stroke="#E9E9E9" stroke-width="2"/>
<circle cx="1120" cy="32" r="32" stroke="#E9E9E9" stroke-width="2"/>
<circle cx="96" cy="160" r="32" stroke="#E9E9E9" stroke-width="2"/>
<circle cx="1120" cy="160" r="32" stroke="#E9E9E9" stroke-width="2"/>
<circle cx="96" cy="288" r="32" stroke="#E9E9E9" stroke-width="2"/>
<circle cx="1120" cy="288" r="32" stroke="#E9E9E9" stroke-width="2"/>
<circle cx="96" cy="416" r="32" stroke="#E9E9E9" stroke-width="2"/>
<circle cx="1120" cy="416" r="32" stroke="#E9E9E9" stroke-width="2"/>
<circle cx="96" cy="544" r="32" stroke="#E9E9E9" stroke-width="2"/>
<circle cx="1120" cy="544" r="32" stroke="#E9E9E9" stroke-width="2"/>
<circle cx="96" cy="672" r="32" stroke="#E9E9E9" stroke-width="2"/>
<circle cx="1120" cy="672" r="32" stroke="#E9E9E9" stroke-width="2"/>
<circle cx="96" cy="800" r="32" stroke="#E9E9E9" stroke-width="2"/>
<circle cx="1120" cy="800" r="32" stroke="#E9E9E9" stroke-width="2"/>
<circle cx="96" cy="928" r="32" stroke="#E9E9E9" stroke-width="2"/>
<circle cx="1120" cy="928" r="32" stroke="#E9E9E9" stroke-width="2"/>
<circle cx="32" cy="96" r="32" stroke="#E9E9E9" stroke-width="2"/>
<circle cx="1056" cy="96" r="32" stroke="#E9E9E9" stroke-width="2"/>
<circle cx="32" cy="224" r="32" stroke="#E9E9E9" stroke-width="2"/>
<circle cx="1056" cy="224" r="32" stroke="#E9E9E9" stroke-width="2"/>
<circle cx="32" cy="352" r="32" stroke="#E9E9E9" stroke-width="2"/>
<circle cx="1056" cy="352" r="32" stroke="#E9E9E9" stroke-width="2"/>
<circle cx="32" cy="480" r="32" stroke="#E9E9E9" stroke-width="2"/>
<circle cx="1056" cy="480" r="32" stroke="#E9E9E9" stroke-width="2"/>
<circle cx="32" cy="608" r="32" stroke="#E9E9E9" stroke-width="2"/>
<circle cx="1056" cy="608" r="32" stroke="#E9E9E9" stroke-width="2"/>
<circle cx="32" cy="736" r="32" stroke="#E9E9E9" stroke-width="2"/>
<circle cx="1056" cy="736" r="32" stroke="#E9E9E9" stroke-width="2"/>
<circle cx="32" cy="864" r="32" stroke="#E9E9E9" stroke-width="2"/>
<circle cx="1056" cy="864" r="32" stroke="#E9E9E9" stroke-width="2"/>
<circle cx="32" cy="992" r="32" stroke="#E9E9E9" stroke-width="2"/>
<circle cx="1056" cy="992" r="32" stroke="#E9E9E9" stroke-width="2"/>
<circle cx="224" cy="32" r="32" stroke="#E9E9E9" stroke-width="2"/>
<circle cx="1248" cy="32" r="32" stroke="#E9E9E9" stroke-width="2"/>
<circle cx="224" cy="160" r="32" stroke="#E9E9E9" stroke-width="2"/>
<circle cx="1248" cy="160" r="32" stroke="#E9E9E9" stroke-width="2"/>
<circle cx="224" cy="288" r="32" stroke="#E9E9E9" stroke-width="2"/>
<circle cx="1248" cy="288" r="32" stroke="#E9E9E9" stroke-width="2"/>
<circle cx="224" cy="416" r="32" stroke="#E9E9E9" stroke-width="2"/>
<circle cx="1248" cy="416" r="32" stroke="#E9E9E9" stroke-width="2"/>
<circle cx="224" cy="544" r="32" stroke="#E9E9E9" stroke-width="2"/>
<circle cx="1248" cy="544" r="32" stroke="#E9E9E9" stroke-width="2"/>
<circle cx="224" cy="672" r="32" stroke="#E9E9E9" stroke-width="2"/>
<circle cx="1248" cy="672" r="32" stroke="#E9E9E9" stroke-width="2"/>
<circle cx="224" cy="800" r="32" stroke="#E9E9E9" stroke-width="2"/>
<circle cx="1248" cy="800" r="32" stroke="#E9E9E9" stroke-width="2"/>
<circle cx="224" cy="928" r="32" stroke="#E9E9E9" stroke-width="2"/>
<circle cx="1248" cy="928" r="32" stroke="#E9E9E9" stroke-width="2"/>
<circle cx="160" cy="96" r="32" stroke="#E9E9E9" stroke-width="2"/>
<circle cx="1184" cy="96" r="32" stroke="#E9E9E9" stroke-width="2"/>
<circle cx="160" cy="224" r="32" stroke="#E9E9E9" stroke-width="2"/>
<circle cx="1184" cy="224" r="32" stroke="#E9E9E9" stroke-width="2"/>
<circle cx="160" cy="352" r="32" stroke="#E9E9E9" stroke-width="2"/>
<circle cx="1184" cy="352" r="32" stroke="#E9E9E9" stroke-width="2"/>
<circle cx="160" cy="480" r="32" stroke="#E9E9E9" stroke-width="2"/>
<circle cx="1184" cy="480" r="32" stroke="#E9E9E9" stroke-width="2"/>
<circle cx="160" cy="608" r="32" stroke="#E9E9E9" stroke-width="2"/>
<circle cx="1184" cy="608" r="32" stroke="#E9E9E9" stroke-width="2"/>
<circle cx="160" cy="736" r="32" stroke="#E9E9E9" stroke-width="2"/>
<circle cx="1184" cy="736" r="32" stroke="#E9E9E9" stroke-width="2"/>
<circle cx="160" cy="864" r="32" stroke="#E9E9E9" stroke-width="2"/>
<circle cx="1184" cy="864" r="32" stroke="#E9E9E9" stroke-width="2"/>
<circle cx="160" cy="992" r="32" stroke="#E9E9E9" stroke-width="2"/>
<circle cx="1184" cy="992" r="32" stroke="#E9E9E9" stroke-width="2"/>
<circle cx="352" cy="32" r="32" stroke="#E9E9E9" stroke-width="2"/>
<circle cx="1376" cy="32" r="32" stroke="#E9E9E9" stroke-width="2"/>
<circle cx="352" cy="160" r="32" stroke="#E9E9E9" stroke-width="2"/>
<circle cx="1376" cy="160" r="32" stroke="#E9E9E9" stroke-width="2"/>
<circle cx="352" cy="288" r="32" stroke="#E9E9E9" stroke-width="2"/>
<circle cx="1376" cy="288" r="32" stroke="#E9E9E9" stroke-width="2"/>
<circle cx="352" cy="416" r="32" stroke="#E9E9E9" stroke-width="2"/>
<circle cx="1376" cy="416" r="32" stroke="#E9E9E9" stroke-width="2"/>
<circle cx="352" cy="544" r="32" stroke="#E9E9E9" stroke-width="2"/>
<circle cx="1376" cy="544" r="32" stroke="#E9E9E9" stroke-width="2"/>
<circle cx="352" cy="672" r="32" stroke="#E9E9E9" stroke-width="2"/>
<circle cx="1376" cy="672" r="32" stroke="#E9E9E9" stroke-width="2"/>
<circle cx="352" cy="800" r="32" stroke="#E9E9E9" stroke-width="2"/>
<circle cx="1376" cy="800" r="32" stroke="#E9E9E9" stroke-width="2"/>
<circle cx="352" cy="928" r="32" stroke="#E9E9E9" stroke-width="2"/>
<circle cx="1376" cy="928" r="32" stroke="#E9E9E9" stroke-width="2"/>
<circle cx="288" cy="96" r="32" stroke="#E9E9E9" stroke-width="2"/>
<circle cx="1312" cy="96" r="32" stroke="#E9E9E9" stroke-width="2"/>
<circle cx="288" cy="224" r="32" stroke="#E9E9E9" stroke-width="2"/>
<circle cx="1312" cy="224" r="32" stroke="#E9E9E9" stroke-width="2"/>
<circle cx="288" cy="352" r="32" stroke="#E9E9E9" stroke-width="2"/>
<circle cx="1312" cy="352" r="32" stroke="#E9E9E9" stroke-width="2"/>
<circle cx="288" cy="480" r="32" stroke="#E9E9E9" stroke-width="2"/>
<circle cx="1312" cy="480" r="32" stroke="#E9E9E9" stroke-width="2"/>
<circle cx="288" cy="608" r="32" stroke="#E9E9E9" stroke-width="2"/>
<circle cx="1312" cy="608" r="32" stroke="#E9E9E9" stroke-width="2"/>
<circle cx="288" cy="736" r="32" stroke="#E9E9E9" stroke-width="2"/>
<circle cx="1312" cy="736" r="32" stroke="#E9E9E9" stroke-width="2"/>
<circle cx="288" cy="864" r="32" stroke="#E9E9E9" stroke-width="2"/>
<circle cx="1312" cy="864" r="32" stroke="#E9E9E9" stroke-width="2"/>
<circle cx="288" cy="992" r="32" stroke="#E9E9E9" stroke-width="2"/>
<circle cx="1312" cy="992" r="32" stroke="#E9E9E9" stroke-width="2"/>
<circle cx="480" cy="32" r="32" stroke="#E9E9E9" stroke-width="2"/>
<circle cx="1504" cy="32" r="32" stroke="#E9E9E9" stroke-width="2"/>
<circle cx="480" cy="160" r="32" stroke="#E9E9E9" stroke-width="2"/>
<circle cx="1504" cy="160" r="32" stroke="#E9E9E9" stroke-width="2"/>
<circle cx="480" cy="288" r="32" stroke="#E9E9E9" stroke-width="2"/>
<circle cx="1504" cy="288" r="32" stroke="#E9E9E9" stroke-width="2"/>
<circle cx="480" cy="416" r="32" stroke="#E9E9E9" stroke-width="2"/>
<circle cx="1504" cy="416" r="32" stroke="#E9E9E9" stroke-width="2"/>
<circle cx="480" cy="544" r="32" stroke="#E9E9E9" stroke-width="2"/>
<circle cx="1504" cy="544" r="32" stroke="#E9E9E9" stroke-width="2"/>
<circle cx="480" cy="672" r="32" stroke="#E9E9E9" stroke-width="2"/>
<circle cx="1504" cy="672" r="32" stroke="#E9E9E9" stroke-width="2"/>
<circle cx="480" cy="800" r="32" stroke="#E9E9E9" stroke-width="2"/>
<circle cx="1504" cy="800" r="32" stroke="#E9E9E9" stroke-width="2"/>
<circle cx="480" cy="928" r="32" stroke="#E9E9E9" stroke-width="2"/>
<circle cx="1504" cy="928" r="32" stroke="#E9E9E9" stroke-width="2"/>
<circle cx="416" cy="96" r="32" stroke="#E9E9E9" stroke-width="2"/>
<circle cx="1440" cy="96" r="32" stroke="#E9E9E9" stroke-width="2"/>
<circle cx="416" cy="224" r="32" stroke="#E9E9E9" stroke-width="2"/>
<circle cx="1440" cy="224" r="32" stroke="#E9E9E9" stroke-width="2"/>
<circle cx="416" cy="352" r="32" stroke="#E9E9E9" stroke-width="2"/>
<circle cx="1440" cy="352" r="32" stroke="#E9E9E9" stroke-width="2"/>
<circle cx="416" cy="480" r="32" stroke="#E9E9E9" stroke-width="2"/>
<circle cx="1440" cy="480" r="32" stroke="#E9E9E9" stroke-width="2"/>
<circle cx="416" cy="608" r="32" stroke="#E9E9E9" stroke-width="2"/>
<circle cx="1440" cy="608" r="32" stroke="#E9E9E9" stroke-width="2"/>
<circle cx="416" cy="736" r="32" stroke="#E9E9E9" stroke-width="2"/>
<circle cx="1440" cy="736" r="32" stroke="#E9E9E9" stroke-width="2"/>
<circle cx="416" cy="864" r="32" stroke="#E9E9E9" stroke-width="2"/>
<circle cx="1440" cy="864" r="32" stroke="#E9E9E9" stroke-width="2"/>
<circle cx="416" cy="992" r="32" stroke="#E9E9E9" stroke-width="2"/>
<circle cx="1440" cy="992" r="32" stroke="#E9E9E9" stroke-width="2"/>
<circle cx="608" cy="32" r="32" stroke="#E9E9E9" stroke-width="2"/>
<circle cx="1632" cy="32" r="32" stroke="#E9E9E9" stroke-width="2"/>
<circle cx="608" cy="160" r="32" stroke="#E9E9E9" stroke-width="2"/>
<circle cx="1632" cy="160" r="32" stroke="#E9E9E9" stroke-width="2"/>
<circle cx="608" cy="288" r="32" stroke="#E9E9E9" stroke-width="2"/>
<circle cx="1632" cy="288" r="32" stroke="#E9E9E9" stroke-width="2"/>
<circle cx="608" cy="416" r="32" stroke="#E9E9E9" stroke-width="2"/>
<circle cx="1632" cy="416" r="32" stroke="#E9E9E9" stroke-width="2"/>
<circle cx="608" cy="544" r="32" stroke="#E9E9E9" stroke-width="2"/>
<circle cx="1632" cy="544" r="32" stroke="#E9E9E9" stroke-width="2"/>
<circle cx="608" cy="672" r="32" stroke="#E9E9E9" stroke-width="2"/>
<circle cx="1632" cy="672" r="32" stroke="#E9E9E9" stroke-width="2"/>
<circle cx="608" cy="800" r="32" stroke="#E9E9E9" stroke-width="2"/>
<circle cx="1632" cy="800" r="32" stroke="#E9E9E9" stroke-width="2"/>
<circle cx="608" cy="928" r="32" stroke="#E9E9E9" stroke-width="2"/>
<circle cx="1632" cy="928" r="32" stroke="#E9E9E9" stroke-width="2"/>
<circle cx="544" cy="96" r="32" stroke="#E9E9E9" stroke-width="2"/>
<circle cx="1568" cy="96" r="32" stroke="#E9E9E9" stroke-width="2"/>
<circle cx="544" cy="224" r="32" stroke="#E9E9E9" stroke-width="2"/>
<circle cx="1568" cy="224" r="32" stroke="#E9E9E9" stroke-width="2"/>
<circle cx="544" cy="352" r="32" stroke="#E9E9E9" stroke-width="2"/>
<circle cx="1568" cy="352" r="32" stroke="#E9E9E9" stroke-width="2"/>
<circle cx="544" cy="480" r="32" stroke="#E9E9E9" stroke-width="2"/>
<circle cx="1568" cy="480" r="32" stroke="#E9E9E9" stroke-width="2"/>
<circle cx="544" cy="608" r="32" stroke="#E9E9E9" stroke-width="2"/>
<circle cx="1568" cy="608" r="32" stroke="#E9E9E9" stroke-width="2"/>
<circle cx="544" cy="736" r="32" stroke="#E9E9E9" stroke-width="2"/>
<circle cx="1568" cy="736" r="32" stroke="#E9E9E9" stroke-width="2"/>
<circle cx="544" cy="864" r="32" stroke="#E9E9E9" stroke-width="2"/>
<circle cx="1568" cy="864" r="32" stroke="#E9E9E9" stroke-width="2"/>
<circle cx="544" cy="992" r="32" stroke="#E9E9E9" stroke-width="2"/>
<circle cx="1568" cy="992" r="32" stroke="#E9E9E9" stroke-width="2"/>
<circle cx="736" cy="32" r="32" stroke="#E9E9E9" stroke-width="2"/>
<circle cx="1760" cy="32" r="32" stroke="#E9E9E9" stroke-width="2"/>
<circle cx="736" cy="160" r="32" stroke="#E9E9E9" stroke-width="2"/>
<circle cx="1760" cy="160" r="32" stroke="#E9E9E9" stroke-width="2"/>
<circle cx="736" cy="288" r="32" stroke="#E9E9E9" stroke-width="2"/>
<circle cx="1760" cy="288" r="32" stroke="#E9E9E9" stroke-width="2"/>
<circle cx="736" cy="416" r="32" stroke="#E9E9E9" stroke-width="2"/>
<circle cx="1760" cy="416" r="32" stroke="#E9E9E9" stroke-width="2"/>
<circle cx="736" cy="544" r="32" stroke="#E9E9E9" stroke-width="2"/>
<circle cx="1760" cy="544" r="32" stroke="#E9E9E9" stroke-width="2"/>
<circle cx="736" cy="672" r="32" stroke="#E9E9E9" stroke-width="2"/>
<circle cx="1760" cy="672" r="32" stroke="#E9E9E9" stroke-width="2"/>
<circle cx="736" cy="800" r="32" stroke="#E9E9E9" stroke-width="2"/>
<circle cx="1760" cy="800" r="32" stroke="#E9E9E9" stroke-width="2"/>
<circle cx="736" cy="928" r="32" stroke="#E9E9E9" stroke-width="2"/>
<circle cx="1760" cy="928" r="32" stroke="#E9E9E9" stroke-width="2"/>
<circle cx="672" cy="96" r="32" stroke="#E9E9E9" stroke-width="2"/>
<circle cx="1696" cy="96" r="32" stroke="#E9E9E9" stroke-width="2"/>
<circle cx="672" cy="224" r="32" stroke="#E9E9E9" stroke-width="2"/>
<circle cx="1696" cy="224" r="32" stroke="#E9E9E9" stroke-width="2"/>
<circle cx="672" cy="352" r="32" stroke="#E9E9E9" stroke-width="2"/>
<circle cx="1696" cy="352" r="32" stroke="#E9E9E9" stroke-width="2"/>
<circle cx="672" cy="480" r="32" stroke="#E9E9E9" stroke-width="2"/>
<circle cx="1696" cy="480" r="32" stroke="#E9E9E9" stroke-width="2"/>
<circle cx="672" cy="608" r="32" stroke="#E9E9E9" stroke-width="2"/>
<circle cx="1696" cy="608" r="32" stroke="#E9E9E9" stroke-width="2"/>
<circle cx="672" cy="736" r="32" stroke="#E9E9E9" stroke-width="2"/>
<circle cx="1696" cy="736" r="32" stroke="#E9E9E9" stroke-width="2"/>
<circle cx="672" cy="864" r="32" stroke="#E9E9E9" stroke-width="2"/>
<circle cx="1696" cy="864" r="32" stroke="#E9E9E9" stroke-width="2"/>
<circle cx="672" cy="992" r="32" stroke="#E9E9E9" stroke-width="2"/>
<circle cx="1696" cy="992" r="32" stroke="#E9E9E9" stroke-width="2"/>
<circle cx="864" cy="32" r="32" stroke="#E9E9E9" stroke-width="2"/>
<circle cx="864" cy="160" r="32" stroke="#E9E9E9" stroke-width="2"/>
<circle cx="864" cy="288" r="32" stroke="#E9E9E9" stroke-width="2"/>
<circle cx="864" cy="416" r="32" stroke="#E9E9E9" stroke-width="2"/>
<circle cx="864" cy="544" r="32" stroke="#E9E9E9" stroke-width="2"/>
<circle cx="864" cy="672" r="32" stroke="#E9E9E9" stroke-width="2"/>
<circle cx="864" cy="800" r="32" stroke="#E9E9E9" stroke-width="2"/>
<circle cx="864" cy="928" r="32" stroke="#E9E9E9" stroke-width="2"/>
<circle cx="800" cy="96" r="32" stroke="#E9E9E9" stroke-width="2"/>
<circle cx="1824" cy="96" r="32" stroke="#E9E9E9" stroke-width="2"/>
<circle cx="800" cy="224" r="32" stroke="#E9E9E9" stroke-width="2"/>
<circle cx="1824" cy="224" r="32" stroke="#E9E9E9" stroke-width="2"/>
<circle cx="800" cy="352" r="32" stroke="#E9E9E9" stroke-width="2"/>
<circle cx="1824" cy="352" r="32" stroke="#E9E9E9" stroke-width="2"/>
<circle cx="800" cy="480" r="32" stroke="#E9E9E9" stroke-width="2"/>
<circle cx="1824" cy="480" r="32" stroke="#E9E9E9" stroke-width="2"/>
<circle cx="800" cy="608" r="32" stroke="#E9E9E9" stroke-width="2"/>
<circle cx="1824" cy="608" r="32" stroke="#E9E9E9" stroke-width="2"/>
<circle cx="800" cy="736" r="32" stroke="#E9E9E9" stroke-width="2"/>
<circle cx="1824" cy="736" r="32" stroke="#E9E9E9" stroke-width="2"/>
<circle cx="800" cy="864" r="32" stroke="#E9E9E9" stroke-width="2"/>
<circle cx="1824" cy="864" r="32" stroke="#E9E9E9" stroke-width="2"/>
<circle cx="800" cy="992" r="32" stroke="#E9E9E9" stroke-width="2"/>
<circle cx="1824" cy="992" r="32" stroke="#E9E9E9" stroke-width="2"/>
<circle cx="992" cy="32" r="32" stroke="#E9E9E9" stroke-width="2"/>
<circle cx="992" cy="160" r="32" stroke="#E9E9E9" stroke-width="2"/>
<circle cx="992" cy="288" r="32" stroke="#E9E9E9" stroke-width="2"/>
<circle cx="992" cy="416" r="32" stroke="#E9E9E9" stroke-width="2"/>
<circle cx="992" cy="544" r="32" stroke="#E9E9E9" stroke-width="2"/>
<circle cx="992" cy="672" r="32" stroke="#E9E9E9" stroke-width="2"/>
<circle cx="992" cy="800" r="32" stroke="#E9E9E9" stroke-width="2"/>
<circle cx="992" cy="928" r="32" stroke="#E9E9E9" stroke-width="2"/>
<circle cx="928" cy="96" r="32" stroke="#E9E9E9" stroke-width="2"/>
<circle cx="928" cy="224" r="32" stroke="#E9E9E9" stroke-width="2"/>
<circle cx="928" cy="352" r="32" stroke="#E9E9E9" stroke-width="2"/>
<circle cx="928" cy="480" r="32" stroke="#E9E9E9" stroke-width="2"/>
<circle cx="928" cy="608" r="32" stroke="#E9E9E9" stroke-width="2"/>
<circle cx="928" cy="736" r="32" stroke="#E9E9E9" stroke-width="2"/>
<circle cx="928" cy="864" r="32" stroke="#E9E9E9" stroke-width="2"/>
<circle cx="928" cy="992" r="32" stroke="#E9E9E9" stroke-width="2"/>
</svg>
