<svg width="623" height="1024" viewBox="0 0 623 1024" fill="none" xmlns="http://www.w3.org/2000/svg">
<g opacity="0.3" clip-path="url(#clip0_38_587)">
<rect x="-32.375" y="-28.375" width="49.125" height="49.125" stroke="#47795F" stroke-width="2"/>
<circle cx="41.3125" cy="-3.8125" r="24.5625" stroke="#47795F" stroke-width="2"/>
<rect x="65.875" y="-28.375" width="49.125" height="49.125" stroke="#47795F" stroke-width="2"/>
<circle cx="139.562" cy="-3.8125" r="24.5625" stroke="#47795F" stroke-width="2"/>
<rect x="164.125" y="-28.375" width="49.125" height="49.125" stroke="#47795F" stroke-width="2"/>
<circle cx="237.812" cy="-3.8125" r="24.5625" stroke="#47795F" stroke-width="2"/>
<rect x="262.375" y="-28.375" width="49.125" height="49.125" stroke="#47795F" stroke-width="2"/>
<circle cx="336.062" cy="-3.8125" r="24.5625" stroke="#47795F" stroke-width="2"/>
<rect x="360.625" y="-28.375" width="49.125" height="49.125" stroke="#47795F" stroke-width="2"/>
<circle cx="434.312" cy="-3.8125" r="24.5625" stroke="#47795F" stroke-width="2"/>
<rect x="458.875" y="-28.375" width="49.125" height="49.125" stroke="#47795F" stroke-width="2"/>
<circle cx="532.562" cy="-3.8125" r="24.5625" stroke="#47795F" stroke-width="2"/>
<rect x="557.125" y="-28.375" width="49.125" height="49.125" stroke="#47795F" stroke-width="2"/>
<circle cx="630.812" cy="-3.8125" r="24.5625" stroke="#47795F" stroke-width="2"/>
<circle cx="-7.8125" cy="45.3125" r="24.5625" stroke="#47795F" stroke-width="2"/>
<rect x="16.75" y="20.75" width="49.125" height="49.125" stroke="#47795F" stroke-width="2"/>
<circle cx="90.4375" cy="45.3125" r="24.5625" stroke="#47795F" stroke-width="2"/>
<rect x="115" y="20.75" width="49.125" height="49.125" stroke="#47795F" stroke-width="2"/>
<circle cx="188.688" cy="45.3125" r="24.5625" stroke="#47795F" stroke-width="2"/>
<rect x="213.25" y="20.75" width="49.125" height="49.125" stroke="#47795F" stroke-width="2"/>
<circle cx="286.938" cy="45.3125" r="24.5625" stroke="#47795F" stroke-width="2"/>
<rect x="311.5" y="20.75" width="49.125" height="49.125" stroke="#47795F" stroke-width="2"/>
<circle cx="385.188" cy="45.3125" r="24.5625" stroke="#47795F" stroke-width="2"/>
<rect x="409.75" y="20.75" width="49.125" height="49.125" stroke="#47795F" stroke-width="2"/>
<circle cx="483.438" cy="45.3125" r="24.5625" stroke="#47795F" stroke-width="2"/>
<rect x="508" y="20.75" width="49.125" height="49.125" stroke="#47795F" stroke-width="2"/>
<circle cx="581.688" cy="45.3125" r="24.5625" stroke="#47795F" stroke-width="2"/>
<rect x="606.25" y="20.75" width="49.125" height="49.125" stroke="#47795F" stroke-width="2"/>
<rect x="-32.375" y="69.875" width="49.125" height="49.125" stroke="#47795F" stroke-width="2"/>
<circle cx="41.3125" cy="94.4375" r="24.5625" stroke="#47795F" stroke-width="2"/>
<rect x="65.875" y="69.875" width="49.125" height="49.125" stroke="#47795F" stroke-width="2"/>
<circle cx="139.562" cy="94.4375" r="24.5625" stroke="#47795F" stroke-width="2"/>
<rect x="164.125" y="69.875" width="49.125" height="49.125" stroke="#47795F" stroke-width="2"/>
<circle cx="237.812" cy="94.4375" r="24.5625" stroke="#47795F" stroke-width="2"/>
<rect x="262.375" y="69.875" width="49.125" height="49.125" stroke="#47795F" stroke-width="2"/>
<circle cx="336.062" cy="94.4375" r="24.5625" stroke="#47795F" stroke-width="2"/>
<rect x="360.625" y="69.875" width="49.125" height="49.125" stroke="#47795F" stroke-width="2"/>
<circle cx="434.312" cy="94.4375" r="24.5625" stroke="#47795F" stroke-width="2"/>
<rect x="458.875" y="69.875" width="49.125" height="49.125" stroke="#47795F" stroke-width="2"/>
<circle cx="532.562" cy="94.4375" r="24.5625" stroke="#47795F" stroke-width="2"/>
<rect x="557.125" y="69.875" width="49.125" height="49.125" stroke="#47795F" stroke-width="2"/>
<circle cx="630.812" cy="94.4375" r="24.5625" stroke="#47795F" stroke-width="2"/>
<circle cx="-7.8125" cy="143.562" r="24.5625" stroke="#47795F" stroke-width="2"/>
<rect x="16.75" y="119" width="49.125" height="49.125" stroke="#47795F" stroke-width="2"/>
<circle cx="90.4375" cy="143.562" r="24.5625" stroke="#47795F" stroke-width="2"/>
<rect x="115" y="119" width="49.125" height="49.125" stroke="#47795F" stroke-width="2"/>
<circle cx="188.688" cy="143.562" r="24.5625" stroke="#47795F" stroke-width="2"/>
<rect x="213.25" y="119" width="49.125" height="49.125" stroke="#47795F" stroke-width="2"/>
<circle cx="286.938" cy="143.562" r="24.5625" stroke="#47795F" stroke-width="2"/>
<rect x="311.5" y="119" width="49.125" height="49.125" stroke="#47795F" stroke-width="2"/>
<circle cx="385.188" cy="143.562" r="24.5625" stroke="#47795F" stroke-width="2"/>
<rect x="409.75" y="119" width="49.125" height="49.125" stroke="#47795F" stroke-width="2"/>
<circle cx="483.438" cy="143.562" r="24.5625" stroke="#47795F" stroke-width="2"/>
<rect x="508" y="119" width="49.125" height="49.125" stroke="#47795F" stroke-width="2"/>
<circle cx="581.688" cy="143.562" r="24.5625" stroke="#47795F" stroke-width="2"/>
<rect x="606.25" y="119" width="49.125" height="49.125" stroke="#47795F" stroke-width="2"/>
<rect x="-32.375" y="168.125" width="49.125" height="49.125" stroke="#47795F" stroke-width="2"/>
<circle cx="41.3125" cy="192.688" r="24.5625" stroke="#47795F" stroke-width="2"/>
<rect x="65.875" y="168.125" width="49.125" height="49.125" stroke="#47795F" stroke-width="2"/>
<circle cx="139.562" cy="192.688" r="24.5625" stroke="#47795F" stroke-width="2"/>
<rect x="164.125" y="168.125" width="49.125" height="49.125" stroke="#47795F" stroke-width="2"/>
<circle cx="237.812" cy="192.688" r="24.5625" stroke="#47795F" stroke-width="2"/>
<rect x="262.375" y="168.125" width="49.125" height="49.125" stroke="#47795F" stroke-width="2"/>
<circle cx="336.062" cy="192.688" r="24.5625" stroke="#47795F" stroke-width="2"/>
<rect x="360.625" y="168.125" width="49.125" height="49.125" stroke="#47795F" stroke-width="2"/>
<circle cx="434.312" cy="192.688" r="24.5625" stroke="#47795F" stroke-width="2"/>
<rect x="458.875" y="168.125" width="49.125" height="49.125" stroke="#47795F" stroke-width="2"/>
<circle cx="532.562" cy="192.688" r="24.5625" stroke="#47795F" stroke-width="2"/>
<rect x="557.125" y="168.125" width="49.125" height="49.125" stroke="#47795F" stroke-width="2"/>
<circle cx="630.812" cy="192.688" r="24.5625" stroke="#47795F" stroke-width="2"/>
<circle cx="-7.8125" cy="241.812" r="24.5625" stroke="#47795F" stroke-width="2"/>
<rect x="16.75" y="217.25" width="49.125" height="49.125" stroke="#47795F" stroke-width="2"/>
<circle cx="90.4375" cy="241.812" r="24.5625" stroke="#47795F" stroke-width="2"/>
<rect x="115" y="217.25" width="49.125" height="49.125" stroke="#47795F" stroke-width="2"/>
<circle cx="188.688" cy="241.812" r="24.5625" stroke="#47795F" stroke-width="2"/>
<rect x="213.25" y="217.25" width="49.125" height="49.125" stroke="#47795F" stroke-width="2"/>
<circle cx="286.938" cy="241.812" r="24.5625" stroke="#47795F" stroke-width="2"/>
<rect x="311.5" y="217.25" width="49.125" height="49.125" stroke="#47795F" stroke-width="2"/>
<circle cx="385.188" cy="241.812" r="24.5625" stroke="#47795F" stroke-width="2"/>
<rect x="409.75" y="217.25" width="49.125" height="49.125" stroke="#47795F" stroke-width="2"/>
<circle cx="483.438" cy="241.812" r="24.5625" stroke="#47795F" stroke-width="2"/>
<rect x="508" y="217.25" width="49.125" height="49.125" stroke="#47795F" stroke-width="2"/>
<circle cx="581.688" cy="241.812" r="24.5625" stroke="#47795F" stroke-width="2"/>
<rect x="606.25" y="217.25" width="49.125" height="49.125" stroke="#47795F" stroke-width="2"/>
<rect x="-32.375" y="266.375" width="49.125" height="49.125" stroke="#47795F" stroke-width="2"/>
<circle cx="41.3125" cy="290.938" r="24.5625" stroke="#47795F" stroke-width="2"/>
<rect x="65.875" y="266.375" width="49.125" height="49.125" stroke="#47795F" stroke-width="2"/>
<circle cx="139.562" cy="290.938" r="24.5625" stroke="#47795F" stroke-width="2"/>
<rect x="164.125" y="266.375" width="49.125" height="49.125" stroke="#47795F" stroke-width="2"/>
<circle cx="237.812" cy="290.938" r="24.5625" stroke="#47795F" stroke-width="2"/>
<rect x="262.375" y="266.375" width="49.125" height="49.125" stroke="#47795F" stroke-width="2"/>
<circle cx="336.062" cy="290.938" r="24.5625" stroke="#47795F" stroke-width="2"/>
<rect x="360.625" y="266.375" width="49.125" height="49.125" stroke="#47795F" stroke-width="2"/>
<circle cx="434.312" cy="290.938" r="24.5625" stroke="#47795F" stroke-width="2"/>
<rect x="458.875" y="266.375" width="49.125" height="49.125" stroke="#47795F" stroke-width="2"/>
<circle cx="532.562" cy="290.938" r="24.5625" stroke="#47795F" stroke-width="2"/>
<rect x="557.125" y="266.375" width="49.125" height="49.125" stroke="#47795F" stroke-width="2"/>
<circle cx="630.812" cy="290.938" r="24.5625" stroke="#47795F" stroke-width="2"/>
<circle cx="-7.8125" cy="340.062" r="24.5625" stroke="#47795F" stroke-width="2"/>
<rect x="16.75" y="315.5" width="49.125" height="49.125" stroke="#47795F" stroke-width="2"/>
<circle cx="90.4375" cy="340.062" r="24.5625" stroke="#47795F" stroke-width="2"/>
<rect x="115" y="315.5" width="49.125" height="49.125" stroke="#47795F" stroke-width="2"/>
<circle cx="188.688" cy="340.062" r="24.5625" stroke="#47795F" stroke-width="2"/>
<rect x="213.25" y="315.5" width="49.125" height="49.125" stroke="#47795F" stroke-width="2"/>
<circle cx="286.938" cy="340.062" r="24.5625" stroke="#47795F" stroke-width="2"/>
<rect x="311.5" y="315.5" width="49.125" height="49.125" stroke="#47795F" stroke-width="2"/>
<circle cx="385.188" cy="340.062" r="24.5625" stroke="#47795F" stroke-width="2"/>
<rect x="409.75" y="315.5" width="49.125" height="49.125" stroke="#47795F" stroke-width="2"/>
<circle cx="483.438" cy="340.062" r="24.5625" stroke="#47795F" stroke-width="2"/>
<rect x="508" y="315.5" width="49.125" height="49.125" stroke="#47795F" stroke-width="2"/>
<circle cx="581.688" cy="340.062" r="24.5625" stroke="#47795F" stroke-width="2"/>
<rect x="606.25" y="315.5" width="49.125" height="49.125" stroke="#47795F" stroke-width="2"/>
<rect x="-32.375" y="364.625" width="49.125" height="49.125" stroke="#47795F" stroke-width="2"/>
<circle cx="41.3125" cy="389.188" r="24.5625" stroke="#47795F" stroke-width="2"/>
<rect x="65.875" y="364.625" width="49.125" height="49.125" stroke="#47795F" stroke-width="2"/>
<circle cx="139.562" cy="389.188" r="24.5625" stroke="#47795F" stroke-width="2"/>
<rect x="164.125" y="364.625" width="49.125" height="49.125" stroke="#47795F" stroke-width="2"/>
<circle cx="237.812" cy="389.188" r="24.5625" stroke="#47795F" stroke-width="2"/>
<rect x="262.375" y="364.625" width="49.125" height="49.125" stroke="#47795F" stroke-width="2"/>
<circle cx="336.062" cy="389.188" r="24.5625" stroke="#47795F" stroke-width="2"/>
<rect x="360.625" y="364.625" width="49.125" height="49.125" stroke="#47795F" stroke-width="2"/>
<circle cx="434.312" cy="389.188" r="24.5625" stroke="#47795F" stroke-width="2"/>
<rect x="458.875" y="364.625" width="49.125" height="49.125" stroke="#47795F" stroke-width="2"/>
<circle cx="532.562" cy="389.188" r="24.5625" stroke="#47795F" stroke-width="2"/>
<rect x="557.125" y="364.625" width="49.125" height="49.125" stroke="#47795F" stroke-width="2"/>
<circle cx="630.812" cy="389.188" r="24.5625" stroke="#47795F" stroke-width="2"/>
<circle cx="-7.8125" cy="438.312" r="24.5625" stroke="#47795F" stroke-width="2"/>
<rect x="16.75" y="413.75" width="49.125" height="49.125" stroke="#47795F" stroke-width="2"/>
<circle cx="90.4375" cy="438.312" r="24.5625" stroke="#47795F" stroke-width="2"/>
<rect x="115" y="413.75" width="49.125" height="49.125" stroke="#47795F" stroke-width="2"/>
<circle cx="188.688" cy="438.312" r="24.5625" stroke="#47795F" stroke-width="2"/>
<rect x="213.25" y="413.75" width="49.125" height="49.125" stroke="#47795F" stroke-width="2"/>
<circle cx="286.938" cy="438.312" r="24.5625" stroke="#47795F" stroke-width="2"/>
<rect x="311.5" y="413.75" width="49.125" height="49.125" stroke="#47795F" stroke-width="2"/>
<circle cx="385.188" cy="438.312" r="24.5625" stroke="#47795F" stroke-width="2"/>
<rect x="409.75" y="413.75" width="49.125" height="49.125" stroke="#47795F" stroke-width="2"/>
<circle cx="483.438" cy="438.312" r="24.5625" stroke="#47795F" stroke-width="2"/>
<rect x="508" y="413.75" width="49.125" height="49.125" stroke="#47795F" stroke-width="2"/>
<circle cx="581.688" cy="438.312" r="24.5625" stroke="#47795F" stroke-width="2"/>
<rect x="606.25" y="413.75" width="49.125" height="49.125" stroke="#47795F" stroke-width="2"/>
<rect x="-32.375" y="462.875" width="49.125" height="49.125" stroke="#47795F" stroke-width="2"/>
<circle cx="41.3125" cy="487.438" r="24.5625" stroke="#47795F" stroke-width="2"/>
<rect x="65.875" y="462.875" width="49.125" height="49.125" stroke="#47795F" stroke-width="2"/>
<circle cx="139.562" cy="487.438" r="24.5625" stroke="#47795F" stroke-width="2"/>
<rect x="164.125" y="462.875" width="49.125" height="49.125" stroke="#47795F" stroke-width="2"/>
<circle cx="237.812" cy="487.438" r="24.5625" stroke="#47795F" stroke-width="2"/>
<rect x="262.375" y="462.875" width="49.125" height="49.125" stroke="#47795F" stroke-width="2"/>
<circle cx="336.062" cy="487.438" r="24.5625" stroke="#47795F" stroke-width="2"/>
<rect x="360.625" y="462.875" width="49.125" height="49.125" stroke="#47795F" stroke-width="2"/>
<circle cx="434.312" cy="487.438" r="24.5625" stroke="#47795F" stroke-width="2"/>
<rect x="458.875" y="462.875" width="49.125" height="49.125" stroke="#47795F" stroke-width="2"/>
<circle cx="532.562" cy="487.438" r="24.5625" stroke="#47795F" stroke-width="2"/>
<rect x="557.125" y="462.875" width="49.125" height="49.125" stroke="#47795F" stroke-width="2"/>
<circle cx="630.812" cy="487.438" r="24.5625" stroke="#47795F" stroke-width="2"/>
<circle cx="-7.8125" cy="536.562" r="24.5625" stroke="#47795F" stroke-width="2"/>
<rect x="16.75" y="512" width="49.125" height="49.125" stroke="#47795F" stroke-width="2"/>
<circle cx="90.4375" cy="536.562" r="24.5625" stroke="#47795F" stroke-width="2"/>
<rect x="115" y="512" width="49.125" height="49.125" stroke="#47795F" stroke-width="2"/>
<circle cx="188.688" cy="536.562" r="24.5625" stroke="#47795F" stroke-width="2"/>
<rect x="213.25" y="512" width="49.125" height="49.125" stroke="#47795F" stroke-width="2"/>
<circle cx="286.938" cy="536.562" r="24.5625" stroke="#47795F" stroke-width="2"/>
<rect x="311.5" y="512" width="49.125" height="49.125" stroke="#47795F" stroke-width="2"/>
<circle cx="385.188" cy="536.562" r="24.5625" stroke="#47795F" stroke-width="2"/>
<rect x="409.75" y="512" width="49.125" height="49.125" stroke="#47795F" stroke-width="2"/>
<circle cx="483.438" cy="536.562" r="24.5625" stroke="#47795F" stroke-width="2"/>
<rect x="508" y="512" width="49.125" height="49.125" stroke="#47795F" stroke-width="2"/>
<circle cx="581.688" cy="536.562" r="24.5625" stroke="#47795F" stroke-width="2"/>
<rect x="606.25" y="512" width="49.125" height="49.125" stroke="#47795F" stroke-width="2"/>
<rect x="-32.375" y="561.125" width="49.125" height="49.125" stroke="#47795F" stroke-width="2"/>
<circle cx="41.3125" cy="585.688" r="24.5625" stroke="#47795F" stroke-width="2"/>
<rect x="65.875" y="561.125" width="49.125" height="49.125" stroke="#47795F" stroke-width="2"/>
<circle cx="139.562" cy="585.688" r="24.5625" stroke="#47795F" stroke-width="2"/>
<rect x="164.125" y="561.125" width="49.125" height="49.125" stroke="#47795F" stroke-width="2"/>
<circle cx="237.812" cy="585.688" r="24.5625" stroke="#47795F" stroke-width="2"/>
<rect x="262.375" y="561.125" width="49.125" height="49.125" stroke="#47795F" stroke-width="2"/>
<circle cx="336.062" cy="585.688" r="24.5625" stroke="#47795F" stroke-width="2"/>
<rect x="360.625" y="561.125" width="49.125" height="49.125" stroke="#47795F" stroke-width="2"/>
<circle cx="434.312" cy="585.688" r="24.5625" stroke="#47795F" stroke-width="2"/>
<rect x="458.875" y="561.125" width="49.125" height="49.125" stroke="#47795F" stroke-width="2"/>
<circle cx="532.562" cy="585.688" r="24.5625" stroke="#47795F" stroke-width="2"/>
<rect x="557.125" y="561.125" width="49.125" height="49.125" stroke="#47795F" stroke-width="2"/>
<circle cx="630.812" cy="585.688" r="24.5625" stroke="#47795F" stroke-width="2"/>
<circle cx="-7.8125" cy="634.812" r="24.5625" stroke="#47795F" stroke-width="2"/>
<rect x="16.75" y="610.25" width="49.125" height="49.125" stroke="#47795F" stroke-width="2"/>
<circle cx="90.4375" cy="634.812" r="24.5625" stroke="#47795F" stroke-width="2"/>
<rect x="115" y="610.25" width="49.125" height="49.125" stroke="#47795F" stroke-width="2"/>
<circle cx="188.688" cy="634.812" r="24.5625" stroke="#47795F" stroke-width="2"/>
<rect x="213.25" y="610.25" width="49.125" height="49.125" stroke="#47795F" stroke-width="2"/>
<circle cx="286.938" cy="634.812" r="24.5625" stroke="#47795F" stroke-width="2"/>
<rect x="311.5" y="610.25" width="49.125" height="49.125" stroke="#47795F" stroke-width="2"/>
<circle cx="385.188" cy="634.812" r="24.5625" stroke="#47795F" stroke-width="2"/>
<rect x="409.75" y="610.25" width="49.125" height="49.125" stroke="#47795F" stroke-width="2"/>
<circle cx="483.438" cy="634.812" r="24.5625" stroke="#47795F" stroke-width="2"/>
<rect x="508" y="610.25" width="49.125" height="49.125" stroke="#47795F" stroke-width="2"/>
<circle cx="581.688" cy="634.812" r="24.5625" stroke="#47795F" stroke-width="2"/>
<rect x="606.25" y="610.25" width="49.125" height="49.125" stroke="#47795F" stroke-width="2"/>
<rect x="-32.375" y="659.375" width="49.125" height="49.125" stroke="#47795F" stroke-width="2"/>
<circle cx="41.3125" cy="683.938" r="24.5625" stroke="#47795F" stroke-width="2"/>
<rect x="65.875" y="659.375" width="49.125" height="49.125" stroke="#47795F" stroke-width="2"/>
<circle cx="139.562" cy="683.938" r="24.5625" stroke="#47795F" stroke-width="2"/>
<rect x="164.125" y="659.375" width="49.125" height="49.125" stroke="#47795F" stroke-width="2"/>
<circle cx="237.812" cy="683.938" r="24.5625" stroke="#47795F" stroke-width="2"/>
<rect x="262.375" y="659.375" width="49.125" height="49.125" stroke="#47795F" stroke-width="2"/>
<circle cx="336.062" cy="683.938" r="24.5625" stroke="#47795F" stroke-width="2"/>
<rect x="360.625" y="659.375" width="49.125" height="49.125" stroke="#47795F" stroke-width="2"/>
<circle cx="434.312" cy="683.938" r="24.5625" stroke="#47795F" stroke-width="2"/>
<rect x="458.875" y="659.375" width="49.125" height="49.125" stroke="#47795F" stroke-width="2"/>
<circle cx="532.562" cy="683.938" r="24.5625" stroke="#47795F" stroke-width="2"/>
<rect x="557.125" y="659.375" width="49.125" height="49.125" stroke="#47795F" stroke-width="2"/>
<circle cx="630.812" cy="683.938" r="24.5625" stroke="#47795F" stroke-width="2"/>
<circle cx="-7.8125" cy="733.062" r="24.5625" stroke="#47795F" stroke-width="2"/>
<rect x="16.75" y="708.5" width="49.125" height="49.125" stroke="#47795F" stroke-width="2"/>
<circle cx="90.4375" cy="733.062" r="24.5625" stroke="#47795F" stroke-width="2"/>
<rect x="115" y="708.5" width="49.125" height="49.125" stroke="#47795F" stroke-width="2"/>
<circle cx="188.688" cy="733.062" r="24.5625" stroke="#47795F" stroke-width="2"/>
<rect x="213.25" y="708.5" width="49.125" height="49.125" stroke="#47795F" stroke-width="2"/>
<circle cx="286.938" cy="733.062" r="24.5625" stroke="#47795F" stroke-width="2"/>
<rect x="311.5" y="708.5" width="49.125" height="49.125" stroke="#47795F" stroke-width="2"/>
<circle cx="385.188" cy="733.062" r="24.5625" stroke="#47795F" stroke-width="2"/>
<rect x="409.75" y="708.5" width="49.125" height="49.125" stroke="#47795F" stroke-width="2"/>
<circle cx="483.438" cy="733.062" r="24.5625" stroke="#47795F" stroke-width="2"/>
<rect x="508" y="708.5" width="49.125" height="49.125" stroke="#47795F" stroke-width="2"/>
<circle cx="581.688" cy="733.062" r="24.5625" stroke="#47795F" stroke-width="2"/>
<rect x="606.25" y="708.5" width="49.125" height="49.125" stroke="#47795F" stroke-width="2"/>
<rect x="-32.375" y="757.625" width="49.125" height="49.125" stroke="#47795F" stroke-width="2"/>
<circle cx="41.3125" cy="782.188" r="24.5625" stroke="#47795F" stroke-width="2"/>
<rect x="65.875" y="757.625" width="49.125" height="49.125" stroke="#47795F" stroke-width="2"/>
<circle cx="139.562" cy="782.188" r="24.5625" stroke="#47795F" stroke-width="2"/>
<rect x="164.125" y="757.625" width="49.125" height="49.125" stroke="#47795F" stroke-width="2"/>
<circle cx="237.812" cy="782.188" r="24.5625" stroke="#47795F" stroke-width="2"/>
<rect x="262.375" y="757.625" width="49.125" height="49.125" stroke="#47795F" stroke-width="2"/>
<circle cx="336.062" cy="782.188" r="24.5625" stroke="#47795F" stroke-width="2"/>
<rect x="360.625" y="757.625" width="49.125" height="49.125" stroke="#47795F" stroke-width="2"/>
<circle cx="434.312" cy="782.188" r="24.5625" stroke="#47795F" stroke-width="2"/>
<rect x="458.875" y="757.625" width="49.125" height="49.125" stroke="#47795F" stroke-width="2"/>
<circle cx="532.562" cy="782.188" r="24.5625" stroke="#47795F" stroke-width="2"/>
<rect x="557.125" y="757.625" width="49.125" height="49.125" stroke="#47795F" stroke-width="2"/>
<circle cx="630.812" cy="782.188" r="24.5625" stroke="#47795F" stroke-width="2"/>
<circle cx="-7.8125" cy="831.312" r="24.5625" stroke="#47795F" stroke-width="2"/>
<rect x="16.75" y="806.75" width="49.125" height="49.125" stroke="#47795F" stroke-width="2"/>
<circle cx="90.4375" cy="831.312" r="24.5625" stroke="#47795F" stroke-width="2"/>
<rect x="115" y="806.75" width="49.125" height="49.125" stroke="#47795F" stroke-width="2"/>
<circle cx="188.688" cy="831.312" r="24.5625" stroke="#47795F" stroke-width="2"/>
<rect x="213.25" y="806.75" width="49.125" height="49.125" stroke="#47795F" stroke-width="2"/>
<circle cx="286.938" cy="831.312" r="24.5625" stroke="#47795F" stroke-width="2"/>
<rect x="311.5" y="806.75" width="49.125" height="49.125" stroke="#47795F" stroke-width="2"/>
<circle cx="385.188" cy="831.312" r="24.5625" stroke="#47795F" stroke-width="2"/>
<rect x="409.75" y="806.75" width="49.125" height="49.125" stroke="#47795F" stroke-width="2"/>
<circle cx="483.438" cy="831.312" r="24.5625" stroke="#47795F" stroke-width="2"/>
<rect x="508" y="806.75" width="49.125" height="49.125" stroke="#47795F" stroke-width="2"/>
<circle cx="581.688" cy="831.312" r="24.5625" stroke="#47795F" stroke-width="2"/>
<rect x="606.25" y="806.75" width="49.125" height="49.125" stroke="#47795F" stroke-width="2"/>
<rect x="-32.375" y="855.875" width="49.125" height="49.125" stroke="#47795F" stroke-width="2"/>
<circle cx="41.3125" cy="880.438" r="24.5625" stroke="#47795F" stroke-width="2"/>
<rect x="65.875" y="855.875" width="49.125" height="49.125" stroke="#47795F" stroke-width="2"/>
<circle cx="139.562" cy="880.438" r="24.5625" stroke="#47795F" stroke-width="2"/>
<rect x="164.125" y="855.875" width="49.125" height="49.125" stroke="#47795F" stroke-width="2"/>
<circle cx="237.812" cy="880.438" r="24.5625" stroke="#47795F" stroke-width="2"/>
<rect x="262.375" y="855.875" width="49.125" height="49.125" stroke="#47795F" stroke-width="2"/>
<circle cx="336.062" cy="880.438" r="24.5625" stroke="#47795F" stroke-width="2"/>
<rect x="360.625" y="855.875" width="49.125" height="49.125" stroke="#47795F" stroke-width="2"/>
<circle cx="434.312" cy="880.438" r="24.5625" stroke="#47795F" stroke-width="2"/>
<rect x="458.875" y="855.875" width="49.125" height="49.125" stroke="#47795F" stroke-width="2"/>
<circle cx="532.562" cy="880.438" r="24.5625" stroke="#47795F" stroke-width="2"/>
<rect x="557.125" y="855.875" width="49.125" height="49.125" stroke="#47795F" stroke-width="2"/>
<circle cx="630.812" cy="880.438" r="24.5625" stroke="#47795F" stroke-width="2"/>
<circle cx="-7.8125" cy="929.562" r="24.5625" stroke="#47795F" stroke-width="2"/>
<rect x="16.75" y="905" width="49.125" height="49.125" stroke="#47795F" stroke-width="2"/>
<circle cx="90.4375" cy="929.562" r="24.5625" stroke="#47795F" stroke-width="2"/>
<rect x="115" y="905" width="49.125" height="49.125" stroke="#47795F" stroke-width="2"/>
<circle cx="188.688" cy="929.562" r="24.5625" stroke="#47795F" stroke-width="2"/>
<rect x="213.25" y="905" width="49.125" height="49.125" stroke="#47795F" stroke-width="2"/>
<circle cx="286.938" cy="929.562" r="24.5625" stroke="#47795F" stroke-width="2"/>
<rect x="311.5" y="905" width="49.125" height="49.125" stroke="#47795F" stroke-width="2"/>
<circle cx="385.188" cy="929.562" r="24.5625" stroke="#47795F" stroke-width="2"/>
<rect x="409.75" y="905" width="49.125" height="49.125" stroke="#47795F" stroke-width="2"/>
<circle cx="483.438" cy="929.562" r="24.5625" stroke="#47795F" stroke-width="2"/>
<rect x="508" y="905" width="49.125" height="49.125" stroke="#47795F" stroke-width="2"/>
<circle cx="581.688" cy="929.562" r="24.5625" stroke="#47795F" stroke-width="2"/>
<rect x="606.25" y="905" width="49.125" height="49.125" stroke="#47795F" stroke-width="2"/>
<rect x="-32.375" y="954.125" width="49.125" height="49.125" stroke="#47795F" stroke-width="2"/>
<circle cx="41.3125" cy="978.688" r="24.5625" stroke="#47795F" stroke-width="2"/>
<rect x="65.875" y="954.125" width="49.125" height="49.125" stroke="#47795F" stroke-width="2"/>
<circle cx="139.562" cy="978.688" r="24.5625" stroke="#47795F" stroke-width="2"/>
<rect x="164.125" y="954.125" width="49.125" height="49.125" stroke="#47795F" stroke-width="2"/>
<circle cx="237.812" cy="978.688" r="24.5625" stroke="#47795F" stroke-width="2"/>
<rect x="262.375" y="954.125" width="49.125" height="49.125" stroke="#47795F" stroke-width="2"/>
<circle cx="336.062" cy="978.688" r="24.5625" stroke="#47795F" stroke-width="2"/>
<rect x="360.625" y="954.125" width="49.125" height="49.125" stroke="#47795F" stroke-width="2"/>
<circle cx="434.312" cy="978.688" r="24.5625" stroke="#47795F" stroke-width="2"/>
<rect x="458.875" y="954.125" width="49.125" height="49.125" stroke="#47795F" stroke-width="2"/>
<circle cx="532.562" cy="978.688" r="24.5625" stroke="#47795F" stroke-width="2"/>
<rect x="557.125" y="954.125" width="49.125" height="49.125" stroke="#47795F" stroke-width="2"/>
<circle cx="630.812" cy="978.688" r="24.5625" stroke="#47795F" stroke-width="2"/>
<circle cx="-7.8125" cy="1027.81" r="24.5625" stroke="#47795F" stroke-width="2"/>
<rect x="16.75" y="1003.25" width="49.125" height="49.125" stroke="#47795F" stroke-width="2"/>
<circle cx="90.4375" cy="1027.81" r="24.5625" stroke="#47795F" stroke-width="2"/>
<rect x="115" y="1003.25" width="49.125" height="49.125" stroke="#47795F" stroke-width="2"/>
<circle cx="188.688" cy="1027.81" r="24.5625" stroke="#47795F" stroke-width="2"/>
<rect x="213.25" y="1003.25" width="49.125" height="49.125" stroke="#47795F" stroke-width="2"/>
<circle cx="286.938" cy="1027.81" r="24.5625" stroke="#47795F" stroke-width="2"/>
<rect x="311.5" y="1003.25" width="49.125" height="49.125" stroke="#47795F" stroke-width="2"/>
<circle cx="385.188" cy="1027.81" r="24.5625" stroke="#47795F" stroke-width="2"/>
<rect x="409.75" y="1003.25" width="49.125" height="49.125" stroke="#47795F" stroke-width="2"/>
<circle cx="483.438" cy="1027.81" r="24.5625" stroke="#47795F" stroke-width="2"/>
<rect x="508" y="1003.25" width="49.125" height="49.125" stroke="#47795F" stroke-width="2"/>
<circle cx="581.688" cy="1027.81" r="24.5625" stroke="#47795F" stroke-width="2"/>
<rect x="606.25" y="1003.25" width="49.125" height="49.125" stroke="#47795F" stroke-width="2"/>
</g>
<defs>
<clipPath id="clip0_38_587">
<rect width="623" height="1024" fill="white"/>
</clipPath>
</defs>
</svg>
