<svg width="255" height="48" viewBox="0 0 255 48" fill="none" xmlns="http://www.w3.org/2000/svg">
<path d="M32.0709 11.3013C32.0709 5.05979 27.0111 0 20.7697 0C14.5278 0 9.46802 5.05979 9.46802 11.3013H32.0709Z" fill="#FFB800"/>
<path d="M0.0737305 11.3008H41.5382V20.7693H0.0737305V11.3008Z" fill="#3F6D5B"/>
<path d="M9.46803 11.3017V48H0V11.3017H9.46803Z" fill="#3F6D5B"/>
<path d="M9.46803 11.3017V48H0V11.3017H9.46803Z" fill="#3F6D5B"/>
<path d="M41.5393 11.3017V48H32.0709V11.3017H41.5393Z" fill="#3F6D5B"/>
<path d="M0.0737305 38.5316L41.5382 38.5319V48H0.0737305V38.5316Z" fill="#3F6D5B"/>
<path d="M98.5099 46.3103H86.1212L79.0418 36.3992L71.7854 46.3103H59.6323L72.6998 29.7624L59.8389 13.1846H72.2276L79.1892 22.9187L86.1799 13.1846H98.3625L85.472 29.4967L98.5099 46.3103Z" fill="black"/>
<path d="M124.35 37.6676V30.7651C122.915 30.8829 121.361 31.0501 119.69 31.2665C118.018 31.4632 116.75 31.6993 115.884 31.9744C114.822 32.3086 114.006 32.8005 113.436 33.4493C112.885 34.0788 112.61 34.9144 112.61 35.9565C112.61 36.6451 112.669 37.2052 112.787 37.638C112.905 38.0708 113.2 38.4835 113.672 38.8768C114.124 39.2702 114.665 39.565 115.294 39.7617C115.923 39.9387 116.907 40.0274 118.244 40.0274C119.306 40.0274 120.378 39.811 121.459 39.3782C122.561 38.9458 123.524 38.3755 124.35 37.6676ZM124.35 42.8003C123.78 43.2327 123.072 43.7537 122.226 44.3635C121.38 44.9733 120.584 45.4549 119.837 45.8089C118.794 46.2807 117.713 46.6248 116.592 46.8412C115.471 47.0773 114.242 47.1951 112.905 47.1951C109.758 47.1951 107.123 46.222 105 44.2748C102.876 42.3281 101.814 39.8406 101.814 36.8123C101.814 34.3933 102.355 32.417 103.436 30.883C104.518 29.3493 106.052 28.1396 108.038 27.2547C110.004 26.3699 112.443 25.7408 115.353 25.3671C118.264 24.9935 121.282 24.718 124.409 24.541V24.364C124.409 22.5351 123.662 21.2766 122.167 20.5884C120.673 19.8805 118.47 19.5265 115.56 19.5265C113.81 19.5265 111.941 19.8411 109.955 20.4705C107.969 21.0799 106.543 21.5521 105.678 21.8863H104.705V13.8925C105.826 13.5976 107.645 13.2535 110.162 12.8602C112.698 12.4471 115.235 12.2405 117.772 12.2405C123.809 12.2405 128.165 13.1747 130.839 15.043C133.534 16.8916 134.881 19.8017 134.881 23.7744V46.3102H124.35V42.8003Z" fill="black"/>
<path d="M173.227 46.3103H142.108V39.4965L159.57 20.9423H142.816V13.1846H172.903V19.8805L155.706 38.405H173.227V46.3103Z" fill="black"/>
<path d="M213.964 46.3102H203.285V29.8802C203.285 28.5428 203.216 27.2157 203.079 25.898C202.941 24.5607 202.705 23.5776 202.371 22.9482C201.978 22.2206 201.398 21.6896 200.631 21.3554C199.883 21.0211 198.831 20.854 197.474 20.854C196.511 20.854 195.528 21.0113 194.525 21.3258C193.541 21.6404 192.47 22.1421 191.309 22.8303V46.3102H180.69V13.1845H191.309V16.8423C193.197 15.3674 195.007 14.2365 196.737 13.4502C198.487 12.6634 200.424 12.2701 202.548 12.2701C206.127 12.2701 208.92 13.3122 210.925 15.3969C212.951 17.4812 213.964 20.5982 213.964 24.7475V46.3102Z" fill="black"/>
<path d="M243.815 37.6676V30.7651C242.379 30.8829 240.826 31.0501 239.154 31.2665C237.483 31.4632 236.214 31.6993 235.349 31.9744C234.287 32.3086 233.471 32.8005 232.901 33.4493C232.35 34.0788 232.075 34.9144 232.075 35.9565C232.075 36.6451 232.134 37.2052 232.252 37.638C232.37 38.0708 232.665 38.4835 233.137 38.8768C233.589 39.2702 234.13 39.565 234.759 39.7617C235.389 39.9387 236.372 40.0274 237.709 40.0274C238.771 40.0274 239.843 39.811 240.924 39.3782C242.025 38.9458 242.989 38.3755 243.815 37.6676ZM243.815 42.8003C243.245 43.2327 242.537 43.7537 241.691 44.3635C240.846 44.9733 240.049 45.4549 239.302 45.8089C238.26 46.2807 237.178 46.6248 236.057 46.8412C234.936 47.0773 233.707 47.1951 232.37 47.1951C229.224 47.1951 226.588 46.222 224.465 44.2748C222.341 42.3281 221.279 39.8406 221.279 36.8123C221.279 34.3933 221.82 32.417 222.901 30.883C223.983 29.3493 225.517 28.1396 227.503 27.2547C229.47 26.3699 231.908 25.7408 234.818 25.3671C237.729 24.9935 240.747 24.718 243.874 24.541V24.364C243.874 22.5351 243.127 21.2766 241.632 20.5884C240.138 19.8805 237.935 19.5265 235.025 19.5265C233.275 19.5265 231.406 19.8411 229.42 20.4705C227.434 21.0799 226.009 21.5521 225.143 21.8863H224.17V13.8925C225.291 13.5976 227.11 13.2535 229.627 12.8602C232.164 12.4471 234.7 12.2405 237.237 12.2405C243.274 12.2405 247.63 13.1747 250.305 15.043C252.999 16.8916 254.346 19.8017 254.346 23.7744V46.3102H243.815V42.8003Z" fill="black"/>
</svg>
