<svg width="1110" height="6" viewBox="0 0 1110 6" fill="none" xmlns="http://www.w3.org/2000/svg">
  <g filter="url(#filter0_i)">
    <path
      d="M0 4.96429C1.76426 4.96429 2.62802 4.11315 3.61389 3.12728L3.63084 3.11033C4.62288 2.11822 5.74102 1 7.92857 1C10.1161 1 11.2343 2.11822 12.2263 3.11033L12.2433 3.12728C13.2291 4.11315 14.0929 4.96429 15.8571 4.96429C17.6214 4.96429 18.4852 4.11315 19.471 3.12728L19.488 3.11033C20.48 2.11822 21.5982 1 23.7857 1C25.9733 1 27.0914 2.11822 28.0834 3.11033L28.1004 3.12728C29.0863 4.11315 29.95 4.96429 31.7143 4.96429C33.4785 4.96429 34.3423 4.11315 35.3282 3.12728L35.3451 3.11033C36.3372 2.11822 37.4553 1 39.6429 1C41.8304 1 42.9485 2.11822 43.9406 3.11033L43.9575 3.12728C44.9434 4.11315 45.8072 4.96429 47.5714 4.96429C49.3357 4.96429 50.1995 4.11315 51.1853 3.12728L51.2023 3.11033C52.1943 2.11822 53.3124 1 55.5 1C57.6876 1 58.8057 2.11822 59.7977 3.11033L59.8147 3.12728C60.8005 4.11315 61.6643 4.96429 63.4286 4.96429C65.1928 4.96429 66.0566 4.11315 67.0425 3.12728L67.0594 3.11033C68.0514 2.11822 69.1696 1 71.3571 1C73.5447 1 74.6628 2.11822 75.6549 3.11033L75.6718 3.12728C76.6577 4.11315 77.5214 4.96429 79.2857 4.96429C81.05 4.96429 81.9137 4.11315 82.8996 3.12728L82.9165 3.11033C83.9086 2.11822 85.0267 1 87.2143 1C89.4018 1 90.52 2.11822 91.512 3.11033L91.529 3.12728C92.5148 4.11315 93.3786 4.96429 95.1429 4.96429C96.9071 4.96429 97.7709 4.11315 98.7567 3.12728L98.7737 3.11033C99.7657 2.11822 100.884 1 103.071 1C105.259 1 106.377 2.11822 107.369 3.11033L107.386 3.12728C108.372 4.11315 109.236 4.96429 111 4.96429C112.764 4.96429 113.628 4.11315 114.614 3.12728L114.631 3.11033C115.623 2.11822 116.741 1 118.929 1C121.116 1 122.234 2.11822 123.226 3.11033L123.243 3.12728C124.229 4.11315 125.093 4.96429 126.857 4.96429C128.621 4.96429 129.485 4.11315 130.471 3.12728L130.488 3.11033C131.48 2.11822 132.598 1 134.786 1C136.973 1 138.091 2.11822 139.083 3.11033L139.1 3.12728C140.086 4.11315 140.95 4.96429 142.714 4.96429C144.479 4.96429 145.342 4.11315 146.328 3.12728L146.345 3.11033C147.337 2.11822 148.455 1 150.643 1C152.83 1 153.949 2.11822 154.941 3.11033L154.958 3.12728C155.943 4.11315 156.807 4.96429 158.571 4.96429C160.336 4.96429 161.199 4.11315 162.185 3.12728L162.202 3.11033C163.194 2.11822 164.312 1 166.5 1C168.688 1 169.806 2.11822 170.798 3.11033L170.815 3.12728C171.801 4.11315 172.664 4.96429 174.429 4.96429C176.193 4.96429 177.057 4.11315 178.042 3.12728L178.059 3.11033C179.051 2.11822 180.17 1 182.357 1C184.545 1 185.663 2.11822 186.655 3.11033L186.672 3.12728C187.658 4.11315 188.521 4.96429 190.286 4.96429C192.05 4.96429 192.914 4.11315 193.9 3.12728L193.917 3.11033C194.909 2.11822 196.027 1 198.214 1C200.402 1 201.52 2.11822 202.512 3.11033L202.529 3.12728C203.515 4.11315 204.379 4.96429 206.143 4.96429C207.907 4.96429 208.771 4.11315 209.757 3.12728L209.774 3.11033C210.766 2.11822 211.884 1 214.071 1C216.259 1 217.377 2.11822 218.369 3.11033L218.386 3.12728C219.372 4.11315 220.236 4.96429 222 4.96429C223.764 4.96429 224.628 4.11315 225.614 3.12728L225.631 3.11033C226.623 2.11822 227.741 1 229.929 1C232.116 1 233.234 2.11822 234.226 3.11033L234.243 3.12728C235.229 4.11315 236.093 4.96429 237.857 4.96429C239.621 4.96429 240.485 4.11315 241.471 3.12728L241.488 3.11033C242.48 2.11822 243.598 1 245.786 1C247.973 1 249.091 2.11822 250.083 3.11033L250.1 3.12728C251.086 4.11315 251.95 4.96429 253.714 4.96429C255.479 4.96429 256.342 4.11315 257.328 3.12728L257.345 3.11033C258.337 2.11822 259.455 1 261.643 1C263.83 1 264.949 2.11822 265.941 3.11033L265.958 3.12728C266.943 4.11315 267.807 4.96429 269.571 4.96429C271.336 4.96429 272.199 4.11315 273.185 3.12728L273.202 3.11033C274.194 2.11822 275.312 1 277.5 1C279.688 1 280.806 2.11822 281.798 3.11033L281.815 3.12728C282.801 4.11315 283.664 4.96429 285.429 4.96429C287.193 4.96429 288.057 4.11315 289.042 3.12728L289.059 3.11033C290.051 2.11822 291.17 1 293.357 1C295.545 1 296.663 2.11822 297.655 3.11033L297.672 3.12728C298.658 4.11315 299.521 4.96429 301.286 4.96429C303.05 4.96429 303.914 4.11315 304.9 3.12728L304.917 3.11033C305.909 2.11822 307.027 1 309.214 1C311.402 1 312.52 2.11822 313.512 3.11033L313.529 3.12728C314.515 4.11315 315.379 4.96429 317.143 4.96429C318.907 4.96429 319.771 4.11315 320.757 3.12728L320.774 3.11033C321.766 2.11822 322.884 1 325.071 1C327.259 1 328.377 2.11822 329.369 3.11033L329.386 3.12728C330.372 4.11315 331.236 4.96429 333 4.96429C334.764 4.96429 335.628 4.11315 336.614 3.12728L336.631 3.11033C337.623 2.11822 338.741 1 340.929 1C343.116 1 344.234 2.11822 345.226 3.11033L345.243 3.12728C346.229 4.11315 347.093 4.96429 348.857 4.96429C350.621 4.96429 351.485 4.11315 352.471 3.12728L352.488 3.11033C353.48 2.11822 354.598 1 356.786 1C358.973 1 360.091 2.11822 361.083 3.11033L361.1 3.12728C362.086 4.11315 362.95 4.96429 364.714 4.96429C366.479 4.96429 367.342 4.11315 368.328 3.12728L368.345 3.11033C369.337 2.11822 370.455 1 372.643 1C374.83 1 375.949 2.11822 376.941 3.11033L376.958 3.12728C377.943 4.11315 378.807 4.96429 380.571 4.96429C382.336 4.96429 383.199 4.11315 384.185 3.12728L384.202 3.11033C385.194 2.11822 386.312 1 388.5 1C390.688 1 391.806 2.11822 392.798 3.11033L392.815 3.12728C393.801 4.11315 394.664 4.96429 396.429 4.96429C398.193 4.96429 399.057 4.11315 400.042 3.12728L400.059 3.11033C401.051 2.11822 402.17 1 404.357 1C406.545 1 407.663 2.11822 408.655 3.11033L408.672 3.12728C409.658 4.11315 410.521 4.96429 412.286 4.96429C414.05 4.96429 414.914 4.11315 415.9 3.12728L415.917 3.11033C416.909 2.11822 418.027 1 420.214 1C422.402 1 423.52 2.11822 424.512 3.11033L424.529 3.12728C425.515 4.11315 426.379 4.96429 428.143 4.96429C429.907 4.96429 430.771 4.11315 431.757 3.12728L431.774 3.11033C432.766 2.11822 433.884 1 436.071 1C438.259 1 439.377 2.11822 440.369 3.11033L440.386 3.12728C441.372 4.11315 442.236 4.96429 444 4.96429C445.764 4.96429 446.628 4.11315 447.614 3.12728L447.631 3.11033C448.623 2.11822 449.741 1 451.929 1C454.116 1 455.234 2.11822 456.226 3.11033L456.243 3.12728C457.229 4.11315 458.093 4.96429 459.857 4.96429C461.621 4.96429 462.485 4.11315 463.471 3.12728L463.488 3.11033C464.48 2.11822 465.598 1 467.786 1C469.973 1 471.091 2.11822 472.083 3.11033L472.1 3.12728C473.086 4.11315 473.95 4.96429 475.714 4.96429C477.479 4.96429 478.342 4.11315 479.328 3.12728L479.345 3.11033C480.337 2.11822 481.455 1 483.643 1C485.83 1 486.949 2.11822 487.941 3.11033L487.957 3.12728C488.943 4.11315 489.807 4.96429 491.571 4.96429C493.336 4.96429 494.199 4.11315 495.185 3.12728L495.202 3.11033C496.194 2.11822 497.312 1 499.5 1C501.688 1 502.806 2.11822 503.798 3.11033L503.815 3.12728C504.801 4.11315 505.664 4.96429 507.429 4.96429C509.193 4.96429 510.057 4.11315 511.042 3.12728L511.059 3.11033C512.051 2.11822 513.17 1 515.357 1C517.545 1 518.663 2.11822 519.655 3.11033L519.672 3.12728C520.658 4.11315 521.521 4.96429 523.286 4.96429C525.05 4.96429 525.914 4.11315 526.9 3.12728L526.917 3.11033C527.909 2.11822 529.027 1 531.214 1C533.402 1 534.52 2.11822 535.512 3.11033L535.529 3.12728C536.515 4.11315 537.379 4.96429 539.143 4.96429C540.907 4.96429 541.771 4.11315 542.757 3.12728L542.774 3.11033C543.766 2.11822 544.884 1 547.071 1C549.259 1 550.377 2.11822 551.369 3.11033L551.386 3.12728C552.372 4.11315 553.236 4.96429 555 4.96429C556.764 4.96429 557.628 4.11315 558.614 3.12728L558.631 3.11033C559.623 2.11822 560.741 1 562.929 1C565.116 1 566.234 2.11822 567.226 3.11033L567.243 3.12728C568.229 4.11315 569.093 4.96429 570.857 4.96429C572.621 4.96429 573.485 4.11315 574.471 3.12728L574.488 3.11033C575.48 2.11822 576.598 1 578.786 1C580.973 1 582.091 2.11822 583.083 3.11033L583.1 3.12728C584.086 4.11315 584.95 4.96429 586.714 4.96429C588.478 4.96429 589.342 4.11315 590.328 3.12728L590.345 3.11033C591.337 2.11822 592.455 1 594.643 1C596.83 1 597.949 2.11822 598.941 3.11033L598.958 3.12728C599.943 4.11315 600.807 4.96429 602.571 4.96429C604.336 4.96429 605.199 4.11315 606.185 3.12728L606.202 3.11033C607.194 2.11822 608.312 1 610.5 1C612.688 1 613.806 2.11822 614.798 3.11033L614.815 3.12728C615.801 4.11315 616.664 4.96429 618.429 4.96429C620.193 4.96429 621.057 4.11315 622.042 3.12728L622.059 3.11033C623.051 2.11822 624.17 1 626.357 1C628.545 1 629.663 2.11822 630.655 3.11033L630.672 3.12728C631.658 4.11315 632.521 4.96429 634.286 4.96429C636.05 4.96429 636.914 4.11315 637.9 3.12728L637.917 3.11033C638.909 2.11822 640.027 1 642.214 1C644.402 1 645.52 2.11822 646.512 3.11033L646.529 3.12728C647.515 4.11315 648.379 4.96429 650.143 4.96429C651.907 4.96429 652.771 4.11315 653.757 3.12728L653.774 3.11033C654.766 2.11822 655.884 1 658.071 1C660.259 1 661.377 2.11822 662.369 3.11033L662.386 3.12728C663.372 4.11315 664.236 4.96429 666 4.96429C667.764 4.96429 668.628 4.11315 669.614 3.12728L669.631 3.11033C670.623 2.11822 671.741 1 673.929 1C676.116 1 677.234 2.11822 678.226 3.11033L678.243 3.12728C679.229 4.11315 680.093 4.96429 681.857 4.96429C683.621 4.96429 684.485 4.11315 685.471 3.12728L685.488 3.11033C686.48 2.11822 687.598 1 689.786 1C691.973 1 693.091 2.11822 694.083 3.11033L694.1 3.12728C695.086 4.11315 695.95 4.96429 697.714 4.96429C699.478 4.96429 700.342 4.11315 701.328 3.12728L701.345 3.11033C702.337 2.11822 703.455 1 705.643 1C707.83 1 708.949 2.11822 709.941 3.11033L709.958 3.12728C710.943 4.11315 711.807 4.96429 713.571 4.96429C715.336 4.96429 716.199 4.11315 717.185 3.12728L717.202 3.11033C718.194 2.11822 719.312 1 721.5 1C723.688 1 724.806 2.11822 725.798 3.11033L725.815 3.12728C726.801 4.11315 727.664 4.96429 729.429 4.96429C731.193 4.96429 732.057 4.11315 733.042 3.12728L733.059 3.11033C734.051 2.11822 735.17 1 737.357 1C739.545 1 740.663 2.11822 741.655 3.11033L741.672 3.12728C742.658 4.11315 743.521 4.96429 745.286 4.96429C747.05 4.96429 747.914 4.11315 748.9 3.12728L748.917 3.11033C749.909 2.11822 751.027 1 753.214 1C755.402 1 756.52 2.11822 757.512 3.11033L757.529 3.12728C758.515 4.11315 759.379 4.96429 761.143 4.96429C762.907 4.96429 763.771 4.11315 764.757 3.12728L764.774 3.11033C765.766 2.11822 766.884 1 769.071 1C771.259 1 772.377 2.11822 773.369 3.11033L773.386 3.12728C774.372 4.11315 775.236 4.96429 777 4.96429C778.764 4.96429 779.628 4.11315 780.614 3.12728L780.631 3.11033C781.623 2.11822 782.741 1 784.929 1C787.116 1 788.234 2.11822 789.226 3.11033L789.243 3.12728C790.229 4.11315 791.093 4.96429 792.857 4.96429C794.621 4.96429 795.485 4.11315 796.471 3.12728L796.488 3.11033C797.48 2.11822 798.598 1 800.786 1C802.973 1 804.091 2.11822 805.083 3.11033L805.1 3.12728C806.086 4.11315 806.95 4.96429 808.714 4.96429C810.478 4.96429 811.342 4.11315 812.328 3.12728L812.345 3.11033C813.337 2.11822 814.455 1 816.643 1C818.83 1 819.949 2.11822 820.941 3.11033L820.958 3.12728C821.943 4.11315 822.807 4.96429 824.571 4.96429C826.336 4.96429 827.199 4.11315 828.185 3.12728L828.202 3.11033C829.194 2.11822 830.312 1 832.5 1C834.688 1 835.806 2.11822 836.798 3.11033L836.815 3.12728C837.801 4.11315 838.664 4.96429 840.429 4.96429C842.193 4.96429 843.057 4.11315 844.042 3.12728L844.059 3.11033C845.051 2.11822 846.17 1 848.357 1C850.545 1 851.663 2.11822 852.655 3.11033L852.672 3.12728C853.658 4.11315 854.521 4.96429 856.286 4.96429C858.05 4.96429 858.914 4.11315 859.9 3.12728L859.917 3.11033C860.909 2.11822 862.027 1 864.214 1C866.402 1 867.52 2.11822 868.512 3.11033L868.529 3.12728C869.515 4.11315 870.379 4.96429 872.143 4.96429C873.907 4.96429 874.771 4.11315 875.757 3.12728L875.774 3.11033C876.766 2.11822 877.884 1 880.071 1C882.259 1 883.377 2.11822 884.369 3.11033L884.386 3.12728C885.372 4.11315 886.236 4.96429 888 4.96429C889.764 4.96429 890.628 4.11315 891.614 3.12728L891.631 3.11033C892.623 2.11822 893.741 1 895.929 1C898.116 1 899.234 2.11822 900.226 3.11033L900.243 3.12728C901.229 4.11315 902.093 4.96429 903.857 4.96429C905.621 4.96429 906.485 4.11315 907.471 3.12728L907.488 3.11033C908.48 2.11822 909.598 1 911.786 1C913.973 1 915.091 2.11822 916.083 3.11033L916.1 3.12728C917.086 4.11315 917.95 4.96429 919.714 4.96429C921.478 4.96429 922.342 4.11315 923.328 3.12728L923.345 3.11033C924.337 2.11822 925.455 1 927.643 1C929.83 1 930.949 2.11822 931.941 3.11033L931.958 3.12728C932.943 4.11315 933.807 4.96429 935.571 4.96429C937.336 4.96429 938.199 4.11315 939.185 3.12728L939.202 3.11033C940.194 2.11822 941.312 1 943.5 1C945.688 1 946.806 2.11822 947.798 3.11033L947.815 3.12728C948.801 4.11315 949.664 4.96429 951.429 4.96429C953.193 4.96429 954.057 4.11315 955.042 3.12728L955.059 3.11033C956.051 2.11822 957.17 1 959.357 1C961.545 1 962.663 2.11822 963.655 3.11033L963.672 3.12728C964.658 4.11315 965.521 4.96429 967.286 4.96429C969.05 4.96429 969.914 4.11315 970.9 3.12728L970.917 3.11033C971.909 2.11822 973.027 1 975.214 1C977.402 1 978.52 2.11822 979.512 3.11033L979.529 3.12728C980.515 4.11315 981.379 4.96429 983.143 4.96429C984.907 4.96429 985.771 4.11315 986.757 3.12728L986.774 3.11033C987.766 2.11822 988.884 1 991.071 1C993.259 1 994.377 2.11822 995.369 3.11033L995.386 3.12728C996.372 4.11315 997.236 4.96429 999 4.96429C1000.76 4.96429 1001.63 4.11315 1002.61 3.12728L1002.63 3.11033C1003.62 2.11822 1004.74 1 1006.93 1C1009.12 1 1010.23 2.11822 1011.23 3.11033L1011.24 3.12728C1012.23 4.11315 1013.09 4.96429 1014.86 4.96429C1016.62 4.96429 1017.49 4.11315 1018.47 3.12728L1018.49 3.11033C1019.48 2.11822 1020.6 1 1022.79 1C1024.97 1 1026.09 2.11822 1027.08 3.11033L1027.1 3.12728C1028.09 4.11315 1028.95 4.96429 1030.71 4.96429C1032.48 4.96429 1033.34 4.11315 1034.33 3.12728L1034.35 3.11033C1035.34 2.11822 1036.46 1 1038.64 1C1040.83 1 1041.95 2.11822 1042.94 3.11033L1042.96 3.12728C1043.94 4.11315 1044.81 4.96429 1046.57 4.96429C1048.34 4.96429 1049.2 4.11315 1050.19 3.12728L1050.2 3.11033C1051.19 2.11822 1052.31 1 1054.5 1C1056.69 1 1057.81 2.11822 1058.8 3.11033L1058.81 3.12728C1059.8 4.11315 1060.66 4.96429 1062.43 4.96429C1064.19 4.96429 1065.06 4.11315 1066.04 3.12728L1066.06 3.11033C1067.05 2.11822 1068.17 1 1070.36 1C1072.54 1 1073.66 2.11822 1074.65 3.11033L1074.67 3.12728C1075.66 4.11315 1076.52 4.96429 1078.29 4.96429C1080.05 4.96429 1080.91 4.11315 1081.9 3.12728L1081.92 3.11033C1082.91 2.11822 1084.03 1 1086.21 1C1088.4 1 1089.52 2.11822 1090.51 3.11033L1090.53 3.12728C1091.51 4.11315 1092.38 4.96429 1094.14 4.96429C1095.91 4.96429 1096.77 4.11315 1097.76 3.12728L1097.77 3.11033C1098.77 2.11822 1099.88 1 1102.07 1C1104.26 1 1105.38 2.11822 1106.37 3.11033L1106.39 3.12728C1107.37 4.11315 1108.24 4.96429 1110 4.96429"
      stroke="#F5F5F5"/>
  </g>
  <defs>
    <filter id="filter0_i" x="0" y="0.5" width="1110" height="6.96429" filterUnits="userSpaceOnUse"
            color-interpolation-filters="sRGB">
      <feFlood flood-opacity="0" result="BackgroundImageFix"/>
      <feBlend mode="normal" in="SourceGraphic" in2="BackgroundImageFix" result="shape"/>
      <feColorMatrix in="SourceAlpha" type="matrix" values="0 0 0 0 0 0 0 0 0 0 0 0 0 0 0 0 0 0 127 0"
                     result="hardAlpha"/>
      <feOffset dy="2"/>
      <feGaussianBlur stdDeviation="7.5"/>
      <feComposite in2="hardAlpha" operator="arithmetic" k2="-1" k3="1"/>
      <feColorMatrix type="matrix" values="0 0 0 0 0 0 0 0 0 0 0 0 0 0 0 0 0 0 0.2 0"/>
      <feBlend mode="normal" in2="shape" result="effect1_innerShadow"/>
    </filter>
  </defs>
</svg>
