<svg width="732" height="122" viewBox="0 0 732 122" fill="none" xmlns="http://www.w3.org/2000/svg">
<g clip-path="url(#clip0_9_16371)">
<path d="M382.5 47.12L398.62 0H403.08L419.14 47.12H413.44L409.57 35.54H391.94L388.07 47.12H382.5ZM393.51 30.63H407.93L400.52 8.97L393.51 30.63Z" fill="white"/>
<path d="M441.49 44.7C438.95 46.29 435.92 47.09 432.38 47.09C428.84 47.09 425.91 46.55 423.6 45.48V41.09C425.13 41.65 426.96 42.08 429.11 42.38C429.98 42.55 431.05 42.64 432.32 42.64C434.37 42.64 436.18 42.28 437.73 41.54C439.28 40.81 440.06 39.56 440.06 37.8C440.06 36.55 439.58 35.52 438.62 34.7C437.61 33.93 435.78 33.15 433.11 32.38C431.97 32.08 430.79 31.65 429.57 31.09C427.65 30.36 426.15 29.27 425.08 27.83C424.01 26.39 423.47 24.68 423.47 22.7C423.47 19.6 424.65 17.36 427.01 15.96C429.37 14.56 432.23 13.86 435.6 13.86C438.27 13.86 440.84 14.27 443.34 15.09V19.48C441.15 18.62 438.58 18.19 435.6 18.19C433.76 18.19 432.15 18.52 430.75 19.19C429.35 19.86 428.65 21.01 428.65 22.64C428.65 25.13 430.94 26.92 435.53 27.99C436.97 28.38 438.21 28.79 439.23 29.21C440.26 29.64 441.27 30.2 442.28 30.89C443.28 31.58 444.04 32.46 444.54 33.53C445.04 34.61 445.29 35.85 445.29 37.27C445.29 40.62 444.02 43.1 441.49 44.69V44.7Z" fill="white"/>
<path d="M454.34 47.12V21.07C454.34 20.11 454.03 19.39 453.42 18.91C452.72 18.47 451.82 18.23 450.73 18.19H450.07V14.39C451.56 14.04 452.87 13.87 454 13.87C457.93 13.87 459.9 15.81 459.9 19.69V47.11H454.33L454.34 47.12ZM456.63 7C455.67 7 454.86 6.68 454.2 6.05C453.5 5.46 453.15 4.61 453.15 3.5C453.15 2.47 453.47 1.63 454.1 0.98C454.73 0.33 455.6 0 456.69 0C457.78 0 458.66 0.33 459.31 0.98C459.97 1.63 460.29 2.45 460.29 3.44C460.29 4.43 459.96 5.32 459.31 5.99C458.65 6.66 457.76 7 456.62 7H456.63Z" fill="white"/>
<path d="M492.49 47.12C489.61 47.12 487.75 45.55 486.92 42.4C486.79 42.53 486.56 42.77 486.23 43.11C485.9 43.46 485.63 43.74 485.41 43.95C483.27 46.06 480.47 47.12 477.02 47.12C474.05 47.12 471.6 46.37 469.68 44.86C467.76 43.35 466.8 41.18 466.8 38.33C466.8 31.78 471.65 28.29 481.35 27.86L486.59 27.6V26.05C486.59 23.38 486.1 21.45 485.12 20.27C484.14 19.09 482.31 18.49 479.65 18.49C476.99 18.49 473.6 18.99 469.75 19.98V15.65C472.68 14.44 476.15 13.84 480.17 13.84C488.17 13.84 492.17 17.2 492.17 23.92V40.08C492.17 41.98 493.48 42.92 496.1 42.92H496.43V46.67L496.04 46.8C495.82 46.84 495.62 46.89 495.45 46.93C494.84 47.06 493.85 47.12 492.5 47.12H492.49ZM477.87 42.79C479.49 42.79 481.1 42.46 482.72 41.79C484.34 41.12 485.63 40.21 486.59 39.04V31.61L482.33 31.8C480.97 31.89 479.85 31.99 478.95 32.12C478.05 32.25 477.05 32.52 475.93 32.93C474.82 33.34 473.97 33.96 473.41 34.8C472.84 35.64 472.56 36.69 472.56 37.93C472.56 39.48 473.05 40.68 474.04 41.52C475.02 42.36 476.3 42.78 477.87 42.78V42.79Z" fill="white"/>
<path d="M512.68 47.12L528.81 0H533.27L549.33 47.12H543.63L539.76 35.54H522.13L518.26 47.12H512.69H512.68ZM523.69 30.63H538.11L530.7 8.97L523.69 30.63Z" fill="white"/>
<path d="M561.78 47.12C557.63 47.12 555.55 44.63 555.55 39.66V7.27C555.55 6.31 555.29 5.61 554.76 5.18C554.19 4.74 553.47 4.5 552.6 4.46C552.47 4.42 552.29 4.39 552.08 4.39H551.56V0.59C551.87 0.42 552.19 0.31 552.54 0.26C553.41 0.09 554.4 0 555.49 0C559.25 0 561.13 1.7 561.13 5.1V38.15C561.13 39.68 561.39 40.81 561.92 41.55C562.44 42.29 563.43 42.69 564.87 42.73H565.2V46.66C565.2 46.66 565.02 46.69 564.81 46.76C564.59 46.83 564.42 46.88 564.29 46.92C563.5 47.05 562.67 47.12 561.8 47.12H561.78Z" fill="white"/>
<path d="M578.96 47.12C574.81 47.12 572.73 44.63 572.73 39.66V7.27C572.73 6.31 572.47 5.61 571.94 5.18C571.37 4.74 570.65 4.5 569.78 4.46C569.65 4.42 569.47 4.39 569.26 4.39H568.74V0.59C569.05 0.42 569.37 0.31 569.72 0.26C570.59 0.09 571.58 0 572.67 0C576.43 0 578.31 1.7 578.31 5.1V38.15C578.31 39.68 578.57 40.81 579.1 41.55C579.62 42.29 580.61 42.69 582.05 42.73H582.38V46.66C582.38 46.66 582.21 46.69 581.99 46.76C581.77 46.83 581.6 46.88 581.47 46.92C580.68 47.05 579.85 47.12 578.98 47.12H578.96Z" fill="white"/>
<path d="M591.15 47.12V21.07C591.15 20.11 590.84 19.39 590.23 18.91C589.53 18.47 588.63 18.23 587.54 18.19H586.88V14.39C588.37 14.04 589.68 13.87 590.81 13.87C594.74 13.87 596.71 15.81 596.71 19.69V47.11H591.14L591.15 47.12ZM593.44 7C592.48 7 591.67 6.68 591.01 6.05C590.31 5.46 589.96 4.61 589.96 3.5C589.96 2.47 590.28 1.63 590.91 0.98C591.54 0.33 592.41 0 593.5 0C594.59 0 595.47 0.33 596.12 0.98C596.78 1.63 597.1 2.45 597.1 3.44C597.1 4.43 596.77 5.32 596.12 5.99C595.46 6.66 594.57 7 593.43 7H593.44Z" fill="white"/>
<path d="M629.3 47.12C626.42 47.12 624.56 45.55 623.73 42.4C623.6 42.53 623.37 42.77 623.04 43.11C622.71 43.46 622.44 43.74 622.22 43.95C620.08 46.06 617.28 47.12 613.83 47.12C610.86 47.12 608.41 46.37 606.49 44.86C604.57 43.35 603.61 41.18 603.61 38.33C603.61 31.78 608.46 28.29 618.16 27.86L623.4 27.6V26.05C623.4 23.38 622.91 21.45 621.93 20.27C620.95 19.09 619.12 18.49 616.46 18.49C613.8 18.49 610.41 18.99 606.56 19.98V15.65C609.49 14.44 612.96 13.84 616.98 13.84C624.98 13.84 628.98 17.2 628.98 23.92V40.08C628.98 41.98 630.29 42.92 632.91 42.92H633.24V46.67L632.85 46.8C632.63 46.84 632.43 46.89 632.26 46.93C631.65 47.06 630.66 47.12 629.31 47.12H629.3ZM614.68 42.79C616.3 42.79 617.91 42.46 619.53 41.79C621.15 41.12 622.44 40.21 623.4 39.04V31.61L619.14 31.8C617.78 31.89 616.66 31.99 615.76 32.12C614.86 32.25 613.86 32.52 612.74 32.93C611.63 33.34 610.78 33.96 610.22 34.8C609.65 35.64 609.37 36.69 609.37 37.93C609.37 39.48 609.86 40.68 610.85 41.52C611.83 42.36 613.11 42.78 614.68 42.78V42.79Z" fill="white"/>
<path d="M641.03 47.12V21.07C641.03 20.07 640.7 19.33 640.05 18.85C639.44 18.5 638.5 18.28 637.23 18.2H636.77V14.4C638.26 14.05 639.57 13.88 640.7 13.88C643.98 13.88 645.86 15.43 646.34 18.53C647 17.74 647.87 16.96 648.96 16.17C651.58 14.64 654.16 13.88 656.69 13.88C664.16 13.88 667.9 18.22 667.9 26.9V47.12H662.33V26.9C662.33 21.36 659.9 18.59 655.05 18.59C651.6 18.59 648.78 19.77 646.59 22.12V47.12H641.02H641.03Z" fill="white"/>
<path d="M690.98 47.12C685.91 47.12 682.13 45.64 679.64 42.67C677.15 39.7 675.9 35.66 675.9 30.53C675.9 25.4 677.16 21.35 679.67 18.36C682.18 15.37 685.97 13.87 691.04 13.87C692.26 13.87 693.36 13.93 694.32 14.06C695.15 14.23 695.98 14.43 696.81 14.64C697.55 14.81 698.23 15.07 698.84 15.41V19.8C698.23 19.54 697.48 19.26 696.61 18.96C695.87 18.75 695.08 18.55 694.25 18.38C693.42 18.25 692.52 18.19 691.56 18.19C688.11 18.19 685.59 19.34 684.02 21.64C682.45 23.94 681.66 26.88 681.66 30.45C681.66 38.67 684.96 42.78 691.56 42.78C692.7 42.78 693.64 42.69 694.38 42.52C696.39 42.18 697.85 41.79 698.77 41.36V45.75C696.63 46.65 694.03 47.11 690.97 47.11L690.98 47.12Z" fill="white"/>
<path d="M720.29 47.12C715.18 47.12 711.27 45.67 708.56 42.76C705.85 39.86 704.5 35.93 704.5 30.98C704.5 26.03 705.68 21.94 708.04 18.72C710.4 15.49 714.01 13.88 718.86 13.88C723.01 13.88 726.15 15.1 728.27 17.53C730.39 19.96 731.45 23.22 731.45 27.31V29.12C731.45 29.29 731.44 29.54 731.42 29.86C731.4 30.18 731.36 30.41 731.32 30.54C731.32 30.67 731.31 30.86 731.29 31.12C731.27 31.38 731.23 31.57 731.19 31.7H710.21C710.43 35.36 711.4 38.12 713.13 40C714.86 41.87 717.55 42.81 721.23 42.81C724.29 42.81 727.2 42.25 729.95 41.13V45.52C729.21 45.86 728.38 46.12 727.46 46.29C726.8 46.51 725.78 46.72 724.38 46.94C723.2 47.07 721.84 47.13 720.32 47.13L720.29 47.12ZM710.33 27.56H725.87C725.96 24.42 725.41 22.05 724.23 20.46C722.96 18.82 721.13 18.01 718.72 18.01C713.78 18.01 710.98 21.2 710.33 27.56Z" fill="white"/>
<path d="M382.49 120.48V73.62H394.29C404.52 73.62 409.63 77.63 409.63 85.66C409.63 90.15 407.62 93.49 403.6 95.67C405.7 96.28 407.38 97.21 408.65 98.45C409.92 99.69 410.83 101.34 411.4 103.39C411.66 104.57 411.79 105.75 411.79 106.92C411.79 111.63 410.33 115.07 407.4 117.23C404.47 119.39 400.63 120.47 395.86 120.47H382.49V120.48ZM388.13 93.78H394.82C400.85 93.78 403.87 91.1 403.87 85.73C403.87 80.93 400.68 78.53 394.3 78.53H388.14V93.78H388.13ZM388.13 115.57H395.93C398.99 115.57 401.43 114.89 403.24 113.54C405.05 112.19 405.96 110.03 405.96 107.06C405.96 104.09 405.11 101.85 403.4 100.58C401.7 99.32 399.23 98.68 395.99 98.68H388.12V115.56L388.13 115.57Z" fill="white"/>
<path d="M442.54 120.48C439.66 120.48 437.8 118.91 436.97 115.77C436.84 115.9 436.61 116.14 436.28 116.48C435.95 116.82 435.68 117.1 435.46 117.32C433.32 119.43 430.52 120.48 427.07 120.48C424.1 120.48 421.65 119.73 419.73 118.22C417.81 116.71 416.85 114.54 416.85 111.7C416.85 105.16 421.7 101.67 431.4 101.24L436.64 100.98V99.43C436.64 96.76 436.15 94.84 435.17 93.65C434.19 92.47 432.36 91.87 429.7 91.87C427.04 91.87 423.65 92.36 419.8 93.35V89.02C422.73 87.82 426.2 87.21 430.22 87.21C438.22 87.21 442.22 90.57 442.22 97.28V113.42C442.22 115.31 443.53 116.26 446.15 116.26H446.48V120L446.09 120.13C445.87 120.17 445.67 120.22 445.5 120.26C444.89 120.39 443.9 120.45 442.55 120.45L442.54 120.48ZM427.92 116.15C429.54 116.15 431.15 115.82 432.77 115.15C434.39 114.48 435.68 113.57 436.64 112.41V104.99L432.38 105.18C431.02 105.27 429.9 105.37 429 105.5C428.1 105.63 427.1 105.9 425.98 106.31C424.87 106.72 424.02 107.34 423.46 108.18C422.89 109.02 422.61 110.06 422.61 111.31C422.61 112.86 423.1 114.05 424.08 114.89C425.06 115.73 426.34 116.15 427.92 116.15Z" fill="white"/>
<path d="M454.28 120.48V94.43C454.28 93.43 453.95 92.69 453.3 92.2C452.69 91.85 451.75 91.63 450.48 91.55H450.02V87.75C451.51 87.4 452.82 87.23 453.95 87.23C457.23 87.23 459.11 88.78 459.59 91.88C460.25 91.09 461.12 90.31 462.21 89.52C464.83 87.99 467.41 87.23 469.94 87.23C477.41 87.23 481.15 91.57 481.15 100.25V120.47H475.58V100.25C475.58 94.71 473.15 91.94 468.3 91.94C464.85 91.94 462.03 93.12 459.84 95.47V120.47H454.27L454.28 120.48Z" fill="white"/>
<path d="M496.62 120.48H491.05V80.89C491.05 79.89 490.74 79.15 490.13 78.66C489.56 78.31 488.69 78.09 487.51 78.01H487.05V74.21C487.36 74.04 487.68 73.93 488.03 73.88C488.9 73.71 489.89 73.62 490.98 73.62C494.74 73.62 496.62 75.32 496.62 78.72V101.62H499.5L510.94 87.22H517.04L504.22 103.06C504.74 103.71 505.29 104.39 505.86 105.09C506.91 106.66 508.31 108.49 510.06 110.59C510.28 110.94 510.65 111.44 511.17 112.1C511.69 112.75 512.07 113.23 512.28 113.54C512.85 114.28 513.73 115.43 514.93 116.98C516.13 118.53 517.04 119.7 517.65 120.48H510.7L499.56 105.95H496.61V120.48H496.62Z" fill="white"/>
<path d="M350.71 121.13C349.6 121.13 348.7 120.01 348.7 119.17V2.13C348.7 1.29 349.6 0.309998 350.71 0.309998C351.82 0.309998 352.72 1.29 352.72 2.13V119.17C352.72 120.01 351.82 121.13 350.71 121.13Z" fill="white"/>
<path d="M211.71 106.07C213.37 110.39 215.08 113.33 216.85 114.88C218.99 116.75 222.61 118.35 227.7 119.68V120.64H182.79V119.68C188.47 117.97 192.35 116.45 194.44 115.12C196.53 113.79 197.57 112.19 197.57 110.32C197.57 109.09 196.85 106.59 195.4 102.8L186.72 79.51H143.9L141.65 85.91C137.36 97.97 135.22 105.44 135.22 108.32C135.22 111.2 136.18 113.35 138.11 114.92C140.04 116.49 143.63 118.08 148.88 119.68V120.64H113.85V119.68C120.3 117.23 123.52 113.3 126.46 109.35C129.19 105.56 132.65 98.06 136.82 86.86L162.85 16.9L158.43 8.16999C163.89 5.44999 168.2 2.82999 171.37 0.329987L211.7 106.08L211.71 106.07ZM146.07 73.57H184.55L165.19 21.62L146.07 73.57Z" fill="white"/>
<path d="M97.86 106.07C99.52 110.39 101.23 113.33 103 114.88C105.14 116.75 108.76 118.35 113.85 119.68V120.64H68.94V119.68C74.62 117.97 78.5 116.45 80.59 115.12C82.68 113.79 83.72 112.19 83.72 110.32C83.72 109.09 83 106.59 81.55 102.8L72.87 79.51H30.05L27.8 85.91C23.51 97.97 21.37 105.44 21.37 108.32C21.37 111.2 22.33 113.35 24.26 114.92C26.19 116.49 29.78 118.08 35.03 119.68V120.64H0V119.68C6.45 117.23 9.67 113.3 12.61 109.35C15.34 105.56 18.8 98.06 22.97 86.86L49.01 16.89L44.59 8.16001C50.05 5.44001 54.36 2.82001 57.53 0.320007L97.86 106.07ZM32.22 73.57H70.7L51.34 21.62L32.22 73.57Z" fill="white"/>
<path d="M289.23 55.5C298.42 56.44 304.93 58.79 310.77 64.1C316.93 69.74 320.01 77.14 320.01 86.29C320.01 95.93 316.29 104.07 308.84 110.7C301.39 117.33 290.79 120.64 277.02 120.64H227.69V119.68C234.54 118.43 239.1 115.35 240.71 113.27C242.32 111.08 243.12 106.34 243.12 99.11V21.86C243.12 14.63 242.32 9.96999 240.71 7.88999C239.16 5.74999 234.82 3.55999 227.69 1.31999V0.329987H276.06C288.16 0.329987 297.54 3.06999 304.18 8.54999C310.87 14.08 314.22 20.66 314.22 28.27C314.22 43.41 300.86 53.32 289.22 55.5H289.23ZM274.94 4.18999H257.51V53.66H273.9C280.92 53.66 290.34 52.31 295.32 47.71C300.25 43.16 303.09 38.91 303.09 28.6C303.09 19.19 300.77 15.51 296.16 11.06C291.59 6.63999 282.33 4.19999 274.94 4.19999V4.18999ZM257.51 116.28H276.39C285.55 116.28 292.58 113.91 297.48 109.17C302.38 104.43 304.83 97.27 304.83 87.68C304.83 77.6 302.3 69.97 297.24 64.79C292.18 59.61 285.5 57.34 276.89 57.5H257.51V116.28Z" fill="white"/>
</g>
<defs>
<clipPath id="clip0_9_16371">
<rect width="731.43" height="121.13" fill="white"/>
</clipPath>
</defs>
</svg>
