<svg width="94" height="31" viewBox="0 0 94 31" fill="none" xmlns="http://www.w3.org/2000/svg">
<path fill-rule="evenodd" clip-rule="evenodd" d="M39.5941 12.93L39.8009 12.6355C39.9728 12.3919 40.179 12.1771 40.4225 12.0059C40.6569 11.8406 40.913 11.7135 41.1872 11.63C41.4539 11.5486 41.7302 11.5019 42.0097 11.5019C42.4997 11.5019 42.9759 11.6034 43.3949 11.8682C43.7571 12.0979 44.0323 12.4026 44.1824 12.8093L44.2614 13.0242L44.3844 12.8311C44.6719 12.3808 45.0521 12.0314 45.5437 11.8177C46.0204 11.6098 46.52 11.5019 47.0397 11.5019C47.5912 11.5019 48.1974 11.5864 48.6667 11.8969C49.0459 12.1479 49.3307 12.477 49.5014 12.9013C49.6722 13.3251 49.7581 13.7691 49.7581 14.2258V18.8716C49.7581 18.9203 49.7187 18.9597 49.67 18.9597H47.9201C47.8714 18.9597 47.832 18.9203 47.832 18.8716V14.8463C47.832 14.4199 47.7259 14.0131 47.4427 13.6851C47.1516 13.3485 46.7411 13.2321 46.3089 13.2321C46.0146 13.2321 45.7309 13.2953 45.4726 13.4389C45.2297 13.5734 45.0298 13.7579 44.8845 13.9967C44.7381 14.2375 44.6761 14.5066 44.6761 14.7873V18.8716C44.6761 18.9203 44.6367 18.9597 44.588 18.9597H42.8381C42.7894 18.9597 42.75 18.9203 42.75 18.8716V14.8463C42.75 14.4199 42.645 14.011 42.3602 13.6851C42.0675 13.3501 41.6591 13.2321 41.2269 13.2321C40.9305 13.2321 40.6425 13.2932 40.3822 13.4389C40.1414 13.5739 39.9457 13.76 39.802 13.9967C39.6562 14.2375 39.5936 14.5076 39.5936 14.7873V18.8716C39.5936 18.9203 39.5542 18.9597 39.5055 18.9597H37.7555C37.7069 18.9597 37.6675 18.9203 37.6675 18.8716V11.8116C37.6675 11.763 37.7069 11.7236 37.7555 11.7236H39.5055C39.5542 11.7236 39.5936 11.763 39.5936 11.8116V12.9306L39.5941 12.93ZM88.8358 14.4104C88.8358 14.4638 88.9013 14.4895 88.9376 14.4503L91.4363 11.7513C91.453 11.7333 91.4764 11.7231 91.5009 11.7231H93.4741C93.5499 11.7231 93.5903 11.8125 93.5402 11.8693L91.1969 14.5291C91.1796 14.5488 91.1774 14.5776 91.1916 14.5997L93.9126 18.8239C93.9503 18.8825 93.9082 18.9597 93.8385 18.9597H91.762C91.7314 18.9597 91.703 18.9438 91.687 18.9178L89.8057 15.8642C89.7856 15.8315 89.7401 15.8267 89.7135 15.8543L88.8522 16.7493C88.8417 16.7603 88.8358 16.7748 88.8358 16.79V18.8716C88.8358 18.9203 88.7964 18.9597 88.7478 18.9597H86.9978C86.9492 18.9597 86.9097 18.9203 86.9097 18.8716V8.63359C86.9097 8.58495 86.9492 8.54552 86.9978 8.54552H88.7478C88.7964 8.54552 88.8358 8.58495 88.8358 8.63359V14.4104ZM79.9753 12.7891L80.18 12.5212C80.4362 12.184 80.7533 11.9113 81.1447 11.7438C81.5228 11.5816 81.9205 11.5019 82.331 11.5019C82.9011 11.5019 83.4892 11.5992 83.9835 11.899C84.3944 12.149 84.7259 12.4776 84.9444 12.9098C85.1528 13.323 85.2636 13.7616 85.2636 14.2253V18.8711C85.2636 18.9197 85.2242 18.9592 85.1756 18.9592H83.4256C83.377 18.9592 83.3375 18.9197 83.3375 18.8711V14.8979C83.3375 14.4481 83.2209 14.0227 82.9085 13.6893C82.5877 13.3469 82.1454 13.2315 81.6898 13.2315C81.3743 13.2315 81.0731 13.3017 80.7994 13.4618C80.538 13.6138 80.3317 13.8228 80.1885 14.0897C80.0347 14.3752 79.9759 14.6937 79.9759 15.016V18.8706C79.9759 18.9192 79.9365 18.9586 79.8878 18.9586H78.1378C78.0892 18.9586 78.0498 18.9192 78.0498 18.8706V11.8106C78.0498 11.7619 78.0892 11.7225 78.1378 11.7225H79.8878C79.9365 11.7225 79.9759 11.7619 79.9759 11.8106V12.7879C79.9759 12.7883 79.9757 12.7888 79.9753 12.7891ZM74.7571 17.8069L74.5529 18.0738C74.3477 18.3413 74.0936 18.5614 73.8083 18.7401C73.2876 19.0655 72.683 19.1809 72.0763 19.1809C71.4203 19.1809 70.7919 19.0384 70.2239 18.7013C69.6698 18.3727 69.245 17.9149 68.939 17.3486C68.6038 16.7291 68.4729 16.0411 68.4729 15.3408C68.4729 14.8091 68.5482 14.2769 68.738 13.7781C68.9109 13.3262 69.1633 12.9183 69.4964 12.5674C69.8209 12.2255 70.2033 11.9623 70.6371 11.781C71.0958 11.5901 71.58 11.5019 72.0758 11.5019C72.6825 11.5019 73.2876 11.6178 73.8078 11.9426C74.0931 12.1208 74.3471 12.3404 74.5524 12.6089L74.7565 12.8758V11.8111C74.7565 11.7625 74.796 11.7231 74.8446 11.7231H76.314C76.3627 11.7231 76.4021 11.7625 76.4021 11.8111V18.8711C76.4021 18.9197 76.3627 18.9592 76.314 18.9592H74.8446C74.796 18.9592 74.7565 18.9197 74.7565 18.8711V17.8069H74.7571ZM61.4356 12.536L61.626 12.359C61.8386 12.1617 62.0751 11.9932 62.3323 11.8581C62.8171 11.6039 63.3506 11.5019 63.8947 11.5019C64.5666 11.5019 65.2077 11.6523 65.782 12.0091C66.3357 12.3531 66.7626 12.8173 67.0696 13.3926C67.3931 13.9983 67.5358 14.6565 67.5358 15.3414C67.5358 15.8763 67.4525 16.4043 67.2627 16.9046C67.0914 17.355 66.8458 17.7665 66.5123 18.1148C66.1867 18.4556 65.8022 18.7172 65.37 18.9017C64.9134 19.0969 64.4271 19.1809 63.9323 19.1809C63.5054 19.1809 63.0817 19.1181 62.6802 18.9735C62.3239 18.8443 61.9908 18.6641 61.7066 18.4115C61.5825 18.3009 61.4679 18.1791 61.3672 18.0467L61.163 17.7787V18.8716C61.163 18.9203 61.1236 18.9597 61.0749 18.9597H59.6055C59.5569 18.9597 59.5175 18.9203 59.5175 18.8716V8.63359C59.5175 8.58495 59.5569 8.54552 59.6055 8.54552H61.3481C61.3967 8.54552 61.4361 8.58495 61.4361 8.63359V12.5366L61.4356 12.536ZM53.5074 19.1293L50.6932 11.8428C50.6709 11.7851 50.7135 11.7231 50.7753 11.7231H52.674C52.7119 11.7231 52.7455 11.7473 52.7575 11.7832L54.5492 17.1398C54.5672 17.1935 54.6432 17.1932 54.6607 17.1393L56.4006 11.7839C56.4124 11.7476 56.4463 11.7231 56.4844 11.7231H58.3254C58.3869 11.7231 58.4295 11.7845 58.4078 11.8421L55.3837 19.8827C55.1837 20.3873 54.9207 20.9047 54.5569 21.3109C54.2742 21.6262 53.9412 21.8862 53.5456 22.042C53.1638 22.1914 52.7644 22.2632 52.355 22.2632C52.0506 22.2632 51.7468 22.2324 51.4487 22.1691C51.2016 22.1175 50.963 22.0362 50.7365 21.9251C50.7122 21.9133 50.6994 21.886 50.7061 21.8598L51.0848 20.3784C51.0935 20.3443 51.1306 20.3261 51.1629 20.34C51.2764 20.3905 51.3946 20.4309 51.515 20.4623C51.6974 20.5096 51.8857 20.5399 52.0745 20.5399C52.3529 20.5399 52.6329 20.4852 52.8673 20.3288C53.1086 20.1672 53.2518 19.9115 53.3404 19.6408L53.5074 19.1288V19.1293ZM72.4232 17.5395C72.796 17.5395 73.1582 17.4602 73.4832 17.2731C73.8009 17.0902 74.0443 16.8259 74.2193 16.5048C74.4145 16.1469 74.4914 15.7465 74.4914 15.3414C74.4914 14.9362 74.4145 14.5364 74.2193 14.178C74.0449 13.8579 73.7998 13.5989 73.4832 13.4176C73.1571 13.2299 72.7981 13.1438 72.4232 13.1438C72.0482 13.1438 71.6945 13.231 71.371 13.4176C71.0534 13.6 70.8025 13.8563 70.627 14.178C70.4329 14.5337 70.3624 14.9394 70.3624 15.3414C70.3624 15.7433 70.4329 16.149 70.627 16.5048C70.803 16.8275 71.0523 17.0896 71.371 17.2731C71.6934 17.4587 72.0525 17.5395 72.4232 17.5395ZM63.533 17.5395C63.9122 17.5395 64.2476 17.4498 64.6143 17.2736C64.9362 17.0912 65.1865 16.8286 65.3657 16.5058C65.563 16.1485 65.6383 15.746 65.6383 15.3414C65.6383 14.9367 65.5614 14.5364 65.3663 14.178C65.1892 13.8531 64.9388 13.5952 64.6138 13.4171C64.2818 13.2262 63.9137 13.1438 63.533 13.1438C63.1522 13.1438 62.7852 13.2289 62.4517 13.4171C62.1308 13.5989 61.8763 13.8542 61.6997 14.178C61.5056 14.5337 61.4351 14.9389 61.4351 15.3414C61.4351 15.7439 61.5104 16.1496 61.7076 16.5058C61.8864 16.8286 62.1367 17.0912 62.4591 17.2736C62.7889 17.4602 63.1559 17.5395 63.533 17.5395Z" fill="#262626"/>
<g clip-path="url(#clip0_491_4234)">
<path d="M8.74433 23.0139C8.31058 22.6308 7.90794 22.207 7.54227 21.7481C7.47614 21.6664 7.34582 21.7033 7.33415 21.8064L6.93735 25.5709L6.91595 25.7828C6.91401 25.8042 6.90623 25.8236 6.89456 25.8392L5.90062 27.2081C5.86367 27.2586 5.87339 27.3306 5.92202 27.3695C6.27602 27.6514 6.6417 27.9159 7.0171 28.1648C7.06962 28.1998 7.13964 28.1862 7.1766 28.1356L8.17053 26.7648C8.1822 26.7473 8.19971 26.7336 8.21916 26.7259L8.41366 26.6423L11.8603 25.1061C11.9557 25.0634 11.9518 24.9272 11.8526 24.8903C11.3099 24.6822 10.7867 24.4295 10.2868 24.1339C10.2537 24.1145 10.2148 24.1125 10.1817 24.1281L8.66458 24.8028C8.63735 24.8145 8.60623 24.7931 8.61012 24.7639L8.78323 23.1111C8.78712 23.0742 8.7735 23.0372 8.74433 23.0139Z" fill="#FF553D"/>
<path d="M3.04912 24.3517C2.78459 23.9861 2.53756 23.607 2.3061 23.2161C2.27692 23.1656 2.28859 23.0995 2.33527 23.0625L4.69465 21.2192C4.72577 21.1958 4.71021 21.1453 4.67131 21.1453L1.28882 21.0286C1.24019 21.0286 1.1974 20.9956 1.18184 20.9489L0.652781 19.3233C0.637221 19.2767 0.652781 19.2261 0.691683 19.195L3.35838 17.1105C3.3895 17.0872 3.37394 17.0366 3.33504 17.0366L0.349349 16.9336C0.290997 16.9316 0.24237 16.885 0.236535 16.8266C0.189853 16.3755 0.168457 15.9225 0.168457 15.4713C0.168457 15.4052 0.224864 15.3508 0.290997 15.3547L5.21204 15.5258C5.27429 15.5277 5.32097 15.5763 5.32291 15.6386C5.33653 16.2064 5.39682 16.78 5.50964 17.3536C5.51742 17.3964 5.50186 17.4391 5.46685 17.4664L2.94408 19.4361C2.91296 19.4594 2.92852 19.51 2.96742 19.51L6.16513 19.6208C6.20792 19.6208 6.24682 19.648 6.26627 19.6889C6.51135 20.2197 6.79728 20.7214 7.12211 21.19C7.15712 21.2406 7.14739 21.3086 7.09877 21.3475L3.21834 24.377C3.16582 24.4178 3.08996 24.4081 3.05106 24.3536L3.04912 24.3517Z" fill="#FF553D"/>
<path d="M6.12815 11.4327C6.35962 10.9019 6.63582 10.3885 6.96065 9.89853C7.019 9.81103 6.94314 9.69825 6.84005 9.71964L3.13662 10.5052L2.9285 10.5499C2.90905 10.5538 2.88765 10.5538 2.8682 10.546L1.25962 10.0249C1.19933 10.0055 1.13514 10.0366 1.11374 10.0949C0.956192 10.5188 0.816146 10.9466 0.695551 11.3822C0.678046 11.4424 0.713057 11.5066 0.773355 11.526L2.38388 12.0472C2.40333 12.053 2.42084 12.0647 2.43445 12.0802L2.5745 12.2397L5.10115 15.0416C5.17117 15.1194 5.2976 15.0727 5.30344 14.9677C5.33262 14.3883 5.41236 13.8108 5.53879 13.2449C5.54657 13.208 5.53879 13.1711 5.51156 13.1419L4.40092 11.9072C4.38147 11.8858 4.39314 11.8488 4.42232 11.843L6.0484 11.4969C6.08536 11.4891 6.11454 11.4638 6.1301 11.4308L6.12815 11.4327Z" fill="#FF553D"/>
<path d="M3.09579 6.42962C3.36227 6.06601 3.64625 5.71406 3.94579 5.37184C3.98469 5.32712 4.05082 5.31934 4.09945 5.35239L6.58332 7.02657C6.61638 7.04796 6.65723 7.01879 6.6475 6.9799L5.71387 3.72877C5.70025 3.6821 5.71776 3.63155 5.75666 3.60238L7.13961 2.5971C7.17851 2.56793 7.23297 2.56793 7.27382 2.59515L10.0806 4.48711C10.1136 4.5085 10.1545 4.47933 10.1448 4.44044L9.32004 1.56848C9.30448 1.51209 9.33171 1.45181 9.38617 1.42848C9.80436 1.24764 10.2284 1.08625 10.6563 0.946252C10.7185 0.924863 10.7866 0.961808 10.8061 1.02597L12.1637 5.75878C12.1812 5.81712 12.1482 5.87934 12.0898 5.89879C11.553 6.0874 11.0278 6.32268 10.5163 6.60657C10.4774 6.62796 10.4326 6.62601 10.3957 6.60074L7.74258 4.80989C7.70952 4.7885 7.66867 4.81767 7.67839 4.85656L8.55951 7.93074C8.57118 7.97352 8.55951 8.01824 8.52645 8.04741C8.09853 8.44408 7.70952 8.86992 7.36329 9.32492C7.32634 9.37353 7.25826 9.3852 7.20768 9.3502L3.12497 6.59685C3.07051 6.5599 3.05689 6.48407 3.09579 6.42962Z" fill="#FF553D"/>
<path d="M16.3379 5.366C16.9136 5.42045 17.4894 5.52739 18.0554 5.68295C18.1565 5.71017 18.2421 5.60517 18.1896 5.51378L16.297 2.23543L16.1901 2.0507C16.1803 2.0332 16.1745 2.01181 16.1745 1.99237V0.300691C16.1745 0.238468 16.1239 0.185968 16.0617 0.182079C15.6104 0.162635 15.1592 0.162635 14.7079 0.182079C14.6457 0.184024 14.5951 0.236524 14.5951 0.300691V1.99431C14.5951 2.0157 14.5912 2.03515 14.5795 2.05459L14.4725 2.23737L12.5878 5.50406C12.5353 5.59545 12.6189 5.70045 12.72 5.67323C13.2802 5.52156 13.854 5.4185 14.4317 5.36406C14.4687 5.36017 14.5017 5.33878 14.5212 5.30767L15.3517 3.87071C15.3673 3.84544 15.4042 3.84544 15.4198 3.87071L16.2503 5.30961C16.2698 5.34267 16.3029 5.36211 16.3398 5.366H16.3379Z" fill="#FF553D"/>
<path d="M20.1599 0.936531C20.5879 1.07653 21.0119 1.23792 21.4301 1.41876C21.4845 1.44209 21.5118 1.50237 21.4962 1.55876L20.6715 4.43655C20.6598 4.4735 20.7026 4.50461 20.7357 4.48322L23.5405 2.58932C23.5813 2.5621 23.6339 2.5621 23.6747 2.59126L25.0577 3.59655C25.0966 3.62572 25.1141 3.67627 25.1004 3.72294L24.1688 6.97601C24.1571 7.01296 24.1999 7.04407 24.2329 7.02268L26.709 5.35045C26.7577 5.31739 26.8238 5.32517 26.8627 5.36989C27.1642 5.71017 27.4482 6.06406 27.7127 6.42768C27.7516 6.48212 27.738 6.55796 27.6835 6.5949L23.6008 9.34825C23.5502 9.38325 23.4821 9.37159 23.4452 9.32298C23.1009 8.86992 22.7138 8.44408 22.2859 8.04547C22.2548 8.0163 22.2412 7.97158 22.2529 7.9288L23.1359 4.85267C23.1476 4.81572 23.1048 4.78461 23.0717 4.806L20.4206 6.5949C20.3836 6.62018 20.337 6.62018 20.3 6.59879C19.7904 6.31295 19.2633 6.07573 18.7264 5.88712C18.6681 5.86767 18.637 5.80545 18.6525 5.74712L20.0102 1.01431C20.0277 0.950142 20.0958 0.913198 20.1599 0.934587V0.936531Z" fill="#FF553D"/>
<path d="M25.2638 13.1983C25.3903 13.7641 25.4661 14.3416 25.4934 14.9288C25.4972 15.0338 25.6256 15.0805 25.6956 15.0027L28.2301 12.1911L28.3721 12.0316C28.3857 12.0161 28.4032 12.0044 28.4226 11.9986L30.0312 11.4755C30.0915 11.456 30.1246 11.3919 30.109 11.3316C29.9884 10.896 29.8484 10.4663 29.6908 10.0463C29.6694 9.98798 29.6033 9.95687 29.5449 9.97631L27.9344 10.5013C27.915 10.5072 27.8936 10.5091 27.8722 10.5052L27.6641 10.4585L23.9723 9.67492C23.8692 9.65353 23.7953 9.76631 23.8517 9.85381C24.1688 10.3399 24.443 10.8533 24.6745 11.386C24.69 11.421 24.7192 11.4463 24.7562 11.4541L26.3803 11.8002C26.4095 11.806 26.4212 11.843 26.4017 11.8644L25.2891 13.0991C25.2638 13.1263 25.2541 13.1652 25.2619 13.2002L25.2638 13.1983Z" fill="#FF553D"/>
<path d="M30.6595 15.4636C30.6595 15.9147 30.6361 16.3658 30.5933 16.8189C30.5875 16.8772 30.5389 16.9239 30.4805 16.9258L27.4871 17.0308C27.4482 17.0308 27.4326 17.0814 27.4637 17.1047L30.1324 19.1872C30.1713 19.2183 30.1868 19.2689 30.1713 19.3155L29.6422 20.9411C29.6266 20.9878 29.5838 21.0208 29.5352 21.0208L26.1527 21.1394C26.1138 21.1394 26.0983 21.19 26.1294 21.2133L28.4849 23.0508C28.5316 23.0878 28.5432 23.152 28.5141 23.2045C28.2826 23.5972 28.0336 23.9745 27.771 24.34C27.7321 24.3945 27.6563 24.4042 27.6038 24.3634L23.7233 21.3339C23.6747 21.2969 23.665 21.2269 23.7 21.1764C24.0229 20.7097 24.3107 20.21 24.5578 19.6792C24.5753 19.6403 24.6142 19.613 24.6589 19.613L27.8586 19.5022C27.8975 19.5022 27.913 19.4517 27.8819 19.4283L25.3611 17.4605C25.3261 17.4333 25.3105 17.3905 25.3183 17.3478C25.4311 16.7741 25.4953 16.2005 25.5089 15.6308C25.5089 15.5686 25.5595 15.52 25.6198 15.518L30.5408 15.3469C30.607 15.345 30.6634 15.3975 30.6634 15.4636H30.6595Z" fill="#FF553D"/>
<path d="M20.5703 24.1047C20.0724 24.3984 19.5453 24.6511 18.9948 24.8572C18.8956 24.8942 18.8917 25.0303 18.9871 25.0731L22.4454 26.6131L22.6399 26.6986C22.6594 26.7064 22.6749 26.72 22.6866 26.7375L23.6825 28.1045C23.7194 28.155 23.7894 28.1687 23.842 28.1337C24.2193 27.8848 24.583 27.6184 24.937 27.3384C24.9857 27.2995 24.9954 27.2275 24.9584 27.177L23.9626 25.8081C23.9509 25.7906 23.9431 25.7711 23.9412 25.7498L23.9217 25.5378L23.5249 21.7869C23.5132 21.6819 23.3829 21.645 23.3168 21.7267C22.9511 22.1778 22.5485 22.5978 22.1128 22.9828C22.0856 23.0081 22.07 23.0431 22.0739 23.082L22.247 24.7328C22.2509 24.762 22.2198 24.7853 22.1925 24.7717L20.6754 24.097C20.6404 24.0814 20.6015 24.0834 20.5703 24.1028V24.1047Z" fill="#FF553D"/>
<path d="M20.0841 29.9342C19.6562 30.0723 19.2185 30.1909 18.7731 30.2901C18.7147 30.3037 18.6564 30.2706 18.6369 30.2162L17.6119 27.4025C17.5983 27.3656 17.5477 27.3656 17.5341 27.4025L16.3768 30.5817C16.3593 30.6284 16.3165 30.6576 16.2678 30.6576H14.5581C14.5095 30.6576 14.4647 30.6265 14.4492 30.5817L13.2899 27.4025C13.2763 27.3656 13.2257 27.3656 13.2121 27.4025L12.1909 30.2103C12.1715 30.2648 12.1131 30.2978 12.0548 30.2862C11.6113 30.187 11.1737 30.0684 10.7438 29.9303C10.6796 29.9109 10.6466 29.8409 10.6699 29.7787L12.3524 25.1528C12.3738 25.0945 12.436 25.0634 12.4944 25.0828C13.039 25.2461 13.6031 25.3648 14.1827 25.4348C14.2255 25.4406 14.2625 25.4678 14.278 25.5086L15.3712 28.5167C15.3848 28.5537 15.4353 28.5537 15.449 28.5167L16.5421 25.5125C16.5576 25.4717 16.5946 25.4425 16.6374 25.4386C17.217 25.3706 17.783 25.252 18.3296 25.0906C18.388 25.0731 18.4502 25.1042 18.4716 25.1606L20.1541 29.7864C20.1774 29.8487 20.1424 29.9187 20.0802 29.9381L20.0841 29.9342Z" fill="#FF553D"/>
</g>
<defs>
<clipPath id="clip0_491_4234">
<rect width="30.6595" height="30.6595" fill="white"/>
</clipPath>
</defs>
</svg>
