<svg width="72" height="64" viewBox="0 0 72 64" fill="none" xmlns="http://www.w3.org/2000/svg">
<path fill-rule="evenodd" clip-rule="evenodd" d="M2.45914 52.0872L2.72313 51.7112C2.94244 51.4003 3.20575 51.1262 3.51644 50.9076C3.81563 50.6966 4.14257 50.5343 4.49252 50.4278C4.83299 50.324 5.18565 50.2642 5.54237 50.2642C6.16782 50.2642 6.77567 50.3939 7.31041 50.7318C7.77272 51.025 8.12403 51.4139 8.31559 51.9331L8.41645 52.2073L8.57348 51.9609C8.94036 51.3861 9.42569 50.9402 10.0532 50.6674C10.6617 50.402 11.2993 50.2642 11.9627 50.2642C12.6666 50.2642 13.4403 50.3721 14.0394 50.7685C14.5233 51.0888 14.8868 51.5089 15.1048 52.0505C15.3228 52.5914 15.4324 53.1581 15.4324 53.7411V59.5486C15.4324 59.6782 15.3273 59.7834 15.1976 59.7834H13.2087C13.0791 59.7834 12.9739 59.6782 12.9739 59.5486V54.5331C12.9739 53.9888 12.8386 53.4696 12.4771 53.0509C12.1055 52.6213 11.5816 52.4727 11.0299 52.4727C10.6542 52.4727 10.2921 52.5534 9.96246 52.7367C9.65245 52.9084 9.39726 53.1439 9.21179 53.4486C9.02497 53.756 8.94577 54.0994 8.94577 54.4578V59.5486C8.94577 59.6782 8.84065 59.7834 8.71097 59.7834H6.72212C6.59244 59.7834 6.48731 59.6782 6.48731 59.5486V54.5331C6.48731 53.9888 6.35329 53.4669 5.9898 53.0509C5.61615 52.6233 5.09495 52.4727 4.54328 52.4727C4.1649 52.4727 3.79735 52.5507 3.465 52.7367C3.15769 52.909 2.90792 53.1466 2.72448 53.4486C2.53834 53.756 2.45846 54.1008 2.45846 54.4578V59.5486C2.45846 59.6782 2.35334 59.7834 2.22366 59.7834H0.234802C0.105124 59.7834 0 59.6782 0 59.5486V50.782C0 50.6524 0.105124 50.5472 0.234802 50.5472H2.22366C2.35334 50.5472 2.45846 50.6524 2.45846 50.782V52.0878L2.45914 52.0872ZM65.3111 53.7685C65.3111 53.9109 65.4857 53.9793 65.5825 53.8748L68.594 50.6219C68.6384 50.5739 68.7009 50.5466 68.7663 50.5466H70.9604C71.1626 50.5466 71.2702 50.7849 71.1366 50.9366L68.3656 54.0819C68.3193 54.1345 68.3135 54.2113 68.3514 54.2702L71.6695 59.4214C71.7701 59.5777 71.6579 59.7834 71.4721 59.7834H69.1143C69.0328 59.7834 68.9572 59.7411 68.9144 59.6717L66.6043 55.922C66.5506 55.8349 66.4292 55.8218 66.3582 55.8956L65.3548 56.9384C65.3267 56.9675 65.3111 57.0064 65.3111 57.0469V59.5486C65.3111 59.6782 65.2059 59.7834 65.0763 59.7834H63.0874C62.9577 59.7834 62.8526 59.6782 62.8526 59.5486V46.7256C62.8526 46.5959 62.9577 46.4908 63.0874 46.4908H65.0763C65.2059 46.4908 65.3111 46.5959 65.3111 46.7256V53.7685ZM54.0016 51.9073L54.2629 51.5653C54.5898 51.135 54.9946 50.7868 55.4941 50.573C55.9767 50.366 56.4844 50.2642 57.0083 50.2642C57.736 50.2642 58.4867 50.3884 59.1175 50.7712C59.6421 51.0902 60.0652 51.5096 60.344 52.0614C60.6101 52.5887 60.7515 53.1486 60.7515 53.7404V59.5479C60.7515 59.6776 60.6464 59.7827 60.5167 59.7827H58.5279C58.3982 59.7827 58.2931 59.6776 58.2931 59.5479V54.599C58.2931 54.0248 58.1441 53.4818 57.7455 53.0563C57.3359 52.6192 56.7714 52.472 56.19 52.472C55.7872 52.472 55.4027 52.5616 55.0535 52.7658C54.7198 52.9599 54.4565 53.2267 54.2737 53.5674C54.0774 53.9318 54.0023 54.3383 54.0023 54.7496V59.5472C54.0023 59.6769 53.8971 59.782 53.7675 59.782H51.7786C51.6489 59.782 51.5438 59.6769 51.5438 59.5472V50.7807C51.5438 50.651 51.6489 50.5459 51.7786 50.5459H53.7675C53.8971 50.5459 54.0023 50.651 54.0023 50.7807V51.9057C54.0023 51.9063 54.002 51.9069 54.0016 51.9073Lnan nanL54.0016 51.9073ZM47.341 58.312L47.0804 58.6527C46.8184 58.9941 46.4942 59.275 46.13 59.5031C45.4653 59.9184 44.6937 60.0657 43.9193 60.0657C43.082 60.0657 42.2799 59.8838 41.5549 59.4535C40.8476 59.0341 40.3054 58.4498 39.9148 57.727C39.487 56.9363 39.3199 56.0581 39.3199 55.1643C39.3199 54.4856 39.416 53.8063 39.6583 53.1697C39.879 52.5928 40.2012 52.0722 40.6262 51.6243C41.0405 51.1879 41.5285 50.852 42.0822 50.6205C42.6677 50.3769 43.2857 50.2642 43.9186 50.2642C44.693 50.2642 45.4653 50.4122 46.1294 50.8269C46.4935 51.0542 46.8178 51.3345 47.0797 51.6772L47.3403 52.0179V50.7814C47.3403 50.6517 47.4454 50.5466 47.5751 50.5466H49.2059C49.3356 50.5466 49.4407 50.6517 49.4407 50.7814V59.5479C49.4407 59.6776 49.3356 59.7827 49.2059 59.7827H47.5751C47.4454 59.7827 47.3403 59.6776 47.3403 59.5479V58.312H47.341ZM30.3375 51.5843L30.5805 51.3583C30.852 51.1065 31.1538 50.8913 31.4821 50.7189C32.1008 50.3945 32.7818 50.2642 33.4763 50.2642C34.3339 50.2642 35.1522 50.4563 35.8853 50.9117C36.592 51.3508 37.1369 51.9433 37.5288 52.6776C37.9417 53.4506 38.1238 54.2908 38.1238 55.165C38.1238 55.8477 38.0175 56.5216 37.7752 57.1603C37.5565 57.7351 37.2432 58.2604 36.8174 58.705C36.4018 59.14 35.911 59.4739 35.3594 59.7094C34.7766 59.9585 34.1559 60.0657 33.5243 60.0657C32.9794 60.0657 32.4386 59.9856 31.9262 59.801C31.4713 59.6361 31.0462 59.406 30.6834 59.0837C30.525 58.9425 30.3788 58.7871 30.2502 58.6181L29.9896 58.276V59.5486C29.9896 59.6782 29.8845 59.7834 29.7548 59.7834H28.124C27.9943 59.7834 27.8892 59.6782 27.8892 59.5486V46.7256C27.8892 46.5959 27.9943 46.4908 28.124 46.4908H30.1034C30.2331 46.4908 30.3382 46.5959 30.3382 46.7256V51.5849L30.3375 51.5843ZM20.218 59.9999L16.6902 50.866C16.6308 50.7121 16.7444 50.5466 16.9093 50.5466H19.0661C19.1671 50.5466 19.2568 50.6111 19.2888 50.7069L21.4692 57.2258C21.5171 57.3689 21.7199 57.3681 21.7666 57.2245L23.8835 50.7088C23.9149 50.6121 24.005 50.5466 24.1068 50.5466H26.1908C26.3549 50.5466 26.4684 50.7105 26.4106 50.864L22.6129 60.9616C22.3577 61.6056 22.0219 62.266 21.5576 62.7845C21.1968 63.1869 20.7717 63.5188 20.2668 63.7177C19.7794 63.9084 19.2697 64 18.7471 64C18.3586 64 17.9707 63.9606 17.5903 63.8799C17.2749 63.814 16.9703 63.7102 16.6813 63.5684Lnan nanL16.6813 63.5684C16.6502 63.5534 16.6339 63.5185 16.6425 63.4851L17.1258 61.5942C17.1369 61.5507 17.1843 61.5274 17.2255 61.5452Lnan nanL17.2255 61.5452C17.3703 61.6097 17.5213 61.6613 17.6749 61.7013C17.9078 61.7617 18.1481 61.8004 18.3891 61.8004C18.7444 61.8004 19.1018 61.7305 19.401 61.531C19.709 61.3247 19.8918 60.9982 20.0048 60.6528L20.218 59.9992V59.9999ZM44.362 57.9706C44.8379 57.9706 45.3002 57.8695 45.7151 57.6306C46.1206 57.3971 46.4313 57.0598 46.6546 56.6499C46.9037 56.1932 47.0019 55.6821 47.0019 55.165C47.0019 54.6478 46.9037 54.1375 46.6546 53.68C46.4319 53.2715 46.1192 52.9409 45.7151 52.7095C45.2988 52.4699 44.8406 52.36 44.362 52.36C43.8834 52.36 43.432 52.4713 43.0191 52.7095C42.6136 52.9423 42.2934 53.2694 42.0694 53.68C41.8216 54.1341 41.7316 54.6519 41.7316 55.165C41.7316 55.6781 41.8216 56.1959 42.0694 56.6499C42.2941 57.0619 42.6122 57.3965 43.0191 57.6306C43.4306 57.8675 43.8889 57.9706 44.362 57.9706ZM33.0146 57.9706C33.4986 57.9706 33.9267 57.8561 34.3948 57.6313C34.8057 57.3985 35.1252 57.0632 35.354 56.6513C35.6058 56.1952 35.7019 55.6814 35.7019 55.165C35.7019 54.6485 35.6037 54.1375 35.3546 53.68C35.1286 53.2653 34.8091 52.9362 34.3941 52.7088C33.9704 52.4652 33.5006 52.36 33.0146 52.36C32.5286 52.36 32.0602 52.4686 31.6344 52.7088C31.2249 52.9409 30.9 53.2667 30.6746 53.68C30.4269 54.1341 30.3368 54.6512 30.3368 55.165C30.3368 55.6787 30.433 56.1966 30.6848 56.6513C30.9129 57.0632 31.2324 57.3985 31.6439 57.6313C32.0649 57.8695 32.5334 57.9706 33.0146 57.9706Z" fill="#262626"/>
<g clip-path="url(#clip0_491_4236)">
<path d="M27.5457 29.3748C26.9921 28.8859 26.4782 28.3448 26.0114 27.7591C25.927 27.6549 25.7607 27.702 25.7458 27.8336L25.2393 32.6385L25.212 32.909C25.2095 32.9363 25.1996 32.9612 25.1847 32.981L23.916 34.7283C23.8688 34.7928 23.8813 34.8846 23.9433 34.9343C24.3952 35.2942 24.8619 35.6317 25.3411 35.9494C25.4081 35.994 25.4975 35.9767 25.5447 35.9121L26.8133 34.1624C26.8282 34.1401 26.8506 34.1227 26.8754 34.1128L27.1237 34.006L31.523 32.0453C31.6446 31.9907 31.6397 31.817 31.513 31.7699C30.8204 31.5043 30.1525 31.1816 29.5145 30.8044C29.4723 30.7796 29.4226 30.7771 29.3804 30.797L27.4439 31.6582C27.4092 31.6731 27.3694 31.6458 27.3744 31.6085L27.5954 29.4989C27.6003 29.4518 27.5829 29.4046 27.5457 29.3748Z" fill="#FF553D"/>
<path d="M20.2764 31.0824C19.9387 30.6158 19.6234 30.1318 19.328 29.633C19.2908 29.5684 19.3056 29.484 19.3652 29.4369L22.3767 27.084C22.4165 27.0543 22.3966 26.9897 22.3469 26.9897L18.0295 26.8408C17.9675 26.8408 17.9129 26.7986 17.893 26.7391L17.2177 24.6642C17.1978 24.6046 17.2177 24.5401 17.2674 24.5004L20.6711 21.8398C20.7109 21.81 20.691 21.7455 20.6413 21.7455L16.8304 21.6139C16.7559 21.6115 16.6939 21.5519 16.6864 21.4774C16.6268 20.9016 16.5995 20.3234 16.5995 19.7476C16.5995 19.6632 16.6715 19.5937 16.7559 19.5986L23.0371 19.817C23.1166 19.8195 23.1762 19.8816 23.1786 19.961C23.196 20.6857 23.273 21.4179 23.417 22.15C23.4269 22.2046 23.4071 22.2592 23.3624 22.294L20.1423 24.8081C20.1026 24.8379 20.1225 24.9025 20.1721 24.9025L24.2536 25.0439C24.3083 25.0439 24.3579 25.0787 24.3827 25.1308C24.6956 25.8083 25.0605 26.4487 25.4751 27.0468C25.5198 27.1113 25.5074 27.1982 25.4453 27.2478L20.4924 31.1146C20.4253 31.1668 20.3285 31.1544 20.2789 31.0849L20.2764 31.0824Z" fill="#FF553D"/>
<path d="M24.2065 14.5927C24.5019 13.9151 24.8545 13.2599 25.2691 12.6344C25.3435 12.5228 25.2467 12.3788 25.1151 12.4061L20.3881 13.4088L20.1225 13.4659C20.0976 13.4708 20.0703 13.4708 20.0455 13.4609L17.9923 12.7958C17.9153 12.7709 17.8334 12.8107 17.8061 12.8851C17.605 13.4262 17.4263 13.9722 17.2723 14.5281C17.25 14.6051 17.2947 14.687 17.3716 14.7118L19.4273 15.3769C19.4521 15.3844 19.4745 15.3993 19.4919 15.4191L19.6706 15.6226L22.8956 19.1991C22.985 19.2983 23.1464 19.2388 23.1538 19.1047C23.1911 18.3651 23.2929 17.628 23.4542 16.9058C23.4642 16.8586 23.4542 16.8115 23.4195 16.7742L22.0019 15.1982C21.977 15.1709 21.9919 15.1238 22.0292 15.1163L24.1047 14.6746C24.1519 14.6646 24.1891 14.6324 24.209 14.5902L24.2065 14.5927Z" fill="#FF553D"/>
<path d="M20.336 8.20674C20.6761 7.74262 21.0386 7.2934 21.4209 6.85658C21.4706 6.7995 21.555 6.78957 21.617 6.83177L24.7874 8.96868C24.8296 8.99598 24.8818 8.95875 24.8694 8.90911L23.6777 4.75938C23.6603 4.69981 23.6826 4.63529 23.7323 4.59806L25.4975 3.31492C25.5471 3.27769 25.6167 3.27769 25.6688 3.31243L29.2513 5.72732C29.2935 5.75462 29.3457 5.71739 29.3332 5.66776L28.2806 2.00199C28.2607 1.93002 28.2955 1.85308 28.365 1.8233C28.8988 1.59248 29.44 1.38648 29.9862 1.20778C30.0656 1.18048 30.1525 1.22764 30.1774 1.30954L31.9103 7.35048C31.9326 7.42494 31.8904 7.50436 31.8159 7.52918C31.1307 7.76992 30.4604 8.07023 29.8074 8.43259C29.7578 8.45989 29.7007 8.45741 29.6535 8.42514L26.2671 6.13932C26.2249 6.11202 26.1728 6.14924 26.1852 6.19888L27.3099 10.1228C27.3247 10.1774 27.3099 10.2344 27.2676 10.2717C26.7215 10.778 26.2249 11.3215 25.783 11.9023C25.7358 11.9643 25.6489 11.9792 25.5844 11.9345L20.3732 8.42018C20.3037 8.37302 20.2863 8.27623 20.336 8.20674Z" fill="#FF553D"/>
<path d="M37.2381 6.84913C37.973 6.91862 38.7079 7.05513 39.4303 7.25368C39.5594 7.28842 39.6687 7.1544 39.6016 7.03775L37.186 2.85327L37.0494 2.61749C37.037 2.59516 37.0296 2.56786 37.0296 2.54304V0.383786C37.0296 0.304365 36.965 0.237354 36.8856 0.23239C36.3096 0.207571 35.7336 0.207571 35.1576 0.23239C35.0782 0.234872 35.0136 0.301883 35.0136 0.383786V2.54552C35.0136 2.57282 35.0087 2.59764 34.9938 2.62246L34.8572 2.85576L32.4515 7.02534C32.3845 7.14199 32.4912 7.27602 32.6203 7.24127C33.3353 7.04768 34.0677 6.91614 34.8051 6.84665C34.8523 6.84168 34.8945 6.81438 34.9193 6.77467L35.9794 4.94055C35.9993 4.90829 36.0464 4.90829 36.0663 4.94055L37.1264 6.77715C37.1512 6.81935 37.1934 6.84417 37.2406 6.84913H37.2381Z" fill="#FF553D"/>
<path d="M42.1166 1.19537C42.6628 1.37407 43.204 1.58007 43.7378 1.81088C43.8073 1.84067 43.8421 1.91761 43.8222 1.98958L42.7696 5.66279C42.7547 5.70995 42.8093 5.74966 42.8515 5.72235L46.4315 3.30499C46.4837 3.27024 46.5507 3.27024 46.6028 3.30747L48.368 4.59061C48.4177 4.62784 48.44 4.69237 48.4226 4.75193L47.2334 8.90415C47.2185 8.9513 47.2732 8.99101 47.3154 8.96371L50.4758 6.82928C50.5379 6.78709 50.6223 6.79702 50.672 6.8541C51.0568 7.28843 51.4192 7.74014 51.7569 8.20425C51.8065 8.27374 51.7892 8.37054 51.7197 8.41769L46.5085 11.9321C46.4439 11.9767 46.357 11.9618 46.3099 11.8998C45.8704 11.3215 45.3764 10.778 44.8302 10.2692C44.7905 10.232 44.7731 10.1749 44.788 10.1203L45.9151 6.19392C45.93 6.14676 45.8754 6.10705 45.8332 6.13435L42.4493 8.41769C42.4021 8.44996 42.3425 8.44996 42.2954 8.42266C41.6449 8.05782 40.9721 7.75503 40.2869 7.51428C40.2124 7.48947 40.1727 7.41005 40.1925 7.33559L41.9254 1.29465C41.9478 1.21275 42.0347 1.16559 42.1166 1.19289V1.19537Z" fill="#FF553D"/>
<path d="M48.6312 16.8462C48.7926 17.5684 48.8894 18.3056 48.9241 19.0551C48.9291 19.1891 49.093 19.2487 49.1823 19.1494L52.4173 15.5606L52.5985 15.3571C52.6159 15.3372 52.6382 15.3223 52.6631 15.3149L54.7162 14.6473C54.7932 14.6224 54.8354 14.5405 54.8156 14.4636C54.6616 13.9076 54.4829 13.3591 54.2818 12.8231C54.2545 12.7486 54.1701 12.7089 54.0956 12.7337L52.0399 13.4038C52.0151 13.4113 51.9878 13.4138 51.9605 13.4088L51.6948 13.3492L46.9827 12.349C46.8511 12.3217 46.7567 12.4657 46.8287 12.5774C47.2334 13.1978 47.5835 13.853 47.8789 14.5331C47.8988 14.5778 47.936 14.61 47.9832 14.62L50.0562 15.0617C50.0935 15.0692 50.1084 15.1163 50.0835 15.1436L48.6634 16.7196C48.6312 16.7544 48.6188 16.804 48.6287 16.8487L48.6312 16.8462Z" fill="#FF553D"/>
<path d="M55.5182 19.7376C55.5182 20.3134 55.4884 20.8892 55.4337 21.4675C55.4263 21.542 55.3642 21.6015 55.2897 21.604L51.4689 21.738C51.4192 21.738 51.3994 21.8026 51.4391 21.8324L54.8453 24.4905C54.895 24.5302 54.9149 24.5947 54.895 24.6543L54.2197 26.7291C54.1998 26.7887 54.1452 26.8309 54.0832 26.8309L49.7658 26.9823C49.7161 26.9823 49.6962 27.0468 49.736 27.0766L52.7425 29.422C52.8021 29.4692 52.817 29.5511 52.7797 29.6181C52.4843 30.1194 52.1665 30.6009 51.8314 31.0675C51.7817 31.137 51.6849 31.1494 51.6179 31.0973L46.6649 27.2305C46.6028 27.1833 46.5904 27.094 46.6351 27.0294C47.0472 26.4338 47.4147 25.7959 47.73 25.1184C47.7523 25.0687 47.802 25.034 47.8591 25.034L51.9431 24.8925C51.9927 24.8925 52.0126 24.828 51.9729 24.7982L48.7553 22.2865C48.7106 22.2518 48.6908 22.1972 48.7007 22.1426C48.8447 21.4104 48.9266 20.6783 48.944 19.9511C48.944 19.8717 49.0085 19.8096 49.0855 19.8071L55.3667 19.5887C55.4511 19.5862 55.5231 19.6533 55.5231 19.7376H55.5182Z" fill="#FF553D"/>
<path d="M42.6404 30.7672C42.0049 31.1419 41.3321 31.4646 40.6295 31.7277C40.5028 31.7748 40.4979 31.9486 40.6195 32.0032L45.0338 33.9688L45.282 34.078C45.3068 34.088 45.3267 34.1053 45.3416 34.1277L46.6127 35.8724C46.6599 35.937 46.7493 35.9543 46.8163 35.9097C47.298 35.592 47.7622 35.252 48.2141 34.8946C48.2761 34.8449 48.2886 34.7531 48.2414 34.6886L46.9702 32.9413C46.9554 32.919 46.9454 32.8942 46.9429 32.8669L46.9181 32.5963L46.4116 27.8088C46.3967 27.6747 46.2304 27.6276 46.146 27.7318C45.6793 28.3076 45.1653 28.8437 44.6092 29.3351C44.5745 29.3674 44.5546 29.4121 44.5596 29.4617L44.7805 31.5688C44.7855 31.6061 44.7458 31.6358 44.711 31.6185L42.7745 30.7573C42.7298 30.7374 42.6802 30.7399 42.6404 30.7647V30.7672Z" fill="#FF553D"/>
<path d="M42.0198 38.2079C41.4736 38.3841 40.915 38.5355 40.3464 38.6621C40.2719 38.6795 40.1975 38.6373 40.1726 38.5678L38.8643 34.9765C38.8469 34.9293 38.7823 34.9293 38.765 34.9765L37.2878 39.0344C37.2654 39.094 37.2108 39.1312 37.1487 39.1312H34.9664C34.9044 39.1312 34.8473 39.0915 34.8274 39.0344L33.3477 34.9765C33.3303 34.9293 33.2658 34.9293 33.2484 34.9765L31.945 38.5603C31.9202 38.6298 31.8457 38.672 31.7712 38.6571C31.2052 38.5306 30.6466 38.3792 30.0979 38.2029C30.016 38.1781 29.9737 38.0888 30.0035 38.0094L32.1511 32.1049C32.1784 32.0305 32.2578 31.9908 32.3323 32.0156C33.0275 32.2241 33.7474 32.3755 34.4873 32.4648C34.5419 32.4722 34.5891 32.507 34.6089 32.5591L36.0042 36.3986C36.0216 36.4458 36.0861 36.4458 36.1035 36.3986L37.4988 32.5641C37.5186 32.512 37.5658 32.4747 37.6204 32.4698C38.3603 32.3829 39.0827 32.2315 39.7804 32.0255C39.8549 32.0032 39.9343 32.0429 39.9616 32.1149L42.1091 38.0193C42.1389 38.0987 42.0942 38.1881 42.0148 38.2129L42.0198 38.2079Z" fill="#FF553D"/>
</g>
<defs>
<clipPath id="clip0_491_4236">
<rect width="39.1337" height="39.1337" fill="white" transform="translate(16.3845)"/>
</clipPath>
</defs>
</svg>
