<svg width="122" height="50" viewBox="0 0 122 50" fill="none" xmlns="http://www.w3.org/2000/svg">
  <path fill-rule="evenodd" clip-rule="evenodd"
        d="M8.09411 24.5002L22.5105 10.0922L27.2043 14.7829C27.8895 15.7245 28.2976 16.8882 28.2976 18.1304C28.2976 21.3154 25.6982 23.9128 22.5104 23.9128C20.9742 23.9128 19.505 24.1844 18.126 24.6585C15.8468 25.4623 13.8327 26.8618 12.2801 28.6836L8.09411 24.5002ZM32.7301 20.3049L36.9282 24.5002L22.5105 38.9076L17.755 34.155C17.1137 33.2164 16.7246 32.0759 16.7246 30.8698C16.7246 29.4245 17.2667 28.1144 18.126 27.0974C19.1879 25.8778 20.77 25.0874 22.5104 25.0874C26.6008 25.0874 30.2883 23.2343 32.7301 20.3049ZM34.148 12.8711V18.6515L40 24.5004L34.148 30.3485V36.1294H28.3627L22.5105 42L16.6589 36.1294H10.8518V30.3485L5 24.5004L10.8518 18.6515V12.8711H16.6589L22.5105 7L28.3627 12.8711H34.148ZM32.773 14.2447V18.1755L39.1026 24.5004L32.773 30.8252V34.7782H28.8397L22.5104 41.1026L18.1261 36.7207L16.1819 34.7782H12.2265V30.8252L5.89744 24.5004L12.2265 18.1755V14.2447H16.1819L18.1261 12.2795L22.5104 7.89744L28.8397 14.2447H32.773Z"
        fill="#007AC0"/>
  <rect x="0.5" y="0.5" width="121" height="49" stroke="#007AC0"/>
  <rect x="2.15" y="2.15" width="117.7" height="45.7" stroke="#007AC0" stroke-width="0.3"/>
  <path
    d="M59.1437 20H58.1692L57.8868 19.1169H56.4749L56.1953 20H55.2263L56.6715 16.03H57.7318L59.1437 20ZM57.682 18.4303L57.2556 17.0959C57.2242 16.9962 57.2021 16.8772 57.1892 16.7388H57.167C57.1578 16.855 57.1347 16.9704 57.0978 17.0848L56.6659 18.4303H57.682ZM62.9393 20H61.8097L60.6525 18.2752C60.6304 18.242 60.5953 18.1691 60.5473 18.0565H60.5335V20H59.6393V16.03H60.5335V17.907H60.5473C60.5695 17.8554 60.6064 17.7815 60.6581 17.6856L61.7544 16.03H62.8202L61.436 17.9237L62.9393 20ZM63.3213 20V16.03H65.8766V16.7637H64.2155V17.6302H64.9824C65.4069 17.6302 65.7345 17.7289 65.9652 17.9264C66.1977 18.1221 66.314 18.3934 66.314 18.7403C66.314 19.139 66.1904 19.4491 65.9431 19.6706C65.6976 19.8902 65.3488 20 64.8966 20H63.3213ZM64.2155 18.2808V19.3466H64.7388C65.1577 19.3466 65.3672 19.1639 65.3672 18.7985C65.3672 18.4534 65.167 18.2808 64.7665 18.2808H64.2155ZM71.2253 19.4435H70.4806L69.5753 18.5133L70.4806 17.561H71.2253L70.3006 18.5133L71.2253 19.4435ZM69.8798 19.4435H69.1379L68.2243 18.5133L69.1379 17.561H69.8743L68.9496 18.5133L69.8798 19.4435ZM74.4976 16.7581H73.3653V20H72.4683V16.7581H71.3416V16.03H74.4976V16.7581ZM76.9837 18.8317H75.1343C75.1639 19.2433 75.4232 19.4491 75.9123 19.4491C76.2242 19.4491 76.4983 19.3753 76.7345 19.2276V19.8588C76.4724 19.9991 76.1319 20.0692 75.713 20.0692C75.2552 20.0692 74.9 19.9428 74.6471 19.6899C74.3942 19.4352 74.2678 19.0809 74.2678 18.6268C74.2678 18.1562 74.4044 17.7834 74.6776 17.5084C74.9507 17.2334 75.2866 17.0959 75.6853 17.0959C76.0987 17.0959 76.418 17.2186 76.6432 17.4641C76.8702 17.7096 76.9837 18.0427 76.9837 18.4635V18.8317ZM76.1725 18.2946C76.1725 17.8886 76.0083 17.6856 75.6797 17.6856C75.5395 17.6856 75.4177 17.7437 75.3143 17.86C75.2128 17.9763 75.151 18.1211 75.1288 18.2946H76.1725ZM80.2422 20H79.3701V18.4247C79.3701 17.9855 79.2132 17.7659 78.8995 17.7659C78.7481 17.7659 78.6235 17.824 78.5257 17.9403C78.4279 18.0565 78.379 18.2042 78.379 18.3832V20H77.5042V17.1651H78.379V17.6136H78.3901C78.5986 17.2685 78.9022 17.0959 79.3009 17.0959C79.9284 17.0959 80.2422 17.4853 80.2422 18.2642V20ZM83.7166 19.6761C83.7166 20.2021 83.5643 20.6091 83.2598 20.897C82.9553 21.1867 82.5141 21.3316 81.9365 21.3316C81.5544 21.3316 81.2517 21.2772 81.0284 21.1683V20.4319C81.32 20.6017 81.6144 20.6866 81.9115 20.6866C82.2068 20.6866 82.4357 20.6081 82.5981 20.4513C82.7605 20.2962 82.8417 20.0849 82.8417 19.8173V19.593H82.8307C82.6313 19.9105 82.337 20.0692 81.9475 20.0692C81.5858 20.0692 81.2988 19.9419 81.0865 19.6872C80.8743 19.4325 80.7682 19.091 80.7682 18.6628C80.7682 18.183 80.8863 17.8018 81.1225 17.5195C81.3588 17.2371 81.6698 17.0959 82.0555 17.0959C82.4006 17.0959 82.659 17.2288 82.8307 17.4945H82.8417V17.1651H83.7166V19.6761ZM82.8528 18.6379V18.4137C82.8528 18.2346 82.7993 18.0824 82.6923 17.9569C82.587 17.8295 82.4495 17.7659 82.2797 17.7659C82.086 17.7659 81.9337 17.8415 81.823 17.9929C81.7122 18.1442 81.6568 18.3574 81.6568 18.6324C81.6568 18.8686 81.7094 19.056 81.8146 19.1944C81.9198 19.331 82.0638 19.3992 82.2465 19.3992C82.4274 19.3992 82.5732 19.33 82.6839 19.1916C82.7965 19.0513 82.8528 18.8668 82.8528 18.6379ZM86.9944 18.8317H85.1451C85.1746 19.2433 85.434 19.4491 85.923 19.4491C86.235 19.4491 86.509 19.3753 86.7453 19.2276V19.8588C86.4832 19.9991 86.1427 20.0692 85.7237 20.0692C85.266 20.0692 84.9107 19.9428 84.6579 19.6899C84.405 19.4352 84.2786 19.0809 84.2786 18.6268C84.2786 18.1562 84.4152 17.7834 84.6883 17.5084C84.9615 17.2334 85.2974 17.0959 85.696 17.0959C86.1095 17.0959 86.4288 17.2186 86.6539 17.4641C86.8809 17.7096 86.9944 18.0427 86.9944 18.4635V18.8317ZM86.1833 18.2946C86.1833 17.8886 86.019 17.6856 85.6905 17.6856C85.5502 17.6856 85.4284 17.7437 85.3251 17.86C85.2235 17.9763 85.1617 18.1211 85.1396 18.2946H86.1833ZM89.1677 20V16.03H90.6128C91.0558 16.03 91.3963 16.1112 91.6344 16.2736C91.8725 16.4361 91.9915 16.6649 91.9915 16.9602C91.9915 17.1743 91.9186 17.3617 91.7728 17.5222C91.6288 17.6828 91.4443 17.7945 91.2191 17.8572V17.8683C91.5015 17.9034 91.7267 18.0076 91.8946 18.1811C92.0644 18.3546 92.1493 18.5659 92.1493 18.8151C92.1493 19.1787 92.0192 19.4675 91.759 19.6816C91.4987 19.8939 91.1434 20 90.6931 20H89.1677ZM90.0619 16.6889V17.6302H90.455C90.6396 17.6302 90.7845 17.5859 90.8897 17.4973C90.9967 17.4069 91.0502 17.2832 91.0502 17.1263C91.0502 16.8347 90.8325 16.6889 90.3969 16.6889H90.0619ZM90.0619 18.2946V19.3411H90.5464C90.7531 19.3411 90.9146 19.2931 91.0309 19.1971C91.149 19.1012 91.208 18.9701 91.208 18.804C91.208 18.6453 91.1499 18.5207 91.0336 18.4303C90.9192 18.3398 90.7586 18.2946 90.5519 18.2946H90.0619ZM95.0784 20H94.2506V19.593H94.2395C94.0494 19.9105 93.7679 20.0692 93.3951 20.0692C93.1201 20.0692 92.9033 19.9917 92.7445 19.8367C92.5877 19.6798 92.5092 19.4712 92.5092 19.211C92.5092 18.661 92.835 18.3435 93.4865 18.2586L94.2561 18.1562C94.2561 17.8461 94.0882 17.6911 93.7523 17.6911C93.4145 17.6911 93.0934 17.7917 92.7888 17.9929V17.334C92.9106 17.2712 93.0768 17.2158 93.2872 17.1679C93.4994 17.1199 93.6923 17.0959 93.8658 17.0959C94.6742 17.0959 95.0784 17.4992 95.0784 18.3057V20ZM94.2561 18.8483V18.6573L93.7412 18.7237C93.457 18.7607 93.3148 18.8889 93.3148 19.1086C93.3148 19.2082 93.349 19.2904 93.4173 19.3549C93.4874 19.4177 93.5815 19.4491 93.6997 19.4491C93.8639 19.4491 93.9977 19.3928 94.1011 19.2802C94.2044 19.1658 94.2561 19.0218 94.2561 18.8483ZM98.5085 20H97.6364V18.4247C97.6364 17.9855 97.4795 17.7659 97.1658 17.7659C97.0144 17.7659 96.8898 17.824 96.792 17.9403C96.6942 18.0565 96.6453 18.2042 96.6453 18.3832V20H95.7705V17.1651H96.6453V17.6136H96.6564C96.8649 17.2685 97.1685 17.0959 97.5672 17.0959C98.1947 17.0959 98.5085 17.4853 98.5085 18.2642V20ZM102.044 20H100.995L100.089 18.5936H100.078V20H99.2034V15.803H100.078V18.4746H100.089L100.934 17.1651H101.972L100.956 18.4967L102.044 20ZM105.156 18.5133L104.247 19.4435H103.506L104.427 18.5133L103.511 17.561H104.247L105.156 18.5133ZM103.81 18.5133L102.899 19.4435H102.155L103.085 18.5133L102.16 17.561H102.899L103.81 18.5133ZM49.85 28H47.7459V24.03H49.7614V24.4508H48.211V25.7714H49.6451V26.1894H48.211V27.5792H49.85V28ZM52.6738 28H50.6141V24.03H51.0792V27.5792H52.6738V28ZM55.3869 28H53.2829V24.03H55.2983V24.4508H53.748V25.7714H55.182V26.1894H53.748V27.5792H55.3869V28ZM58.9139 28H58.2661L56.7324 26.1839C56.6752 26.1156 56.6401 26.0695 56.6272 26.0455H56.6161V28H56.151V24.03H56.6161V25.896H56.6272C56.653 25.8554 56.6881 25.8101 56.7324 25.7603L58.2163 24.03H58.7949L57.0923 25.9347L58.9139 28ZM61.7876 24.4508H60.6414V28H60.1763V24.4508H59.033V24.03H61.7876V24.4508ZM65.2592 28H64.7055L64.0411 26.8871C63.9802 26.7837 63.9212 26.6961 63.8639 26.6241C63.8067 26.5502 63.7477 26.4903 63.6868 26.4441C63.6277 26.398 63.5631 26.3648 63.493 26.3445C63.4247 26.3223 63.3472 26.3112 63.2604 26.3112H62.8784V28H62.4133V24.03H63.5982C63.7717 24.03 63.9313 24.0522 64.0771 24.0965C64.2248 24.1389 64.3521 24.2044 64.4592 24.293C64.568 24.3816 64.6529 24.4924 64.7139 24.6252C64.7748 24.7563 64.8052 24.9104 64.8052 25.0876C64.8052 25.226 64.784 25.3533 64.7415 25.4696C64.7009 25.5841 64.6419 25.6865 64.5644 25.7769C64.4887 25.8674 64.3964 25.9449 64.2875 26.0095C64.1805 26.0722 64.0596 26.1211 63.9248 26.1562V26.1673C63.9913 26.1968 64.0485 26.231 64.0965 26.2697C64.1463 26.3066 64.1934 26.3509 64.2377 26.4026C64.282 26.4543 64.3253 26.5133 64.3678 26.5798C64.4121 26.6444 64.461 26.72 64.5145 26.8068L65.2592 28ZM62.8784 24.4508V25.8904H63.5096C63.6258 25.8904 63.7329 25.8729 63.8307 25.8378C63.9304 25.8028 64.0162 25.7529 64.0882 25.6883C64.1602 25.6219 64.2165 25.5416 64.2571 25.4475C64.2977 25.3515 64.318 25.2445 64.318 25.1263C64.318 24.9141 64.2488 24.7489 64.1103 24.6308C63.9738 24.5108 63.7753 24.4508 63.5151 24.4508H62.8784ZM67.4076 28.0664C66.8446 28.0664 66.3934 27.881 66.0538 27.51C65.716 27.139 65.5472 26.6564 65.5472 26.0621C65.5472 25.4235 65.7197 24.9141 66.0649 24.5339C66.41 24.1537 66.8797 23.9636 67.474 23.9636C68.0222 23.9636 68.4633 24.1481 68.7973 24.5173C69.1332 24.8864 69.3012 25.369 69.3012 25.9652C69.3012 26.613 69.1296 27.1252 68.7863 27.5017C68.443 27.8782 67.9834 28.0664 67.4076 28.0664ZM67.4408 24.3844C67.0237 24.3844 66.685 24.5348 66.4248 24.8356C66.1645 25.1365 66.0344 25.5315 66.0344 26.0205C66.0344 26.5096 66.1608 26.9037 66.4137 27.2027C66.6684 27.4998 66.9997 27.6484 67.4076 27.6484C67.8431 27.6484 68.1864 27.5063 68.4374 27.2221C68.6884 26.9378 68.8139 26.5401 68.8139 26.0289C68.8139 25.5047 68.6921 25.0996 68.4485 24.8135C68.2049 24.5274 67.869 24.3844 67.4408 24.3844ZM73.2822 28H72.7119L70.6688 24.8356C70.6171 24.7563 70.5747 24.6732 70.5415 24.5865H70.5249C70.5396 24.6714 70.547 24.8532 70.547 25.1319V28H70.0819V24.03H70.6854L72.6732 27.1445C72.7562 27.2737 72.8098 27.3623 72.8338 27.4103H72.8448C72.8264 27.2959 72.8171 27.1012 72.8171 26.8262V24.03H73.2822V28ZM78.2267 24.4508H77.0806V28H76.6155V24.4508H75.4721V24.03H78.2267V24.4508ZM81.7565 26.3943C81.7565 27.5091 81.2536 28.0664 80.2477 28.0664C79.2843 28.0664 78.8026 27.5303 78.8026 26.458V24.03H79.2677V26.4275C79.2677 27.2414 79.611 27.6484 80.2975 27.6484C80.9601 27.6484 81.2914 27.2553 81.2914 26.469V24.03H81.7565V26.3943ZM85.5964 28H85.0427L84.3782 26.8871C84.3173 26.7837 84.2583 26.6961 84.2011 26.6241C84.1438 26.5502 84.0848 26.4903 84.0239 26.4441C83.9648 26.398 83.9002 26.3648 83.8301 26.3445C83.7618 26.3223 83.6843 26.3112 83.5975 26.3112H83.2155V28H82.7504V24.03H83.9353C84.1088 24.03 84.2684 24.0522 84.4142 24.0965C84.5619 24.1389 84.6892 24.2044 84.7963 24.293C84.9052 24.3816 84.9901 24.4924 85.051 24.6252C85.1119 24.7563 85.1423 24.9104 85.1423 25.0876C85.1423 25.226 85.1211 25.3533 85.0787 25.4696C85.0381 25.5841 84.979 25.6865 84.9015 25.7769C84.8258 25.8674 84.7335 25.9449 84.6246 26.0095C84.5176 26.0722 84.3967 26.1211 84.262 26.1562V26.1673C84.3284 26.1968 84.3856 26.231 84.4336 26.2697C84.4834 26.3066 84.5305 26.3509 84.5748 26.4026C84.6191 26.4543 84.6625 26.5133 84.7049 26.5798C84.7492 26.6444 84.7981 26.72 84.8516 26.8068L85.5964 28ZM83.2155 24.4508V25.8904H83.8467C83.963 25.8904 84.07 25.8729 84.1678 25.8378C84.2675 25.8028 84.3533 25.7529 84.4253 25.6883C84.4973 25.6219 84.5536 25.5416 84.5942 25.4475C84.6348 25.3515 84.6551 25.2445 84.6551 25.1263C84.6551 24.9141 84.5859 24.7489 84.4475 24.6308C84.3109 24.5108 84.1125 24.4508 83.8522 24.4508H83.2155ZM86.1445 28V24.03H87.2408C88.6398 24.03 89.3393 24.6751 89.3393 25.9652C89.3393 26.5779 89.1446 27.0707 88.7552 27.4435C88.3676 27.8145 87.848 28 87.1965 28H86.1445ZM86.6096 24.4508V27.5792H87.2021C87.7225 27.5792 88.1277 27.4398 88.4174 27.1612C88.7072 26.8825 88.8521 26.4875 88.8521 25.9763C88.8521 24.9593 88.3113 24.4508 87.2298 24.4508H86.6096ZM93.193 28H92.6781L92.2573 26.8871H90.5741L90.1782 28H89.6605L91.1831 24.03H91.6648L93.193 28ZM92.105 26.469L91.4821 24.7775C91.4618 24.7221 91.4415 24.6335 91.4212 24.5117H91.4101C91.3917 24.6243 91.3705 24.7129 91.3465 24.7775L90.7291 26.469H92.105ZM96.936 28.0664C96.3731 28.0664 95.9218 27.881 95.5822 27.51C95.2445 27.139 95.0756 26.6564 95.0756 26.0621C95.0756 25.4235 95.2481 24.9141 95.5933 24.5339C95.9384 24.1537 96.4081 23.9636 97.0024 23.9636C97.5506 23.9636 97.9917 24.1481 98.3258 24.5173C98.6617 24.8864 98.8296 25.369 98.8296 25.9652C98.8296 26.613 98.658 27.1252 98.3147 27.5017C97.9714 27.8782 97.5118 28.0664 96.936 28.0664ZM96.9692 24.3844C96.5521 24.3844 96.2134 24.5348 95.9532 24.8356C95.6929 25.1365 95.5628 25.5315 95.5628 26.0205C95.5628 26.5096 95.6893 26.9037 95.9421 27.2027C96.1968 27.4998 96.5281 27.6484 96.936 27.6484C97.3716 27.6484 97.7148 27.5063 97.9659 27.2221C98.2169 26.9378 98.3424 26.5401 98.3424 26.0289C98.3424 25.5047 98.2206 25.0996 97.9769 24.8135C97.7333 24.5274 97.3974 24.3844 96.9692 24.3844ZM101.67 28H99.6103V24.03H100.075V27.5792H101.67V28ZM102.744 28H102.279V24.03H102.744V28ZM106.991 28H106.421L104.378 24.8356C104.326 24.7563 104.283 24.6732 104.25 24.5865H104.234C104.248 24.6714 104.256 24.8532 104.256 25.1319V28H103.791V24.03H104.394L106.382 27.1445C106.465 27.2737 106.519 27.3623 106.543 27.4103H106.554C106.535 27.2959 106.526 27.1012 106.526 26.8262V24.03H106.991V28ZM108.032 28V24.03H109.128C110.527 24.03 111.227 24.6751 111.227 25.9652C111.227 26.5779 111.032 27.0707 110.643 27.4435C110.255 27.8145 109.736 28 109.084 28H108.032ZM108.497 24.4508V27.5792H109.09C109.61 27.5792 110.015 27.4398 110.305 27.1612C110.595 26.8825 110.74 26.4875 110.74 25.9763C110.74 24.9593 110.199 24.4508 109.117 24.4508H108.497ZM112.473 28H112.008V24.03H112.473V28ZM52.0398 36H51.5692V32.4619H49.4956V36H49.0277V32.03H52.0398V36ZM54.6699 36.0664C54.107 36.0664 53.6557 35.881 53.3161 35.51C52.9783 35.139 52.8095 34.6564 52.8095 34.0621C52.8095 33.4235 52.982 32.9141 53.3272 32.5339C53.6723 32.1537 54.142 31.9636 54.7363 31.9636C55.2845 31.9636 55.7256 32.1481 56.0596 32.5173C56.3955 32.8864 56.5635 33.369 56.5635 33.9652C56.5635 34.613 56.3919 35.1252 56.0486 35.5017C55.7053 35.8782 55.2457 36.0664 54.6699 36.0664ZM54.7031 32.3844C54.286 32.3844 53.9473 32.5348 53.6871 32.8356C53.4268 33.1365 53.2967 33.5315 53.2967 34.0205C53.2967 34.5096 53.4231 34.9037 53.676 35.2027C53.9307 35.4998 54.262 35.6484 54.6699 35.6484C55.1054 35.6484 55.4487 35.5063 55.6997 35.2221C55.9507 34.9378 56.0763 34.5401 56.0763 34.0289C56.0763 33.5047 55.9544 33.0996 55.7108 32.8135C55.4672 32.5274 55.1313 32.3844 54.7031 32.3844ZM60.1127 36H59.6476V32.4508H58.5457C58.4184 33.4512 58.3178 34.158 58.244 34.5715C58.1701 34.9849 58.0954 35.2894 58.0197 35.4851C57.944 35.6807 57.8416 35.8265 57.7124 35.9225C57.5832 36.0166 57.4282 36.0637 57.2473 36.0637C57.1015 36.0637 56.9751 36.0443 56.868 36.0055V35.5681C56.9622 35.6216 57.0664 35.6484 57.1809 35.6484C57.2953 35.6484 57.4023 35.5801 57.502 35.4435C57.6035 35.307 57.706 34.9517 57.8093 34.3777C57.9145 33.8037 58.0308 33.0211 58.1581 32.03H60.1127V36ZM63.8889 32.03L62.6624 34.8013C62.4446 35.2922 62.2342 35.6263 62.0312 35.8034C61.8282 35.9806 61.6067 36.0692 61.3668 36.0692C61.1693 36.0692 61.0041 36.0406 60.8712 35.9834V35.5128C61.03 35.6069 61.1831 35.6539 61.3308 35.6539C61.4803 35.6539 61.6178 35.5967 61.7433 35.4823C61.8688 35.366 62.0045 35.1621 62.1503 34.8705L60.8048 32.03H61.3336L62.2859 34.1507C62.3025 34.1857 62.3367 34.2716 62.3883 34.4081H62.3939C62.3994 34.3915 62.4373 34.302 62.5074 34.1396L63.3905 32.03H63.8889ZM67.0477 36H66.5826V34.2143C66.1599 34.4377 65.7668 34.5493 65.4032 34.5493C65.0562 34.5493 64.7877 34.4598 64.5976 34.2808C64.4093 34.0999 64.3152 33.8471 64.3152 33.5222V32.03H64.7803V33.5001C64.7803 33.9264 65.0073 34.1396 65.4613 34.1396C65.7899 34.1396 66.1636 34.0381 66.5826 33.8351V32.03H67.0477V36ZM70.2286 36H68.1246V32.03H70.14V32.4508H68.5897V33.7714H70.0238V34.1894H68.5897V35.5792H70.2286V36ZM73.9771 36H73.512V34.1894H71.4578V36H70.9927V32.03H71.4578V33.7714H73.512V32.03H73.9771V36ZM76.3414 35.8339V35.3826C76.6312 35.5598 76.9837 35.6484 77.3989 35.6484C77.7939 35.6484 78.1169 35.5238 78.3679 35.2747C78.6208 35.0237 78.762 34.6758 78.7915 34.231H77.0335V33.8129H78.7859C78.738 33.3607 78.5885 33.0101 78.3375 32.7609C78.0883 32.5099 77.7635 32.3844 77.363 32.3844C76.9883 32.3844 76.6478 32.4638 76.3414 32.6225V32.1352C76.6256 32.0208 76.9661 31.9636 77.363 31.9636C77.9333 31.9636 78.3965 32.1555 78.7527 32.5394C79.1089 32.9215 79.287 33.4327 79.287 34.0732C79.287 34.6619 79.1154 35.1418 78.7721 35.5128C78.4307 35.8819 77.9803 36.0664 77.4211 36.0664C76.9948 36.0664 76.6349 35.9889 76.3414 35.8339ZM82.8362 36H82.3711V32.4508H81.2693C81.1419 33.4512 81.0413 34.158 80.9675 34.5715C80.8937 34.9849 80.8189 35.2894 80.7433 35.4851C80.6676 35.6807 80.5651 35.8265 80.436 35.9225C80.3068 36.0166 80.1517 36.0637 79.9709 36.0637C79.825 36.0637 79.6986 36.0443 79.5916 36.0055V35.5681C79.6857 35.6216 79.79 35.6484 79.9044 35.6484C80.0188 35.6484 80.1259 35.5801 80.2255 35.4435C80.3271 35.307 80.4295 34.9517 80.5328 34.3777C80.638 33.8037 80.7543 33.0211 80.8817 32.03H82.8362V36ZM85.9867 36H83.8827V32.03H85.8981V32.4508H84.3478V33.7714H85.7819V34.1894H84.3478V35.5792H85.9867V36ZM89.5137 36H88.8659L87.3322 34.1839C87.275 34.1156 87.2399 34.0695 87.227 34.0455H87.2159V36H86.7508V32.03H87.2159V33.896H87.227C87.2528 33.8554 87.2879 33.8101 87.3322 33.7603L88.8161 32.03H89.3947L87.6921 33.9347L89.5137 36ZM92.3874 32.4508H91.2413V36H90.7762V32.4508H89.6328V32.03H92.3874V32.4508ZM93.4782 34.4995V36H93.0131V32.03H94.1039C94.5283 32.03 94.8569 32.1334 95.0894 32.3401C95.3238 32.5468 95.441 32.8384 95.441 33.2149C95.441 33.5914 95.3109 33.8997 95.0507 34.1396C94.7923 34.3795 94.4425 34.4995 94.0014 34.4995H93.4782ZM93.4782 32.4508V34.0787H93.9654C94.2866 34.0787 94.5311 34.0058 94.6991 33.86C94.8689 33.7123 94.9538 33.5047 94.9538 33.2371C94.9538 32.7129 94.6437 32.4508 94.0236 32.4508H93.4782ZM97.7914 36.0664C97.2285 36.0664 96.7773 35.881 96.4377 35.51C96.0999 35.139 95.931 34.6564 95.931 34.0621C95.931 33.4235 96.1036 32.9141 96.4487 32.5339C96.7939 32.1537 97.2636 31.9636 97.8579 31.9636C98.406 31.9636 98.8472 32.1481 99.1812 32.5173C99.5171 32.8864 99.6851 33.369 99.6851 33.9652C99.6851 34.613 99.5134 35.1252 99.1701 35.5017C98.8269 35.8782 98.3673 36.0664 97.7914 36.0664ZM97.8247 32.3844C97.4076 32.3844 97.0689 32.5348 96.8086 32.8356C96.5484 33.1365 96.4183 33.5315 96.4183 34.0205C96.4183 34.5096 96.5447 34.9037 96.7976 35.2027C97.0523 35.4998 97.3836 35.6484 97.7914 35.6484C98.227 35.6484 98.5703 35.5063 98.8213 35.2221C99.0723 34.9378 99.1978 34.5401 99.1978 34.0289C99.1978 33.5047 99.076 33.0996 98.8324 32.8135C98.5888 32.5274 98.2529 32.3844 97.8247 32.3844ZM103.45 36H102.985V34.1894H100.931V36H100.466V32.03H100.931V33.7714H102.985V32.03H103.45V36ZM107.476 36H107.01V34.1894H104.956V36H104.491V32.03H104.956V33.7714H107.01V32.03H107.476V36ZM110.117 36.0664C109.554 36.0664 109.102 35.881 108.763 35.51C108.425 35.139 108.256 34.6564 108.256 34.0621C108.256 33.4235 108.429 32.9141 108.774 32.5339C109.119 32.1537 109.589 31.9636 110.183 31.9636C110.731 31.9636 111.172 32.1481 111.506 32.5173C111.842 32.8864 112.01 33.369 112.01 33.9652C112.01 34.613 111.839 35.1252 111.495 35.5017C111.152 35.8782 110.692 36.0664 110.117 36.0664ZM110.15 32.3844C109.733 32.3844 109.394 32.5348 109.134 32.8356C108.874 33.1365 108.743 33.5315 108.743 34.0205C108.743 34.5096 108.87 34.9037 109.123 35.2027C109.377 35.4998 109.709 35.6484 110.117 35.6484C110.552 35.6484 110.896 35.5063 111.147 35.2221C111.398 34.9378 111.523 34.5401 111.523 34.0289C111.523 33.5047 111.401 33.0996 111.158 32.8135C110.914 32.5274 110.578 32.3844 110.15 32.3844Z"
    fill="#007AC0"/>
</svg>
