<svg width="334" height="63" viewBox="0 0 334 63" fill="none" xmlns="http://www.w3.org/2000/svg">
<path d="M12.5117 14.8332V63H0.0848389V14.8332H12.5117Z" fill="white"/>
<path d="M42.1781 14.833C42.1781 6.641 35.5371 0 27.3451 0C19.1527 0 12.5117 6.641 12.5117 14.833H42.1781Z" fill="#FFB800"/>
<path d="M0.181732 14.8324H54.6041V27.2597H0.181732V14.8324Z" fill="white"/>
<path d="M12.5117 14.8332V63H0.0848389V14.8332H12.5117Z" fill="white"/>
<path d="M54.6055 14.8332V63H42.1781V14.8332H54.6055Z" fill="white"/>
<path d="M0.181732 50.5725L54.6041 50.573V62.9999H0.181732V50.5725Z" fill="white"/>
<path d="M129.38 60.7821H113.12L103.828 47.7737L94.3036 60.7821H78.3527L95.5038 39.0629L78.6238 17.3044H94.8841L104.021 30.0805L113.197 17.3044H129.186L112.267 38.7142L129.38 60.7821Z" fill="white"/>
<path d="M163.295 49.4394V40.3798C161.411 40.5345 159.372 40.7539 157.178 41.0379C154.984 41.2961 153.319 41.6059 152.184 41.967C150.79 42.4057 149.719 43.0513 148.97 43.9029C148.247 44.7291 147.886 45.8258 147.886 47.1936C147.886 48.0974 147.963 48.8325 148.119 49.4006C148.273 49.9686 148.66 50.5103 149.28 51.0266C149.873 51.5429 150.583 51.9298 151.409 52.188C152.235 52.4203 153.526 52.5367 155.281 52.5367C156.675 52.5367 158.081 52.2527 159.501 51.6846C160.946 51.1171 162.211 50.3685 163.295 49.4394ZM163.295 56.1761C162.547 56.7436 161.617 57.4275 160.508 58.2278C159.398 59.0281 158.353 59.6603 157.372 60.1249C156.003 60.7442 154.584 61.1958 153.113 61.4798C151.642 61.7897 150.029 61.9444 148.273 61.9444C144.143 61.9444 140.685 60.6671 137.898 58.1114C135.11 55.5563 133.716 52.2915 133.716 48.3168C133.716 45.1419 134.426 42.548 135.845 40.5345C137.265 38.5216 139.278 36.9339 141.885 35.7725C144.466 34.6111 147.667 33.7854 151.486 33.295C155.306 32.8046 159.269 32.4429 163.372 32.2107V31.9784C163.372 29.5779 162.392 27.9261 160.43 27.0228C158.468 26.0937 155.578 25.6291 151.758 25.6291C149.461 25.6291 147.008 26.042 144.402 26.8682C141.795 27.668 139.924 28.2877 138.788 28.7264H137.51V18.2344C138.982 17.8474 141.369 17.3958 144.673 16.8795C148.002 16.3373 151.332 16.0662 154.661 16.0662C162.585 16.0662 168.302 17.2923 171.812 19.7445C175.348 22.1708 177.117 25.9903 177.117 31.2044V60.7829H163.295V56.1761Z" fill="white"/>
<path d="M227.447 60.7821H186.602V51.839L209.521 27.4865H187.531V17.3044H227.021V26.0928L204.45 50.4064H227.447V60.7821Z" fill="white"/>
<path d="M280.913 60.7826H266.898V39.2181C266.898 37.4628 266.808 35.7209 266.627 33.9915C266.447 32.2362 266.137 30.9459 265.698 30.1198C265.182 29.1648 264.421 28.4679 263.414 28.0292C262.433 27.5905 261.052 27.3712 259.271 27.3712C258.006 27.3712 256.716 27.5776 255.399 27.9904C254.109 28.4033 252.703 29.0618 251.18 29.9651V60.7826H237.242V17.3049H251.18V22.1058C253.658 20.1699 256.032 18.6857 258.303 17.6536C260.601 16.621 263.143 16.1047 265.93 16.1047C270.628 16.1047 274.293 17.4725 276.926 20.2087C279.584 22.9443 280.913 27.0354 280.913 32.4814V60.7826Z" fill="white"/>
<path d="M320.094 49.4394V40.3798C318.209 40.5345 316.171 40.7539 313.977 41.0379C311.783 41.2961 310.118 41.6059 308.982 41.967C307.589 42.4057 306.517 43.0513 305.769 43.9029C305.046 44.7291 304.685 45.8258 304.685 47.1936C304.685 48.0974 304.762 48.8325 304.917 49.4006C305.072 49.9686 305.459 50.5103 306.078 51.0266C306.672 51.5429 307.382 51.9298 308.208 52.188C309.034 52.4203 310.324 52.5367 312.08 52.5367C313.473 52.5367 314.88 52.2527 316.299 51.6846C317.745 51.1171 319.01 50.3685 320.094 49.4394ZM320.094 56.1761C319.345 56.7436 318.416 57.4275 317.306 58.2278C316.196 59.0281 315.151 59.6603 314.17 60.1249C312.802 60.7442 311.383 61.1958 309.911 61.4798C308.44 61.7897 306.827 61.9444 305.072 61.9444C300.942 61.9444 297.483 60.6671 294.696 58.1114C291.909 55.5563 290.515 52.2915 290.515 48.3168C290.515 45.1419 291.225 42.548 292.644 40.5345C294.064 38.5216 296.077 36.9339 298.684 35.7725C301.265 34.6111 304.465 33.7854 308.285 33.295C312.105 32.8046 316.067 32.4429 320.171 32.2107V31.9784C320.171 29.5779 319.19 27.9261 317.229 27.0228C315.267 26.0937 312.376 25.6291 308.556 25.6291C306.26 25.6291 303.807 26.042 301.201 26.8682C298.594 27.668 296.722 28.2877 295.586 28.7264H294.309V18.2344C295.78 17.8474 298.168 17.3958 301.472 16.8795C304.801 16.3373 308.131 16.0662 311.46 16.0662C319.384 16.0662 325.101 17.2923 328.611 19.7445C332.147 22.1708 333.915 25.9903 333.915 31.2044V60.7829H320.094V56.1761Z" fill="white"/>
</svg>
