<svg width="94" height="94" viewBox="0 0 94 94" fill="none" xmlns="http://www.w3.org/2000/svg">
  <path fill-rule="evenodd" clip-rule="evenodd"
        d="M74.7087 19.2873C59.4343 4.01803 34.5613 4.01312 19.2869 19.2873C4.01257 34.5663 4.01748 59.434 19.2869 74.7131C34.5613 89.9823 59.4294 89.9872 74.7087 74.7131C89.988 59.4291 89.9831 34.5663 74.7087 19.2873ZM25.3211 68.679C13.3461 56.7091 13.3363 37.2421 25.2867 25.2918C37.2372 13.3367 56.7045 13.3514 68.6795 25.3213C80.6496 37.2912 80.6545 56.7631 68.709 68.7134C56.7487 80.6637 37.2863 80.6489 25.3211 68.679Z"
        fill="#FF0000"/>
  <path fill-rule="evenodd" clip-rule="evenodd"
        d="M59.1072 63.7656C58.3092 63.7904 57.5322 63.508 56.9363 62.9766L47.0495 53.101L37.5656 62.585C36.9053 63.1415 36.0617 63.4326 35.1988 63.4019C34.5656 63.3941 33.9405 63.2589 33.3608 63.0041C32.7811 62.7493 32.2587 62.3803 31.8249 61.9191C30.5883 60.6882 30.3141 59.4684 30.3085 58.6739C30.2627 57.8535 30.5445 57.0485 31.0919 56.4358L40.7381 46.784L31.3381 37.3952C30.4876 36.5391 29.777 33.887 32.0095 31.6601C33.2684 30.4012 34.505 30.1382 35.3275 30.1382C36.3514 30.1382 37.1179 30.541 37.4928 30.9271L47.0495 40.4726L56.539 30.9831C57.2013 30.4262 58.0467 30.1351 58.9114 30.1662C59.546 30.1732 60.1726 30.3087 60.7534 30.5645C61.3343 30.8203 61.8573 31.1911 62.2909 31.6545C64.4059 33.7751 63.9807 36.1866 63.0239 37.1378L53.3665 46.7952L63.0854 56.5085C63.4603 56.889 63.9023 57.7395 63.9023 58.8809C63.8964 59.5136 63.762 60.1384 63.5071 60.7174C63.2522 61.2965 62.8822 61.8176 62.4196 62.2493C61.1607 63.5026 59.9297 63.7656 59.1072 63.7656Z"
        fill="#FF0000"/>
</svg>
