<svg width="94" height="94" viewBox="0 0 94 94" fill="none" xmlns="http://www.w3.org/2000/svg">
  <path
    d="M47.0002 7.83301C39.2537 7.83301 31.6813 10.1301 25.2403 14.4338C18.7994 18.7375 13.7793 24.8545 10.8149 32.0112C7.85047 39.168 7.07484 47.0431 8.58609 54.6407C10.0973 62.2383 13.8276 69.2171 19.3052 74.6947C24.7827 80.1722 31.7616 83.9025 39.3591 85.4138C46.9567 86.925 54.8318 86.1494 61.9886 83.185C69.1454 80.2205 75.2624 75.2004 79.5661 68.7595C83.8698 62.3186 86.1668 54.7461 86.1668 46.9997C86.1668 41.8562 85.1538 36.7632 83.1855 32.0112C81.2172 27.2593 78.3322 22.9416 74.6952 19.3047C71.0582 15.6677 66.7405 12.7827 61.9886 10.8144C57.2367 8.84608 52.1436 7.83301 47.0002 7.83301V7.83301ZM47.0002 78.333C40.803 78.333 34.7451 76.4953 29.5923 73.0524C24.4396 69.6094 20.4235 64.7158 18.052 58.9904C15.6804 53.265 15.0599 46.9649 16.2689 40.8868C17.4779 34.8088 20.4621 29.2257 24.8442 24.8437C29.2262 20.4616 34.8093 17.4774 40.8874 16.2684C46.9654 15.0594 53.2655 15.6799 58.9909 18.0515C64.7163 20.423 69.6099 24.4391 73.0529 29.5918C76.4958 34.7445 78.3335 40.8025 78.3335 46.9997C78.3335 55.3098 75.0323 63.2795 69.1562 69.1557C63.2801 75.0318 55.3103 78.333 47.0002 78.333V78.333Z"
    fill="#007F61"/>
  <path
    d="M57.5752 32.8607L42.7702 52.444L36.386 44.1799C35.7472 43.3593 34.8085 42.826 33.7765 42.6975C32.7445 42.5689 31.7037 42.8556 30.8831 43.4945C30.0625 44.1333 29.5292 45.072 29.4007 46.104C29.2721 47.136 29.5588 48.1768 30.1977 48.9974L39.7152 61.1782C40.084 61.645 40.5543 62.0216 41.0905 62.2795C41.6266 62.5374 42.2144 62.6697 42.8093 62.6665C43.4075 62.6651 43.9974 62.5267 44.5337 62.2619C45.0701 61.9971 45.5386 61.613 45.9035 61.139L63.8027 37.639C64.4363 36.808 64.7139 35.7593 64.5743 34.7237C64.4348 33.688 63.8895 32.7502 63.0585 32.1165C62.2275 31.4829 61.1788 31.2053 60.1431 31.3449C59.1075 31.4844 58.1696 32.0297 57.536 32.8607H57.5752Z"
    fill="#007F61"/>
</svg>
