<svg width="24" height="24" viewBox="0 0 24 24" fill="none" xmlns="http://www.w3.org/2000/svg">
<path d="M6.75 15.75C6.75 15.4185 6.8817 15.1005 7.11612 14.8661C7.35054 14.6317 7.66848 14.5 8 14.5C8.33152 14.5 8.64946 14.6317 8.88388 14.8661C9.1183 15.1005 9.25 15.4185 9.25 15.75V17C9.25 17.3315 9.1183 17.6494 8.88388 17.8839C8.64946 18.1183 8.33152 18.25 8 18.25C7.66848 18.25 7.35054 18.1183 7.11612 17.8839C6.8817 17.6494 6.75 17.3315 6.75 17V15.75ZM14.25 10.75C14.25 10.4185 14.3817 10.1005 14.6161 9.8661C14.8505 9.63168 15.1685 9.49998 15.5 9.49998C15.8315 9.49998 16.1495 9.63168 16.3839 9.8661C16.6183 10.1005 16.75 10.4185 16.75 10.75V17C16.75 17.3315 16.6183 17.6494 16.3839 17.8839C16.1495 18.1183 15.8315 18.25 15.5 18.25C15.1685 18.25 14.8505 18.1183 14.6161 17.8839C14.3817 17.6494 14.25 17.3315 14.25 17V10.75ZM10.5 13.25C10.5 12.9185 10.6317 12.6005 10.8661 12.3661C11.1005 12.1317 11.4185 12 11.75 12C12.0815 12 12.3995 12.1317 12.6339 12.3661C12.8683 12.6005 13 12.9185 13 13.25V17C13 17.3315 12.8683 17.6494 12.6339 17.8839C12.3995 18.1183 12.0815 18.25 11.75 18.25C11.4185 18.25 11.1005 18.1183 10.8661 17.8839C10.6317 17.6494 10.5 17.3315 10.5 17V13.25Z" fill="white"/>
<path d="M7 5V5C5.34315 5 4 6.34315 4 8V18C4 19.6569 5.34315 21 7 21H17C18.6569 21 20 19.6569 20 18V8C20 6.34315 18.6569 5 17 5H16" stroke="white" stroke-width="2"/>
<rect x="9" y="3" width="5" height="4" rx="1" stroke="white" stroke-width="1.5"/>
</svg>
