<svg width="24" height="24" viewBox="0 0 24 24" fill="none" xmlns="http://www.w3.org/2000/svg">
<path fill-rule="evenodd" clip-rule="evenodd" d="M14.473 2C18.6454 3.15406 21.7394 7.12792 21.7394 11.8312C21.7394 17.4273 17.3599 22 12 22C6.62918 22 2.26062 17.4273 2.26062 11.8312C2.26062 7.12792 5.35456 3.14317 9.52703 2C7.02137 3.02341 5.24562 5.57104 5.24562 8.5215C5.24562 11.0256 6.52024 13.2248 8.42672 14.466C8.41582 14.5531 8.40493 14.6293 8.40493 14.7164C8.40493 15.3043 8.69907 15.8487 9.2002 16.2733C9.27646 16.1535 9.36362 16.0446 9.42898 15.9575C9.62508 15.6854 9.67955 15.8596 9.87564 15.4894C10.1371 14.9777 10.2134 14.5857 10.246 14.0305C10.3114 12.822 10.4639 11.5917 10.8343 10.4268C10.4857 10.307 10.246 10.1873 9.98458 9.88242C9.66865 9.53402 9.5815 9.04409 9.83207 8.64126C10.1044 8.94611 10.148 9.05498 10.4421 9.14208C10.9433 9.2945 11.488 9.07676 12 9.14208C12.2179 9.16385 12.5992 9.30539 12.6754 9.4687L12.7299 9.21829L13.2093 9.40337L13.1875 9.74088C13.5034 9.88242 13.8411 10.1002 13.8629 10.4486C13.5361 10.405 13.3073 10.307 13.0023 10.3506C12.6972 10.3941 12.0872 10.6119 12.0654 10.9276C12 12.0272 12.4685 12.9309 12.7626 13.9978C12.9478 14.6293 13.133 15.1845 13.5252 15.7289C13.754 16.0446 13.9392 16.0446 14.1353 16.2079C14.2442 16.295 14.3314 16.4366 14.3858 16.5781C15.1157 16.1208 15.5842 15.4676 15.5842 14.7382C15.5842 14.6511 15.5733 14.564 15.5624 14.4878C17.4689 13.2466 18.7435 11.0474 18.7435 8.54328C18.7435 5.57104 16.9786 3.02341 14.473 2Z" fill="#264796"/>
</svg>
