<svg width="8" height="5" viewBox="0 0 8 5" fill="none" xmlns="http://www.w3.org/2000/svg">
<path d="M0.94739 0.810412L0.947778 0.809507C1.00387 0.678274 1.06805 0.610227 1.127 0.571664C1.18637 0.532818 1.27702 0.5 1.42501 0.5H6.57501C6.723 0.5 6.81365 0.532818 6.87303 0.571664C6.93197 0.610227 6.99616 0.678274 7.05224 0.809507L7.05263 0.810412C7.10881 0.941127 7.11223 1.03107 7.09976 1.09504C7.08721 1.15937 7.0496 1.2433 6.94646 1.34645L4.34646 3.94645C4.28631 4.00659 4.22994 4.04319 4.17805 4.06543C4.12674 4.08742 4.06911 4.1 4.00001 4.1C3.93091 4.1 3.87328 4.08742 3.82197 4.06543C3.77009 4.04319 3.71371 4.00659 3.65357 3.94645L1.05357 1.34645C0.950422 1.2433 0.912813 1.15937 0.900266 1.09504C0.88779 1.03107 0.891217 0.941127 0.94739 0.810412Z" fill="white" stroke="white"/>
</svg>
