<svg width="24" height="24" viewBox="0 0 24 24" fill="none" xmlns="http://www.w3.org/2000/svg">
<path d="M9 11C11.2091 11 13 9.20914 13 7C13 4.79086 11.2091 3 9 3C6.79086 3 5 4.79086 5 7C5 9.20914 6.79086 11 9 11Z" stroke="#264796" stroke-width="2" stroke-linecap="round" stroke-linejoin="round"/>
<path d="M3 20.9999V18.9999C3 17.939 3.42143 16.9216 4.17157 16.1715C4.92172 15.4213 5.93913 14.9999 7 14.9999H11C12.0609 14.9999 13.0783 15.4213 13.8284 16.1715C14.5786 16.9216 15 17.939 15 18.9999V20.9999M16 3.12988C16.8604 3.35018 17.623 3.85058 18.1676 4.55219C18.7122 5.2538 19.0078 6.11671 19.0078 7.00488C19.0078 7.89305 18.7122 8.75596 18.1676 9.45757C17.623 10.1592 16.8604 10.6596 16 10.8799M21 20.9999V18.9999C20.9949 18.117 20.6979 17.2607 20.1553 16.5643C19.6126 15.8679 18.8548 15.3706 18 15.1499" stroke="#264796" stroke-width="2" stroke-linecap="round" stroke-linejoin="round"/>
</svg>
