<svg xmlns="http://www.w3.org/2000/svg" width="21.539" height="16.154" viewBox="0 0 21.539 16.154">
  <defs>
    <style>.a {
      fill: #343F97;
    }</style>
  </defs>
  <g transform="translate(-870 -232)">
    <g transform="translate(870 230)">
      <path class="a"
            d="M17.052,5.59H11.667V2.9a.9.9,0,1,0-1.795,0V5.59H4.487A4.493,4.493,0,0,0,0,10.077v3.59a4.493,4.493,0,0,0,4.487,4.487H17.052a4.493,4.493,0,0,0,4.487-4.487v-3.59A4.493,4.493,0,0,0,17.052,5.59Zm2.692,8.077a2.692,2.692,0,0,1-2.692,2.692H4.487a2.692,2.692,0,0,1-2.692-2.692v-3.59A2.692,2.692,0,0,1,4.487,7.385H17.052a2.692,2.692,0,0,1,2.692,2.692Z"/>
      <path class="a" d="M14.282,14H8.9a.9.9,0,1,0,0,1.795h5.385a.9.9,0,1,0,0-1.795Z"
            transform="translate(-0.82 -1.23)"/>
      <path class="a" d="M9.9,11.795h.9a.9.9,0,0,0,0-1.795H9.9a.9.9,0,0,0,0,1.795Z"
            transform="translate(-0.923 -0.82)"/>
      <path class="a" d="M18.487,10H14.9a.9.9,0,0,0,0,1.795h3.59a.9.9,0,0,0,0-1.795Z"
            transform="translate(-1.436 -0.82)"/>
      <path class="a" d="M5.795,10H4.9a.9.9,0,0,0,0,1.795h.9a.9.9,0,0,0,0-1.795Z" transform="translate(-0.41 -0.82)"/>
      <ellipse class="a" cx="1.076" cy="0.538" rx="1.076" ry="0.538" transform="translate(3.311 12.979)"/>
      <ellipse class="a" cx="1.076" cy="0.538" rx="1.076" ry="0.538" transform="translate(16.229 12.979)"/>
    </g>
  </g>
</svg>
