<svg xmlns="http://www.w3.org/2000/svg" width="21.075" height="16.808" viewBox="0 0 21.075 16.808">
  <defs>
    <style>.a {
      fill: #343F97;
    }</style>
  </defs>
  <g transform="translate(-1179 -233)">
    <g transform="translate(1179 231)">
      <path class="a"
            d="M16.685,18.808H4.391A4.3,4.3,0,0,1,0,14.606V6.2A4.3,4.3,0,0,1,4.391,2H16.685a4.3,4.3,0,0,1,4.391,4.2v8.4a4.3,4.3,0,0,1-4.391,4.2ZM4.391,3.681A2.58,2.58,0,0,0,1.756,6.2v8.4a2.58,2.58,0,0,0,2.634,2.521H16.685a2.58,2.58,0,0,0,2.634-2.521V6.2a2.58,2.58,0,0,0-2.634-2.521Z"/>
      <path class="a" d="M17.9,12.681H10.878a.841.841,0,1,1,0-1.681H17.9a.841.841,0,1,1,0,1.681Z"
            transform="translate(-1.219 -1.437)"/>
      <path class="a" d="M6.634,12.681H4.878a.841.841,0,1,1,0-1.681H6.634a.841.841,0,1,1,0,1.681Z"
            transform="translate(-0.487 -1.437)"/>
      <path class="a" d="M11.9,17.681H4.878a.841.841,0,1,1,0-1.681H11.9a.841.841,0,1,1,0,1.681Z"
            transform="translate(-0.487 -2.235)"/>
      <path class="a" d="M18.634,17.681H16.878a.841.841,0,1,1,0-1.681h1.756a.841.841,0,1,1,0,1.681Z"
            transform="translate(-1.95 -2.235)"/>
    </g>
  </g>
</svg>
