<svg xmlns="http://www.w3.org/2000/svg" width="21.076" height="21.076" viewBox="0 0 21.076 21.076">
  <defs>
    <style>.a {
      fill: #6D6D6F;
    }</style>
  </defs>
  <g transform="translate(-1349 -231)">
    <g transform="translate(1349 231)">
      <path class="a"
            d="M10.538,0A10.538,10.538,0,1,0,21.076,10.538,10.538,10.538,0,0,0,10.538,0Zm0,19.32a8.782,8.782,0,1,1,8.782-8.782A8.782,8.782,0,0,1,10.538,19.32Z"/>
      <path class="a"
            d="M12.142,5.055A3.513,3.513,0,0,0,8,8.512a.878.878,0,1,0,1.756,0,1.756,1.756,0,0,1,2.082-1.727,1.777,1.777,0,0,1,1.405,1.4,1.756,1.756,0,0,1-.878,1.866,3.472,3.472,0,0,0-1.731,3.077v.652a.878.878,0,0,0,1.756,0v-.652a1.741,1.741,0,0,1,.817-1.539,3.513,3.513,0,0,0-1.065-6.535Z"
            transform="translate(-0.975 -0.609)"/>
      <rect class="a" width="1" height="2" rx="0.5" transform="translate(10.076 15.076)"/>
    </g>
  </g>
</svg>
