<svg xmlns="http://www.w3.org/2000/svg" width="15.01" height="17.014" viewBox="0 0 15.01 17.014">
  <defs>
    <style>.a {
      fill: #6D6D6F;
    }</style>
  </defs>
  <g transform="translate(-21 -276)">
    <g transform="translate(21 276)">
      <path class="a"
            d="M11,10.007A5,5,0,1,0,6,5a5,5,0,0,0,5,5Zm0-8.339A3.336,3.336,0,1,1,7.668,5,3.336,3.336,0,0,1,11,1.668Z"
            transform="translate(-3.498)"/>
      <path class="a"
            d="M10.505,14A7.513,7.513,0,0,0,3,21.505a.834.834,0,1,0,1.668,0,5.837,5.837,0,0,1,11.675,0,.834.834,0,1,0,1.668,0A7.513,7.513,0,0,0,10.505,14Z"
            transform="translate(-3 -5.325)"/>
    </g>
  </g>
</svg>
