<svg xmlns="http://www.w3.org/2000/svg" width="29.997" height="30" viewBox="0 0 29.997 30">
  <defs>
    <style>.a {
      fill: #6D6D6F;
    }</style>
  </defs>
  <path class="a"
        d="M29.177,13.018h0a2.654,2.654,0,0,1,.2.219l.048.053-.015-.012a2.809,2.809,0,0,1-.23,3.7,2.912,2.912,0,0,1-.426.35,2.871,2.871,0,0,1-.484.259,2.712,2.712,0,0,1-.524.159,2.862,2.862,0,0,1-.549.053h-.4v8.923a3.25,3.25,0,0,1-.249,1.25,3.284,3.284,0,0,1-1.774,1.774A3.252,3.252,0,0,1,23.522,30H18.751a.923.923,0,0,1-.354-.07.95.95,0,0,1-.3-.2.92.92,0,0,1-.2-.3.908.908,0,0,1-.072-.355V22.036a1.4,1.4,0,0,0-.107-.542,1.421,1.421,0,0,0-.769-.768,1.39,1.39,0,0,0-.541-.108H13.591a1.39,1.39,0,0,0-.541.108,1.412,1.412,0,0,0-.876,1.31v7.036a.908.908,0,0,1-.072.355.92.92,0,0,1-.2.3.906.906,0,0,1-.3.2.923.923,0,0,1-.354.07H6.475a3.269,3.269,0,0,1-2.315-.96,3.321,3.321,0,0,1-.711-1.063,3.25,3.25,0,0,1-.249-1.25V17.8H2.745l-.023,0H2.7l-.022,0a2.629,2.629,0,0,1-.514-.07,2.721,2.721,0,0,1-.945-.414,2.918,2.918,0,0,1-.4-.332A2.814,2.814,0,0,1,.21,13.931a2.78,2.78,0,0,1,.6-.908c3.94-4.114,8.16-8.162,12.2-12.2a2.945,2.945,0,0,1,.427-.35,2.793,2.793,0,0,1,.482-.259A2.764,2.764,0,0,1,14.45.053a2.849,2.849,0,0,1,1.1,0,2.712,2.712,0,0,1,.524.159,2.793,2.793,0,0,1,.482.259,2.84,2.84,0,0,1,.427.35c1.287,1.288,2.65,2.608,4.032,3.945,2.825,2.733,5.726,5.542,8.164,8.252Zm-1.619,2.859a.891.891,0,0,0,.162-.087.942.942,0,0,0,.35-.426.954.954,0,0,0,0-.726.922.922,0,0,0-.2-.307C25.122,11.695,22.407,8.943,19.7,6.2c-1.342-1.36-2.682-2.717-4.035-4.07a.888.888,0,0,0-.144-.118.952.952,0,0,0-.34-.14A.968.968,0,0,0,15,1.856a.986.986,0,0,0-.187.018.952.952,0,0,0-.34.14.888.888,0,0,0-.144.118L2.134,14.327l0,0-.005.005A.952.952,0,0,0,1.854,15a.953.953,0,0,0,.277.671.919.919,0,0,0,.14.115.976.976,0,0,0,.159.087.907.907,0,0,0,.174.053.832.832,0,0,0,.182.02l.04,0h1.3a.937.937,0,0,1,.355.07.952.952,0,0,1,.3.2.925.925,0,0,1,.272.656v9.851a1.42,1.42,0,0,0,.107.541,1.451,1.451,0,0,0,.309.461,1.415,1.415,0,0,0,.461.309,1.4,1.4,0,0,0,.542.107h3.843V22.036a3.269,3.269,0,0,1,.96-2.313,3.25,3.25,0,0,1,2.313-.96h2.815a3.274,3.274,0,0,1,3.273,3.273v6.108h3.843a1.4,1.4,0,0,0,.542-.107,1.416,1.416,0,0,0,.876-1.31V16.877a.925.925,0,0,1,.272-.656.952.952,0,0,1,.3-.2.937.937,0,0,1,.355-.07h1.327a.968.968,0,0,0,.185-.017,1.056,1.056,0,0,0,.179-.055Z"
        transform="translate(0)"/>
</svg>
