<svg width="30" height="30" viewBox="0 0 30 30" fill="none" xmlns="http://www.w3.org/2000/svg">
<path d="M13.75 18.75V16.25C12.7554 16.25 11.8016 15.8549 11.0983 15.1517C10.3951 14.4484 10 13.4946 10 12.5C10 11.5054 10.3951 10.5516 11.0983 9.84835C11.8016 9.14509 12.7554 8.75 13.75 8.75V7.5C13.75 7.16848 13.8817 6.85054 14.1161 6.61612C14.3505 6.3817 14.6685 6.25 15 6.25C15.3315 6.25 15.6495 6.3817 15.8839 6.61612C16.1183 6.85054 16.25 7.16848 16.25 7.5V8.75H16.2775C17.2648 8.75 18.2116 9.14219 18.9097 9.84029C19.6078 10.5384 20 11.4852 20 12.4725C20 12.804 19.8683 13.122 19.6339 13.3564C19.3995 13.5908 19.0815 13.7225 18.75 13.7225C18.4185 13.7225 18.1005 13.5908 17.8661 13.3564C17.6317 13.122 17.5 12.804 17.5 12.4725C17.5 12.1483 17.3712 11.8373 17.1419 11.6081C16.9127 11.3788 16.6017 11.25 16.2775 11.25H16.25V13.75C17.2446 13.75 18.1984 14.1451 18.9017 14.8483C19.6049 15.5516 20 16.5054 20 17.5C20 18.4946 19.6049 19.4484 18.9017 20.1517C18.1984 20.8549 17.2446 21.25 16.25 21.25V22.5C16.25 22.8315 16.1183 23.1495 15.8839 23.3839C15.6495 23.6183 15.3315 23.75 15 23.75C14.6685 23.75 14.3505 23.6183 14.1161 23.3839C13.8817 23.1495 13.75 22.8315 13.75 22.5V21.25H13.6863C12.7086 21.25 11.771 20.8616 11.0797 20.1703C10.3884 19.479 10 18.5414 10 17.5637C10 17.2322 10.1317 16.9143 10.3661 16.6799C10.6005 16.4454 10.9185 16.3137 11.25 16.3137C11.5815 16.3137 11.8995 16.4454 12.1339 16.6799C12.3683 16.9143 12.5 17.2322 12.5 17.5637C12.5003 17.8783 12.6254 18.1798 12.8478 18.4022C13.0702 18.6246 13.3717 18.7497 13.6863 18.75H13.75ZM16.25 18.75C16.5815 18.75 16.8995 18.6183 17.1339 18.3839C17.3683 18.1495 17.5 17.8315 17.5 17.5C17.5 17.1685 17.3683 16.8505 17.1339 16.6161C16.8995 16.3817 16.5815 16.25 16.25 16.25V18.75ZM13.75 11.25C13.4185 11.25 13.1005 11.3817 12.8661 11.6161C12.6317 11.8505 12.5 12.1685 12.5 12.5C12.5 12.8315 12.6317 13.1495 12.8661 13.3839C13.1005 13.6183 13.4185 13.75 13.75 13.75V11.25ZM15 27.5C8.09625 27.5 2.5 21.9037 2.5 15C2.5 8.09625 8.09625 2.5 15 2.5C21.9037 2.5 27.5 8.09625 27.5 15C27.5 21.9037 21.9037 27.5 15 27.5ZM15 25C17.6522 25 20.1957 23.9464 22.0711 22.0711C23.9464 20.1957 25 17.6522 25 15C25 12.3478 23.9464 9.8043 22.0711 7.92893C20.1957 6.05357 17.6522 5 15 5C12.3478 5 9.8043 6.05357 7.92893 7.92893C6.05357 9.8043 5 12.3478 5 15C5 17.6522 6.05357 20.1957 7.92893 22.0711C9.8043 23.9464 12.3478 25 15 25Z" fill="white"/>
</svg>
