<svg width="30" height="30" viewBox="0 0 30 30" fill="none" xmlns="http://www.w3.org/2000/svg">
  <path
    d="M27.8476 18.087L25.0353 15.2745C24.8596 15.0987 24.6212 15 24.3726 15C24.124 15 23.8856 15.0987 23.7099 15.2745L14.9985 23.9867V28.1248H19.1362L27.8476 19.4126C28.0233 19.2368 28.122 18.9984 28.122 18.7498C28.122 18.5012 28.0233 18.2628 27.8476 18.087ZM18.3601 26.2498H16.8733V24.7629L21.5604 20.0754L23.0471 21.5623L18.3601 26.2498ZM24.3726 20.2367L22.8859 18.7498L24.3726 17.2629L25.8593 18.7498L24.3726 20.2367Z"
    fill="#000"/>
  <path d="M7.49927 15H16.8733V16.875H7.49927V15Z" fill="#000"/>
  <path d="M7.49927 9.375H18.7481V11.25H7.49927V9.375Z" fill="#000"/>
  <path
    d="M24.3725 3.75C24.372 3.25287 24.1743 2.77625 23.8228 2.42472C23.4714 2.0732 22.9948 1.8755 22.4977 1.875H3.74957C3.2525 1.8755 2.77592 2.0732 2.42443 2.42472C2.07294 2.77625 1.87526 3.25287 1.87476 3.75V15.9375C1.87267 17.8072 2.37976 19.6422 3.34159 21.2454C4.30343 22.8487 5.68369 24.1597 7.33422 25.0378L12.1862 27.6253V25.5L8.21725 23.3831C6.86678 22.6647 5.7374 21.5921 4.95031 20.2803C4.16321 18.9686 3.74812 17.4673 3.74957 15.9375V3.75H22.4977V12.1875H24.3725V3.75Z"
    fill="#000"/>
</svg>
