<svg width="30" height="30" viewBox="0 0 30 30" fill="none" xmlns="http://www.w3.org/2000/svg">
  <path
    d="M14.9984 1.25C12.2792 1.25 9.62101 2.05642 7.36006 3.56729C5.09911 5.07816 3.33691 7.22562 2.29631 9.7381C1.25571 12.2506 0.983444 15.0153 1.51394 17.6825C2.04443 20.3497 3.35386 22.7997 5.27664 24.7227C7.19942 26.6457 9.64919 27.9552 12.3162 28.4858C14.9831 29.0163 17.7475 28.744 20.2598 27.7033C22.772 26.6626 24.9192 24.9003 26.4299 22.6391C27.9407 20.3779 28.747 17.7195 28.747 15C28.747 11.3533 27.2985 7.85591 24.7201 5.27728C22.1418 2.69866 18.6447 1.25 14.9984 1.25ZM14.9984 26.4585C12.7315 26.4585 10.5155 25.7862 8.63066 24.5267C6.7458 23.2671 5.27674 21.4769 4.40924 19.3824C3.54174 17.2878 3.31476 14.983 3.75701 12.7595C4.19926 10.5359 5.29087 8.49346 6.8938 6.89036C8.49674 5.28727 10.539 4.19554 12.7623 3.75325C14.9857 3.31096 17.2902 3.53796 19.3846 4.40555C21.4789 5.27314 23.2689 6.74235 24.5284 8.62739C25.7878 10.5124 26.46 12.7286 26.46 14.9958C26.46 16.5011 26.1635 17.9916 25.5875 19.3824C25.0115 20.7731 24.1673 22.0367 23.103 23.1011C22.0387 24.1656 20.7751 25.0099 19.3846 25.586C17.994 26.162 16.5035 26.4585 14.9984 26.4585ZM20.7292 14.9958C20.7292 15.1463 20.6995 15.2953 20.6419 15.4344C20.5843 15.5735 20.4999 15.6998 20.3935 15.8063C20.2871 15.9127 20.1607 15.9972 20.0216 16.0548C19.8826 16.1124 19.7335 16.142 19.583 16.142H16.1445V19.5798C16.1355 19.8776 16.0108 20.1602 15.7969 20.3677C15.5831 20.5752 15.2969 20.6912 14.9989 20.6912C14.701 20.6912 14.4147 20.5752 14.2009 20.3677C13.987 20.1602 13.8624 19.8776 13.8533 19.5798V16.1463H10.4159C10.1181 16.1372 9.83549 16.0125 9.62804 15.7986C9.42059 15.5848 9.30457 15.2985 9.30457 15.0005C9.30457 14.7026 9.42059 14.4163 9.62804 14.2024C9.83549 13.9885 10.1181 13.8638 10.4159 13.8548H13.8533V10.417C13.8624 10.1192 13.987 9.83659 14.2009 9.62912C14.4147 9.42165 14.701 9.30562 14.9989 9.30562C15.2969 9.30562 15.5831 9.42165 15.7969 9.62912C16.0108 9.83659 16.1355 10.1192 16.1445 10.417V13.8548H19.582C19.8856 13.8551 20.1767 13.9758 20.3914 14.1905C20.606 14.4052 20.7268 14.6964 20.7271 15L20.7292 14.9958Z"
    fill="#343F97"/>
</svg>
