<svg width="24" height="24" viewBox="0 0 24 24" fill="none" xmlns="http://www.w3.org/2000/svg">
  <path
    d="M21.9189 2.07711C21.4745 1.62885 20.9212 1.30394 20.3133 1.13431C19.7054 0.964678 19.0638 0.956168 18.4516 1.10962C13.7015 2.35687 9.35131 4.8031 5.81766 8.21396C5.12246 8.91329 4.58033 9.74961 4.22572 10.6698C3.8711 11.5899 3.71176 12.5738 3.75782 13.5588C3.82343 14.9886 4.32521 16.3641 5.1957 17.5002L1.26838 21.4351C1.18328 21.5202 1.11577 21.6212 1.06972 21.7324C1.02367 21.8436 0.999962 21.9628 0.999962 22.0832C0.999962 22.2035 1.02367 22.3227 1.06972 22.4339C1.11577 22.5451 1.18328 22.6461 1.26838 22.7312C1.35347 22.8163 1.4545 22.8839 1.56568 22.9299C1.67687 22.976 1.79604 22.9997 1.91638 22.9997C2.03673 22.9997 2.1559 22.976 2.26708 22.9299C2.37827 22.8839 2.47929 22.8163 2.56439 22.7312L6.49171 18.8035C7.69557 19.7423 9.1794 20.2503 10.706 20.2464C11.7163 20.2317 12.7139 20.0182 13.6418 19.618C14.5696 19.2178 15.4096 18.6387 16.1136 17.9138C20.1468 13.8803 22.4222 7.422 22.8911 5.51666C23.0436 4.90756 23.0346 4.26918 22.8647 3.66467C22.6949 3.06015 22.3703 2.51044 21.9229 2.0699L21.9189 2.07711ZM5.58923 13.4747C5.55432 12.7441 5.67166 12.0143 5.93382 11.3315C6.19598 10.6487 6.59722 10.0279 7.11207 9.5085C7.504 9.11893 7.91356 8.75341 8.32954 8.39591V14.3716L6.50854 16.1952C5.95275 15.3927 5.63415 14.4499 5.58923 13.4747ZM14.7896 16.6457C13.9165 17.5945 12.7336 18.2006 11.4536 18.355C10.1737 18.5095 8.88057 18.2021 7.80696 17.4882L9.89646 15.3993L12.3811 12.9144H17.6621C16.8318 14.2495 15.8703 15.4984 14.792 16.6425L14.7896 16.6457ZM21.1174 5.0774C20.565 7.16744 19.765 9.18405 18.7345 11.0844H14.2109L17.2293 8.06566C17.3176 7.9813 17.3882 7.88014 17.4368 7.76812C17.4855 7.6561 17.5112 7.53548 17.5126 7.41336C17.5139 7.29124 17.4909 7.17008 17.4447 7.05701C17.3986 6.94393 17.3303 6.84122 17.2439 6.75492C17.1575 6.66862 17.0547 6.60046 16.9416 6.55446C16.8285 6.50845 16.7073 6.48553 16.5852 6.48704C16.4631 6.48855 16.3425 6.51446 16.2306 6.56325C16.1186 6.61203 16.0176 6.68271 15.9333 6.77112L11.3504 11.3545L10.165 12.54V6.96991C12.8147 5.11269 15.7682 3.732 18.8924 2.88991C19.0374 2.85336 19.1862 2.83452 19.3357 2.8338C19.5758 2.8344 19.8135 2.88244 20.0351 2.97515C20.2567 3.06786 20.4578 3.20343 20.6269 3.37406C20.85 3.59041 21.012 3.8619 21.0965 4.16102C21.1809 4.46015 21.1848 4.77628 21.1078 5.0774H21.1174Z"
    fill="#FFFFFF"/>
</svg>
