<svg width="30" height="30" viewBox="0 0 30 30" fill="none" xmlns="http://www.w3.org/2000/svg">
  <path fill-rule="evenodd" clip-rule="evenodd"
        d="M11.4988 26.3999C10.9466 26.3999 10.4989 25.9522 10.4989 25.3999L10.4989 10.7487C10.4989 10.1965 10.9466 9.74874 11.4988 9.74874L13.5436 9.74874L9.49901 5.79777L5.45437 9.74874L7.49921 9.74874C8.05144 9.74874 8.49911 10.1965 8.49911 10.7487L8.49911 19.0511C8.49911 19.6033 8.05144 20.0511 7.49921 20.0511C6.94698 20.0511 6.49931 19.6033 6.49931 19.0511L6.49931 11.7487L2.99966 11.7487C2.5931 11.7487 2.22701 11.5025 2.07364 11.126C1.92027 10.7494 2.01015 10.3175 2.30099 10.0334L8.80034 3.68453C9.18884 3.30503 9.80919 3.30503 10.1977 3.68453L16.697 10.0334C16.9879 10.3175 17.0778 10.7494 16.9244 11.126C16.771 11.5025 16.4049 11.7487 15.9984 11.7487L12.4987 11.7487L12.4987 25.3999C12.4987 25.9522 12.051 26.3999 11.4988 26.3999Z"
        fill="#097d80"/>
  <path fill-rule="evenodd" clip-rule="evenodd"
        d="M18.2895 10.0144L18.497 10.233C19.1018 10.8701 18.6502 11.9215 17.7718 11.9215H16.9551C17.69 12.0069 18.4475 12.05 19.2035 12.05C21.6002 12.05 24.0109 11.6173 25.6723 10.7741V12.05C25.6723 12.7594 23.2163 14.0625 19.2035 14.0625C16.7352 14.0625 14.856 13.5695 13.775 13.0248L13.775 15.2413C15.3262 15.7932 17.2694 16.075 19.2035 16.075C21.6002 16.075 24.0109 15.6423 25.6723 14.7991V16.075C25.6723 16.7844 23.2163 18.0875 19.2035 18.0875C16.7352 18.0875 14.856 17.5945 13.775 17.0498L13.775 19.2663C15.3262 19.8182 17.2694 20.1 19.2035 20.1C21.6002 20.1 24.0109 19.6673 25.6723 18.8241V20.1C25.6723 20.8094 23.2163 22.1125 19.2035 22.1125C16.7352 22.1125 14.856 21.6195 13.775 21.0748L13.775 23.2927C15.3266 23.8438 17.2703 24.125 19.2035 24.125C23.4902 24.125 27.8285 22.7424 27.8285 20.1V8.025C27.8285 5.38259 23.4902 4 19.2035 4C17.1439 4 15.0724 4.31918 13.4758 4.94391L15.0174 6.56772C16.0894 6.24532 17.5074 6.0125 19.2035 6.0125C23.2163 6.0125 25.6723 7.31559 25.6723 8.025C25.6723 8.73441 23.2163 10.0375 19.2035 10.0375C18.8892 10.0375 18.5843 10.0295 18.2895 10.0144Z"
        fill="#097d80"/>
</svg>
