<svg xmlns="http://www.w3.org/2000/svg" width="25.03" height="30.297" viewBox="0 0 25.03 30.297">
  <defs>
    <style>.a {
      fill: #6D6D6F;
      fill-rule: evenodd;
    }</style>
  </defs>
  <g transform="translate(9.651 6.474)">
    <path class="a" d="M31.5,14.75H23a1.007,1.007,0,0,0,0,2.015H31.5a1.007,1.007,0,0,0,0-2.015Z"
          transform="translate(-21.99 -14.75)"/>
  </g>
  <g transform="translate(9.651 11.266)">
    <path class="a"
          d="M32.506,26.679A1.009,1.009,0,0,0,31.5,25.67H23a1.007,1.007,0,0,0,0,2.015H31.5A1,1,0,0,0,32.506,26.679Z"
          transform="translate(-21.99 -25.67)"/>
  </g>
  <g transform="translate(9.651 16.063)">
    <path class="a" d="M23,36.6a1.007,1.007,0,0,0,0,2.015h3.656a1.007,1.007,0,1,0,0-2.015Z"
          transform="translate(-21.99 -36.6)"/>
  </g>
  <path class="a"
        d="M24.021,15.919a1.009,1.009,0,0,0,1.009-1.005V4.6a4.612,4.612,0,0,0-4.6-4.6H9.4a4.611,4.611,0,0,0-4.6,4.6.187.187,0,0,1-.189.189A4.612,4.612,0,0,0,0,9.392V25.7a4.608,4.608,0,0,0,4.6,4.6H16.23a4.608,4.608,0,0,0,4.6-4.6v-.04A.19.19,0,0,1,21,25.469,4.61,4.61,0,0,0,25.03,20.9a1.007,1.007,0,0,0-2.015,0,2.591,2.591,0,0,1-2.589,2.589l-11.029,0A2.592,2.592,0,0,1,6.807,20.9V4.6A2.594,2.594,0,0,1,9.4,2.015H20.426A2.594,2.594,0,0,1,23.015,4.6v10.31a1.008,1.008,0,0,0,1.005,1.005ZM9.4,25.508l9.23,0a.2.2,0,0,1,.193.193,2.59,2.59,0,0,1-2.589,2.585H4.6A2.59,2.59,0,0,1,2.015,25.7V9.392A2.594,2.594,0,0,1,4.6,6.8.191.191,0,0,1,4.793,7V20.9a4.608,4.608,0,0,0,4.6,4.6Z"
        transform="translate(0)"/>
</svg>
