<svg xmlns="http://www.w3.org/2000/svg" width="26.488" height="30" viewBox="0 0 26.488 30">
  <defs>
    <style>.a {
      fill: #6D6D6F;
    }</style>
  </defs>
  <path class="a"
        d="M18.878,14.185a66.112,66.112,0,0,0-4.828-6.253,2.632,2.632,0,0,0-.767-3.9,2.471,2.471,0,0,1,.9-.8A1.673,1.673,0,0,0,14.594.957,1.888,1.888,0,0,0,12.942,0H7.483A1.889,1.889,0,0,0,5.827.957,1.668,1.668,0,0,0,6.24,3.236a2.513,2.513,0,0,1,.9.8,2.628,2.628,0,0,0-.767,3.889C4.111,10.8,0,14.907,0,18.751c0,6.408,5.532,8.1,11.948,7.655a7.91,7.91,0,1,0,6.929-12.221ZM11.966,7.193H8.454a.876.876,0,0,1-.177-1.733.837.837,0,0,0,.277-.018h3.331a.744.744,0,0,0,.245.014.877.877,0,0,1-.163,1.738ZM7.483,1.756c5.768.027,5.518-.073,5.6.091A4.432,4.432,0,0,0,11.467,3.68H8.953A4.432,4.432,0,0,0,7.342,1.847a.144.144,0,0,1,.141-.091ZM1.756,18.751c0-3.158,4-7.165,6.1-9.87a2.578,2.578,0,0,0,.6.068c3.54-.023,3.589.05,4.107-.068,1.234,1.593,3,3.5,4.338,5.477a7.94,7.94,0,0,0-4.647,2.986c-.867-1.085-2.337-1.116-2.627-1.643a.453.453,0,0,1,.191-.535,1.047,1.047,0,0,1,1.035.077.878.878,0,1,0,1.189-1.293,2.44,2.44,0,0,0-.989-.535v-.068a.878.878,0,1,0-1.756,0v.127a2.206,2.206,0,0,0-1.207,3.081A3.164,3.164,0,0,0,9.879,17.87c.481.191,1.189.449,1.13.971a.821.821,0,0,1-.472.617,1.859,1.859,0,0,1-1.525-.218.879.879,0,1,0-.962,1.47,3.74,3.74,0,0,0,1.243.5v.113a.878.878,0,0,0,1.37.726,7.87,7.87,0,0,0,.44,2.641c-5.06.154-9.348-.876-9.348-5.94Zm16.817,9.493a6.153,6.153,0,1,1,6.153-6.153A6.158,6.158,0,0,1,18.574,28.244Z"
        transform="translate(0 0)"/>
  <path class="a" d="M38.834,42.869l-3.726,3.726a.878.878,0,1,0,1.239,1.243l3.73-3.726a.879.879,0,0,0-1.243-1.243Z"
        transform="translate(-19.035 -23.274)"/>
  <path class="a" d="M36.252,44.007a.876.876,0,1,0-1.239,0A.871.871,0,0,0,36.252,44.007Z"
        transform="translate(-18.985 -23.219)"/>
  <path class="a" d="M43.243,50.993a.876.876,0,1,0,1.239,0A.879.879,0,0,0,43.243,50.993Z"
        transform="translate(-23.48 -27.713)"/>
</svg>
