<svg xmlns="http://www.w3.org/2000/svg" width="35.019" height="30.528" viewBox="0 0 35.019 30.528">
  <defs>
    <style>.a {
      fill: #fff;
    }</style>
  </defs>
  <path class="a"
        d="M528.547,203.49a.922.922,0,0,1,1.574.652v1.652a4.284,4.284,0,0,1,2.9,2.225.922.922,0,0,1-.394,1.242h0a.922.922,0,0,1-1.242-.395h0a2.454,2.454,0,1,0-2.182,3.581,4.3,4.3,0,0,1,.922,8.5V222.6a.922.922,0,0,1-1.844,0v-1.652a4.284,4.284,0,0,1-2.9-2.225l-.008-.015a.922.922,0,0,1,.4-1.227l.015-.008a.922.922,0,0,1,1.226.4h0a2.454,2.454,0,1,0,2.182-3.581,4.3,4.3,0,0,1-.922-8.5v-1.652a.919.919,0,0,1,.27-.652Z"
        transform="translate(-511.689 -198.105)"/>
  <path class="a"
        d="M179.418,15.931a.861.861,0,0,0,1.2-.131l2.253-2.806a.855.855,0,0,0-1.333-1.07l-.894,1.114a15.408,15.408,0,0,0-.428-1.978A15.258,15.258,0,0,0,161.346.6a15.312,15.312,0,0,0-9.389,7.74.855.855,0,0,0,1.523.776,13.6,13.6,0,0,1,8.337-6.873,13.548,13.548,0,0,1,16.757,9.289,13.68,13.68,0,0,1,.393,1.844l-1.282-1.031a.855.855,0,0,0-1.072,1.332l2.8,2.255h0Z"
        transform="translate(-148.041 0)"/>
  <path class="a"
        d="M5.91,576.576a.855.855,0,0,0,.537-1.521l-2.8-2.255a.861.861,0,0,0-1.2.131L.188,575.737a.855.855,0,1,0,1.333,1.07l.895-1.114a15.484,15.484,0,0,0,.427,1.978A15.28,15.28,0,0,0,17.487,588.73,15.3,15.3,0,0,0,31.1,580.392a.855.855,0,1,0-1.523-.776,13.6,13.6,0,0,1-8.337,6.872A13.547,13.547,0,0,1,4.486,577.2a13.66,13.66,0,0,1-.394-1.844l1.282,1.031a.849.849,0,0,0,.535.189Z"
        transform="translate(0.001 -558.201)"/>
</svg>
