<svg xmlns="http://www.w3.org/2000/svg" width="32.037" height="25.833" viewBox="0 0 32.037 25.833">
  <defs>
    <style>.a, .b {
      fill: #097d80;
    }

    .b {
      fill-rule: evenodd;
    }</style>
  </defs>
  <g transform="translate(0 4.432)">
    <path class="a"
          d="M26.658,10.53a2.818,2.818,0,0,1,2.816,2.816V24.608a2.785,2.785,0,0,1-.164.939h1.082a.173.173,0,0,1,.046,0h.042a.143.143,0,0,0,.042,0c.013,0,.029,0,.042,0h0c.013,0,.029,0,.042.008s.029,0,.042,0h0a.125.125,0,0,0,.042.008h0a.125.125,0,0,0,.042.008h0l.038.013h0c.013,0,.029,0,.042.008h0l.038.013h0l.042.013h0l.038.013h0a.149.149,0,0,0,.038.017,633.715,633.715,0,0,0,.076.034h0a.15.15,0,0,1,.038.017h0c.013,0,.025.013.038.017h0a.235.235,0,0,0,.034.021h0c.013,0,.025.013.038.017a.092.092,0,0,0,.034.021.148.148,0,0,0,.034.021.234.234,0,0,1,.034.025h0a.235.235,0,0,1,.034.021h0c.013.008.021.017.034.025s.021.017.034.025h0c.008.008.021.017.029.025h0c.013.008.021.017.034.025h0a.183.183,0,0,0,.029.025.1.1,0,0,0,.029.029.194.194,0,0,0,.029.029.183.183,0,0,1,.025.029.1.1,0,0,1,.029.029h0c.008.008.017.021.025.029l.029.029c.008.013.017.021.025.034s.017.021.025.029a.092.092,0,0,0,.021.034.483.483,0,0,1,.046.067.171.171,0,0,1,.021.038.092.092,0,0,1,.021.034l.021.034c0,.013.013.025.017.038s.013.025.021.038a.25.25,0,0,0,.017.034h0c0,.013.013.025.017.038a.149.149,0,0,0,.017.038h0c0,.017.008.029.013.042l.013.038.013.038h0c0,.013.008.029.013.042l.013.038c0,.017,0,.029.008.042a410.409,410.409,0,0,0,.017.084c0,.013,0,.025.008.038s0,.029,0,.042a.173.173,0,0,1,0,.046.13.13,0,0,1,0,.042c0,.013,0,.025,0,.042v.206c0,.042,0,.08,0,.122s0,.08-.008.118,0,.08-.008.118a.991.991,0,0,1-.017.118c0,.042-.008.08-.013.118s-.013.08-.021.118-.013.076-.021.114l-.025.114a1.128,1.128,0,0,1-.029.114.83.83,0,0,1-.029.109,1.159,1.159,0,0,1-.034.114c-.013.034-.021.072-.034.109s-.025.072-.038.109a1.1,1.1,0,0,0-.042.105c-.013.034-.029.072-.042.105a1.144,1.144,0,0,0-.046.105c-.017.034-.034.067-.051.105l-.051.1-.051.1c-.021.029-.038.063-.059.1s-.038.067-.055.1-.042.067-.063.1-.038.063-.059.1-.042.059-.067.093l-.063.088c-.025.029-.046.063-.072.093a.687.687,0,0,1-.072.084c-.021.029-.046.059-.072.088s-.051.055-.076.084-.051.055-.076.08-.051.055-.08.084-.051.051-.08.076-.055.055-.08.08l-.084.072-.088.076c-.029.021-.059.046-.088.067s-.059.046-.088.072l-.093.067h0c-.029.021-.059.042-.093.063l-.093.063-.1.059-.1.059h0c-.034.017-.067.038-.1.055l-.1.051a.6.6,0,0,1-.105.051l-.1.051c-.034.017-.072.029-.105.046l-.105.042c-.038.013-.072.029-.109.042l-.105.038h0c-.038.013-.076.025-.109.034a1.159,1.159,0,0,1-.114.034,1.055,1.055,0,0,1-.109.029,1.128,1.128,0,0,1-.114.029l-.114.025a.98.98,0,0,1-.118.021c-.038.008-.076.013-.114.021h0a1.133,1.133,0,0,0-.118.017l-.118.013h0a1.11,1.11,0,0,1-.118.008h0a1.11,1.11,0,0,1-.118.008h0a1.184,1.184,0,0,1-.122,0h0c-.042,0-.08,0-.122,0H4.693c-.042,0-.08,0-.122,0h0a1.1,1.1,0,0,1-.118,0h0a1.188,1.188,0,0,1-.122-.008h0c-.038,0-.076,0-.118-.008h0L4.1,31.893a1.056,1.056,0,0,0-.114-.017h0c-.042-.008-.08-.013-.118-.021a1.078,1.078,0,0,1-.114-.021l-.114-.025a1.129,1.129,0,0,1-.114-.029,1.129,1.129,0,0,1-.114-.029,1.085,1.085,0,0,1-.109-.034.832.832,0,0,1-.109-.034h0l-.109-.038L2.976,31.6c-.038-.013-.072-.029-.109-.042s-.067-.029-.1-.046-.072-.034-.105-.051a.566.566,0,0,1-.1-.051l-.1-.051c-.034-.017-.067-.038-.1-.055h0c-.029-.021-.063-.038-.1-.059s-.063-.038-.093-.059-.067-.042-.1-.063l-.093-.063h0A.743.743,0,0,0,1.885,31c-.029-.025-.059-.046-.088-.072s-.059-.046-.088-.067-.055-.051-.084-.076a.687.687,0,0,1-.084-.072c-.029-.025-.055-.055-.084-.08s-.055-.051-.08-.076-.055-.055-.08-.084-.051-.055-.076-.08-.051-.055-.076-.084-.046-.059-.072-.088-.046-.055-.072-.084l-.067-.093c-.025-.029-.046-.059-.067-.088S.825,29.89.8,29.861s-.042-.063-.063-.1a.741.741,0,0,1-.059-.1.741.741,0,0,1-.059-.1c-.021-.034-.038-.067-.055-.1s-.038-.067-.055-.1l-.051-.1c-.017-.038-.034-.072-.046-.105a1.144,1.144,0,0,1-.046-.105c-.017-.034-.029-.072-.046-.105S.3,28.884.286,28.851s-.025-.076-.038-.109-.025-.076-.038-.109-.021-.076-.034-.114-.021-.072-.029-.109l-.025-.114L.1,28.181l-.025-.114c0-.038-.013-.08-.017-.118a.992.992,0,0,1-.017-.118c0-.038-.008-.076-.013-.118S.017,27.638.013,27.6A1.109,1.109,0,0,0,0,27.478a1.183,1.183,0,0,0,0-.122v-.164a.143.143,0,0,1,0-.042v-.042c0-.017,0-.029,0-.042s0-.029,0-.046,0-.025.008-.042,0-.025,0-.038A.185.185,0,0,0,.034,26.9a.185.185,0,0,0,.008-.042c0-.013.008-.025.013-.042a.123.123,0,0,1,.008-.038c0-.013.008-.029.013-.042h0L.088,26.7.1,26.658a.126.126,0,0,0,.017-.042h0a.149.149,0,0,1,.017-.038.149.149,0,0,1,.017-.038h0a.248.248,0,0,1,.017-.034c0-.013.013-.025.017-.038a.171.171,0,0,1,.021-.038c0-.013.013-.021.017-.034a.388.388,0,0,0,.021-.034.171.171,0,0,0,.021-.038.233.233,0,0,0,.025-.034.389.389,0,0,1,.021-.034.234.234,0,0,0,.025-.034c.008-.008.017-.021.025-.029s.017-.021.025-.034.017-.021.025-.029.017-.021.025-.029h0l.029-.029A.1.1,0,0,1,.5,26.043a.2.2,0,0,1,.029-.029l.029-.029a.183.183,0,0,1,.029-.025h0c.008-.008.021-.017.029-.025h0c.013-.008.021-.017.034-.025h0c.008-.008.021-.017.029-.025a.233.233,0,0,0,.034-.025h0l.034-.021h0a.233.233,0,0,0,.034-.025.092.092,0,0,0,.034-.021A.171.171,0,0,0,.85,25.77c.013,0,.021-.013.034-.017h0c.013-.008.025-.013.038-.021h0c.013,0,.025-.013.038-.017h0A.085.085,0,0,1,.993,25.7h0a.15.15,0,0,1,.038-.017.149.149,0,0,1,.038-.017.29.29,0,0,0,.042-.017h0l.038-.013h0l.038-.013h0l.042-.013h0c.013,0,.025,0,.038-.008h0l.042-.013h0a.185.185,0,0,0,.042-.008h0a.123.123,0,0,0,.038-.008h0c.017,0,.029,0,.042,0s.029,0,.042-.008h0c.017,0,.029,0,.042,0a.172.172,0,0,0,.046,0H1.6a.143.143,0,0,1,.042,0H2.727a2.783,2.783,0,0,1-.16-.939V13.346A2.818,2.818,0,0,1,5.383,10.53h5.943a4.883,4.883,0,0,0-.156,1.225,4.808,4.808,0,0,0,.046.652H5.383a.939.939,0,0,0-.939.939V24.608a.939.939,0,0,0,.939.939H26.658a.939.939,0,0,0,.939-.939V13.346a.939.939,0,0,0-.939-.939H20.825a5.6,5.6,0,0,0,.042-.652,4.883,4.883,0,0,0-.156-1.225h5.947Zm4.533,15.24a.092.092,0,0,0,.034.021Zm-26.5,4.284H27.344a.409.409,0,0,0,.072,0h.067c.025,0,.046,0,.072,0s.042,0,.067-.008h0c.021,0,.046,0,.067,0h0l.067-.013a.368.368,0,0,0,.067-.008L27.891,30h0l.063-.013c.021,0,.046-.013.067-.017a.35.35,0,0,0,.063-.017h0c.021,0,.042-.013.063-.017h0c.021-.008.042-.013.063-.021h0c.021-.008.042-.013.063-.021h0c.021-.008.042-.013.063-.021h0l.063-.025h0l.059-.025h0c.021-.008.042-.017.059-.025s.042-.021.059-.029h0c.021-.008.042-.021.059-.029s.042-.021.059-.029h0l.059-.034a.624.624,0,0,1,.055-.034c.017-.013.038-.021.055-.034l.055-.038a.618.618,0,0,1,.055-.038h0l.051-.038.051-.038h0a.445.445,0,0,0,.051-.042h0l.051-.038c.017-.017.034-.029.051-.046h0c.017-.013.029-.029.046-.042h0a.48.48,0,0,0,.046-.046.241.241,0,0,0,.046-.046h0a.48.48,0,0,0,.046-.046c.013-.017.029-.029.042-.046h0a.446.446,0,0,0,.042-.051h0A.446.446,0,0,0,29.537,29a.446.446,0,0,1,.042-.051h0l.038-.051h0c.013-.017.025-.038.038-.055h0a.615.615,0,0,0,.038-.055h0c.008-.017.021-.034.034-.055h0a.621.621,0,0,0,.034-.055c.013-.017.021-.038.034-.055a.384.384,0,0,0,.029-.059h0c.013-.017.021-.038.034-.055h0a.257.257,0,0,1,.029-.059h0l.025-.063c.008-.017.017-.038.025-.059a.178.178,0,0,0,.025-.059l.025-.063a.371.371,0,0,0,.021-.063h0a.371.371,0,0,0,.021-.063c.008-.021.013-.042.021-.063s.013-.042.017-.063.013-.042.017-.063h0a.315.315,0,0,1,.017-.067c0-.021.008-.042.013-.067a.325.325,0,0,0,.008-.063c0-.025.008-.046.013-.067s0-.046.008-.067,0-.046.008-.072,0-.042,0-.067H1.885a.34.34,0,0,0,0,.067c0,.025,0,.046,0,.072a.327.327,0,0,1,.008.067c0,.021.008.042.013.067l.013.063c0,.025.008.046.013.067s.008.042.013.067h0a.351.351,0,0,1,.017.063c.008.021.013.042.021.063s.013.042.017.063.013.042.021.063h0a.37.37,0,0,1,.021.063l.025.063c.008.021.017.038.025.059s.017.042.025.059.021.042.029.063h0c.008.017.017.038.029.059h0a.348.348,0,0,0,.029.055h0c.008.021.021.038.029.059a.384.384,0,0,1,.034.055c.013.021.025.038.034.055h0a.615.615,0,0,0,.038.055h0a.616.616,0,0,0,.038.055h0c.013.017.025.038.038.055h0l.038.051h0L2.5,29a.446.446,0,0,1,.042.051h0a.446.446,0,0,1,.042.051h0l.046.046a.461.461,0,0,0,.042.046h0a.48.48,0,0,0,.046.046l.046.046h0c.017.013.034.029.051.042h0a.481.481,0,0,0,.046.046l.051.038h0a.445.445,0,0,0,.051.042h0l.051.038.055.038h0l.051.038a.615.615,0,0,1,.055.038l.059.034a.624.624,0,0,0,.055.034c.017.013.038.021.055.034h0a.385.385,0,0,1,.059.029c.021.008.038.021.059.029h0a.385.385,0,0,1,.059.029c.021.008.042.017.059.025h0l.063.025h0l.059.025h0c.021.008.042.013.063.021h0c.021.008.042.013.063.021h0c.021.008.042.013.063.021h0c.021,0,.042.013.063.017h0a.315.315,0,0,0,.067.017c.021,0,.042.013.063.017L4.15,30h0l.063.013a.419.419,0,0,0,.067.008l.067.013h0c.025,0,.046,0,.072,0h0c.021,0,.042,0,.067.008s.046,0,.067,0h.072a.362.362,0,0,0,.067,0Z"
          transform="translate(0 -10.53)"/>
  </g>
  <path class="a"
        d="M30.277,0a5.662,5.662,0,1,1-4,1.658,5.622,5.622,0,0,1,4-1.658Zm2.858,2.8a4.044,4.044,0,1,0,1.183,2.858A4.027,4.027,0,0,0,33.134,2.8Z"
        transform="translate(-14.258)"/>
  <path class="b"
        d="M25.659,31.42h9.356a.942.942,0,0,1,.939.939h0a.945.945,0,0,1-.939.939H25.659a.942.942,0,0,1-.939-.939h0A.939.939,0,0,1,25.659,31.42Z"
        transform="translate(-14.316 -18.196)"/>
  <path class="a"
        d="M36.247,10.773a.44.44,0,0,1-.438-.438.44.44,0,1,0-.88,0,1.317,1.317,0,0,0,.88,1.242V11.8a.44.44,0,0,0,.88,0v-.223a1.317,1.317,0,0,0-.442-2.559.44.44,0,1,1,.442-.442.44.44,0,1,0,.88,0,1.323,1.323,0,0,0-.88-1.242V7.112a.44.44,0,1,0-.88,0v.223a1.317,1.317,0,0,0,.438,2.559.44.44,0,1,1,0,.88Z"
        transform="translate(-20.229 -3.863)"/>
</svg>
