<!--suppress CssUnusedSymbol -->
<svg xmlns="http://www.w3.org/2000/svg" width="24.396" height="24.396" viewBox="0 0 24.396 24.396">
  <defs>
    <style>.a {
      fill: #ffffff;
      fill-rule: evenodd;
    }</style>
  </defs>
  <path class="a"
        d="M2.32,0H22.076A2.341,2.341,0,0,1,24.4,2.32V22.076a2.341,2.341,0,0,1-2.32,2.32H16.839V14.975h3.2l.457-3.691H16.839V8.929c0-1.09.316-1.793,1.828-1.793H20.6v-3.3c-.316-.035-1.476-.141-2.847-.141-2.812,0-4.711,1.723-4.711,4.851v2.742H9.878v3.691h3.164V24.4H2.32A2.341,2.341,0,0,1,0,22.076V2.32A2.341,2.341,0,0,1,2.32,0Z"/>
</svg>
