<svg xmlns="http://www.w3.org/2000/svg" width="24.397" height="24.396" viewBox="0 0 24.397 24.396">
  <defs>
    <style>.a {
      fill: #ffffff;
      fill-rule: evenodd;
    }</style>
  </defs>
  <path class="a"
        d="M9.87,0H29.626a2.341,2.341,0,0,1,2.32,2.32V22.076a2.341,2.341,0,0,1-2.32,2.32H9.87a2.341,2.341,0,0,1-2.32-2.32V2.32A2.341,2.341,0,0,1,9.87,0Zm9.878,7.277A4.921,4.921,0,1,0,24.67,12.2a4.936,4.936,0,0,0-4.921-4.921Zm0,8.12a3.2,3.2,0,1,1,3.2-3.2A3.211,3.211,0,0,1,19.748,15.4Zm3.937-12.69c-1.758-.105-6.117-.105-7.874,0A5.571,5.571,0,0,0,11.8,4.254C9.94,6.082,10.187,8.577,10.187,12.2c0,3.726-.211,6.152,1.617,7.945,1.828,1.863,4.359,1.617,7.945,1.617,3.691,0,4.957,0,6.257-.527,1.758-.668,3.129-2.25,3.234-5.1.105-1.758.07-6.117,0-7.874-.141-3.375-1.969-5.414-5.554-5.554Zm2.777,16.241c-1.2,1.2-2.883,1.09-6.749,1.09-3.972,0-5.554.035-6.749-1.125-1.336-1.336-1.09-3.48-1.09-6.714,0-4.429-.457-7.593,3.972-7.8,1.019-.035,1.3-.07,3.867-.07l.035.035c4.254,0,7.593-.457,7.769,3.972.07,1.019.07,1.3.07,3.867,0,3.937.07,5.554-1.125,6.749ZM26.006,7.1a1.141,1.141,0,0,1-1.16,1.125A1.111,1.111,0,0,1,23.721,7.1a1.141,1.141,0,0,1,1.125-1.16A1.17,1.17,0,0,1,26.006,7.1Z"
        transform="translate(-7.55)"/>
</svg>
