<svg xmlns="http://www.w3.org/2000/svg" width="27.363" height="29.603" viewBox="0 0 27.363 29.603">
  <defs>
    <style>.a {
      fill: #6D6D6F;
    }</style>
  </defs>
  <g transform="translate(0)">
    <path class="a"
          d="M20.284.333a1.134,1.134,0,0,0,0,1.611l4.138,4.144H1.14A1.141,1.141,0,0,0,0,7.228H0a1.141,1.141,0,0,0,1.14,1.14H24.411L20.284,12.5a1.139,1.139,0,1,0,1.608,1.611l4.469-4.469a3.418,3.418,0,0,0,0-4.836L21.892.333a1.137,1.137,0,0,0-1.608,0h0Z"
          transform="translate(0 0)"/>
    <path class="a"
          d="M7.082,63.073a1.144,1.144,0,0,1,0,1.614L2.941,68.828H26.223a1.141,1.141,0,0,1,1.14,1.14h0a1.139,1.139,0,0,1-1.14,1.14H2.952l4.13,4.127a1.157,1.157,0,0,1,.368.841,1.14,1.14,0,0,1-1.979.773L1,72.381a3.422,3.422,0,0,1,0-4.839l4.469-4.469a1.139,1.139,0,0,1,.8-.333,1.151,1.151,0,0,1,.807.333Z"
          transform="translate(0 -47.614)"/>
  </g>
</svg>
