<svg xmlns="http://www.w3.org/2000/svg" width="30.002" height="30.002" viewBox="0 0 30.002 30.002">
  <defs>
    <style>.a {
      fill: #6D6D6F;
    }</style>
  </defs>
  <g transform="translate(17.235 6.217)">
    <path class="a"
          d="M304.321,106.474a.879.879,0,0,0-1.3-.177l-8.591,7.3a.879.879,0,0,0,.293,1.5l10.7,3.536a.879.879,0,0,0,1.136-.653,15.093,15.093,0,0,0,.324-3.11A14.926,14.926,0,0,0,304.321,106.474Zm.693,10.173-8.25-2.725,6.622-5.626a13.179,13.179,0,0,1,1.746,6.577A13.358,13.358,0,0,1,305.014,116.647Z"
          transform="translate(-294.123 -106.088)"/>
  </g>
  <g transform="translate(7.533)">
    <path class="a"
          d="M146.322,4.091a15.006,15.006,0,0,0-17.294-2.36A.879.879,0,0,0,128.711,3l6.9,10.188a.879.879,0,0,0,1.3.177L146.288,5.4a.879.879,0,0,0,.034-1.309Zm-9.8,7.3-5.782-8.534a13.252,13.252,0,0,1,13.636,1.861Z"
          transform="translate(-128.56)"/>
  </g>
  <g transform="translate(0 3.373)">
    <g transform="translate(0)">
      <path class="a"
            d="M28.648,74.715a.879.879,0,0,0-.542-.481L15.934,70.449a3.084,3.084,0,0,1-1.622-1.2h0l-7.744-11.3a.879.879,0,0,0-1.3-.172A14.992,14.992,0,0,0,14.98,84.2H15a15,15,0,0,0,13.643-8.757A.879.879,0,0,0,28.648,74.715ZM15,82.438h-.019A13.242,13.242,0,0,1,5.691,59.779l7.171,10.468h0a4.849,4.849,0,0,0,2.55,1.882L26.593,75.6A13.287,13.287,0,0,1,15,82.438Z"
            transform="translate(-0.001 -57.567)"/>
    </g>
  </g>
</svg>
