<svg width="64" height="64" viewBox="0 0 64 64" fill="none" xmlns="http://www.w3.org/2000/svg">
<path d="M32.131 62H19.869L21 60.303V56H31V60.303L32.131 62Z" fill="white"/>
<path d="M48 48H4V54H48V48Z" fill="white"/>
<path d="M48 46H4V22H7V40H33V22H48V26H39C37.346 26 36 27.346 36 29V41C36 42.654 37.346 44 39 44H48V46Z" fill="white"/>
<path d="M61 29V41C61 42.105 60.105 43 59 43H39C37.895 43 37 42.105 37 41V29C37 27.895 37.895 27 39 27H59C60.105 27 61 27.895 61 29Z" fill="#53B7E8"/>
<path d="M49 48H26V54H49V48Z" fill="#DCDDDE"/>
<path d="M34 63L32 60V55H26V56H21V57H24C25.105 57 26 57.895 26 59V63H34Z" fill="#DCDDDE"/>
<path d="M31 12H9V38H31V12Z" fill="#FFD768"/>
<path d="M58 50H56V52H58V50Z" fill="#0C3847"/>
<path d="M58 46H56V48H58V46Z" fill="#0C3847"/>
<path d="M54 54H52V56H54V54Z" fill="#0C3847"/>
<path d="M58 54H56V56H58V54Z" fill="#0C3847"/>
<path d="M13 42H11V44H13V42Z" fill="#0C3847"/>
<path d="M17 42H15V44H17V42Z" fill="#0C3847"/>
<path d="M21 42H19V44H21V42Z" fill="#0C3847"/>
<path d="M25 42H23V44H25V42Z" fill="#0C3847"/>
<path d="M29 42H27V44H29V42Z" fill="#0C3847"/>
<path d="M27 50H25V52H27V50Z" fill="#0C3847"/>
<path d="M59 26H50V20H33V10H26V5H25.91C25.431 2.167 22.967 0 20 0C17.033 0 14.569 2.167 14.09 5H14V10H7V20H2V56H19V59.697L16.131 64H35.868L33 59.697V56H50V44H59C60.654 44 62 42.654 62 41V29C62 27.346 60.654 26 59 26ZM60 29V30H38V29C38 28.448 38.449 28 39 28H59C59.551 28 60 28.448 60 29ZM16 6C16 3.794 17.794 2 20 2C22.206 2 24 3.794 24 6V10H16V6ZM9 12H14V17H16V12H24V17H26V12H31V38H9V12ZM32.131 62H19.869L21 60.303V56H31V60.303L32.131 62ZM48 54H4V48H48V54ZM48 46H4V22H7V40H33V22H48V26H39C37.346 26 36 27.346 36 29V41C36 42.654 37.346 44 39 44H48V46ZM59 42H39C38.449 42 38 41.552 38 41V34H60V41C60 41.552 59.551 42 59 42Z" fill="#0C3847"/>
<path d="M48 38H40V40H48V38Z" fill="white"/>
<path d="M54 38H50V40H54V38Z" fill="white"/>
<path d="M15 33.414L26.4125 22.0015L24.9983 20.5873L13.5858 31.9998L15 33.414Z" fill="#0C3847"/>
<path d="M16 26C17.654 26 19 24.654 19 23C19 21.346 17.654 20 16 20C14.346 20 13 21.346 13 23C13 24.654 14.346 26 16 26ZM16 22C16.551 22 17 22.448 17 23C17 23.552 16.551 24 16 24C15.449 24 15 23.552 15 23C15 22.448 15.449 22 16 22Z" fill="#0C3847"/>
<path d="M24 28C22.346 28 21 29.346 21 31C21 32.654 22.346 34 24 34C25.654 34 27 32.654 27 31C27 29.346 25.654 28 24 28ZM24 32C23.449 32 23 31.552 23 31C23 30.448 23.449 30 24 30C24.551 30 25 30.448 25 31C25 31.552 24.551 32 24 32Z" fill="#0C3847"/>
</svg>
