<svg width="64" height="64" viewBox="0 0 64 64" fill="none" xmlns="http://www.w3.org/2000/svg">
<path d="M52.5 20H44.5H42.5H34.5H32.5H24.5H22.5H14.5H12.5V18H54.5V19V20H52.5Z" fill="white"/>
<path d="M46.5 22.586V22H50.5V22.586L49.5 23.586V36H47.5V23.586L46.5 22.586Z" fill="white"/>
<path d="M31.5 41.586V24.414L32.5 23.414V22H34.5V23.414L35.5 24.414V41.586L34.5 42.586V44H32.5V42.586L31.5 41.586Z" fill="white"/>
<path d="M30.5 43.414V44H26.5V43.414L27.5 42.414V23.586L26.5 22.586V22H30.5V22.586L29.5 23.586V42.414L30.5 43.414Z" fill="white"/>
<path d="M25.5 24.414V25H21.5V24.414L22.5 23.414V22H24.5V23.414L25.5 24.414Z" fill="white"/>
<path d="M16.5 22.586V22H20.5V22.586L19.5 23.586V25H17.5V23.586L16.5 22.586Z" fill="white"/>
<path d="M15.5 24.414V25H12.5V22H14.5V23.414L15.5 24.414Z" fill="white"/>
<path d="M21.5 41.586V41H25.5V41.586L24.5 42.586V44H22.5V42.586L21.5 41.586Z" fill="white"/>
<path d="M20.5 43.414V44H16.5V43.414L17.5 42.414V41H19.5V42.414L20.5 43.414Z" fill="white"/>
<path d="M15.5 41V41.586L14.5 42.586V44H12.5V41H15.5Z" fill="white"/>
<path d="M39.5 54H9.5V50H10.5H39.5V54Z" fill="white"/>
<path d="M39.5 48H12.5V46H14.5H22.5H24.5H32.5H34.5H39.5V48Z" fill="white"/>
<path d="M40.5 22.586L39.5 23.586V36V42.414V44H36.5V43.414L37.5 42.414V23.586L36.5 22.586V22H40.5V22.586Z" fill="white"/>
<path d="M54.5 22V36H51.5V24.414L52.5 23.414V22H54.5Z" fill="white"/>
<path d="M45.5 24.414V36H41.5V24.414L42.5 23.414V22H44.5V23.414L45.5 24.414Z" fill="white"/>
<path d="M9.5 16V13.629L33.5 2.21899L57.5 13.629V16H56.5H10.5H9.5Z" fill="white"/>
<path d="M58.5 17H33.5V1L58.5 13V17Z" fill="#DCDDDE"/>
<path d="M54.5 46H33.5V48H54.5V46Z" fill="#DCDDDE"/>
<path d="M54.5 50H33.5V54H54.5V50Z" fill="#DCDDDE"/>
<path d="M43.5 24V21H42.5H41.5H40.5H38.5V45H40.5H41.5H42.5H43.5V42L42.5 41V25L43.5 24Z" fill="#DCDDDE"/>
<path d="M33.5 24V21H32.5H31.5H30.5H28.5V45H30.5H31.5H32.5H33.5V42L32.5 41V25L33.5 24Z" fill="#DCDDDE"/>
<path d="M53.5 24V21H52.5H51.5H50.5H48.5V45H50.5H51.5H52.5H53.5V42L52.5 41V25L53.5 24Z" fill="#DCDDDE"/>
<path d="M23.5 24V21H22.5H21.5H20.5H18.5V45H20.5H21.5H22.5H23.5V42L22.5 41V25L23.5 24Z" fill="#DCDDDE"/>
<path d="M59.5 38H41.5V62H59.5V38Z" fill="white"/>
<path d="M59.5 38H50.5V62H59.5V38Z" fill="#DCDDDE"/>
<path d="M56.5 41H44.5V47H56.5V41Z" fill="#007F61"/>
<path d="M4.5 27H6.414C6.034 27.776 5.299 28.509 4.5 28.909V27Z" fill="#007F61"/>
<path d="M4.5 38.9999V37.0859C5.276 37.4659 6.009 38.2009 6.409 38.9999H4.5Z" fill="#007F61"/>
<path d="M8.565 39L8.438 38.655C7.849 37.051 6.398 35.604 4.83 35.055L4.5 34.941V31.066L4.845 30.939C6.45 30.349 7.896 28.899 8.444 27.331L8.559 27H24.434L24.561 27.345C24.772 27.919 25.102 28.467 25.499 28.966V37.031C25.091 37.539 24.757 38.092 24.555 38.669L24.441 39H8.565Z" fill="#007F61"/>
<path d="M33.5 14C35.706 14 37.5 12.206 37.5 10C37.5 7.794 35.706 6 33.5 6C31.294 6 29.5 7.794 29.5 10C29.5 12.206 31.294 14 33.5 14ZM33.5 8C34.603 8 35.5 8.897 35.5 10C35.5 11.103 34.603 12 33.5 12C32.397 12 31.5 11.103 31.5 10C31.5 8.897 32.397 8 33.5 8Z" fill="#0C3847"/>
<path d="M24.5 32H22.5V34H24.5V32Z" fill="white"/>
<path d="M10.5 32H8.5V34H10.5V32Z" fill="white"/>
<path d="M16.5 29C14.294 29 12.5 30.794 12.5 33C12.5 35.206 14.294 37 16.5 37C18.706 37 20.5 35.206 20.5 33C20.5 30.794 18.706 29 16.5 29ZM16.5 35C15.397 35 14.5 34.103 14.5 33C14.5 31.897 15.397 31 16.5 31C17.603 31 18.5 31.897 18.5 33C18.5 34.103 17.603 35 16.5 35Z" fill="#0C3847"/>
<path d="M56.5 36V22V19V18H59.5V12.371L33.5 0L7.5 12.371V18H10.5V22V25H2.5V41H10.5V44V48H7.5V56H39.5V64H61.5V36H56.5ZM9.5 16V13.629L33.5 2.219L57.5 13.629V16H56.5H10.5H9.5ZM52.5 20H44.5H42.5H34.5H32.5H24.5H22.5H14.5H12.5V18H54.5V19V20H52.5ZM54.5 22V36H51.5V24.414L52.5 23.414V22H54.5ZM46.5 22.586V22H50.5V22.586L49.5 23.586V36H47.5V23.586L46.5 22.586ZM45.5 24.414V36H41.5V24.414L42.5 23.414V22H44.5V23.414L45.5 24.414ZM31.5 41.586V24.414L32.5 23.414V22H34.5V23.414L35.5 24.414V41.586L34.5 42.586V44H32.5V42.586L31.5 41.586ZM30.5 43.414V44H26.5V43.414L27.5 42.414V23.586L26.5 22.586V22H30.5V22.586L29.5 23.586V42.414L30.5 43.414ZM25.5 24.414V25H21.5V24.414L22.5 23.414V22H24.5V23.414L25.5 24.414ZM16.5 22.586V22H20.5V22.586L19.5 23.586V25H17.5V23.586L16.5 22.586ZM15.5 24.414V25H12.5V22H14.5V23.414L15.5 24.414ZM4.5 27H6.414C6.034 27.776 5.299 28.509 4.5 28.909V27ZM4.5 39V37.086C5.276 37.466 6.009 38.201 6.409 39H4.5ZM8.565 39L8.438 38.655C7.849 37.051 6.398 35.604 4.83 35.055L4.5 34.941V31.066L4.845 30.939C6.45 30.349 7.896 28.899 8.444 27.331L8.559 27H24.434L24.561 27.345C24.772 27.919 25.102 28.467 25.499 28.966V37.031C25.091 37.539 24.757 38.092 24.555 38.669L24.441 39H8.565ZM21.5 41.586V41H25.5V41.586L24.5 42.586V44H22.5V42.586L21.5 41.586ZM20.5 43.414V44H16.5V43.414L17.5 42.414V41H19.5V42.414L20.5 43.414ZM15.5 41V41.586L14.5 42.586V44H12.5V41H15.5ZM39.5 54H9.5V50H10.5H39.5V54ZM39.5 48H12.5V46H14.5H22.5H24.5H32.5H34.5H39.5V48ZM40.5 22.586L39.5 23.586V36V42.414V44H36.5V43.414L37.5 42.414V23.586L36.5 22.586V22H40.5V22.586ZM59.5 62H41.5V38H59.5V62Z" fill="#0C3847"/>
<path d="M58 40H43V48H58V40ZM55.8571 46H45.1429V42H55.8571V46Z" fill="#0C3847"/>
<path d="M43 49L43 51L46.4615 51L46.4615 49L43 49Z" fill="#0C3847"/>
<path d="M48.7693 49L48.7693 51L58.0001 51L58.0001 49L48.7693 49Z" fill="#0C3847"/>
<path d="M41.5 9H39.5V11H41.5V9Z" fill="#0C3847"/>
<path d="M27.5 9H25.5V11H27.5V9Z" fill="#0C3847"/>
<path d="M16.5 35C17.6046 35 18.5 34.1046 18.5 33C18.5 31.8954 17.6046 31 16.5 31C15.3954 31 14.5 31.8954 14.5 33C14.5 34.1046 15.3954 35 16.5 35Z" fill="white"/>
<path d="M33.5 12C34.6046 12 35.5 11.1046 35.5 10C35.5 8.89543 34.6046 8 33.5 8C32.3954 8 31.5 8.89543 31.5 10C31.5 11.1046 32.3954 12 33.5 12Z" fill="#343F97"/>
<path d="M54.5 18H33.5V20H54.5V18Z" fill="#DCDDDE"/>
</svg>
