<svg width="64" height="64" viewBox="0 0 64 64" fill="none" xmlns="http://www.w3.org/2000/svg">
<path d="M61 41H37V53H61V41Z" fill="#67C18C"/>
<path d="M51.9081 32.935C47.7171 30.347 42.1341 30.375 37.9701 33.015C37.7351 24.667 36.0261 16.316 32.9921 12.363C43.1131 14.143 50.9791 22.549 51.9081 32.935Z" fill="white"/>
<path d="M6.09204 32.935C7.02104 22.55 14.887 14.144 25.008 12.363C21.974 16.316 20.265 24.667 20.03 33.015C15.866 30.373 10.283 30.346 6.09204 32.935Z" fill="white"/>
<path d="M22.0341 32.983C22.3791 20.522 25.8571 12 29.0001 12C32.1431 12 35.6211 20.522 35.9661 32.983C34.1631 31.854 32.1021 31.21 30.0001 31.056V31H28.0001V31.056C25.8991 31.21 23.8371 31.854 22.0341 32.983Z" fill="white"/>
<path d="M53 35C50.76 32.97 47.81 31.97 44.87 32C43.89 20.16 37.16 11 29 11C42.25 11 53 21.75 53 35Z" fill="#DCDDDE"/>
<path d="M29 11C24.58 11 21 21.75 21 35C18.82 33.03 15.99 32.03 13.13 32C14.11 20.16 20.84 11 29 11Z" fill="#DCDDDE"/>
<path d="M37 35C34.79 33 31.9 32 29 32V11C33.42 11 37 21.75 37 35Z" fill="#DCDDDE"/>
<path d="M17 49C19.7614 49 22 46.7614 22 44C22 41.2386 19.7614 39 17 39C14.2386 39 12 41.2386 12 44C12 46.7614 14.2386 49 17 49Z" fill="#FFD768"/>
<path d="M6 55C8.20914 55 10 53.2091 10 51C10 48.7909 8.20914 47 6 47C3.79086 47 2 48.7909 2 51C2 53.2091 3.79086 55 6 55Z" fill="#FFD768"/>
<path d="M15 62C16.6569 62 18 60.6569 18 59C18 57.3431 16.6569 56 15 56C13.3431 56 12 57.3431 12 59C12 60.6569 13.3431 62 15 62Z" fill="#FFD768"/>
<path d="M57 46H55V48H57V46Z" fill="white"/>
<path d="M43 46H41V48H43V46Z" fill="white"/>
<path d="M53 5H51V17H53V5Z" fill="#0C3847"/>
<path d="M7 5H5V17H7V5Z" fill="#0C3847"/>
<path d="M13 0H11V10H13V0Z" fill="#0C3847"/>
<path d="M47 7H45V12H47V7Z" fill="#0C3847"/>
<path d="M25 1H23V5H25V1Z" fill="#0C3847"/>
<path d="M19 4H17V9H19V4Z" fill="#0C3847"/>
<path d="M41 1H39V8H41V1Z" fill="#0C3847"/>
<path d="M36 59C36 60.654 34.654 62 33 62C31.346 62 30 60.654 30 59V33.041C32.3 33.241 34.54 34.135 36.303 35.719L36.93 36.412L37 36.348L37.07 36.412L37.697 35.719C41.741 32.084 48.295 32.09 52.329 35.741L54 37.254V35C54 21.55 43.323 10.553 30 10.025V7H28V10.025C14.677 10.553 4 21.55 4 35V37.254L5.671 35.741C9.704 32.091 16.259 32.084 20.303 35.719L20.93 36.412L21 36.348L21.07 36.412L21.697 35.719C23.46 34.135 25.7 33.241 28 33.041V59C28 61.757 30.243 64 33 64C35.757 64 38 61.757 38 59V58H36V59ZM51.908 32.935C47.717 30.347 42.134 30.375 37.97 33.015C37.735 24.667 36.026 16.316 32.992 12.363C43.113 14.143 50.979 22.549 51.908 32.935ZM6.092 32.935C7.021 22.55 14.887 14.144 25.008 12.363C21.974 16.316 20.265 24.667 20.03 33.015C15.866 30.373 10.283 30.346 6.092 32.935ZM22.034 32.983C22.379 20.522 25.857 12 29 12C32.143 12 35.621 20.522 35.966 32.983C34.163 31.854 32.102 31.21 30 31.056V31H28V31.056C25.899 31.21 23.837 31.854 22.034 32.983Z" fill="#0C3847"/>
<path d="M49 43C46.794 43 45 44.794 45 47C45 49.206 46.794 51 49 51C51.206 51 53 49.206 53 47C53 44.794 51.206 43 49 43ZM49 49C47.897 49 47 48.103 47 47C47 45.897 47.897 45 49 45C50.103 45 51 45.897 51 47C51 48.103 50.103 49 49 49Z" fill="#0C3847"/>
<path d="M35 39V55H63V39H35ZM57.056 52.67L56.941 53H41.065L40.938 52.655C40.349 51.051 38.898 49.604 37.33 49.055L37 48.941V45.066L37.345 44.939C38.95 44.349 40.396 42.899 40.944 41.331L41.059 41H56.934L57.061 41.345C57.65 42.949 59.101 44.396 60.669 44.945L61 45.059V48.934L60.655 49.061C59.05 49.651 57.604 51.102 57.056 52.67ZM61 42.914C60.224 42.534 59.491 41.799 59.091 41H61V42.914ZM38.914 41C38.534 41.776 37.799 42.509 37 42.909V41H38.914ZM37 51.086C37.776 51.466 38.509 52.201 38.909 53H37V51.086ZM59.086 53C59.466 52.224 60.201 51.491 61 51.091V53H59.086Z" fill="#0C3847"/>
<path d="M17 38C13.691 38 11 40.691 11 44C11 47.309 13.691 50 17 50C20.309 50 23 47.309 23 44C23 40.691 20.309 38 17 38ZM17 48C14.794 48 13 46.206 13 44C13 41.794 14.794 40 17 40C19.206 40 21 41.794 21 44C21 46.206 19.206 48 17 48Z" fill="#0C3847"/>
<path d="M6 46C3.243 46 1 48.243 1 51C1 53.757 3.243 56 6 56C8.757 56 11 53.757 11 51C11 48.243 8.757 46 6 46ZM6 54C4.346 54 3 52.654 3 51C3 49.346 4.346 48 6 48C7.654 48 9 49.346 9 51C9 52.654 7.654 54 6 54Z" fill="#0C3847"/>
<path d="M15 55C12.794 55 11 56.794 11 59C11 61.206 12.794 63 15 63C17.206 63 19 61.206 19 59C19 56.794 17.206 55 15 55ZM15 61C13.897 61 13 60.103 13 59C13 57.897 13.897 57 15 57C16.103 57 17 57.897 17 59C17 60.103 16.103 61 15 61Z" fill="#0C3847"/>
<path d="M49 49C50.1046 49 51 48.1046 51 47C51 45.8954 50.1046 45 49 45C47.8954 45 47 45.8954 47 47C47 48.1046 47.8954 49 49 49Z" fill="white"/>
</svg>
