<svg width="64" height="64" viewBox="0 0 64 64" fill="none" xmlns="http://www.w3.org/2000/svg">
<path d="M34 39V31H28V39H20V47H2V5H36V39H34Z" fill="white"/>
<path d="M36 5H19V47H36V5Z" fill="#DCDDDE"/>
<path d="M63 10H38V32H63V10Z" fill="#67C18C"/>
<path d="M33 8H5V20H33V8Z" fill="#67C18C"/>
<path d="M63 40H21V60H63V40Z" fill="#44C8F5"/>
<path d="M57 17H55V19H57V17Z" fill="white"/>
<path d="M41 17H39V19H41V17Z" fill="white"/>
<path d="M48 13C45.243 13 43 15.243 43 18C43 20.757 45.243 23 48 23C50.757 23 53 20.757 53 18C53 15.243 50.757 13 48 13ZM48 21C46.346 21 45 19.654 45 18C45 16.346 46.346 15 48 15C49.654 15 51 16.346 51 18C51 19.654 49.654 21 48 21Z" fill="#0C3847"/>
<path d="M4 29H10V23H4V29ZM6 25H8V27H6V25Z" fill="#0C3847"/>
<path d="M20 29H26V23H20V29ZM22 25H24V27H22V25Z" fill="#0C3847"/>
<path d="M28 29H34V23H28V29ZM30 25H32V27H30V25Z" fill="#0C3847"/>
<path d="M4 37H10V31H4V37ZM6 33H8V35H6V33Z" fill="#0C3847"/>
<path d="M20 37H26V31H20V37ZM22 33H24V35H22V33Z" fill="#0C3847"/>
<path d="M4 45H10V39H4V45ZM6 41H8V43H6V41Z" fill="#0C3847"/>
<path d="M12 29H18V23H12V29ZM14 25H16V27H14V25Z" fill="#0C3847"/>
<path d="M12 37H18V31H12V37ZM14 33H16V35H14V33Z" fill="#0C3847"/>
<path d="M12 45H18V39H12V45ZM14 41H16V43H14V41Z" fill="#0C3847"/>
<path d="M4 7V21H34V7H4ZM32 19H6V9H32V19Z" fill="#0C3847"/>
<path d="M38 45H36V57H38V45Z" fill="white"/>
<path d="M46 43H44V57H46V43Z" fill="white"/>
<path d="M42 49H40V57H42V49Z" fill="white"/>
<path d="M34 49H32V57H34V49Z" fill="white"/>
<path d="M30 53H28V57H30V53Z" fill="white"/>
<path d="M26 51H24V57H26V51Z" fill="white"/>
<path d="M54 51H56C56.551 51 57 51.448 57 52C57 52.552 56.551 53 56 53H54H52V55H54V57H56V55C57.654 55 59 53.654 59 52C59 50.346 57.654 49 56 49H54C53.449 49 53 48.552 53 48C53 47.448 53.449 47 54 47H56H58V45H56V43H54V45C52.346 45 51 46.346 51 48C51 49.654 52.346 51 54 51Z" fill="#0C3847"/>
<path d="M38 9V3H0V49H20V61H64V39H38V33H62H64V31V30V28V27V25V9H38ZM62 59H22V41H62V59ZM32 39H30V33H32V39ZM34 39V31H28V39H20V47H2V5H36V39H34ZM62 31H38V30H62V31ZM62 28H38V27H62V28ZM62 25H60.086C60.466 24.224 61.201 23.491 62 23.091V25ZM62 20.935L61.655 21.062C60.05 21.652 58.604 23.102 58.056 24.67L57.941 25H38.065L38 24.823V11.169L38.059 11H57.934L58.061 11.345C58.65 12.949 60.101 14.396 61.669 14.945L62 15.059V20.935ZM62 12.914C61.224 12.534 60.491 11.799 60.091 11H62V12.914Z" fill="#0C3847"/>
<path d="M32 33H30V39H32V33Z" fill="#F37053"/>
<path d="M48 21C49.6569 21 51 19.6569 51 18C51 16.3431 49.6569 15 48 15C46.3431 15 45 16.3431 45 18C45 19.6569 46.3431 21 48 21Z" fill="white"/>
</svg>
