<svg width="64" height="64" viewBox="0 0 64 64" fill="none" xmlns="http://www.w3.org/2000/svg">
<path d="M57 6H1V56H57V6Z" fill="white"/>
<path d="M29 7V44.953C21.782 44.953 15.846 39.49 15.086 32.476C15.032 32.977 15 33.485 15 34C15 40.878 19.96 46.599 26.5 47.778C27.94 48.037 29 49.266 29 50.729V55H56V7H29Z" fill="#DCDDDE"/>
<path d="M61 38H63V34H61V30H43V34H45V38H43V42V46H45V50H43V54H45V58H63V54H61V50H63V46H61V42V38Z" fill="#343F97"/>
<path d="M43 58C47.9706 58 52 53.9706 52 49C52 44.0294 47.9706 40 43 40C38.0294 40 34 44.0294 34 49C34 53.9706 38.0294 58 43 58Z" fill="#343F97"/>
<path d="M10 13H8V15H10V13Z" fill="#0C3847"/>
<path d="M50 13H48V15H50V13Z" fill="#0C3847"/>
<path d="M10 47H8V49H10V47Z" fill="#0C3847"/>
<path d="M30 39H28V42H30V39Z" fill="#0C3847"/>
<path d="M30 20H28V23H30V20Z" fill="#0C3847"/>
<path d="M21 30H18V32H21V30Z" fill="#0C3847"/>
<path d="M40 30H37V32H40V30Z" fill="#0C3847"/>
<path d="M37.4807 38.0714L35.3588 35.9507L33.9457 37.3646L36.0676 39.4853L37.4807 38.0714Z" fill="#0C3847"/>
<path d="M20.5118 23.9267L22.6337 26.0474L24.0468 24.6335L21.9249 22.5128L20.5118 23.9267Z" fill="#0C3847"/>
<path d="M24.0505 37.3646L22.6372 35.9509L20.5156 38.0719L21.9289 39.4856L24.0505 37.3646Z" fill="#0C3847"/>
<path d="M33.9486 24.6359L35.3619 26.0496L37.4835 23.9286L36.0702 22.5149L33.9486 24.6359Z" fill="#0C3847"/>
<path d="M34.918 30.17L36.765 28.255L34.125 27.926C32.674 25.492 29.709 24.386 27.001 25.344C25.49 25.877 24.277 26.968 23.586 28.414C22.896 29.86 22.809 31.489 23.343 33C23.877 34.512 24.968 35.724 26.414 36.414C27.234 36.806 28.112 37.003 28.995 37.003C29.669 37.003 30.346 36.888 31 36.656C33.709 35.699 35.319 32.975 34.918 30.17ZM29 35C26.791 35 25 33.209 25 31C25 28.791 26.791 27 29 27C31.209 27 33 28.791 33 31C33 33.209 31.209 35 29 35Z" fill="#0C3847"/>
<path d="M43 43C39.691 43 37 45.691 37 49C37 52.309 39.691 55 43 55C46.309 55 49 52.309 49 49C49 45.691 46.309 43 43 43ZM43 53C40.794 53 39 51.206 39 49C39 46.794 40.794 45 43 45C45.206 45 47 46.794 47 49C47 51.206 45.206 53 43 53Z" fill="white"/>
<path d="M62 41V39H64V33H62V29H58V5H0V57H9V59H18V57H37.026C38.695 58.25 40.759 59 43 59C43.338 59 43.671 58.982 44 58.949V59H64V53H62V51H64V45H62V43V41ZM60 31V33H44V31H60ZM52.798 51H60V53H52.159C52.438 52.364 52.657 51.696 52.798 51ZM50.981 43H60V45H52.159C51.845 44.284 51.446 43.617 50.981 43ZM50 41H48.974C47.556 39.938 45.855 39.236 44 39.051V39H60V41H50ZM35.936 41.929C33.926 43.204 31.551 43.953 29 43.953C21.832 43.953 16 38.121 16 30.953C16 23.785 21.832 17.953 29 17.953C36.168 17.953 42 23.785 42 30.953C42 34.694 40.402 38.062 37.864 40.436C37.163 40.858 36.511 41.354 35.936 41.929ZM33.202 51H6V45H9V35H6V27H9V17H6V11H52V29H48V21H50V19H48H46V29H43.858C42.896 21.65 36.608 15.953 29 15.953C20.729 15.953 14 22.682 14 30.953C14 39.224 20.729 45.953 29 45.953C30.668 45.953 32.268 45.668 33.768 45.163C33.275 46.346 33 47.641 33 49C33 49.685 33.07 50.354 33.202 51ZM7 37V43H5V37H7ZM7 19V25H5V19H7ZM44 35V37H42.716C43.001 36.356 43.236 35.688 43.43 35H44ZM42 38.405V39.051C41.854 39.066 41.712 39.094 41.568 39.115C41.719 38.883 41.862 38.645 42 38.405ZM9 55H2V7H56V29H54V9H4V17H3V27H4V35H3V45H4V53H33.841C34.155 53.716 34.554 54.383 35.019 55H18H9ZM35 49C35 46.863 35.847 44.924 37.217 43.488C37.873 43.057 38.486 42.569 39.065 42.044C40.228 41.382 41.569 41 43 41C44.891 41 46.629 41.663 48 42.765V43H48.274C49.941 44.467 51 46.61 51 49C51 53.411 47.411 57 43 57C38.589 57 35 53.411 35 49ZM62 57H48.974C49.734 56.431 50.409 55.758 50.98 55H62V57ZM62 49H53C53 48.315 52.93 47.646 52.798 47H62V49ZM46 37V35H62V37H46Z" fill="#0C3847"/>
<path d="M29 35C31.2091 35 33 33.2091 33 31C33 28.7909 31.2091 27 29 27C26.7909 27 25 28.7909 25 31C25 33.2091 26.7909 35 29 35Z" fill="#007F61"/>
</svg>
