<svg width="64" height="64" viewBox="0 0 64 64" fill="none" xmlns="http://www.w3.org/2000/svg">
<path d="M32 60C26.332 60 22.093 59.891 19 59.029V58V56V54H22V48H17V46H19V40H12.415C13.352 33.093 16.244 24.297 24.339 18H39.659C39.896 18.184 40.123 18.373 40.347 18.564C39.498 19.834 39 21.36 39 23C39 27.411 42.589 31 47 31C47.737 31 48.448 30.892 49.126 30.704C51.456 36.438 52 42.138 52 46C52 59.322 46.861 60 32 60Z" fill="white"/>
<path d="M40 17H32V53.99C32 55.654 30.641 57.003 28.977 56.991C28.639 56.988 28.3291 56.981 28 56.977V57H13.7531C16.8831 60.731 22.7861 61 32 61C46.693 61 53 60.359 53 46C53 35.345 49.388 24.139 40 17Z" fill="#DCDDDE"/>
<path d="M32 51C37.5228 51 42 46.5228 42 41C42 35.4772 37.5228 31 32 31C26.4772 31 22 35.4772 22 41C22 46.5228 26.4772 51 32 51Z" fill="#67C18C"/>
<path d="M47 30C50.866 30 54 26.866 54 23C54 19.134 50.866 16 47 16C43.134 16 40 19.134 40 23C40 26.866 43.134 30 47 30Z" fill="#FFD768"/>
<path d="M56.5 39C58.9853 39 61 36.9853 61 34.5C61 32.0147 58.9853 30 56.5 30C54.0147 30 52 32.0147 52 34.5C52 36.9853 54.0147 39 56.5 39Z" fill="#FFD768"/>
<path d="M59.5 21C61.433 21 63 19.433 63 17.5C63 15.567 61.433 14 59.5 14C57.567 14 56 15.567 56 17.5C56 19.433 57.567 21 59.5 21Z" fill="#FFD768"/>
<path d="M32.5 4L36 8.667L39.5 4H41.656L39.256 12H24.744L22.344 4H32.5Z" fill="white"/>
<path d="M39 14H25V16H39V14Z" fill="#44C8F5"/>
<path d="M33 3L36 7L39 3H43L40 12H32L33 3Z" fill="#DCDDDE"/>
<path d="M18 57H3V61H18V57Z" fill="#FFD768"/>
<path d="M18 53H3V57H18V53Z" fill="#FFD768"/>
<path d="M21 49H6V53H21V49Z" fill="#FFD768"/>
<path d="M16 45H1V49H16V45Z" fill="#FFD768"/>
<path d="M18 41H3V45H18V41Z" fill="#FFD768"/>
<path d="M56.5 29C54.442 29 52.647 30.138 51.704 31.817C51.488 31.189 51.242 30.559 50.985 29.927C53.38 28.543 55 25.96 55 23C55 18.589 51.411 15 47 15C44.944 15 43.072 15.787 41.653 17.066C41.437 16.886 41.223 16.705 41 16.528V13.146L44.344 2H38.5L36 5.333L33.5 2H19.656L23 13.147V16.525C14.369 23.305 11.339 32.707 10.393 40H2V44H0V50H5V52H2V56V58V62H19V61.086C22.367 61.901 26.682 62 32 62C46.858 62 54 61.32 54 46C54 44.069 53.864 41.689 53.471 39.086C54.341 39.662 55.381 40 56.5 40C59.533 40 62 37.533 62 34.5C62 31.467 59.533 29 56.5 29ZM47 17C50.309 17 53 19.691 53 23C53 26.309 50.309 29 47 29C43.691 29 41 26.309 41 23C41 19.691 43.691 17 47 17ZM25 14H39V16H25V14ZM32.5 4L36 8.667L39.5 4H41.656L39.256 12H24.744L22.344 4H32.5ZM4 42H17V44H4V42ZM2 48V46H15V48H5H2ZM7 50H17H20V52H19H7V50ZM4 54H5H17V56H4V54ZM17 60H4V58H17V60ZM32 60C26.332 60 22.093 59.891 19 59.029V58V56V54H22V48H17V46H19V40H12.415C13.352 33.093 16.244 24.297 24.339 18H39.659C39.896 18.184 40.123 18.373 40.347 18.564C39.498 19.834 39 21.36 39 23C39 27.411 42.589 31 47 31C47.737 31 48.448 30.892 49.126 30.704C51.456 36.438 52 42.138 52 46C52 59.322 46.861 60 32 60ZM56.5 38C54.57 38 53 36.43 53 34.5C53 32.57 54.57 31 56.5 31C58.43 31 60 32.57 60 34.5C60 36.43 58.43 38 56.5 38Z" fill="#0C3847"/>
<path d="M59.5 13C57.019 13 55 15.019 55 17.5C55 19.981 57.019 22 59.5 22C61.981 22 64 19.981 64 17.5C64 15.019 61.981 13 59.5 13ZM59.5 20C58.122 20 57 18.878 57 17.5C57 16.122 58.122 15 59.5 15C60.878 15 62 16.122 62 17.5C62 18.878 60.878 20 59.5 20Z" fill="#0C3847"/>
<path d="M33 50H31V52H33V50Z" fill="#0C3847"/>
<path d="M33 30H31V32H33V30Z" fill="#0C3847"/>
<path d="M37.1347 50.7804L36.3693 48.9326L34.5215 49.698L35.2869 51.5458L37.1347 50.7804Z" fill="#0C3847"/>
<path d="M26.8653 31.2167L27.6307 33.0645L29.4785 32.2991L28.7131 30.4513L26.8653 31.2167Z" fill="#0C3847"/>
<path d="M40.484 48.077L39.0698 46.6628L37.6556 48.077L39.0698 49.4912L40.484 48.077Z" fill="#0C3847"/>
<path d="M26.3429 33.9254L24.9287 32.5112L23.5145 33.9254L24.9287 35.3396L26.3429 33.9254Z" fill="#0C3847"/>
<path d="M42.5464 44.2798L40.6986 43.5144L39.9332 45.3622L41.781 46.1276L42.5464 44.2798Z" fill="#0C3847"/>
<path d="M21.4557 37.7143L23.3035 38.4797L24.0689 36.6319L22.2211 35.8665L21.4557 37.7143Z" fill="#0C3847"/>
<path d="M43 40H41V42H43V40Z" fill="#0C3847"/>
<path d="M23 40H21V42H23V40Z" fill="#0C3847"/>
<path d="M41.7813 35.8699L39.9335 36.6353L40.6989 38.4831L42.5467 37.7177L41.7813 35.8699Z" fill="#0C3847"/>
<path d="M22.2197 46.1331L24.0675 45.3677L23.3021 43.5199L21.4543 44.2853L22.2197 46.1331Z" fill="#0C3847"/>
<path d="M37.6553 33.9278L39.0695 35.342L40.4837 33.9278L39.0695 32.5136L37.6553 33.9278Z" fill="#0C3847"/>
<path d="M26.3421 48.0761L24.9279 46.6619L23.5137 48.0761L24.9279 49.4903L26.3421 48.0761Z" fill="#0C3847"/>
<path d="M37.1361 31.2197L35.2883 30.4543L34.5229 32.3021L36.3707 33.0675L37.1361 31.2197Z" fill="#0C3847"/>
<path d="M29.4829 49.7007L27.6351 48.9353L26.8697 50.7831L28.7175 51.5485L29.4829 49.7007Z" fill="#0C3847"/>
<path d="M36 43C36 41.346 34.654 40 33 40H31C30.449 40 30 39.551 30 39C30 38.449 30.449 38 31 38H33H35V36H33V34H31V36C29.346 36 28 37.346 28 39C28 40.654 29.346 42 31 42H33C33.551 42 34 42.449 34 43C34 43.551 33.551 44 33 44H31H29V46H31V48H33V46C34.654 46 36 44.654 36 43Z" fill="white"/>
</svg>
