<svg width="64" height="64" viewBox="0 0 64 64" fill="none" xmlns="http://www.w3.org/2000/svg">
<path d="M46 58C46 59.103 45.103 60 44 60H18C16.897 60 16 59.103 16 58V50H34.78C35.329 50.609 36.117 51 37 51H46V58Z" fill="white"/>
<path d="M16 6C16 4.897 16.897 4 18 4H44C45.103 4 46 4.897 46 6V11H16V6Z" fill="white"/>
<path d="M44 3H31V61H44C45.657 61 47 59.657 47 58V6C47 4.343 45.657 3 44 3Z" fill="#DCDDDE"/>
<path d="M47 12H15V49H47V12Z" fill="white"/>
<path d="M31 16H1V32H31V16Z" fill="#67C18C"/>
<path d="M63 34V48C63 49.105 62.105 50 61 50H37C35.895 50 35 49.105 35 48V34C35 32.895 35.895 32 37 32H61C62.105 32 63 32.895 63 34Z" fill="#53B7E8"/>
<path d="M57 26H55V28H57V26Z" fill="#0C3847"/>
<path d="M57 22H55V24H57V22Z" fill="#0C3847"/>
<path d="M57 18H55V20H57V18Z" fill="#0C3847"/>
<path d="M57 14H55V16H57V14Z" fill="#0C3847"/>
<path d="M53 14H51V16H53V14Z" fill="#0C3847"/>
<path d="M7 48H5V50H7V48Z" fill="#0C3847"/>
<path d="M11 48H9V50H11V48Z" fill="#0C3847"/>
<path d="M7 44H5V46H7V44Z" fill="#0C3847"/>
<path d="M7 40H5V42H7V40Z" fill="#0C3847"/>
<path d="M7 36H5V38H7V36Z" fill="#0C3847"/>
<path d="M31 51C28.794 51 27 52.794 27 55C27 57.206 28.794 59 31 59C33.206 59 35 57.206 35 55C35 52.794 33.206 51 31 51ZM31 57C29.897 57 29 56.103 29 55C29 53.897 29.897 53 31 53C32.103 53 33 53.897 33 55C33 56.103 32.103 57 31 57Z" fill="#0C3847"/>
<path d="M36 7H26V9H36V7Z" fill="#0C3847"/>
<path d="M61 31H48V13V11V6C48 3.794 46.206 2 44 2H18C15.794 2 14 3.794 14 6V11V13V15H0V33H14V48V50V58C14 60.206 15.794 62 18 62H44C46.206 62 48 60.206 48 58V51H61C62.654 51 64 49.654 64 48V34C64 32.346 62.654 31 61 31ZM62 34V36H36V34C36 33.448 36.449 33 37 33H61C61.551 33 62 33.448 62 34ZM16 6C16 4.897 16.897 4 18 4H44C45.103 4 46 4.897 46 6V11H16V6ZM30 18.914C29.224 18.534 28.491 17.799 28.091 17H30V18.914ZM25.935 17L26.062 17.345C26.651 18.949 28.102 20.396 29.67 20.945L30 21.059V26.934L29.655 27.061C28.05 27.651 26.604 29.101 26.056 30.669L25.941 31H6.065L5.938 30.655C5.349 29.051 3.898 27.604 2.33 27.055L2 26.941V21.066L2.345 20.939C3.95 20.349 5.396 18.899 5.944 17.331L6.059 17H25.935ZM30 29.091V31H28.086C28.466 30.224 29.201 29.491 30 29.091ZM3.914 17C3.534 17.776 2.799 18.509 2 18.909V17H3.914ZM2 29.086C2.776 29.466 3.509 30.201 3.909 31H2V29.086ZM32 33V15H16V13H46V31H37C35.346 31 34 32.346 34 34V48H16V33H32ZM46 58C46 59.103 45.103 60 44 60H18C16.897 60 16 59.103 16 58V50H34.78C35.329 50.609 36.117 51 37 51H46V58ZM61 49H37C36.449 49 36 48.552 36 48V40H62V48C62 48.552 61.551 49 61 49Z" fill="#0C3847"/>
<path d="M25 23H23V25H25V23Z" fill="white"/>
<path d="M9 23H7V25H9V23Z" fill="white"/>
<path d="M16 29C18.757 29 21 26.757 21 24C21 21.243 18.757 19 16 19C13.243 19 11 21.243 11 24C11 26.757 13.243 29 16 29ZM16 21C17.654 21 19 22.346 19 24C19 25.654 17.654 27 16 27C14.346 27 13 25.654 13 24C13 22.346 14.346 21 16 21Z" fill="#0C3847"/>
<path d="M46 45H38V47H46V45Z" fill="white"/>
<path d="M52 45H48V47H52V45Z" fill="white"/>
<path d="M31 58C32.6569 58 34 56.6569 34 55C34 53.3431 32.6569 52 31 52C29.3431 52 28 53.3431 28 55C28 56.6569 29.3431 58 31 58Z" fill="white" stroke="#0C3847" stroke-width="0.316406" stroke-miterlimit="10" stroke-linecap="round"/>
<path d="M16 27C17.6569 27 19 25.6569 19 24C19 22.3431 17.6569 21 16 21C14.3431 21 13 22.3431 13 24C13 25.6569 14.3431 27 16 27Z" fill="white"/>
</svg>
