<svg width="64" height="64" viewBox="0 0 64 64" fill="none" xmlns="http://www.w3.org/2000/svg">
<path d="M8 10H19H21H31H33H44V21H31V17H21V21H8V10Z" fill="white"/>
<path d="M29 19V21V23V25H23V23V21V19H29Z" fill="white"/>
<path d="M18 38H12H8V23H21V27H31V23H44V24H37C34.243 24 32 26.243 32 29V38H18Z" fill="white"/>
<path d="M27 48H28V52H27H25V48H27Z" fill="white"/>
<path d="M26 9V18H30V26H26V27H21V28H24C25.105 28 26 28.895 26 30V39C32.3333 39 38.6667 39 45 39V25V9H26Z" fill="#DCDDDE"/>
<path d="M21 23H8V25H21V23Z" fill="#DCDDDE"/>
<path d="M24 53H12H8L2 50L8 47H24V53Z" fill="#007F61"/>
<path d="M27 21H25V23H27V21Z" fill="#0C3847"/>
<path d="M42 12H40V19H42V12Z" fill="#0C3847"/>
<path d="M12 12H10V19H12V12Z" fill="#0C3847"/>
<path d="M46 23V21V7.99997H33V2H19V7.99997H6V21V23V40H12V42H18V40H32H46V23ZM21 3.99997H31V7.99997H21V3.99997ZM8 9.99997H19H21H31H33H44V21H31V17H21V21H8V9.99997ZM29 19V21V23V25H23V23V21V19H29ZM18 38H12H8V23H21V27H31V23H44V38C35.3333 38 26.6667 38 18 38Z" fill="#0C3847"/>
<path d="M30 54V46H6.764L0 50L6.764 54H30ZM27 48H28V52H27H25V48H27ZM4 49.618L6 48.618V51.382L4 50.382V49.618ZM20 52H11H9H8V48H23V52H20Z" fill="#0C3847"/>
<path d="M45 32H43V34H45V32Z" fill="#0C3847"/>
<path d="M41 32H39V34H41V32Z" fill="#0C3847"/>
<path d="M59 29V41C59 42.105 58.105 43 57 43H37C35.895 43 35 42.105 35 41V29C35 27.895 35.895 27 37 27H57C58.105 27 59 27.895 59 29Z" fill="#343F97"/>
<path d="M46 38H38V40H46V38Z" fill="white"/>
<path d="M52 38H48V40H52V38Z" fill="white"/>
<path fill-rule="evenodd" clip-rule="evenodd" d="M57 26H37C35.346 26 34 27.346 34 29V41C34 42.654 35.346 44 37 44H57C58.654 44 60 42.654 60 41V29C60 27.346 58.654 26 57 26ZM58 29V30H36V29C36 28.448 36.449 28 37 28H57C57.551 28 58 28.448 58 29ZM57 42H37C36.449 42 36 41.552 36 41V34H58V41C58 41.552 57.551 42 57 42Z" fill="#0C3847"/>
</svg>
