<svg width="91" height="86" viewBox="0 0 91 86" fill="none" xmlns="http://www.w3.org/2000/svg">
<path d="M3 15.6958C3 12.3286 4.33759 9.09942 6.7185 6.7185C9.09942 4.33759 12.3286 3 15.6958 3H74.9413C76.6085 3 78.2594 3.32839 79.7998 3.96641C81.3401 4.60443 82.7397 5.53959 83.9186 6.7185C85.0975 7.89741 86.0326 9.29698 86.6707 10.8373C87.3087 12.3776 87.6371 14.0285 87.6371 15.6958V57.2273C87.6368 60.5943 86.2991 63.8232 83.9182 66.2039C81.5373 68.5846 78.3083 69.9221 74.9413 69.9221H54.9362L49.0369 80.787C48.6736 81.4564 48.1364 82.0154 47.4818 82.4049C46.8273 82.7944 46.0797 83 45.318 83C44.5564 83 43.8088 82.7944 43.1542 82.4049C42.4997 82.0154 41.9624 81.4564 41.5991 80.787L35.7009 69.9221H15.6958C12.3288 69.9221 9.09975 68.5846 6.71886 66.2039C4.33797 63.8232 3.00027 60.5943 3 57.2273V15.6958Z" stroke="#007F61" stroke-width="6" stroke-linecap="round" stroke-linejoin="round"/>
<path d="M45.3185 38.7355C57.0968 38.7355 60.9073 45.622 62.1393 50.0768C62.6947 52.0827 60.9963 53.782 58.8599 53.782H31.7771C29.6408 53.782 27.9424 52.0837 28.4977 50.0768C29.7308 45.62 33.5402 38.7355 45.3185 38.7355ZM45.3185 38.7355C47.8482 38.7714 50.2886 37.8012 52.1032 36.0383C53.9177 34.2753 54.9578 31.8639 54.9949 29.3343C54.9773 28.0812 54.7131 26.8438 54.2173 25.6929C53.7215 24.5419 53.0038 23.4999 52.1053 22.6263C51.2067 21.7527 50.1449 21.0647 48.9804 20.6016C47.8159 20.1384 46.5716 19.9092 45.3185 19.927C42.7884 19.8919 40.348 20.8633 38.5341 22.6275C36.7202 24.3917 35.6814 26.8042 35.6462 29.3343C35.683 31.8633 36.7225 34.2743 38.5362 36.0371C40.35 37.8 42.7895 38.7706 45.3185 38.7355V38.7355Z" stroke="#007F61" stroke-width="5" stroke-linecap="round" stroke-linejoin="round"/>
</svg>
