<svg width="61" height="80" viewBox="0 0 61 80" fill="none" xmlns="http://www.w3.org/2000/svg">
<path d="M60.2508 19.4363L41.5011 0.686724C41.0614 0.247302 40.4652 0.000323209 39.8435 0L7.02962 0C5.16571 0.00246233 3.37888 0.744104 2.06105 2.06225C0.743226 3.38039 0.0020139 5.1674 0 7.03131V72.9687C0.00201475 74.8329 0.743458 76.6202 2.06165 77.9384C3.37984 79.2565 5.16711 79.998 7.03131 80H53.9062C55.7704 79.998 57.5576 79.2565 58.8758 77.9384C60.194 76.6202 60.9355 74.8329 60.9375 72.9687V21.0939C60.9349 20.4727 60.6882 19.8774 60.2508 19.4363ZM42.187 8.0022L52.9353 18.7496H44.5314C43.91 18.7489 43.3144 18.5018 42.875 18.0625C42.4357 17.6231 42.1885 17.0274 42.1879 16.4061L42.187 8.0022ZM53.9062 75.3122H7.03131C6.40999 75.3115 5.8143 75.0644 5.37496 74.625C4.93561 74.1857 4.68849 73.59 4.68782 72.9687V7.03131C4.68849 6.40999 4.93561 5.8143 5.37496 5.37496C5.8143 4.93561 6.40999 4.6885 7.03131 4.68782H37.5001V16.407C37.5021 18.2712 38.2435 20.0584 39.5617 21.3766C40.8799 22.6948 42.6672 23.4363 44.5314 23.4383H56.2497V72.9687C56.249 73.59 56.0019 74.1857 55.5625 74.625C55.1232 75.0644 54.5275 75.3115 53.9062 75.3122Z" fill="#007F61"/>
<path d="M44.5314 33.1252H16.4061C15.7845 33.1252 15.1883 33.3721 14.7487 33.8117C14.3091 34.2512 14.0622 34.8474 14.0622 35.4691C14.0622 36.0907 14.3091 36.6869 14.7487 37.1265C15.1883 37.566 15.7845 37.813 16.4061 37.813H44.5314C45.153 37.813 45.7492 37.566 46.1888 37.1265C46.6283 36.6869 46.8753 36.0907 46.8753 35.4691C46.8753 34.8474 46.6283 34.2512 46.1888 33.8117C45.7492 33.3721 45.153 33.1252 44.5314 33.1252Z" fill="#007F61"/>
<path d="M44.5314 42.4999H16.4061C15.7845 42.4999 15.1883 42.7469 14.7487 43.1865C14.3091 43.626 14.0622 44.2222 14.0622 44.8439C14.0622 45.4655 14.3091 46.0617 14.7487 46.5012C15.1883 46.9408 15.7845 47.1878 16.4061 47.1878H44.5314C45.153 47.1878 45.7492 46.9408 46.1888 46.5012C46.6283 46.0617 46.8753 45.4655 46.8753 44.8439C46.8753 44.2222 46.6283 43.626 46.1888 43.1865C45.7492 42.7469 45.153 42.4999 44.5314 42.4999Z" fill="#007F61"/>
<path d="M44.5314 51.8748H16.4061C15.7845 51.8748 15.1883 52.1217 14.7487 52.5613C14.3091 53.0009 14.0622 53.597 14.0622 54.2187C14.0622 54.8403 14.3091 55.4365 14.7487 55.8761C15.1883 56.3156 15.7845 56.5626 16.4061 56.5626H44.5314C45.153 56.5626 45.7492 56.3156 46.1888 55.8761C46.6283 55.4365 46.8753 54.8403 46.8753 54.2187C46.8753 53.597 46.6283 53.0009 46.1888 52.5613C45.7492 52.1217 45.153 51.8748 44.5314 51.8748Z" fill="#007F61"/>
<path d="M35.1566 61.2495H16.407C15.7853 61.2495 15.1891 61.4965 14.7496 61.9361C14.31 62.3756 14.063 62.9718 14.063 63.5935C14.063 64.2151 14.31 64.8113 14.7496 65.2508C15.1891 65.6904 15.7853 65.9374 16.407 65.9374H35.1566C35.7782 65.9374 36.3744 65.6904 36.814 65.2508C37.2535 64.8113 37.5005 64.2151 37.5005 63.5935C37.5005 62.9718 37.2535 62.3756 36.814 61.9361C36.3744 61.4965 35.7782 61.2495 35.1566 61.2495Z" fill="#007F61"/>
</svg>
