<svg width="96" height="80" viewBox="0 0 96 80" fill="none" xmlns="http://www.w3.org/2000/svg">
<path d="M95.3106 30.3677L78.3022 1.38394C77.9276 0.74592 77.316 0.281866 76.6006 0.0929411C75.8853 -0.0959837 75.1242 0.00554228 74.4834 0.375384L64.2892 6.2632L55.1084 2.88502C53.6945 2.36292 52.1828 2.15901 50.6811 2.28781C49.1793 2.4166 47.7245 2.87494 46.4201 3.63018L32.4776 11.68L20.1173 4.54376C19.7921 4.35591 19.4325 4.23532 19.0597 4.18916C18.687 4.14301 18.3088 4.17221 17.9476 4.27506C17.5863 4.3779 17.2495 4.55228 16.9569 4.78784C16.6644 5.0234 16.4222 5.31533 16.2447 5.64631L0.334954 35.3077C-0.0108664 35.9501 -0.0926327 36.702 0.107021 37.4037C0.306675 38.1054 0.77202 38.7016 1.40422 39.0658L7.717 42.7103L4.55131 48.1937C3.73735 49.5997 3.34831 51.2115 3.43125 52.834C3.5142 54.4565 4.06557 56.0202 5.01866 57.3358C5.97175 58.6515 7.28571 59.6628 8.80154 60.2473C10.3174 60.8318 11.9701 60.9645 13.5598 60.6293C14.2018 62.5972 15.5487 64.2583 17.3413 65.2933C19.134 66.3283 21.246 66.664 23.2713 66.2361C23.9133 68.204 25.2602 69.8651 27.0529 70.9001C28.8455 71.935 30.9575 72.2708 32.9828 71.8429C33.487 73.3876 34.4281 74.7531 35.6922 75.7741C36.9564 76.7951 38.4894 77.4277 40.1057 77.5955C41.7219 77.7632 43.3522 77.4588 44.7991 76.7192C46.2459 75.9796 47.4474 74.8365 48.258 73.4281L48.6203 72.8005L59.1416 78.8714C60.3298 79.5584 61.6682 79.9439 63.0397 79.9943C64.4113 80.0448 65.7743 79.7586 67.0097 79.1607C68.2452 78.5629 69.3154 77.6717 70.127 76.5648C70.9385 75.458 71.4667 74.1693 71.6653 72.8113C72.8647 73.1283 74.1194 73.1758 75.3393 72.9505C76.5592 72.7252 77.7141 72.2326 78.7211 71.5081C79.7281 70.7836 80.5623 69.8451 81.1636 68.7601C81.765 67.675 82.1187 66.4703 82.1994 65.2324C83.7509 65.3176 85.2956 64.971 86.662 64.2311C88.0284 63.4912 89.1629 62.387 89.9395 61.0412C90.7161 59.6954 91.1044 58.1606 91.0612 56.6073C91.0181 55.0541 90.5451 53.5432 89.695 52.2426C90.8572 51.4669 91.8077 50.4136 92.4604 49.1782C93.1132 47.9427 93.4476 46.564 93.4336 45.1668C93.4195 43.7696 93.0573 42.3979 92.3797 41.1759C91.7022 39.9538 90.7306 38.92 89.553 38.1679L94.6761 33.9505C95.1909 33.5265 95.5376 32.9328 95.6539 32.2761C95.7702 31.6194 95.6485 30.9427 95.3106 30.3677ZM49.2235 8.48594C49.8163 8.14259 50.4776 7.93421 51.1602 7.87565C51.8428 7.81709 52.5299 7.90979 53.1725 8.14714L63.5861 11.9777C63.9719 12.1195 64.3841 12.1748 64.7936 12.1396C65.2031 12.1044 65.5999 11.9796 65.9557 11.774L74.8751 6.62452L89.2632 31.1422L84.3741 35.1686L50.7001 15.727C50.2739 15.4809 49.7905 15.3514 49.2984 15.3514C48.8063 15.3514 48.3229 15.4809 47.8967 15.727L32.3982 24.6718C32.0794 24.8559 31.7274 24.9753 31.3624 25.0234C30.9974 25.0714 30.6265 25.0471 30.2709 24.9518C29.9153 24.8565 29.582 24.6922 29.2899 24.468C28.9978 24.2439 28.7527 23.9645 28.5687 23.6456C28.3846 23.3268 28.2651 22.9748 28.2171 22.6098C28.169 22.2448 28.1933 21.8739 28.2886 21.5183C28.4811 20.8001 28.9509 20.1878 29.5948 19.816L49.2235 8.48594ZM10.4332 54.8227C9.78992 54.4504 9.32056 53.8381 9.12818 53.1202C8.93579 52.4022 9.03609 51.6373 9.40707 50.9932L14.0797 42.9002C14.4515 42.2563 15.0638 41.7865 15.782 41.594C16.5002 41.4016 17.2654 41.5023 17.9093 41.874C18.5532 42.2458 19.0231 42.8581 19.2155 43.5763C19.408 44.2945 19.3072 45.0597 18.9355 45.7036L14.2628 53.7966C13.8905 54.4399 13.2782 54.9092 12.5603 55.1016C11.8423 55.294 11.0773 55.1937 10.4332 54.8227ZM20.1448 60.4295C19.5014 60.0572 19.0321 59.4449 18.8397 58.727C18.6473 58.009 18.7476 57.244 19.1186 56.6L25.6566 45.2699C26.0285 44.6254 26.6411 44.1551 27.3598 43.9624C28.0784 43.7697 28.8442 43.8703 29.4886 44.2422C30.133 44.6141 30.6033 45.2267 30.7961 45.9454C30.9888 46.664 30.8881 47.4298 30.5162 48.0742L23.9743 59.4033C23.602 60.0467 22.9897 60.516 22.2718 60.7084C21.5538 60.9008 20.7889 60.8005 20.1448 60.4295ZM29.8563 66.0363C29.213 65.664 28.7436 65.0517 28.5512 64.3337C28.3588 63.6158 28.4591 62.8508 28.8301 62.2067L33.5028 54.1138C33.8745 53.4699 34.4868 53 35.205 52.8076C35.9232 52.6151 36.6884 52.7159 37.3323 53.0876C37.9762 53.4594 38.4461 54.0717 38.6386 54.7899C38.831 55.5081 38.7303 56.2733 38.3585 56.9172L33.6859 65.0141C33.3131 65.6569 32.7005 66.1256 31.9826 66.3174C31.2647 66.5093 30.5 66.4085 29.8563 66.0373V66.0363ZM39.5678 71.6431C38.9245 71.2708 38.4551 70.6585 38.2627 69.9405C38.0703 69.2226 38.1706 68.4576 38.5416 67.8135L41.345 62.9578C41.7168 62.3139 42.3291 61.844 43.0473 61.6516C43.7655 61.4591 44.5307 61.5598 45.1746 61.9316C45.8185 62.3033 46.2884 62.9157 46.4808 63.6339C46.6733 64.352 46.5725 65.1173 46.2008 65.7612L43.3974 70.6169C43.0252 71.2602 42.4132 71.7295 41.6954 71.9221C40.9777 72.1147 40.2129 72.0147 39.5688 71.6441L39.5678 71.6431ZM85.0772 58.2342C84.7049 58.8775 84.0926 59.3469 83.3746 59.5393C82.6567 59.7317 81.8917 59.6314 81.2476 59.2604L66.6843 50.8512C66.3654 50.6671 66.0135 50.5476 65.6484 50.4996C65.2834 50.4515 64.9126 50.4759 64.5569 50.5711C63.8388 50.7636 63.2264 51.2335 62.8547 51.8774C62.4829 52.5213 62.3822 53.2865 62.5746 54.0047C62.7671 54.7229 63.2369 55.3352 63.8809 55.7069L75.2031 62.2479C75.847 62.6196 76.3169 63.2319 76.5094 63.9501C76.7018 64.6683 76.6011 65.4335 76.2293 66.0774C75.8576 66.7214 75.2452 67.1912 74.5271 67.3837C73.8089 67.5761 73.0436 67.4754 72.3997 67.1036L61.0736 60.5627C60.7547 60.3786 60.4027 60.2591 60.0377 60.2111C59.6727 60.1631 59.3018 60.1874 58.9462 60.2827C58.5906 60.3779 58.2573 60.5423 57.9652 60.7665C57.6731 60.9906 57.428 61.27 57.244 61.5889C57.0599 61.9077 56.9404 62.2597 56.8924 62.6247C56.8443 62.9897 56.8686 63.3606 56.9639 63.7162C57.0592 64.0718 57.2236 64.4052 57.4477 64.6972C57.6719 64.9893 57.9513 65.2344 58.2702 65.4185L64.7445 69.157C65.3884 69.5287 65.8583 70.141 66.0507 70.8592C66.2432 71.5774 66.1424 72.3426 65.7707 72.9865C65.3989 73.6305 64.7866 74.1003 64.0684 74.2928C63.3502 74.4852 62.585 74.3845 61.9411 74.0127L51.3914 67.9222C51.9716 66.6833 52.2406 65.3215 52.175 63.955C52.1095 62.5885 51.7113 61.2587 51.0151 60.081C50.3189 58.9034 49.3458 57.9135 48.1802 57.1973C47.0146 56.4811 45.6918 56.0602 44.3266 55.9713C44.4484 53.7613 43.693 51.5925 42.2244 49.9364C40.7559 48.2803 38.6931 47.2708 36.4844 47.1274C36.5693 45.5768 36.2229 44.0329 35.4837 42.6672C34.7445 41.3016 33.6413 40.1674 32.2966 39.3906C30.9519 38.6138 29.4183 38.2247 27.866 38.2666C26.3136 38.3085 24.8032 38.7796 23.5024 39.6278C22.8324 38.6242 21.9541 37.7767 20.9273 37.1428C19.9005 36.509 18.7492 36.1036 17.5518 35.9544C16.3543 35.8052 15.1388 35.9156 13.9879 36.2781C12.8369 36.6407 11.7775 37.2468 10.8817 38.0552L6.56254 35.5642L19.8187 10.8458L26.8688 14.9172L26.7895 14.9632C25.833 15.5154 24.9946 16.2507 24.3223 17.1269C23.6499 18.0031 23.1567 19.0032 22.8708 20.07C22.585 21.1368 22.512 22.2495 22.6562 23.3445C22.8003 24.4396 23.1587 25.4954 23.7109 26.4519C24.2632 27.4084 24.9984 28.2468 25.8746 28.9192C26.7508 29.5915 27.7509 30.0847 28.8177 30.3706C29.8845 30.6565 30.9972 30.7294 32.0923 30.5853C33.1873 30.4411 34.2432 30.0827 35.1997 29.5305L49.2999 21.3915L86.4216 42.8248C86.7406 43.009 87.0201 43.2541 87.2444 43.5463C87.4686 43.8385 87.633 44.172 87.7284 44.5277C87.8237 44.8835 87.8481 45.2545 87.8 45.6197C87.7519 45.9848 87.6324 46.3369 87.4483 46.6559C87.2641 46.9748 87.019 47.2544 86.7268 47.4786C86.4346 47.7029 86.1011 47.8673 85.7454 47.9627C85.3896 48.058 85.0186 48.0823 84.6534 48.0343C84.2883 47.9862 83.9362 47.8667 83.6172 47.6825L72.2871 41.1397C71.9683 40.9556 71.6163 40.8361 71.2513 40.7881C70.8863 40.74 70.5154 40.7643 70.1598 40.8596C69.4416 41.0521 68.8293 41.5219 68.4576 42.1658C68.0858 42.8098 67.9851 43.575 68.1775 44.2932C68.37 45.0113 68.8398 45.6237 69.4837 45.9954L84.051 54.4056C84.6943 54.7779 85.1637 55.3902 85.3561 56.1082C85.5485 56.8261 85.4482 57.5911 85.0772 58.2352V58.2342Z" fill="#007F61"/>
</svg>
