<svg width="84" height="80" viewBox="0 0 84 80" fill="none" xmlns="http://www.w3.org/2000/svg">
<path d="M11.8176 50.9088H2.72707C2.00388 50.9085 1.31039 50.6211 0.799016 50.1098C0.287646 49.5984 0.000250021 48.9049 0 48.1817L0 43.636C0.00174797 41.9488 0.672745 40.3312 1.86575 39.1382C3.05875 37.9452 4.67631 37.2742 6.36348 37.2725H8.18215C8.42316 37.2722 8.65421 37.1763 8.82454 37.0058C8.99487 36.8353 9.09055 36.6042 9.09055 36.3632V35.4538C9.09055 35.2128 8.99487 34.9817 8.82454 34.8112C8.65421 34.6406 8.42316 34.5447 8.18215 34.5445H2.72707C2.00381 34.5445 1.31016 34.2572 0.79874 33.7457C0.287315 33.2343 0 32.5407 0 31.8174C0 31.0941 0.287315 30.4005 0.79874 29.8891C1.31016 29.3776 2.00381 29.0903 2.72707 29.0903H8.18215C9.86931 29.0921 11.4869 29.7631 12.6799 30.9561C13.8729 32.1491 14.5439 33.7666 14.5456 35.4538V36.3632C14.5439 38.0503 13.8729 39.6679 12.6799 40.8609C11.4869 42.0539 9.86931 42.7249 8.18215 42.7266H6.36348C6.12247 42.7269 5.89142 42.8228 5.72109 42.9933C5.55076 43.1638 5.45508 43.395 5.45508 43.636V45.4546H11.8186C12.5418 45.4546 13.2355 45.742 13.7469 46.2534C14.2583 46.7648 14.5456 47.4585 14.5456 48.1817C14.5456 48.905 14.2583 49.5986 13.7469 50.11C13.2355 50.6215 12.5418 50.9088 11.8186 50.9088H11.8176Z" fill="#007F61"/>
<path d="M8.18215 71.8178H4.54574C3.82248 71.8178 3.12884 71.5305 2.61742 71.0191C2.10599 70.5077 1.81868 69.814 1.81868 69.0908C1.81868 68.3675 2.10599 67.6739 2.61742 67.1624C3.12884 66.651 3.82248 66.3637 4.54574 66.3637H8.18215C8.42316 66.3635 8.65421 66.2675 8.82454 66.097C8.99487 65.9265 9.09055 65.6954 9.09055 65.4544V64.546C9.09067 64.4266 9.06726 64.3084 9.02167 64.1981C8.97607 64.0877 8.90918 63.9875 8.82482 63.903C8.74045 63.8186 8.64027 63.7516 8.53 63.7059C8.41972 63.6602 8.30152 63.6366 8.18215 63.6366H2.72707C2.00381 63.6366 1.31016 63.3493 0.79874 62.8379C0.287315 62.3265 0 61.6328 0 60.9096C0 60.1863 0.287315 59.4926 0.79874 58.9812C1.31016 58.4698 2.00381 58.1825 2.72707 58.1825H8.18215C9.86931 58.1842 11.4869 58.8552 12.6799 60.0482C13.8729 61.2413 14.5439 62.8588 14.5456 64.546V65.4544C14.5439 67.1415 13.8729 68.7591 12.6799 69.9521C11.4869 71.1451 9.86931 71.8161 8.18215 71.8178Z" fill="#007F61"/>
<path d="M8.18215 80H2.72707C2.00381 80 1.31016 79.7127 0.79874 79.2013C0.287315 78.6898 0 77.9962 0 77.2729C0 76.5497 0.287315 75.856 0.79874 75.3446C1.31016 74.8332 2.00381 74.5459 2.72707 74.5459H8.18215C8.42316 74.5456 8.65421 74.4497 8.82454 74.2792C8.99487 74.1087 9.09055 73.8775 9.09055 73.6365V72.7272C9.09067 72.6078 9.06726 72.4896 9.02167 72.3793C8.97607 72.2689 8.90918 72.1687 8.82482 72.0843C8.74045 71.9998 8.64027 71.9328 8.53 71.8871C8.41972 71.8414 8.30152 71.8179 8.18215 71.8179H4.54574C3.82248 71.8179 3.12884 71.5305 2.61742 71.0191C2.10599 70.5077 1.81868 69.814 1.81868 69.0908C1.81868 68.3675 2.10599 67.6739 2.61742 67.1624C3.12884 66.651 3.82248 66.3637 4.54574 66.3637H8.18215C9.86931 66.3655 11.4869 67.0365 12.6799 68.2295C13.8729 69.4225 14.5439 71.04 14.5456 72.7272V73.6356C14.5441 75.3229 13.8732 76.9407 12.6802 78.1339C11.4872 79.3271 9.86948 79.9982 8.18215 80Z" fill="#007F61"/>
<path d="M8.18215 21.8175C7.4588 21.8175 6.76506 21.5302 6.25349 21.0188C5.74191 20.5074 5.45439 19.8138 5.45414 19.0904V5.45414H2.72707C2.00381 5.45414 1.31016 5.16682 0.79874 4.6554C0.287315 4.14397 0 3.45033 0 2.72707C0 2.00381 0.287315 1.31016 0.79874 0.79874C1.31016 0.287315 2.00381 0 2.72707 0H8.18215C8.90534 0.000250021 9.59883 0.287646 10.1102 0.799016C10.6216 1.31039 10.909 2.00388 10.9092 2.72707V19.0904C10.909 19.8136 10.6216 20.5071 10.1102 21.0185C9.59883 21.5299 8.90534 21.8172 8.18215 21.8175Z" fill="#007F61"/>
<path d="M80.9084 15.454H24.5446C23.8213 15.454 23.1277 15.1667 22.6162 14.6553C22.1048 14.1439 21.8175 13.4502 21.8175 12.7269C21.8175 12.0037 22.1048 11.31 22.6162 10.7986C23.1277 10.2872 23.8213 9.99988 24.5446 9.99988H80.9075C81.6307 9.99988 82.3244 10.2872 82.8358 10.7986C83.3472 11.31 83.6345 12.0037 83.6345 12.7269C83.6345 13.4502 83.3472 14.1439 82.8358 14.6553C82.3244 15.1667 81.6307 15.454 80.9075 15.454H80.9084Z" fill="#007F61"/>
<path d="M80.9084 44.5453H24.5446C23.8213 44.5453 23.1277 44.2579 22.6162 43.7465C22.1048 43.2351 21.8175 42.5415 21.8175 41.8182C21.8175 41.0949 22.1048 40.4013 22.6162 39.8899C23.1277 39.3784 23.8213 39.0911 24.5446 39.0911H80.9075C81.6307 39.0911 82.3244 39.3784 82.8358 39.8899C83.3472 40.4013 83.6345 41.0949 83.6345 41.8182C83.6345 42.5415 83.3472 43.2351 82.8358 43.7465C82.3244 44.2579 81.6307 44.5453 80.9075 44.5453H80.9084Z" fill="#007F61"/>
<path d="M80.9084 73.6356H24.5446C23.8213 73.6356 23.1277 73.3483 22.6162 72.8369C22.1048 72.3254 21.8175 71.6318 21.8175 70.9085C21.8175 70.1853 22.1048 69.4916 22.6162 68.9802C23.1277 68.4688 23.8213 68.1815 24.5446 68.1815H80.9075C81.6307 68.1815 82.3244 68.4688 82.8358 68.9802C83.3472 69.4916 83.6345 70.1853 83.6345 70.9085C83.6345 71.6318 83.3472 72.3254 82.8358 72.8369C82.3244 73.3483 81.6307 73.6356 80.9075 73.6356H80.9084Z" fill="#007F61"/>
</svg>
