<svg width="76" height="73" viewBox="0 0 76 73" fill="none" xmlns="http://www.w3.org/2000/svg">
<path d="M69.6651 33.2494H56.9989C56.5789 33.2494 56.1761 33.0825 55.8791 32.7855C55.5822 32.4886 55.4153 32.0858 55.4153 31.6658C55.4104 27.4683 53.7407 23.4441 50.7726 20.476C47.8045 17.5079 43.7803 15.8382 39.5828 15.8333C39.1628 15.8333 38.7601 15.6664 38.4631 15.3695C38.1661 15.0725 37.9993 14.6697 37.9993 14.2497V1.58356C37.9993 1.16358 38.1661 0.76079 38.4631 0.463815C38.7601 0.166839 39.1628 0 39.5828 0C47.9782 0.00951154 56.027 3.34877 61.9634 9.2852C67.8998 15.2216 71.2391 23.2704 71.2486 31.6658C71.2486 31.8737 71.2077 32.0797 71.1281 32.2718C71.0485 32.4639 70.9318 32.6385 70.7848 32.7855C70.6378 32.9326 70.4632 33.0492 70.2711 33.1288C70.0789 33.2084 69.873 33.2494 69.6651 33.2494ZM58.5153 30.0822H68.0377C67.64 23.0842 64.6809 16.4773 59.7245 11.521C54.7682 6.56462 48.1613 3.60552 41.1633 3.20775V12.7341C45.6373 13.1141 49.833 15.0637 53.0084 18.2384C56.1837 21.413 58.1343 25.6082 58.5153 30.0822Z" fill="#007F61"/>
<path d="M31.6658 72.8314C23.2675 72.8314 15.2132 69.4952 9.2747 63.5567C3.33621 57.6182 7.62939e-06 49.5639 7.62939e-06 41.1656C7.62939e-06 32.7673 3.33621 24.713 9.2747 18.7745C15.2132 12.836 23.2675 9.49982 31.6658 9.49982C32.0858 9.49982 32.4886 9.66666 32.7855 9.96363C33.0825 10.2606 33.2494 10.6634 33.2494 11.0834V23.7495C33.2494 24.1695 33.0825 24.5723 32.7855 24.8693C32.4886 25.1663 32.0858 25.3331 31.6658 25.3331C29.0624 25.3341 26.4994 25.9771 24.2037 27.2052C21.9081 28.4332 19.9507 30.2083 18.5049 32.3734C17.0591 34.5384 16.1695 37.0266 15.9148 39.6176C15.6601 42.2085 16.0483 44.8223 17.0449 47.2274C18.0415 49.6325 19.6158 51.7548 21.6284 53.4063C23.6409 55.0578 26.0297 56.1875 28.5831 56.6954C31.1365 57.2033 33.7758 57.0738 36.2672 56.3182C38.7585 55.5627 41.0252 54.2045 42.8664 52.3638C43.1642 52.0676 43.5673 51.9013 43.9874 51.9013C44.4076 51.9013 44.8106 52.0676 45.1085 52.3638L54.0693 61.3238C54.3659 61.6209 54.5325 62.0235 54.5325 62.4433C54.5325 62.8631 54.3659 63.2658 54.0693 63.5628C51.1334 66.5125 47.6417 68.8506 43.7961 70.4415C39.9505 72.0325 35.8275 72.8448 31.6658 72.8314ZM30.0822 12.7107C25.5378 12.9662 21.1207 14.3065 17.2005 16.6193C13.2803 18.9321 9.9711 22.1503 7.54979 26.0044C5.12848 29.8585 3.66552 34.2366 3.28332 38.7721C2.90112 43.3076 3.6108 47.8687 5.35298 52.0737C7.09516 56.2787 9.81915 60.0052 13.297 62.9415C16.7749 65.8777 20.9054 67.9383 25.343 68.9507C29.7806 69.9631 34.3961 69.8979 38.8033 68.7606C43.2105 67.6233 47.2812 65.4469 50.6748 62.4136L43.9398 55.6755C41.6564 57.6071 38.9494 58.9725 36.0388 59.6605C33.1282 60.3485 30.0963 60.3397 27.1898 59.6349C24.2832 58.93 21.5841 57.5491 19.312 55.6043C17.0398 53.6595 15.2589 51.2058 14.1139 48.4428C12.969 45.6799 12.4925 42.6856 12.7231 39.7038C12.9537 36.7219 13.8849 33.8365 15.4411 31.2825C16.9972 28.7284 19.1342 26.5777 21.6784 25.0054C24.2225 23.4331 27.1019 22.4835 30.0822 22.2339V12.7107Z" fill="#007F61"/>
<path d="M65.612 62.4457C65.1919 62.4456 64.7889 62.2793 64.4909 61.9832L55.5294 53.0216C55.2331 52.7237 55.0668 52.3207 55.0668 51.9006C55.0668 51.4804 55.2331 51.0774 55.5294 50.7795C57.0046 49.3126 58.1739 47.5676 58.9697 45.6454C59.7655 43.7233 60.1718 41.6624 60.1652 39.582C60.1654 39.1623 60.3323 38.7599 60.6291 38.4631C60.9258 38.1663 61.3283 37.9995 61.748 37.9993H74.415C74.8349 37.9993 75.2377 38.1661 75.5347 38.4631C75.8317 38.7601 75.9985 39.1628 75.9985 39.5828C76.0121 43.7441 75.1998 47.8668 73.6087 51.7119C72.0175 55.557 69.6792 59.0482 66.7292 61.9832C66.5833 62.1316 66.4093 62.2495 66.2173 62.33C66.0254 62.4104 65.8194 62.4519 65.6112 62.4519L65.612 62.4457ZM58.845 51.8529L65.58 58.5911C69.9088 53.7805 72.4532 47.6285 72.7869 41.1656H63.2652C62.9511 45.1039 61.4045 48.8433 58.845 51.8529Z" fill="#007F61"/>
</svg>
