<svg width="80" height="81" viewBox="0 0 80 81" fill="none" xmlns="http://www.w3.org/2000/svg">
<path d="M77.9373 25.1776C76.6175 23.8607 74.8292 23.121 72.9647 23.121C71.1002 23.121 69.3118 23.8607 67.992 25.1776L60.94 32.2355V13.6608C60.9426 12.737 60.7619 11.8219 60.4084 10.9684C60.0549 10.1149 59.5356 9.33999 58.8805 8.68855L52.2531 2.05944C51.6016 1.40432 50.8265 0.88497 49.9729 0.531461C49.1193 0.177953 48.204 -0.00268804 47.28 -9.75024e-07H7.0317C5.1674 0.00201389 3.38003 0.743499 2.06176 2.06176C0.7435 3.38002 0.00201486 5.16739 0 7.0317V72.9727C0.00201486 74.837 0.7435 76.6244 2.06176 77.9426C3.38003 79.2609 5.1674 80.0024 7.0317 80.0044H53.9091C55.7734 80.0024 57.5608 79.2609 58.8791 77.9426C60.1973 76.6244 60.9388 74.837 60.9408 72.9727V52.1322L77.9407 35.1213C78.5939 34.4684 79.1119 33.6932 79.4653 32.84C79.8186 31.9867 80.0003 31.0722 80 30.1487C79.9997 29.2252 79.8174 28.3109 79.4634 27.4579C79.1095 26.6049 78.5909 25.83 77.9373 25.1776ZM46.8774 4.68808C47.2501 4.64455 47.6277 4.68351 47.9836 4.80219C48.3395 4.92088 48.6649 5.11638 48.9369 5.37484L55.566 12.0048C55.8245 12.2767 56.02 12.6022 56.1386 12.9581C56.2573 13.314 56.2963 13.6916 56.2527 14.0642H46.8774V4.68808ZM56.2527 72.9727C56.2521 73.5941 56.0049 74.1898 55.5656 74.6291C55.1262 75.0685 54.5305 75.3156 53.9091 75.3163H7.0317C6.41034 75.3156 5.81462 75.0685 5.37525 74.6291C4.93588 74.1898 4.68875 73.5941 4.68808 72.9727V7.0317C4.68875 6.41034 4.93588 5.81462 5.37525 5.37525C5.81462 4.93588 6.41034 4.68875 7.0317 4.68808H42.1885V16.4079C42.1885 16.7156 42.2491 17.0204 42.3669 17.3047C42.4847 17.5891 42.6573 17.8474 42.8749 18.065C43.0926 18.2827 43.3509 18.4553 43.6353 18.5731C43.9196 18.6909 44.2244 18.7515 44.5321 18.7515H56.2527V36.927L49.3378 43.8479L46.0249 47.1616C45.7675 47.4188 45.5734 47.7324 45.4582 48.0776L42.1437 58.0196C42.0058 58.4326 41.9856 58.8759 42.0856 59.2997C42.1855 59.7235 42.4015 60.1111 42.7094 60.419C43.0174 60.7269 43.405 60.943 43.8288 61.0429C44.2526 61.1428 44.6959 61.1227 45.1089 60.9848L55.0526 57.6728C55.3978 57.5576 55.7114 57.3636 55.9686 57.1061L56.2527 56.8219V72.9761V72.9727ZM50.9963 48.8193L54.3109 52.1339L53.0422 53.4025L48.0733 55.0594L49.7302 50.0871L50.9963 48.8193ZM57.6254 48.8193L54.3109 45.5022L65.5773 34.2273L68.8919 37.5419L57.6254 48.8193ZM74.6253 31.8084L72.209 34.2265L68.8944 30.9119L71.3116 28.493C71.5293 28.2754 71.7877 28.1029 72.0721 27.9851C72.3565 27.8674 72.6613 27.8069 72.9691 27.807C73.2769 27.807 73.5816 27.8677 73.8659 27.9856C74.1503 28.1035 74.4086 28.2762 74.6262 28.4939C74.8438 28.7115 75.0163 28.97 75.134 29.2544C75.2517 29.5387 75.3123 29.8435 75.3122 30.1513C75.3121 30.4591 75.2514 30.7639 75.1336 31.0482C75.0157 31.3325 74.843 31.5908 74.6253 31.8084Z" fill="#007F61"/>
<path d="M44.5338 23.4387H11.7181C11.0964 23.4387 10.5002 23.6857 10.0606 24.1253C9.62099 24.5649 9.37402 25.1611 9.37402 25.7828C9.37402 26.4044 9.62099 27.0007 10.0606 27.4402C10.5002 27.8798 11.0964 28.1268 11.7181 28.1268H44.5338C45.1555 28.1268 45.7517 27.8798 46.1913 27.4402C46.6309 27.0007 46.8778 26.4044 46.8778 25.7828C46.8778 25.1611 46.6309 24.5649 46.1913 24.1253C45.7517 23.6857 45.1555 23.4387 44.5338 23.4387Z" fill="#007F61"/>
<path d="M35.1559 32.814H11.7189C11.0972 32.814 10.501 33.061 10.0614 33.5006C9.62184 33.9402 9.37488 34.5364 9.37488 35.1581C9.37488 35.7797 9.62184 36.376 10.0614 36.8156C10.501 37.2551 11.0972 37.5021 11.7189 37.5021H35.1559C35.7776 37.5021 36.3738 37.2551 36.8134 36.8156C37.253 36.376 37.5 35.7797 37.5 35.1581C37.5 34.5364 37.253 33.9402 36.8134 33.5006C36.3738 33.061 35.7776 32.814 35.1559 32.814Z" fill="#007F61"/>
<path d="M35.1559 42.1893H11.7189C11.0972 42.1893 10.501 42.4363 10.0614 42.8759C9.62184 43.3155 9.37488 43.9117 9.37488 44.5334C9.37488 45.1551 9.62184 45.7513 10.0614 46.1909C10.501 46.6305 11.0972 46.8774 11.7189 46.8774H35.1559C35.7776 46.8774 36.3738 46.6305 36.8134 46.1909C37.253 45.7513 37.5 45.1551 37.5 44.5334C37.5 43.9117 37.253 43.3155 36.8134 42.8759C36.3738 42.4363 35.7776 42.1893 35.1559 42.1893Z" fill="#007F61"/>
<path d="M35.1559 51.5655H11.7189C11.0972 51.5655 10.501 51.8125 10.0614 52.2521C9.62184 52.6917 9.37488 53.2879 9.37488 53.9096C9.37488 54.5312 9.62184 55.1274 10.0614 55.567C10.501 56.0066 11.0972 56.2536 11.7189 56.2536H35.1559C35.7776 56.2536 36.3738 56.0066 36.8134 55.567C37.253 55.1274 37.5 54.5312 37.5 53.9096C37.5 53.2879 37.253 52.6917 36.8134 52.2521C36.3738 51.8125 35.7776 51.5655 35.1559 51.5655Z" fill="#007F61"/>
<path d="M44.5338 65.941H30.4704C29.8487 65.941 29.2525 66.188 28.8129 66.6276C28.3733 67.0672 28.1263 67.6634 28.1263 68.285C28.1263 68.9067 28.3733 69.5029 28.8129 69.9425C29.2525 70.3821 29.8487 70.6291 30.4704 70.6291H44.5338C45.1555 70.6291 45.7517 70.3821 46.1913 69.9425C46.6309 69.5029 46.8778 68.9067 46.8778 68.285C46.8778 67.6634 46.6309 67.0672 46.1913 66.6276C45.7517 66.188 45.1555 65.941 44.5338 65.941Z" fill="#007F61"/>
</svg>
