<svg width="95" height="86" viewBox="0 0 95 86" fill="none" xmlns="http://www.w3.org/2000/svg">
<path d="M83.0028 20.7783H11.8896C9.53195 20.7783 7.27084 21.7149 5.60371 23.382C3.93658 25.0491 3 27.3103 3 29.6679V74.1132C3.0005 76.4705 3.93733 78.731 5.60443 80.3976C7.27153 82.0641 9.53236 83.0003 11.8896 83H83.0028C84.1703 83.0001 85.3263 82.7703 86.4049 82.3236C87.4835 81.8769 88.4635 81.2221 89.289 80.3966C90.1145 79.5711 90.7693 78.591 91.216 77.5124C91.6627 76.4338 91.8926 75.2778 91.8924 74.1104V29.6679C91.8926 28.5005 91.6627 27.3445 91.216 26.2659C90.7693 25.1873 90.1145 24.2072 89.289 23.3817C88.4635 22.5562 87.4835 21.9014 86.4049 21.4547C85.3263 21.008 84.1703 20.7782 83.0028 20.7783V20.7783Z" stroke="#007F61" stroke-width="5" stroke-linecap="round" stroke-linejoin="round"/>
<path d="M3 40.7795H91.8924" stroke="#007F61" stroke-width="5" stroke-linecap="round" stroke-linejoin="round"/>
<path d="M38.5566 48.983H56.3349" stroke="#007F61" stroke-width="5" stroke-linecap="round" stroke-linejoin="round"/>
<path d="M65.2245 20.7783V11.8896C65.2245 9.53211 64.2881 7.27114 62.6211 5.60404C60.9542 3.93694 58.6933 3.00025 56.3358 3H38.5575C36.1999 3 33.9387 3.93658 32.2716 5.60371C30.6045 7.27084 29.6679 9.53195 29.6679 11.8896V20.7792" stroke="#007F61" stroke-width="5" stroke-linecap="round" stroke-linejoin="round"/>
</svg>
