<svg width="72" height="72" viewBox="0 0 72 72" fill="none" xmlns="http://www.w3.org/2000/svg">
<path d="M40.3729 44.7493C39.9859 44.7493 39.6147 44.5961 39.3402 44.3232L21.8412 26.8205C21.7057 26.6849 21.5982 26.524 21.5249 26.347C21.4516 26.1699 21.4138 25.9801 21.4138 25.7885C21.4138 25.4014 21.5676 25.0302 21.8412 24.7564C22.1148 24.4827 22.486 24.329 22.873 24.329C23.26 24.329 23.6311 24.4827 23.9048 24.7564L41.4038 42.2592C41.6075 42.463 41.7462 42.7225 41.8025 43.0051C41.8587 43.2877 41.8299 43.5806 41.7197 43.8468C41.6096 44.1131 41.423 44.3406 41.1836 44.5008C40.9441 44.661 40.6626 44.7466 40.3745 44.7468L40.3729 44.7493Z" fill="#007F61" stroke="#007F61"/>
<path d="M2.46398 65.1664C2.24809 65.1667 2.03484 65.119 1.83962 65.0268C1.64439 64.9346 1.47208 64.8002 1.33513 64.6333C1.19818 64.4664 1.1 64.2711 1.0477 64.0616C0.995397 63.8521 0.99027 63.6336 1.03269 63.4219L6.86598 34.255C6.93622 33.8881 7.14591 33.5627 7.45098 33.3471C7.75605 33.1316 8.13276 33.0427 8.50198 33.0991C11.4467 33.512 14.447 33.2376 17.268 32.2975C20.0891 31.3573 22.6543 29.7769 24.7629 27.6799C25.0365 27.4062 25.4077 27.2524 25.7947 27.2524C26.1817 27.2524 26.5528 27.4062 26.8265 27.6799C27.1001 27.9536 27.2538 28.3248 27.2538 28.7119C27.2538 29.099 27.1001 29.4702 26.8265 29.7439C24.5623 31.9951 21.8397 33.7316 18.844 34.8354C15.8483 35.9391 12.65 36.384 9.4669 36.1398L4.32202 61.8499L30.0299 56.7081C29.7847 53.5242 30.229 50.3249 31.3326 47.3284C32.4361 44.3319 34.1729 41.6088 36.4245 39.3448C36.56 39.2093 36.7209 39.1018 36.8979 39.0285C37.0749 38.9551 37.2647 38.9174 37.4563 38.9174C37.6479 38.9174 37.8377 38.9551 38.0147 39.0285C38.1917 39.1018 38.3526 39.2093 38.4881 39.3448C38.6236 39.4804 38.7311 39.6412 38.8044 39.8183C38.8777 39.9954 38.9155 40.1852 38.9155 40.3768C38.9155 40.5685 38.8777 40.7583 38.8044 40.9353C38.7311 41.1124 38.6236 41.2733 38.4881 41.4088C36.3904 43.5171 34.8095 46.0828 33.8695 48.9046C32.9294 51.7265 32.6558 54.7278 33.07 57.6732C33.1231 58.042 33.0328 58.4172 32.8179 58.7215C32.603 59.0259 32.2796 59.2363 31.9144 59.3096L2.7504 65.14C2.6562 65.1574 2.56061 65.1663 2.4648 65.1664H2.46398Z" fill="#007F61" stroke="#007F61"/>
<path d="M2.46344 65.1704C2.17425 65.1717 1.89121 65.0869 1.65037 64.9267C1.40953 64.7666 1.22178 64.5384 1.11104 64.2712C1.0003 64.004 0.971578 63.7098 1.02853 63.4262C1.08548 63.1426 1.22552 62.8824 1.43083 62.6787L13.8246 50.2823C13.9601 50.1467 14.121 50.0392 14.298 49.9659C14.475 49.8925 14.6648 49.8548 14.8564 49.8548C15.048 49.8548 15.2378 49.8925 15.4148 49.9659C15.5918 50.0392 15.7527 50.1467 15.8882 50.2823C16.0237 50.4178 16.1312 50.5787 16.2045 50.7558C16.2778 50.9328 16.3156 51.1226 16.3156 51.3143C16.3156 51.5059 16.2778 51.6957 16.2045 51.8728C16.1312 52.0499 16.0237 52.2108 15.8882 52.3463L3.49275 64.7411C3.35764 64.8763 3.19717 64.9836 3.02054 65.0567C2.84391 65.1298 2.6546 65.1673 2.46344 65.1671V65.1704Z" fill="#007F61" stroke="#007F61"/>
<path d="M18.5027 53.4988C17.3491 53.4988 16.2215 53.1566 15.2624 52.5156C14.3032 51.8746 13.5556 50.9635 13.1142 49.8975C12.6728 48.8316 12.5573 47.6586 12.7823 46.527C13.0073 45.3953 13.5628 44.3559 14.3785 43.54C15.1942 42.7242 16.2335 42.1686 17.3648 41.9435C18.4962 41.7184 19.6689 41.8339 20.7347 42.2754C21.8004 42.717 22.7113 43.4647 23.3522 44.424C23.9931 45.3834 24.3352 46.5113 24.3352 47.6651C24.3336 49.2118 23.7186 50.6947 22.6252 51.7884C21.5317 52.8821 20.0491 53.4973 18.5027 53.4988ZM18.5027 44.7474C17.926 44.7476 17.3623 44.9187 16.8829 45.2393C16.4035 45.5598 16.0298 46.0153 15.8092 46.5482C15.5885 47.0811 15.5308 47.6675 15.6433 48.2332C15.7558 48.7989 16.0334 49.3186 16.4411 49.7265C16.8489 50.1344 17.3683 50.4122 17.9339 50.5249C18.4994 50.6376 19.0857 50.58 19.6186 50.3595C20.1514 50.1389 20.6069 49.7653 20.9275 49.2859C21.2481 48.8064 21.4194 48.2427 21.4198 47.6659C21.4184 46.8926 21.1107 46.1513 20.5639 45.6045C20.0171 45.0578 19.2759 44.7501 18.5027 44.749V44.7474Z" fill="#007F61" stroke="#007F61"/>
<path d="M37.4561 41.8322C37.1549 41.8324 36.861 41.7394 36.6148 41.566C36.3685 41.3925 36.182 41.1471 36.0807 40.8634C35.9794 40.5797 35.9684 40.2716 36.0491 39.9813C36.1299 39.6911 36.2984 39.433 36.5316 39.2423L68.6085 12.9939C68.9093 12.7599 69.2897 12.6527 69.6683 12.6955C70.047 12.7382 70.394 12.9274 70.635 13.2227C70.8761 13.5179 70.9921 13.8957 70.9583 14.2754C70.9245 14.655 70.7436 15.0064 70.4542 15.2544L38.3773 41.5086C38.1172 41.7205 37.7915 41.8349 37.4561 41.8322Z" fill="#007F61" stroke="#007F61"/>
<path d="M25.7908 30.1657C25.5174 30.1667 25.2492 30.0908 25.0169 29.9466C24.7845 29.8024 24.5974 29.5958 24.4769 29.3503C24.3564 29.1049 24.3073 28.8304 24.3353 28.5584C24.3633 28.2863 24.4672 28.0277 24.6352 27.8119L45.0513 1.56183C45.1691 1.41075 45.3155 1.28435 45.4821 1.18984C45.6487 1.09534 45.8323 1.03459 46.0224 1.01105C46.2124 0.987515 46.4053 1.00166 46.5899 1.05267C46.7746 1.10369 46.9473 1.19057 47.0984 1.30837C47.2494 1.42617 47.3758 1.57257 47.4703 1.73922C47.5648 1.90587 47.6255 2.0895 47.649 2.27963C47.6726 2.46975 47.6584 2.66265 47.6074 2.84732C47.5564 3.03198 47.4696 3.20478 47.3518 3.35587L26.939 29.61C26.8027 29.7847 26.6283 29.9258 26.4292 30.0228C26.2301 30.1198 26.0115 30.1701 25.79 30.1698L25.7908 30.1657Z" fill="#007F61" stroke="#007F61"/>
<path d="M65.2591 70.9999H17.0443C16.6576 70.9999 16.2867 70.8463 16.0133 70.5728C15.7398 70.2993 15.5862 69.9283 15.5862 69.5415C15.5862 69.1547 15.7398 68.7838 16.0133 68.5103C16.2867 68.2367 16.6576 68.0831 17.0443 68.0831H65.2591C65.923 68.0824 66.5654 67.8473 67.073 67.4193C67.5806 66.9912 67.9208 66.3978 68.0338 65.7434C68.1468 65.089 68.0252 64.4158 67.6905 63.8423C67.3558 63.2688 66.8295 62.8319 66.2042 62.6085L51.4291 57.3321C50.3432 56.944 49.4012 56.2346 48.7282 55.298C48.0553 54.3614 47.6833 53.2422 47.6618 52.089C47.6403 50.9359 47.9703 49.8035 48.6078 48.8425C49.2454 47.8814 50.1603 47.1373 51.231 46.7091L63.1576 41.9371C63.3355 41.866 63.5256 41.8307 63.7171 41.8331C63.9087 41.8355 64.0978 41.8757 64.2739 41.9512C64.6293 42.1038 64.9097 42.3914 65.0532 42.7507C65.1242 42.9286 65.1596 43.1188 65.1571 43.3104C65.1547 43.5019 65.1146 43.6911 65.039 43.8672C64.9635 44.0433 64.854 44.2027 64.7169 44.3365C64.5797 44.4702 64.4176 44.5756 64.2397 44.6467L52.3181 49.4187C51.8051 49.6223 51.3653 49.9757 51.0561 50.433C50.7469 50.8903 50.5826 51.4301 50.5847 51.9822C50.586 52.5522 50.7628 53.1079 51.0909 53.574C51.419 54.04 51.8827 54.3937 52.4188 54.587L67.1939 59.8634C68.4664 60.3175 69.5377 61.2066 70.2188 62.3737C70.8999 63.5409 71.147 64.9111 70.9165 66.2427C70.686 67.5743 69.9928 68.7817 68.9591 69.6519C67.9254 70.5221 66.6177 70.9992 65.2666 70.9991L65.2591 70.9999Z" fill="#007F61" stroke="#007F61"/>
</svg>
