<svg width="55" height="86" viewBox="0 0 55 86" fill="none" xmlns="http://www.w3.org/2000/svg">
<path d="M16.7778 3H37.2222C37.8116 3 38.3768 3.23413 38.7936 3.65087C39.2103 4.06762 39.4444 4.63285 39.4444 5.22222V7C39.4444 7.64202 39.318 8.27775 39.0723 8.8709C38.8266 9.46404 38.4665 10.003 38.0125 10.457C37.0957 11.3738 35.8522 11.8889 34.5556 11.8889H19.4444C18.1478 11.8889 16.9043 11.3738 15.9875 10.457C15.0706 9.54012 14.5556 8.29661 14.5556 7V5.22222C14.5556 4.63285 14.7897 4.06762 15.2064 3.65087C15.6232 3.23413 16.1884 3 16.7778 3V3Z" stroke="#007F61" stroke-width="5"/>
<path d="M45.2222 3H9.66667C5.98477 3 3 5.98477 3 9.66667V76.3333C3 80.0152 5.98477 83 9.66667 83H45.2222C48.9041 83 51.8889 80.0152 51.8889 76.3333V9.66667C51.8889 5.98477 48.9041 3 45.2222 3Z" stroke="#007F61" stroke-width="5"/>
<path d="M15.8889 61.2222C17.8526 61.2222 19.4444 59.6303 19.4444 57.6667C19.4444 55.703 17.8526 54.1111 15.8889 54.1111C13.9252 54.1111 12.3333 55.703 12.3333 57.6667C12.3333 59.6303 13.9252 61.2222 15.8889 61.2222Z" fill="#007F61"/>
<path d="M15.8889 50.5556C17.8526 50.5556 19.4444 48.9637 19.4444 47C19.4444 45.0363 17.8526 43.4445 15.8889 43.4445C13.9252 43.4445 12.3333 45.0363 12.3333 47C12.3333 48.9637 13.9252 50.5556 15.8889 50.5556Z" fill="#007F61"/>
<path d="M15.8889 71.8889C17.8526 71.8889 19.4444 70.297 19.4444 68.3333C19.4444 66.3696 17.8526 64.7778 15.8889 64.7778C13.9252 64.7778 12.3333 66.3696 12.3333 68.3333C12.3333 70.297 13.9252 71.8889 15.8889 71.8889Z" fill="#007F61"/>
<path d="M27.4444 61.2222C29.4081 61.2222 31 59.6303 31 57.6667C31 55.703 29.4081 54.1111 27.4444 54.1111C25.4808 54.1111 23.8889 55.703 23.8889 57.6667C23.8889 59.6303 25.4808 61.2222 27.4444 61.2222Z" fill="#007F61"/>
<path d="M27.4444 50.5556C29.4081 50.5556 31 48.9637 31 47C31 45.0363 29.4081 43.4445 27.4444 43.4445C25.4808 43.4445 23.8889 45.0363 23.8889 47C23.8889 48.9637 25.4808 50.5556 27.4444 50.5556Z" fill="#007F61"/>
<path d="M27.4444 71.8889C29.4081 71.8889 31 70.297 31 68.3333C31 66.3696 29.4081 64.7778 27.4444 64.7778C25.4808 64.7778 23.8889 66.3696 23.8889 68.3333C23.8889 70.297 25.4808 71.8889 27.4444 71.8889Z" fill="#007F61"/>
<path d="M39 61.2222C40.9637 61.2222 42.5556 59.6303 42.5556 57.6667C42.5556 55.703 40.9637 54.1111 39 54.1111C37.0363 54.1111 35.4444 55.703 35.4444 57.6667C35.4444 59.6303 37.0363 61.2222 39 61.2222Z" fill="#007F61"/>
<path d="M39 50.5556C40.9637 50.5556 42.5556 48.9637 42.5556 47C42.5556 45.0363 40.9637 43.4445 39 43.4445C37.0363 43.4445 35.4444 45.0363 35.4444 47C35.4444 48.9637 37.0363 50.5556 39 50.5556Z" fill="#007F61"/>
<path d="M39 71.8889C40.9637 71.8889 42.5556 70.297 42.5556 68.3333C42.5556 66.3696 40.9637 64.7778 39 64.7778C37.0363 64.7778 35.4444 66.3696 35.4444 68.3333C35.4444 70.297 37.0363 71.8889 39 71.8889Z" fill="#007F61"/>
</svg>
