<svg width="106" height="106" viewBox="0 0 106 106" fill="none" xmlns="http://www.w3.org/2000/svg">
<path d="M53.0028 20C49.9932 20 47.0511 20.8925 44.5487 22.5645C42.0463 24.2366 40.0959 26.6132 38.9442 29.3937C37.7924 32.1743 37.4911 35.2339 38.0782 38.1857C38.6654 41.1375 40.1147 43.8489 42.2428 45.9771C44.3709 48.1052 47.0823 49.5545 50.0342 50.1416C52.986 50.7288 56.0456 50.4274 58.8261 49.2757C61.6067 48.1239 63.9833 46.1735 65.6553 43.6711C67.3274 41.1687 68.2198 38.2266 68.2198 35.217C68.2153 31.1826 66.6107 27.3147 63.7579 24.4619C60.9051 21.6092 57.0373 20.0045 53.0028 20ZM53.0028 46.0868C50.853 46.0868 48.7514 45.4493 46.9639 44.2549C45.1763 43.0605 43.7831 41.3629 42.9604 39.3767C42.1377 37.3905 41.9225 35.205 42.3419 33.0964C42.7613 30.9879 43.7965 29.051 45.3167 27.5309C46.8369 26.0107 48.7737 24.9755 50.8822 24.556C52.9908 24.1366 55.1763 24.3519 57.1625 25.1746C59.1487 25.9973 60.8464 27.3905 62.0408 29.1781C63.2352 30.9656 63.8727 33.0672 63.8727 35.217C63.8687 38.0986 62.7222 40.8611 60.6846 42.8987C58.6469 44.9363 55.8845 46.0828 53.0028 46.0868Z" fill="#007F61"/>
<path d="M83.4347 37.3916C81.2849 37.3916 79.1833 38.0291 77.3958 39.2235C75.6082 40.4179 74.215 42.1155 73.3923 44.1017C72.5696 46.0879 72.3543 48.2735 72.7737 50.382C73.1932 52.4906 74.2284 54.4274 75.7486 55.9476C77.2688 57.4677 79.2056 58.503 81.3141 58.9224C83.4226 59.3418 85.6082 59.1265 87.5944 58.3038C89.5806 57.4811 91.2783 56.0879 92.4726 54.3004C93.667 52.5128 94.3045 50.4113 94.3045 48.2614C94.3005 45.3798 93.154 42.6173 91.1164 40.5797C89.0788 38.5421 86.3163 37.3956 83.4347 37.3916ZM83.4347 54.7831C82.1448 54.7831 80.8839 54.4006 79.8115 53.684C78.739 52.9674 77.903 51.9489 77.4094 50.7572C76.9158 49.5655 76.7867 48.2542 77.0383 46.9891C77.29 45.724 77.9111 44.562 78.8232 43.6499C79.7353 42.7378 80.8973 42.1167 82.1624 41.865C83.4275 41.6134 84.7388 41.7425 85.9305 42.2361C87.1222 42.7298 88.1407 43.5657 88.8573 44.6382C89.5739 45.7106 89.9564 46.9715 89.9564 48.2614C89.9539 49.9901 89.266 51.6473 88.0434 52.8695C86.8208 54.0918 85.1634 54.7793 83.4347 54.7813V54.7831Z" fill="#007F61"/>
<path d="M22.8708 37.3916C20.721 37.3916 18.6194 38.0291 16.8319 39.2235C15.0443 40.4179 13.6511 42.1155 12.8284 44.1017C12.0057 46.0879 11.7904 48.2735 12.2098 50.382C12.6293 52.4906 13.6645 54.4274 15.1847 55.9476C16.7049 57.4677 18.6417 58.503 20.7502 58.9224C22.8588 59.3418 25.0443 59.1265 27.0305 58.3038C29.0167 57.4811 30.7143 56.0879 31.9087 54.3004C33.1031 52.5128 33.7406 50.4113 33.7406 48.2614C33.7374 45.3796 32.5911 42.6167 30.5534 40.5789C28.5156 38.5411 25.7527 37.3948 22.8708 37.3916ZM22.8708 54.7831C21.5809 54.7831 20.32 54.4006 19.2475 53.684C18.1751 52.9674 17.3391 51.9489 16.8455 50.7572C16.3519 49.5655 16.2228 48.2542 16.4744 46.9891C16.7261 45.724 17.3472 44.562 18.2593 43.6499C19.1713 42.7378 20.3334 42.1167 21.5985 41.865C22.8636 41.6134 24.1749 41.7425 25.3666 42.2361C26.5582 42.7298 27.5768 43.5657 28.2934 44.6382C29.01 45.7106 29.3925 46.9715 29.3925 48.2614C29.39 49.9901 28.7021 51.6473 27.4795 52.8695C26.2569 54.0918 24.5995 54.7793 22.8708 54.7813V54.7831Z" fill="#007F61"/>
<path d="M52.999 54.7831C45.5063 54.7916 38.3228 57.7718 33.0246 63.07C27.7264 68.3682 24.7462 75.5517 24.7377 83.0444C24.7377 83.621 24.9667 84.174 25.3744 84.5817C25.7822 84.9894 26.3351 85.2185 26.9117 85.2185C27.4883 85.2185 28.0413 84.9894 28.449 84.5817C28.8567 84.174 29.0858 83.621 29.0858 83.0444C29.0858 76.7018 31.6054 70.6188 36.0904 66.1339C40.5753 61.6489 46.6582 59.1293 53.0009 59.1293C59.3436 59.1293 65.4265 61.6489 69.9115 66.1339C74.3964 70.6188 76.9161 76.7018 76.9161 83.0444C76.9161 83.621 77.1451 84.174 77.5528 84.5817C77.9605 84.9894 78.5135 85.2185 79.0901 85.2185C79.6667 85.2185 80.2197 84.9894 80.6274 84.5817C81.0351 84.174 81.2642 83.621 81.2642 83.0444C81.2557 75.551 78.2749 68.367 72.9759 63.0687C67.6769 57.7704 60.4925 54.7906 52.999 54.7831Z" fill="#007F61"/>
<path d="M83.4347 63.4784C79.8614 63.4786 76.3563 64.4574 73.2998 66.3086C72.8069 66.6078 72.4531 67.0906 72.3161 67.6508C72.1792 68.2109 72.2704 68.8025 72.5696 69.2954C72.8689 69.7883 73.3517 70.1421 73.9118 70.2791C74.4719 70.416 75.0635 70.3248 75.5564 70.0256C77.8647 68.6301 80.5023 67.8731 83.1992 67.8321C85.8962 67.791 88.5556 68.4673 90.9053 69.7918C93.2549 71.1163 95.2104 73.0414 96.5716 75.3701C97.9327 77.6987 98.6506 80.3472 98.6518 83.0445C98.6518 83.6211 98.8808 84.174 99.2885 84.5818C99.6963 84.9895 100.249 85.2185 100.826 85.2185C101.402 85.2185 101.955 84.9895 102.363 84.5818C102.771 84.174 103 83.6211 103 83.0445C102.994 77.8573 100.93 72.8844 97.2625 69.2164C93.5948 65.5484 88.6219 63.4849 83.4347 63.4784Z" fill="#007F61"/>
<path d="M32.6953 66.3001C29.727 64.5061 26.3354 63.5331 22.8675 63.4807C19.3997 63.4283 15.9802 64.2983 12.9591 66.0017C9.93794 67.7051 7.42374 70.1808 5.67382 73.1752C3.9239 76.1696 3.00112 79.5753 2.99994 83.0435C2.99994 83.6201 3.22899 84.1731 3.63671 84.5808C4.04442 84.9885 4.5974 85.2176 5.174 85.2176C5.7506 85.2176 6.30358 84.9885 6.71129 84.5808C7.11901 84.1731 7.34806 83.6201 7.34806 83.0435C7.34933 80.3467 8.06699 77.6987 9.42762 75.3703C10.7883 73.0419 12.743 71.1167 15.0919 69.7918C17.4408 68.4669 20.0995 67.7897 22.796 67.8297C25.4925 67.8696 28.13 68.6251 30.4387 70.019C30.9316 70.3182 31.5232 70.4094 32.0833 70.2725C32.6434 70.1355 33.1262 69.7817 33.4255 69.2888C33.7247 68.7959 33.8159 68.2043 33.6789 67.6442C33.542 67.084 33.1882 66.6012 32.6953 66.302V66.3001Z" fill="#007F61"/>
</svg>
