<svg width="21" height="21" viewBox="0 0 21 21" fill="none" xmlns="http://www.w3.org/2000/svg">
<path d="M6.75 10.5V9C6.75 8.80109 6.82902 8.61032 6.96967 8.46967C7.11032 8.32902 7.30109 8.25 7.5 8.25C7.69891 8.25 7.88968 8.32902 8.03033 8.46967C8.17098 8.61032 8.25 8.80109 8.25 9V10.5C8.25 10.6989 8.17098 10.8897 8.03033 11.0303C7.88968 11.171 7.69891 11.25 7.5 11.25C7.30109 11.25 7.11032 11.171 6.96967 11.0303C6.82902 10.8897 6.75 10.6989 6.75 10.5ZM10.5 11.25C10.6989 11.25 10.8897 11.171 11.0303 11.0303C11.171 10.8897 11.25 10.6989 11.25 10.5V8.25C11.25 8.05109 11.171 7.86032 11.0303 7.71967C10.8897 7.57902 10.6989 7.5 10.5 7.5C10.3011 7.5 10.1103 7.57902 9.96967 7.71967C9.82902 7.86032 9.75 8.05109 9.75 8.25V10.5C9.75 10.6989 9.82902 10.8897 9.96967 11.0303C10.1103 11.171 10.3011 11.25 10.5 11.25ZM13.5 11.25C13.6989 11.25 13.8897 11.171 14.0303 11.0303C14.171 10.8897 14.25 10.6989 14.25 10.5V7.5C14.25 7.30109 14.171 7.11032 14.0303 6.96967C13.8897 6.82902 13.6989 6.75 13.5 6.75C13.3011 6.75 13.1103 6.82902 12.9697 6.96967C12.829 7.11032 12.75 7.30109 12.75 7.5V10.5C12.75 10.6989 12.829 10.8897 12.9697 11.0303C13.1103 11.171 13.3011 11.25 13.5 11.25ZM18.75 4.5V13.5H19.5C19.6989 13.5 19.8897 13.579 20.0303 13.7197C20.171 13.8603 20.25 14.0511 20.25 14.25C20.25 14.4489 20.171 14.6397 20.0303 14.7803C19.8897 14.921 19.6989 15 19.5 15H11.25V16.629C11.7504 16.8059 12.1722 17.1541 12.4407 17.6119C12.7093 18.0697 12.8073 18.6077 12.7176 19.1308C12.6278 19.6539 12.356 20.1285 11.9502 20.4706C11.5444 20.8127 11.0308 21.0003 10.5 21.0003C9.96923 21.0003 9.45556 20.8127 9.04976 20.4706C8.64395 20.1285 8.37216 19.6539 8.2824 19.1308C8.19265 18.6077 8.29072 18.0697 8.55928 17.6119C8.82783 17.1541 9.24959 16.8059 9.75 16.629V15H1.5C1.30109 15 1.11032 14.921 0.96967 14.7803C0.829018 14.6397 0.75 14.4489 0.75 14.25C0.75 14.0511 0.829018 13.8603 0.96967 13.7197C1.11032 13.579 1.30109 13.5 1.5 13.5H2.25V4.5C1.85231 4.49955 1.47104 4.34137 1.18983 4.06017C0.908625 3.77896 0.750447 3.39769 0.75 3V1.5C0.750447 1.10231 0.908625 0.721041 1.18983 0.439833C1.47104 0.158625 1.85231 0.000446645 2.25 0H18.75C19.1477 0.000446645 19.529 0.158625 19.8102 0.439833C20.0914 0.721041 20.2496 1.10231 20.25 1.5V3C20.2496 3.39769 20.0914 3.77896 19.8102 4.06017C19.529 4.34137 19.1477 4.49955 18.75 4.5ZM11.25 18.75C11.25 18.6017 11.206 18.4567 11.1236 18.3333C11.0412 18.21 10.9241 18.1139 10.787 18.0571C10.65 18.0003 10.4992 17.9855 10.3537 18.0144C10.2082 18.0434 10.0746 18.1148 9.96967 18.2197C9.86478 18.3246 9.79335 18.4582 9.76441 18.6037C9.73547 18.7492 9.75032 18.9 9.80709 19.037C9.86386 19.1741 9.95998 19.2912 10.0833 19.3736C10.2067 19.456 10.3517 19.5 10.5 19.5C10.6988 19.4998 10.8895 19.4207 11.0301 19.2801C11.1707 19.1395 11.2498 18.9488 11.25 18.75ZM2.25 3H18.7509L18.75 1.5H2.25V3ZM17.25 4.5H3.75V13.5H17.25V4.5Z" fill="black"/>
</svg>
