<svg xmlns="http://www.w3.org/2000/svg" width="26.008" height="30.541" viewBox="0 0 26.008 30.541">
  <defs>
    <style>.a {
      fill: #6D6D6F;
    }</style>
  </defs>
  <path class="a"
        d="M25.977,8.285V8.262c-.015-.293-.023-.6-.028-.948A3.234,3.234,0,0,0,22.9,4.144,12.585,12.585,0,0,1,14.35.54L14.332.52a1.959,1.959,0,0,0-2.658,0l-.018.02a12.585,12.585,0,0,1-8.55,3.6A3.234,3.234,0,0,0,.058,7.314c-.005.342-.013.652-.025.948l0,.056C-.039,11.9-.123,16.354,1.368,20.4a15.342,15.342,0,0,0,3.69,5.747,19.271,19.271,0,0,0,7.22,4.271,2.3,2.3,0,0,0,.3.082,2.15,2.15,0,0,0,.859,0,2.339,2.339,0,0,0,.3-.082,19.282,19.282,0,0,0,7.212-4.274,15.373,15.373,0,0,0,3.69-5.747c1.5-4.057,1.412-8.522,1.343-12.111ZM22.952,19.774c-1.572,4.264-4.784,7.192-9.812,8.95a.22.22,0,0,1-.059.015.4.4,0,0,1-.155,0,.22.22,0,0,1-.059-.015C7.831,26.968,4.62,24.043,3.05,19.779c-1.376-3.728-1.3-7.819-1.228-11.428v-.02c.015-.308.023-.635.028-.991A1.439,1.439,0,0,1,3.206,5.933,15.8,15.8,0,0,0,8.545,4.758a13.959,13.959,0,0,0,4.348-2.923.167.167,0,0,1,.222,0,13.94,13.94,0,0,0,4.35,2.923A15.768,15.768,0,0,0,22.8,5.933,1.439,1.439,0,0,1,24.157,7.34c.005.359.013.683.028.991C24.254,11.945,24.33,16.038,22.952,19.774Z"
        transform="translate(0 0)"/>
  <path class="a"
        d="M39.165,35.02a4.056,4.056,0,0,0-2.373,7.345l-.02,2.9v.008a2.382,2.382,0,0,0,4.763,0l.02-2.921a4.055,4.055,0,0,0-2.391-7.332Zm.579,10.25a.59.59,0,0,1-1.18,0l.025-3.333a.9.9,0,0,0-.477-.859,2.266,2.266,0,1,1,2.118-.008.9.9,0,0,0-.464.91l-.023,3.28v.008Z"
        transform="translate(-26.162 -26.095)"/>
</svg>
