<svg width="30" height="30" viewBox="0 0 30 30" fill="none" xmlns="http://www.w3.org/2000/svg">
  <path
    d="M15.9359 12.1875V5.625H7.49927V20.625H22.4978V12.1875H15.9359ZM9.37408 7.5H14.0611V12.1875H9.37408V7.5ZM9.37408 14.0625H14.0611V18.75H9.37408V14.0625ZM20.623 18.75H15.9359V14.0625H20.623V18.75Z"
    fill="#6D6D6F"/>
  <path d="M26.2474 10.3125H17.8108V1.875H26.2474V10.3125ZM19.6856 8.4375H24.3726V3.75H19.6856V8.4375Z" fill="#6D6D6F"/>
  <path
    d="M26.2473 18.75H24.3725V20.625H26.2473V26.25H3.74957V20.625H5.62438V18.75H3.74957C3.25249 18.7505 2.77591 18.9482 2.42442 19.2997C2.07294 19.6512 1.87525 20.1279 1.87476 20.625V26.25C1.87525 26.7471 2.07294 27.2238 2.42442 27.5753C2.77591 27.9268 3.25249 28.1245 3.74957 28.125H26.2473C26.7444 28.1245 27.221 27.9268 27.5725 27.5753C27.924 27.2238 28.1216 26.7471 28.1221 26.25V20.625C28.1216 20.1279 27.924 19.6512 27.5725 19.2997C27.221 18.9482 26.7444 18.7505 26.2473 18.75Z"
    fill="#6D6D6F"/>
  <path
    d="M6.56192 24.375C7.07963 24.375 7.49932 23.9553 7.49932 23.4375C7.49932 22.9197 7.07963 22.5 6.56192 22.5C6.0442 22.5 5.62451 22.9197 5.62451 23.4375C5.62451 23.9553 6.0442 24.375 6.56192 24.375Z"
    fill="#6D6D6F"/>
</svg>
