<svg width="30" height="30" viewBox="0 0 30 30" fill="none" xmlns="http://www.w3.org/2000/svg">
  <path
    d="M14.5 27.5C7.59625 27.5 2 21.9037 2 15C2 8.09625 7.59625 2.5 14.5 2.5C21.4037 2.5 27 8.09625 27 15C27 21.9037 21.4037 27.5 14.5 27.5ZM14.5 25C17.1522 25 19.6957 23.9464 21.5711 22.0711C23.4464 20.1957 24.5 17.6522 24.5 15C24.5 12.3478 23.4464 9.8043 21.5711 7.92893C19.6957 6.05357 17.1522 5 14.5 5C11.8478 5 9.3043 6.05357 7.42893 7.92893C5.55357 9.8043 4.5 12.3478 4.5 15C4.5 17.6522 5.55357 20.1957 7.42893 22.0711C9.3043 23.9464 11.8478 25 14.5 25Z"
    fill="#6D6D6F"/>
  <path
    d="M8 11V17.3286C8 18.2517 8.74832 19 9.67143 19V19C10.5945 19 11.3429 18.2517 11.3429 17.3286V11M13.0143 11H16.5429L13.0143 19H16.5429M21 11H20.0612C18.9386 11 18.0286 11.91 18.0286 13.0326V13.0326C18.0286 13.8736 18.5465 14.6278 19.3315 14.9297L19.6971 15.0703C20.482 15.3722 21 16.1264 21 16.9674V16.9674C21 18.09 20.09 19 18.9674 19H18.0286"
    stroke="#6D6D6F" stroke-width="1.5" stroke-linecap="round" stroke-linejoin="round"/>
</svg>
