<svg xmlns="http://www.w3.org/2000/svg" width="24.396" height="24.396" viewBox="0 0 24.396 24.396">
  <defs>
    <style>.a {
      fill: #6D6D6F;
      fill-rule: evenodd;
    }</style>
  </defs>
  <path class="a"
        d="M17.42,0H37.176A2.341,2.341,0,0,1,39.5,2.32V22.076a2.341,2.341,0,0,1-2.32,2.32H17.42a2.318,2.318,0,0,1-2.32-2.32V2.32A2.318,2.318,0,0,1,17.42,0Zm1.547,11.917,3.691,1.371L24.1,17.893a.427.427,0,0,0,.7.211l2.039-1.687a.633.633,0,0,1,.773,0l3.691,2.707a.457.457,0,0,0,.7-.281L34.716,5.73a.415.415,0,0,0-.562-.492L18.967,11.108A.427.427,0,0,0,18.967,11.917Zm4.886.633,7.242-4.464a.127.127,0,0,1,.141.211L25.295,13.85a1.264,1.264,0,0,0-.387.738L24.7,16.1a.18.18,0,0,1-.352.035l-.809-2.742A.786.786,0,0,1,23.853,12.55Z"
        transform="translate(-15.1)"/>
</svg>
