<svg width="100" height="100" viewBox="0 0 100 100" fill="none" xmlns="http://www.w3.org/2000/svg">
  <path
    d="M45 65H55V75H45V65ZM45 25H55V55H45V25ZM50 0C22.35 0 0 22.5 0 50C0 63.2608 5.26784 75.9785 14.6447 85.3553C19.2876 89.9983 24.7995 93.6813 30.8658 96.194C36.9321 98.7067 43.4339 100 50 100C63.2608 100 75.9785 94.7322 85.3553 85.3553C94.7322 75.9785 100 63.2608 100 50C100 43.4339 98.7067 36.9321 96.194 30.8658C93.6812 24.7995 89.9983 19.2876 85.3553 14.6447C80.7124 10.0017 75.2005 6.31876 69.1342 3.80602C63.0679 1.29329 56.5661 0 50 0ZM50 90C39.3913 90 29.2172 85.7857 21.7157 78.2843C14.2143 70.7828 10 60.6087 10 50C10 39.3913 14.2143 29.2172 21.7157 21.7157C29.2172 14.2143 39.3913 10 50 10C60.6087 10 70.7828 14.2143 78.2843 21.7157C85.7857 29.2172 90 39.3913 90 50C90 60.6087 85.7857 70.7828 78.2843 78.2843C70.7828 85.7857 60.6087 90 50 90Z"
    fill="#343F97"/>
</svg>
