<svg xmlns="http://www.w3.org/2000/svg" width="24.463" height="27.457" viewBox="0 0 24.463 27.457">
  <defs>
    <style>.a {
      fill: #097d80;
      fill-rule: evenodd;
    }</style>
  </defs>
  <g transform="translate(4.238)">
    <path class="a"
          d="M18.825,15.986h0a7.993,7.993,0,1,0-8-8A7.993,7.993,0,0,0,18.825,15.986Zm0-14.128A6.136,6.136,0,1,1,12.689,8,6.136,6.136,0,0,1,18.825,1.859Z"
          transform="translate(-10.83 0)"/>
  </g>
  <g transform="translate(0 14.296)">
    <path class="a"
          d="M12.233,36.53A12.24,12.24,0,0,0,0,48.759a.929.929,0,1,0,1.859,0,10.375,10.375,0,0,1,20.749,0,.927.927,0,1,0,1.855,0A12.236,12.236,0,0,0,12.233,36.53Z"
          transform="translate(0 -36.53)"/>
  </g>
</svg>
