<svg width="30" height="30" viewBox="0 0 30 30" fill="none" xmlns="http://www.w3.org/2000/svg">
  <path fill-rule="evenodd" clip-rule="evenodd"
        d="M18.4983 3C19.0505 3 19.4982 3.44772 19.4982 4V18.6512C19.4982 19.2034 19.0505 19.6512 18.4983 19.6512H16.4534L20.4981 23.6021L24.5427 19.6512H22.4979C21.9456 19.6512 21.498 19.2034 21.498 18.6512V10.3488C21.498 9.79655 21.9456 9.34884 22.4979 9.34884C23.0501 9.34884 23.4978 9.79655 23.4978 10.3488V17.6512H26.9974C27.404 17.6512 27.7701 17.8974 27.9234 18.2739C28.0768 18.6505 27.9869 19.0824 27.6961 19.3665L21.1967 25.7154C20.8082 26.0949 20.1879 26.0949 19.7994 25.7154L13.3 19.3665C13.0092 19.0824 12.9193 18.6505 13.0727 18.2739C13.2261 17.8974 13.5921 17.6512 13.9987 17.6512H17.4984V4C17.4984 3.44772 17.946 3 18.4983 3Z"
        fill="#343F97"/>
  <path fill-rule="evenodd" clip-rule="evenodd"
        d="M16.225 16.9007C14.8377 17.2813 13.2282 17.4749 11.625 17.4749C9.22833 17.4749 6.81764 17.0422 5.15625 16.199V17.4749C5.15625 18.1843 7.61222 19.4874 11.625 19.4874C11.6858 19.4874 11.7463 19.4871 11.8064 19.4865L13.622 21.3989C12.9663 21.4661 12.2951 21.4999 11.625 21.4999C9.22833 21.4999 6.81764 21.0672 5.15625 20.224V21.4999C5.15625 22.2093 7.61222 23.5124 11.625 23.5124C13.0385 23.5124 14.2588 23.3507 15.2466 23.1103L16.8236 24.7713C15.3122 25.2705 13.4639 25.5249 11.625 25.5249C7.33838 25.5249 3 24.1423 3 21.4999V9.4249C3 6.78249 7.33838 5.3999 11.625 5.3999C13.2276 5.3999 14.8374 5.59314 16.225 5.97321V8.10232C15.1159 7.71212 13.5495 7.4124 11.625 7.4124C7.61222 7.4124 5.15625 8.7155 5.15625 9.4249C5.15625 10.1343 7.61222 11.4374 11.625 11.4374C13.5495 11.4374 15.1159 11.1377 16.225 10.7475V12.8757C14.8377 13.2563 13.2282 13.4499 11.625 13.4499C9.22833 13.4499 6.81764 13.0172 5.15625 12.174V13.4499C5.15625 14.1593 7.61222 15.4624 11.625 15.4624C13.5495 15.4624 15.1159 15.1627 16.225 14.7725V16.9007Z"
        fill="#343F97"/>
</svg>
