<svg width="30" height="30" viewBox="0 0 30 30" fill="none" xmlns="http://www.w3.org/2000/svg">
  <path fill-rule="evenodd" clip-rule="evenodd"
        d="M7.49919 1.875C8.01691 1.875 8.4366 2.29473 8.4366 2.8125V3.75H21.5603V2.8125C21.5603 2.29473 21.98 1.875 22.4977 1.875C23.0154 1.875 23.4351 2.29473 23.4351 2.8125V3.75H24.3725C26.4434 3.75 28.1221 5.42893 28.1221 7.5V9.375V24.375C28.1221 26.4461 26.4434 28.125 24.3725 28.125H5.62438C3.55352 28.125 1.87476 26.4461 1.87476 24.375V9.375V7.5C1.87476 5.42893 3.55352 3.75 5.62438 3.75H6.56179V2.8125C6.56179 2.29473 6.98148 1.875 7.49919 1.875ZM26.2473 7.5V8.4375H3.74957V7.5C3.74957 6.46447 4.58895 5.625 5.62438 5.625H7.49919H22.4977H24.3725C25.4079 5.625 26.2473 6.46447 26.2473 7.5ZM26.2473 10.3125H3.74957V24.375C3.74957 25.4105 4.58895 26.25 5.62438 26.25H24.3725C25.4079 26.25 26.2473 25.4105 26.2473 24.375V10.3125ZM20.3546 12.4219C20.1544 12.4219 19.9595 12.4859 19.7984 12.6047L17.2545 14.4797C16.8378 14.7869 16.7489 15.3738 17.0561 15.7906C17.3632 16.2074 17.95 16.2962 18.3668 15.9891L19.6855 15.0171V23.2031C19.6855 23.7209 20.1052 24.1406 20.6229 24.1406C21.1406 24.1406 21.5603 23.7209 21.5603 23.2031V13.3594C21.5603 12.8416 21.1406 12.4219 20.6229 12.4219H20.3546ZM8.21449 13.7569C8.61412 13.0812 9.61131 12.1875 11.2389 12.1875C12.1375 12.1875 13.0519 12.4306 13.7656 12.9742C14.5037 13.5364 14.9805 14.3903 14.982 15.4576C14.9861 15.8772 14.9065 16.2933 14.7479 16.6818C14.5894 17.0701 14.3552 17.4228 14.0589 17.7195C13.9928 17.787 13.9245 17.851 13.8542 17.9119C14.0265 18.0372 14.1916 18.1778 14.3453 18.3349C15.0257 19.0287 15.2914 19.9578 15.2914 20.8699C15.2914 21.9796 14.8106 22.8903 14.0364 23.502C13.2836 24.0967 12.302 24.375 11.3004 24.375C9.40086 24.375 8.28183 23.0094 7.92221 22.3999C7.6591 21.954 7.80727 21.3792 8.25315 21.116C8.69902 20.8529 9.27376 21.0011 9.53687 21.447C9.74906 21.8066 10.3678 22.5 11.3004 22.5C11.9738 22.5 12.519 22.3113 12.8742 22.0307C13.208 21.7669 13.4166 21.3938 13.4166 20.8699C13.4166 20.3034 13.2536 19.8993 13.0065 19.6475L13.0053 19.6463C12.4975 19.1269 11.656 18.9041 11.2412 18.9041C11.1765 18.9041 11.1133 18.8975 11.0523 18.8851C10.6251 18.7976 10.3038 18.4196 10.3038 17.9666C10.3038 17.4488 10.7235 17.0291 11.2412 17.0291C11.3828 17.0291 11.6504 16.9914 11.9517 16.88C12.2492 16.7699 12.523 16.6088 12.722 16.4051L12.7305 16.3965C12.8517 16.2755 12.9475 16.1316 13.0122 15.9731C13.0769 15.8146 13.1092 15.6447 13.1073 15.4735L13.1072 15.4629C13.1072 15.0022 12.9227 14.689 12.6296 14.4658C12.311 14.2231 11.8225 14.0625 11.2389 14.0625C10.3588 14.0625 9.93587 14.5293 9.82813 14.7115C9.56454 15.1571 8.98964 15.3047 8.54405 15.0411C8.09845 14.7775 7.95091 14.2025 8.21449 13.7569Z"
        fill="#343F97"/>
</svg>
