<svg width="18" height="18" viewBox="0 0 18 18" fill="none" xmlns="http://www.w3.org/2000/svg">
<circle cx="9" cy="9" r="9" fill="#EBF7F5"/>
<path d="M8.5 14.375C6.75833 14.375 5.14896 13.4458 4.27813 11.9375C3.40729 10.4292 3.40729 8.57083 4.27813 7.0625C5.14896 5.55417 6.75833 4.625 8.5 4.625C11.1924 4.625 13.375 6.5651 13.375 8.95833C13.375 9.53297 13.1182 10.0841 12.6611 10.4904C12.204 10.8967 11.584 11.125 10.9375 11.125H9.58333C9.08609 11.117 8.64726 11.4485 8.51912 11.9291C8.39099 12.4096 8.60646 12.9156 9.04167 13.1563C9.26342 13.3609 9.33016 13.684 9.20761 13.9597C9.08507 14.2355 8.80048 14.4025 8.5 14.375" stroke="#38CA89" stroke-width="1.08333" stroke-linecap="round" stroke-linejoin="round"/>
<circle cx="6.06258" cy="8.68752" r="0.270833" fill="#38CA89" stroke="#38CA89" stroke-width="1.08333" stroke-linecap="round" stroke-linejoin="round"/>
<circle cx="8.50008" cy="7.06252" r="0.270833" fill="#38CA89" stroke="#38CA89" stroke-width="1.08333" stroke-linecap="round" stroke-linejoin="round"/>
<circle cx="10.9376" cy="8.68752" r="0.270833" fill="#38CA89" stroke="#38CA89" stroke-width="1.08333" stroke-linecap="round" stroke-linejoin="round"/>
</svg>
