<svg width="24" height="24" viewBox="0 0 24 24" fill="none" xmlns="http://www.w3.org/2000/svg">
<path fill-rule="evenodd" clip-rule="evenodd" d="M21.5858 3.30377H13.9882V1.51352L1.5 3.44102V20.3363L13.9882 22.4873V19.8338H21.5858C21.8158 19.8454 22.0412 19.7655 22.2125 19.6115C22.3839 19.4574 22.4872 19.2418 22.5 19.0118V4.12502C22.487 3.89512 22.3836 3.67969 22.2123 3.52582C22.041 3.37194 21.8157 3.29211 21.5858 3.30377ZM21.7057 19.1483H13.9628L13.95 17.7315H15.8153V16.0815H13.9357L13.9268 15.1065H15.8153V13.4565H13.9125L13.9035 12.4815H15.8153V10.8315H13.8975V9.85652H15.8153V8.20652H13.8975V7.23152H15.8153V5.58152H13.8975V4.08152H21.7057V19.1483Z" fill="#20744A"/>
<path d="M16.8652 5.57925H20.1075V7.22925H16.8652V5.57925Z" fill="#20744A"/>
<path d="M16.8652 8.20502H20.1075V9.85502H16.8652V8.20502Z" fill="#20744A"/>
<path d="M16.8652 10.8307H20.1075V12.4808H16.8652V10.8307Z" fill="#20744A"/>
<path d="M16.8652 13.4565H20.1075V15.1065H16.8652V13.4565Z" fill="#20744A"/>
<path d="M16.8652 16.0822H20.1075V17.7322H16.8652V16.0822Z" fill="#20744A"/>
<path fill-rule="evenodd" clip-rule="evenodd" d="M4.76019 8.00473L6.36969 7.91247L7.38144 10.6942L8.57694 7.79772L10.1864 7.70547L8.23194 11.655L10.1864 15.6142L8.48469 15.4995L7.33569 12.4815L6.18594 15.3847L4.62219 15.2467L6.43869 11.7495L4.76019 8.00473Z" fill="white"/>
</svg>
