<svg width="20" height="20" viewBox="0 0 20 20" fill="none" xmlns="http://www.w3.org/2000/svg">
<path d="M2.07995 2L8.56195 10.101C8.84569 10.4558 9.00016 10.8967 8.99995 11.351V18L11 16.5V11.35C11 10.896 11.1544 10.4556 11.438 10.101L17.92 2H2.08095H2.07995ZM2.07995 0H17.92C18.2967 4.70007e-05 18.6658 0.106524 18.9847 0.307166C19.3037 0.507808 19.5594 0.794454 19.7225 1.13409C19.8857 1.47372 19.9495 1.85253 19.9068 2.22687C19.8641 2.60122 19.7164 2.95588 19.481 3.25L13 11.35V16.5C13 16.8105 12.9277 17.1167 12.7888 17.3944C12.65 17.6721 12.4483 17.9137 12.2 18.1L10.2 19.6C9.90281 19.8229 9.54949 19.9586 9.17956 19.9919C8.80964 20.0253 8.43774 19.955 8.10552 19.7889C7.77331 19.6227 7.49392 19.3674 7.29865 19.0515C7.10338 18.7355 6.99995 18.3714 6.99995 18V11.35L0.518952 3.25C0.283465 2.95588 0.135851 2.60122 0.0931107 2.22687C0.0503705 1.85253 0.114243 1.47372 0.277372 1.13409C0.4405 0.794454 0.696249 0.507808 1.01516 0.307166C1.33407 0.106524 1.70317 4.70007e-05 2.07995 0V0Z" fill="white"/>
</svg>
