<svg width="24" height="24" viewBox="0 0 24 24" fill="none" xmlns="http://www.w3.org/2000/svg">
<path d="M21 12V15C21 15.5523 20.5523 16 20 16H4C3.44772 16 3 15.5523 3 15V5C3 4.44772 3.44772 4 4 4H13" stroke="#264796" stroke-width="2" stroke-linecap="round" stroke-linejoin="round"/>
<path d="M7 20H17" stroke="#264796" stroke-width="2" stroke-linecap="round" stroke-linejoin="round"/>
<path d="M9 16V20" stroke="#264796" stroke-width="2" stroke-linecap="round" stroke-linejoin="round"/>
<path d="M15 16V20" stroke="#264796" stroke-width="2" stroke-linecap="round" stroke-linejoin="round"/>
<path d="M16.2929 7.29289C15.9024 7.68342 15.9024 8.31658 16.2929 8.70711C16.6834 9.09763 17.3166 9.09763 17.7071 8.70711L16.2929 7.29289ZM21.7071 4.70711C22.0976 4.31658 22.0976 3.68342 21.7071 3.29289C21.3166 2.90237 20.6834 2.90237 20.2929 3.29289L21.7071 4.70711ZM17.7071 3.29289C17.3166 2.90237 16.6834 2.90237 16.2929 3.29289C15.9024 3.68342 15.9024 4.31658 16.2929 4.70711L17.7071 3.29289ZM20.2929 8.70711C20.6834 9.09763 21.3166 9.09763 21.7071 8.70711C22.0976 8.31658 22.0976 7.68342 21.7071 7.29289L20.2929 8.70711ZM17.7071 8.70711L21.7071 4.70711L20.2929 3.29289L16.2929 7.29289L17.7071 8.70711ZM16.2929 4.70711L20.2929 8.70711L21.7071 7.29289L17.7071 3.29289L16.2929 4.70711Z" fill="#264796"/>
</svg>
