<svg width="24" height="24" viewBox="0 0 24 24" fill="none" xmlns="http://www.w3.org/2000/svg">
<path d="M6.798 2.37158H15.498C17.6867 3.92166 19.595 5.83356 21.141 8.02508V21.4066H6.798V2.37158Z" fill="url(#paint0_linear_235_1060)"/>
<path d="M6.798 2.37158H15.498C17.6867 3.92166 19.595 5.83356 21.141 8.02508V21.4066H6.798V2.37158Z" stroke="#C8C8C8" stroke-width="0.5"/>
<path d="M15.4965 2.37158C17.6824 3.9254 19.5907 5.83669 21.141 8.02508C20.6255 7.49535 20.0006 7.08462 19.3098 6.82164C18.6191 6.55865 17.8792 6.44976 17.142 6.50258C17.2471 5.73057 17.1509 4.9445 16.8625 4.22067C16.5742 3.49685 16.1036 2.85987 15.4965 2.37158Z" fill="url(#paint1_linear_235_1060)"/>
<path d="M15.4965 2.37158C17.6824 3.9254 19.5907 5.83669 21.141 8.02508C20.6255 7.49535 20.0006 7.08462 19.3098 6.82164C18.6191 6.55865 17.8792 6.44976 17.142 6.50258C17.2471 5.73057 17.1509 4.9445 16.8625 4.22067C16.5742 3.49685 16.1036 2.85987 15.4965 2.37158V2.37158Z" stroke="#C8C8C8" stroke-width="0.5"/>
<path d="M4.00424 4.87207H14.5792V6.89707H4.00424V4.87207Z" stroke="#C8C8C8" stroke-width="4"/>
<path d="M11.8643 14.8914C12.2138 14.2059 12.6143 13.4342 12.9293 12.6587L13.0553 12.3527C12.6398 10.7717 12.3908 9.5027 12.6135 8.6822C12.6602 8.57171 12.7408 8.47891 12.8437 8.41718C12.9465 8.35544 13.0663 8.32796 13.1858 8.3387H13.3763C13.7393 8.33345 13.9095 8.7947 13.929 8.97395C13.9318 9.24559 13.8962 9.51626 13.8233 9.77795C13.8411 9.49974 13.7999 9.2209 13.7025 8.9597C13.5525 8.63045 13.4093 8.4347 13.281 8.40245C13.2354 8.43941 13.1983 8.48586 13.1724 8.53857C13.1465 8.59127 13.1324 8.64899 13.131 8.7077C13.0929 8.94052 13.0736 9.17603 13.0733 9.41195C13.091 10.1055 13.2002 10.7937 13.398 11.4587C13.4385 11.3417 13.473 11.2292 13.503 11.1234C13.5473 10.9569 13.8278 9.8552 13.8278 9.8552C13.8278 9.8552 13.7573 11.3222 13.6583 11.7654C13.6373 11.8592 13.614 11.9522 13.5893 12.0467C13.9213 12.9989 14.4724 13.8597 15.198 14.56C15.483 14.8072 15.795 15.0215 16.128 15.1989C16.7529 15.1047 17.3839 15.0573 18.0158 15.0572C18.5226 15.0061 19.0324 15.12 19.4693 15.382C19.5655 15.4791 19.6224 15.6084 19.629 15.745C19.6258 15.8163 19.6155 15.8871 19.5983 15.9564C19.6058 15.9182 19.6058 15.7315 19.032 15.547C18.2683 15.4016 17.485 15.3907 16.7175 15.5147C17.892 16.0892 19.0373 16.3749 19.3995 16.2039C19.476 16.1528 19.5426 16.0883 19.596 16.0135C19.5708 16.1376 19.5342 16.2591 19.4865 16.3764C19.4142 16.4683 19.3155 16.5358 19.2038 16.57C18.6308 16.72 17.1398 16.3689 15.84 15.6264C14.3726 15.8517 12.9259 16.1956 11.514 16.6547C10.2578 18.8567 9.31276 19.8677 8.54476 19.483L8.26201 19.3412C8.21046 19.2996 8.17275 19.2434 8.15386 19.1799C8.13498 19.1164 8.13582 19.0487 8.15626 18.9857C8.24551 18.5477 8.79526 17.8869 9.89926 17.2277C10.0178 17.1527 10.5473 16.8759 10.5473 16.8759C10.5473 16.8759 10.155 17.2555 10.0635 17.3297C9.18226 18.052 8.53201 18.9602 8.54776 19.3127V19.3435C9.29776 19.237 10.419 17.7129 11.862 14.8892L11.8643 14.8914ZM12.3195 15.1232C12.0932 15.5465 11.8617 15.9671 11.625 16.3847C12.8282 15.9025 14.0789 15.5486 15.3563 15.3287C15.1912 15.2152 15.0318 15.0938 14.8785 14.9649C14.2198 14.3968 13.6839 13.7004 13.3035 12.9182C13.0253 13.675 12.6953 14.4118 12.3158 15.1232" fill="#F91D0A"/>
<path d="M2.8125 3.72607H15.7605V8.07832H2.8125V3.72607Z" fill="url(#paint2_linear_235_1060)"/>
<path d="M16.0073 8.33909H2.57776V3.46484H16.0073V8.33909ZM15.525 3.94784H3.06076V7.85459H15.525V3.94784Z" fill="url(#paint3_linear_235_1060)"/>
<path d="M6.1965 4.36448H7.1385C7.25745 4.35686 7.37663 4.37511 7.48785 4.41797C7.59906 4.46082 7.69967 4.52727 7.78275 4.61273C7.94428 4.8099 8.02472 5.06115 8.00775 5.31548C8.02471 5.57095 7.94432 5.82336 7.78275 6.02198C7.69947 6.10703 7.59877 6.17306 7.48756 6.21552C7.37636 6.25799 7.25728 6.27588 7.1385 6.26798H6.7635V7.27973H6.1965V4.36448ZM6.76425 4.90898V5.72348H7.0785C7.12623 5.7262 7.17395 5.71811 7.21811 5.69979C7.26226 5.68148 7.30171 5.65343 7.3335 5.61773C7.39781 5.5314 7.42967 5.4252 7.4235 5.31773C7.43039 5.21018 7.39846 5.10373 7.3335 5.01773C7.30175 4.98199 7.2623 4.9539 7.21814 4.93559C7.17397 4.91727 7.12623 4.9092 7.0785 4.91198H6.76425V4.90898ZM8.976 4.93523V6.71198H9.17925C9.2792 6.71866 9.37931 6.70179 9.47154 6.66271C9.56377 6.62363 9.64554 6.56343 9.71025 6.48698C9.84563 6.29324 9.91073 6.05904 9.89475 5.82323C9.91072 5.5888 9.84616 5.35596 9.71175 5.16323C9.64669 5.08679 9.56465 5.02664 9.47219 4.98757C9.37973 4.9485 9.27941 4.9316 9.17925 4.93823H8.976V4.93523ZM8.40825 4.36973H9.00825C9.25889 4.35696 9.50984 4.38766 9.75 4.46048C9.91768 4.52572 10.0637 4.63667 10.1715 4.78073C10.2768 4.91626 10.355 5.07083 10.4018 5.23598C10.4542 5.4262 10.4795 5.62291 10.4768 5.82023C10.4795 6.01927 10.4543 6.21772 10.4018 6.40973C10.355 6.57488 10.2768 6.72945 10.1715 6.86498C10.0623 7.00946 9.91546 7.12105 9.747 7.18748C9.50634 7.26054 9.25502 7.29223 9.00375 7.28123H8.40375V4.36448L8.40825 4.36973ZM10.9103 4.36448H12.45V4.93298H11.4825V5.47523H12.3893V6.04373H11.4825V7.27973H10.9148V4.36448" fill="#FFF9F9"/>
<defs>
<linearGradient id="paint0_linear_235_1060" x1="10.9851" y1="17.2828" x2="16.2906" y2="7.69385" gradientUnits="userSpaceOnUse">
<stop stop-color="white"/>
<stop offset="1" stop-color="#E1E1E1"/>
</linearGradient>
<linearGradient id="paint1_linear_235_1060" x1="17.6677" y1="5.79833" x2="18.4837" y2="5.04608" gradientUnits="userSpaceOnUse">
<stop stop-color="white"/>
<stop offset="1" stop-color="#C8C8C8"/>
</linearGradient>
<linearGradient id="paint2_linear_235_1060" x1="10.5442" y1="9.77332" x2="8.02875" y2="2.03107" gradientUnits="userSpaceOnUse">
<stop offset="0.127" stop-color="#8A0000"/>
<stop offset="0.244" stop-color="#900000" stop-opacity="0.999"/>
<stop offset="0.398" stop-color="#A00000" stop-opacity="0.999"/>
<stop offset="0.573" stop-color="#BC0000" stop-opacity="0.998"/>
<stop offset="0.761" stop-color="#E20000" stop-opacity="0.997"/>
<stop offset="0.867" stop-color="#FA0000" stop-opacity="0.996"/>
</linearGradient>
<linearGradient id="paint3_linear_235_1060" x1="10.65" y1="10.0798" x2="7.93576" y2="1.72409" gradientUnits="userSpaceOnUse">
<stop offset="0.315" stop-color="#5E0000"/>
<stop offset="0.444" stop-color="#830000" stop-opacity="0.999"/>
<stop offset="0.618" stop-color="#AE0000" stop-opacity="0.998"/>
<stop offset="0.775" stop-color="#CD0000" stop-opacity="0.997"/>
<stop offset="0.908" stop-color="#E00000" stop-opacity="0.996"/>
<stop offset="1" stop-color="#E70000" stop-opacity="0.996"/>
</linearGradient>
</defs>
</svg>
