<svg width="24" height="24" viewBox="0 0 24 24" fill="none" xmlns="http://www.w3.org/2000/svg">
  <path
    d="M21.9189 2.07667C21.4746 1.62839 20.9213 1.30346 20.3133 1.13383C19.7054 0.964189 19.0638 0.955678 18.4516 1.10913C13.7016 2.35643 9.35135 4.80275 5.81769 8.21373C5.1225 8.91309 4.58037 9.74944 4.22575 10.6696C3.87114 11.5898 3.7118 12.5737 3.75785 13.5588C3.82346 14.9887 4.32525 16.3641 5.19573 17.5003L1.26841 21.4354C1.18332 21.5205 1.11581 21.6215 1.06976 21.7327C1.0237 21.8439 1 21.9631 1 22.0835C1 22.2038 1.0237 22.323 1.06976 22.4342C1.11581 22.5454 1.18332 22.6464 1.26841 22.7315C1.35351 22.8167 1.45454 22.8842 1.56572 22.9302C1.67691 22.9763 1.79608 23 1.91642 23C2.03677 23 2.15594 22.9763 2.26712 22.9302C2.37831 22.8842 2.47933 22.8167 2.56443 22.7315L6.49175 18.8037C7.69561 19.7425 9.17943 20.2505 10.706 20.2466C11.7164 20.2319 12.714 20.0184 13.6418 19.6182C14.5697 19.2179 15.4096 18.6388 16.1137 17.9139C20.1468 13.8803 22.4222 7.42175 22.8911 5.51634C23.0437 4.90722 23.0346 4.26882 22.8648 3.66428C22.695 3.05974 22.3703 2.51001 21.9229 2.06945L21.9189 2.07667ZM5.58927 13.4746C5.55435 12.7441 5.6717 12.0142 5.93386 11.3314C6.19601 10.6486 6.59725 10.0278 7.11211 9.50832C7.50404 9.11874 7.9136 8.75321 8.32957 8.3957V14.3716L6.50858 16.1953C5.95279 15.3927 5.63419 14.4499 5.58927 13.4746ZM14.7896 16.6458C13.9166 17.5946 12.7337 18.2007 11.4537 18.3552C10.1737 18.5096 8.88061 18.2022 7.807 17.4883L9.89649 15.3993L12.3811 12.9143L17.6622 12.9143C16.8319 14.2495 15.8704 15.4984 14.792 16.6426L14.7896 16.6458ZM21.1174 5.07706C20.565 7.16718 19.7651 9.18386 18.7346 11.0843L14.2109 11.0843L17.2294 8.06543C17.3177 7.98107 17.3882 7.8799 17.4369 7.76788C17.4855 7.65585 17.5112 7.53523 17.5126 7.41311C17.514 7.29098 17.4909 7.16982 17.4448 7.05674C17.3986 6.94366 17.3303 6.84095 17.2439 6.75464C17.1575 6.66834 17.0548 6.60018 16.9416 6.55417C16.8285 6.50817 16.7073 6.48525 16.5852 6.48676C16.4631 6.48827 16.3426 6.51418 16.2306 6.56296C16.1187 6.61175 16.0176 6.68243 15.9333 6.77085L11.3504 11.3544L10.165 12.54V6.96964C12.8148 5.11236 15.7682 3.73161 18.8925 2.88949C19.0374 2.85294 19.1862 2.8341 19.3357 2.83338C19.5759 2.83398 19.8136 2.88202 20.0352 2.97474C20.2567 3.06745 20.4578 3.20302 20.6269 3.37366C20.85 3.59001 21.012 3.86151 21.0965 4.16065C21.1809 4.45979 21.1848 4.77593 21.1078 5.07706H21.1174Z"
    fill="#007F61"/>
</svg>
