<svg width="24" height="24" viewBox="0 0 24 24" fill="none" xmlns="http://www.w3.org/2000/svg">
  <path fill-rule="evenodd" clip-rule="evenodd"
        d="M2.625 3.75C2.52554 3.75 2.43016 3.78951 2.35984 3.85984C2.28951 3.93016 2.25 4.02554 2.25 4.125L2.25 6.375C2.25 6.582 2.418 6.75 2.625 6.75L21.375 6.75C21.4745 6.75 21.5698 6.71049 21.6402 6.64017C21.7105 6.56984 21.75 6.47446 21.75 6.375V4.125C21.75 4.02554 21.7105 3.93016 21.6402 3.85984C21.5698 3.78951 21.4745 3.75 21.375 3.75L2.625 3.75ZM0 4.125C0 2.676 1.176 1.5 2.625 1.5L21.375 1.5C22.824 1.5 24 2.676 24 4.125V6.375C24 7.07119 23.7234 7.73887 23.2312 8.23116C22.7389 8.72344 22.0712 9 21.375 9H2.625C1.92881 9 1.26113 8.72344 0.768845 8.23116C0.276562 7.73887 0 7.07119 0 6.375L0 4.125ZM2.625 10.5C2.92337 10.5 3.20952 10.6185 3.4205 10.8295C3.63147 11.0405 3.75 11.3266 3.75 11.625L3.75 19.875C3.75 20.082 3.918 20.25 4.125 20.25H19.875C19.9745 20.25 20.0698 20.2105 20.1402 20.1402C20.2105 20.0698 20.25 19.9745 20.25 19.875V11.625C20.25 11.3266 20.3685 11.0405 20.5795 10.8295C20.7905 10.6185 21.0766 10.5 21.375 10.5C21.6734 10.5 21.9595 10.6185 22.1705 10.8295C22.3815 11.0405 22.5 11.3266 22.5 11.625V19.875C22.5 20.5712 22.2234 21.2389 21.7312 21.7312C21.2389 22.2234 20.5712 22.5 19.875 22.5H4.125C3.42881 22.5 2.76113 22.2234 2.26884 21.7312C1.77656 21.2389 1.5 20.5712 1.5 19.875L1.5 11.625C1.5 11.3266 1.61853 11.0405 1.8295 10.8295C2.04048 10.6185 2.32663 10.5 2.625 10.5ZM9.375 12C9.07663 12 8.79048 12.1185 8.5795 12.3295C8.36853 12.5405 8.25 12.8266 8.25 13.125C8.25 13.4234 8.36853 13.7095 8.5795 13.9205C8.79048 14.1315 9.07663 14.25 9.375 14.25L14.625 14.25C14.9234 14.25 15.2095 14.1315 15.4205 13.9205C15.6315 13.7095 15.75 13.4234 15.75 13.125C15.75 12.8266 15.6315 12.5405 15.4205 12.3295C15.2095 12.1185 14.9234 12 14.625 12L9.375 12Z"
        fill="#007F61"/>
</svg>
