<svg width="132" height="46" viewBox="0 0 132 46" fill="none" xmlns="http://www.w3.org/2000/svg">
  <g clip-path="url(#clip0_666_19866)">
    <path fill-rule="evenodd" clip-rule="evenodd"
          d="M22.5909 3.99183L3.99183 22.5918L22.5909 41.1911L41.1917 22.5918L22.5909 3.99183ZM37.6049 15.0415V7.57932H30.1411L22.5909 0L15.0415 7.57932H7.54959V15.0415L0 22.5921L7.54959 30.1417V37.6046H15.0415L22.5909 45.1832L30.1411 37.6046H37.6049V30.1417L45.1548 22.5921L37.6049 15.0415ZM35.7242 30.6915V35.7537H30.6906L28.8106 37.6046L22.5909 43.8525L16.3719 37.6046L14.4919 35.7537H9.43013V30.6915L7.54949 28.8109L1.33054 22.592L7.54949 16.3725L9.43013 14.4925V9.45886H14.4919L22.5908 1.33064L28.8105 7.57922L30.6905 9.45886H35.7241V14.4925L37.6048 16.3725L43.8242 22.592L37.6048 28.8109L35.7241 30.6915H35.7242Z"
          fill="#007F61"/>
    <path fill-rule="evenodd" clip-rule="evenodd"
          d="M35.7243 14.4929V9.45927H30.6907L22.591 1.33105L16.9802 6.94264L14.4921 9.45927H9.43029V14.4929L1.33081 22.5924L9.43029 30.6918V35.754H14.4921L16.9802 38.2415L22.591 43.8528L30.6907 35.754H35.7243V30.6918L43.8244 22.5924L35.7243 14.4929ZM9.43019 28.0304L3.9918 22.5924L16.9801 9.60403L17.1531 9.45927L22.5909 3.99244L28.0295 9.45927C29.2444 10.761 29.9969 12.5257 29.9969 14.4352C29.9969 18.5138 26.6704 21.84 22.5909 21.84C20.6249 21.84 18.7448 22.1878 16.9801 22.7948C14.0296 23.8362 11.4262 25.6579 9.43019 28.0305V28.0304ZM28.0295 35.754L22.5909 41.1917L17.1531 35.754C17.0956 35.6959 17.0378 35.6375 16.9801 35.5804C15.8805 34.2784 15.1866 32.5721 15.1866 30.749C15.1866 28.8981 15.8804 27.2204 16.9801 25.9181C18.339 24.3563 20.3636 23.3441 22.5909 23.3441C27.8562 23.3441 32.5998 20.9431 35.7242 17.1536L41.1916 22.5923L35.7242 28.0303L28.0295 35.7539V35.754Z"
          fill="#343F97"/>
    <path fill-rule="evenodd" clip-rule="evenodd"
          d="M61.416 30.0937H52.7679V26.3335H61.416C62.4295 26.3335 63.2973 27.1722 63.2973 28.2136C63.2973 29.2549 62.4295 30.0938 61.416 30.0938V30.0937ZM131.25 19.9769H120.749V16.1977H131.025L131.024 13.8265L120.749 13.8262V10.2286H131.25V7.97242H120.749H116.989V22.2332H120.749H131.25V19.9768V19.9769ZM74.529 19.9769H64.0292V16.1977H74.3041L74.3038 13.8265L64.0292 13.8262V10.2286H74.529V7.97242H64.0292H60.269V22.2332H64.0292H74.529V19.9768V19.9769ZM104.949 17.4709H111.42V19.8553H100.006V10.344H111.42V12.7219H115.224V10.344C115.224 9.03638 114.155 7.96632 112.846 7.96632H98.5794C97.2718 7.96632 96.2014 9.03638 96.2014 10.344V19.8553C96.2014 21.1637 97.2718 22.2332 98.5794 22.2332H112.846C114.155 22.2332 115.224 21.1637 115.224 19.8553V17.4709V16.2151H115.223V15.1L104.949 15.0997V17.4709H104.949ZM58.4994 10.2262H52.1561V22.2309H48.3962V10.2362H41.9878L41.9875 7.91016L58.4995 7.97022V10.2262H58.4994ZM90.6913 18.4895L87.8852 15.6552L80.1916 7.95971H76.4311V22.2212H80.1916V11.7199L87.8852 19.415L90.6913 22.2212H94.4523V7.95971H90.6913V18.4896V18.4895ZM61.4161 36.111H52.768V32.3497H61.4161C62.4296 32.3497 63.2974 33.1883 63.2974 34.2302C63.2974 35.2424 62.4296 36.1111 61.4161 36.1111V36.111ZM67.0287 27.6349C67.0287 25.6969 65.4377 24.0769 63.4699 24.0769H49.0076V38.3378H63.4699C65.4378 38.3378 67.0287 36.7467 67.0287 34.7803C67.0287 32.8133 65.4377 31.222 63.4699 31.222C65.4378 31.222 67.0287 29.6019 67.0287 27.635V27.6349ZM74.5497 33.8543L77.5576 27.8371L80.5669 33.8543H74.5496H74.5497ZM75.6776 24.0769L68.5328 38.3378H72.2933L73.421 36.111H81.695L82.8225 38.3378H86.5833L79.4386 24.0769H75.6777H75.6776ZM102.348 34.6064L99.542 31.772L91.8481 24.077H88.088V38.3379H91.8481V27.8372L99.542 35.5319L102.348 38.3379H106.109V24.077H102.348V34.6065V34.6064ZM119.617 24.0769L111.373 30.0938V24.0769H107.613V38.3378H111.373V32.3497L119.617 38.3378H123.724L114.035 31.2219L123.724 24.0769H119.617Z"
          fill="#007F61"/>
  </g>
  <defs>
    <clipPath id="clip0_666_19866">
      <rect width="131.25" height="45.1832" fill="white"/>
    </clipPath>
  </defs>
</svg>
