<?xml version="1.0" encoding="UTF-8"?>
<!DOCTYPE svg PUBLIC "-//W3C//DTD SVG 1.1//EN" "http://www.w3.org/Graphics/SVG/1.1/DTD/svg11.dtd">
<!-- Creator: CorelDRAW 2017 -->
<svg xmlns="http://www.w3.org/2000/svg" xml:space="preserve" width="43.398mm" height="14.9399mm" version="1.1" style="shape-rendering:geometricPrecision; text-rendering:geometricPrecision; image-rendering:optimizeQuality; fill-rule:evenodd; clip-rule:evenodd"
viewBox="0 0 4339.8 1493.99"
 xmlns:xlink="http://www.w3.org/1999/xlink">
 <defs>
  <style type="text/css">
   .fil1 {fill:#007A5D}
   .fil0 {fill:#F9B101}
  </style>
 </defs>
 <g id="Слой_x0020_1">
  <metadata id="CorelCorpID_0Corel-Layer"/>
  <g id="_2942644492496">
   <g>
    <path class="fil0" d="M746.97 132l-614.98 615.01 614.98 614.99 615.04 -614.99 -615.04 -615.01zm496.44 365.35l0 -246.74 -246.79 0 -249.65 -250.61 -249.62 250.61 -247.72 0 0 246.74 -249.63 249.66 249.63 249.63 0 246.76 247.72 0 249.62 250.59 249.65 -250.59 246.79 0 0 -246.76 249.64 -249.63 -249.64 -249.66zm-62.18 517.47l0 167.38 -166.44 0 -62.16 61.2 -205.66 206.59 -205.63 -206.59 -62.16 -61.2 -167.37 0 0 -167.38 -62.18 -62.18 -205.63 -205.63 205.63 -205.65 62.18 -62.16 0 -166.44 167.37 0 267.79 -268.76 205.66 206.61 62.16 62.15 166.44 0 0 166.44 62.18 62.16 205.65 205.65 -205.65 205.63 -62.18 62.18z"/>
    <path class="fil1" d="M1181.23 479.2l0 -166.44 -166.44 0 -267.82 -268.76 -185.52 185.55 -82.27 83.21 -167.37 0 0 166.44 -267.81 267.81 267.81 267.81 0 167.38 167.37 0 82.27 82.25 185.52 185.54 267.82 -267.79 166.44 0 0 -167.38 267.83 -267.81 -267.83 -267.81zm-869.42 447.62l-179.82 -179.81 429.46 -429.46 5.72 -4.79 179.8 -180.76 179.83 180.76c40.17,43.04 65.05,101.39 65.05,164.53 0,134.86 -109.99,244.84 -244.88,244.84 -65,0 -127.17,11.5 -185.52,31.57 -97.56,34.43 -183.64,94.67 -249.64,173.12zm614.99 255.38l-179.83 179.8 -179.8 -179.8c-1.9,-1.92 -3.81,-3.85 -5.72,-5.74 -36.36,-43.05 -59.3,-99.47 -59.3,-159.75 0,-61.2 22.94,-116.67 59.3,-159.73 44.93,-51.64 111.88,-85.11 185.52,-85.11 174.1,0 330.95,-79.39 434.26,-204.69l180.78 179.83 -180.78 179.81 -254.43 255.38z"/>
   </g>
   <path class="fil0" d="M2030.73 995.07l-285.95 0 0 -124.33 285.95 0c33.51,0 62.2,27.73 62.2,62.16 0,34.43 -28.69,62.17 -62.2,62.17zm0 198.96l-285.95 0 0 -124.37 285.95 0c33.51,0 62.2,27.73 62.2,62.18 0,33.47 -28.69,62.19 -62.2,62.19zm185.58 -280.26c0,-64.08 -52.61,-117.65 -117.67,-117.65l-478.2 0 0 471.54 478.2 0c65.06,0 117.67,-52.61 117.67,-117.63 0,-65.04 -52.61,-117.66 -117.67,-117.66 65.06,0 117.67,-53.57 117.67,-118.6zm248.69 205.64l99.46 -198.96 99.5 198.96 -198.96 0zm37.29 -323.29l-236.24 471.54 124.34 0 37.29 -73.63 273.58 0 37.28 73.63 124.35 0 -236.24 -471.54 -124.36 0zm881.85 348.16l-92.77 -93.72 -254.4 -254.44 -124.33 0 0 471.54 124.33 0 0 -347.21 254.4 254.43 92.77 92.78 124.37 0 0 -471.54 -124.37 0 0 348.16zm571 -348.16l-272.59 198.95 0 -198.95 -124.32 0 0 471.54 124.32 0 0 -198 272.59 198 135.83 0 -320.39 -235.29 320.39 -236.25 -135.83 0z"/>
   <polygon class="fil0" points="2998.72,611.37 2905.94,517.65 2651.55,263.21 2527.21,263.21 2527.21,734.75 2651.55,734.75 2651.55,387.54 2905.94,641.97 2998.72,734.75 3123.08,734.75 3123.08,263.21 2998.72,263.21 "/>
   <polygon class="fil0" points="1934.29,338.15 1724.55,338.15 1724.55,735.07 1600.23,735.07 1600.23,338.48 1388.33,338.48 1388.32,261.57 1934.29,263.56 "/>
   <path class="fil0" d="M3470.14 577.69l213.98 0 0 78.84 -377.4 0 0 -314.49 377.4 0 0 78.62 125.77 0 0 -78.62c0,-43.24 -35.35,-78.62 -78.62,-78.62l-471.73 0c-43.24,0 -78.63,35.38 -78.63,78.62l0 314.49c0,43.26 35.39,78.62 78.63,78.62l471.73 0c43.27,0 78.62,-35.36 78.62,-78.62l0 -78.84 0 -41.53 -0.01 0 0 -36.87 -339.74 -0.01 0 78.41z"/>
   <polygon class="fil0" points="2464.32,660.55 2117.13,660.55 2117.13,535.59 2456.88,535.59 2456.87,457.19 2117.13,457.18 2117.13,338.23 2464.32,338.23 2464.32,263.63 2117.13,263.63 1992.8,263.63 1992.8,735.15 2117.13,735.15 2464.32,735.15 "/>
   <polygon class="fil0" points="4339.8,660.55 3992.6,660.55 3992.6,535.59 4332.36,535.59 4332.35,457.19 3992.6,457.18 3992.6,338.23 4339.8,338.23 4339.8,263.63 3992.6,263.63 3868.28,263.63 3868.28,735.15 3992.6,735.15 4339.8,735.15 "/>
  </g>
 </g>
</svg>
