<svg width="40" height="40" viewBox="0 0 40 40" fill="none" xmlns="http://www.w3.org/2000/svg">
<rect width="40" height="40" rx="20" fill="#32CD32"/>
<path d="M21.3 20.22C21.8336 19.7581 22.2616 19.1869 22.5549 18.545C22.8482 17.9032 23 17.2057 23 16.5C23 15.1739 22.4732 13.9021 21.5355 12.9645C20.5979 12.0268 19.3261 11.5 18 11.5C16.6739 11.5 15.4021 12.0268 14.4645 12.9645C13.5268 13.9021 13 15.1739 13 16.5C13 17.2057 13.1518 17.9032 13.4451 18.545C13.7384 19.1869 14.1664 19.7581 14.7 20.22C13.3001 20.8539 12.1125 21.8775 11.279 23.1685C10.4455 24.4596 10.0015 25.9633 10 27.5C10 27.7652 10.1054 28.0196 10.2929 28.2071C10.4804 28.3946 10.7348 28.5 11 28.5C11.2652 28.5 11.5196 28.3946 11.7071 28.2071C11.8946 28.0196 12 27.7652 12 27.5C12 25.9087 12.6321 24.3826 13.7574 23.2574C14.8826 22.1321 16.4087 21.5 18 21.5C19.5913 21.5 21.1174 22.1321 22.2426 23.2574C23.3679 24.3826 24 25.9087 24 27.5C24 27.7652 24.1054 28.0196 24.2929 28.2071C24.4804 28.3946 24.7348 28.5 25 28.5C25.2652 28.5 25.5196 28.3946 25.7071 28.2071C25.8946 28.0196 26 27.7652 26 27.5C25.9985 25.9633 25.5545 24.4596 24.721 23.1685C23.8875 21.8775 22.6999 20.8539 21.3 20.22ZM18 19.5C17.4067 19.5 16.8266 19.3241 16.3333 18.9944C15.8399 18.6648 15.4554 18.1962 15.2284 17.6481C15.0013 17.0999 14.9419 16.4967 15.0576 15.9147C15.1734 15.3328 15.4591 14.7982 15.8787 14.3787C16.2982 13.9591 16.8328 13.6734 17.4147 13.5576C17.9967 13.4419 18.5999 13.5013 19.1481 13.7284C19.6962 13.9554 20.1648 14.3399 20.4944 14.8333C20.8241 15.3266 21 15.9067 21 16.5C21 17.2956 20.6839 18.0587 20.1213 18.6213C19.5587 19.1839 18.7956 19.5 18 19.5ZM29.71 17.13C29.617 17.0363 29.5064 16.9619 29.3846 16.9111C29.2627 16.8603 29.132 16.8342 29 16.8342C28.868 16.8342 28.7373 16.8603 28.6154 16.9111C28.4936 16.9619 28.383 17.0363 28.29 17.13L26.29 19.13L25.67 18.5C25.577 18.4063 25.4664 18.3319 25.3446 18.2811C25.2227 18.2303 25.092 18.2042 24.96 18.2042C24.828 18.2042 24.6973 18.2303 24.5754 18.2811C24.4536 18.3319 24.343 18.4063 24.25 18.5C24.0637 18.6874 23.9592 18.9408 23.9592 19.205C23.9592 19.4692 24.0637 19.7226 24.25 19.91L25.59 21.25C25.7774 21.4363 26.0308 21.5408 26.295 21.5408C26.5592 21.5408 26.8126 21.4363 27 21.25L29.67 18.58C29.771 18.4893 29.8524 18.379 29.9094 18.2559C29.9664 18.1327 29.9977 17.9992 30.0014 17.8636C30.0052 17.7279 29.9813 17.5929 29.9312 17.4668C29.8811 17.3407 29.8058 17.2261 29.71 17.13Z" fill="white"/>
</svg>
